<?xml version="1.0" encoding="UTF-8"?>
<svg version="1.1" xmlns="http://www.w3.org/2000/svg" width="3000" height="3000">
<path d="M0 0 C5.03556812 1.55609687 8.47589425 4.60712861 12.4375 7.9375 C13.87022463 9.12344659 15.30383413 10.3083249 16.73828125 11.4921875 C17.81263428 12.38115723 17.81263428 12.38115723 18.90869141 13.28808594 C21.93841772 15.76817476 25.02984965 18.1650035 28.125 20.5625 C34.68159974 25.67187632 40.98370716 31.04793338 47.25878906 36.49707031 C48.97253755 37.97629573 50.69843278 39.4397591 52.4296875 40.8984375 C60.86906275 48.02358211 68.94971443 55.47779355 76.96337891 63.07666016 C78.98071988 64.98179228 81.00946831 66.87385493 83.04296875 68.76171875 C106.17584516 90.25446273 106.17584516 90.25446273 115.3984375 101.1796875 C117.34037422 103.38686436 119.40738124 105.43537614 121.5 107.5 C124.89268399 110.85256779 128.09100684 114.29475682 131.1953125 117.9140625 C133.21651276 120.25025501 135.29378839 122.52964851 137.375 124.8125 C141.24911881 129.10473618 144.92017548 133.52778674 148.5546875 138.0234375 C150.79672466 140.7525626 153.08434736 143.43059312 155.39770508 146.09887695 C161.11554818 152.6942961 166.53927825 159.44580284 171.79541016 166.41308594 C173.77679195 169.02333759 175.79991125 171.60127484 177.8125 174.1875 C204.37399766 208.60402646 228.21175188 245.57307505 248.44384766 284.04785156 C250.01422173 287.02697979 251.60552177 289.99423161 253.19921875 292.9609375 C292.746724 367.12296108 317.9946265 449.62200571 326 541 C326.08612549 542.29566895 326.17225098 543.59133789 326.26098633 544.92626953 C326.97191208 556.2040761 327.20189964 567.45134612 327.1875 578.75 C327.18689575 579.63774109 327.1862915 580.52548218 327.18566895 581.44012451 C327.02877392 667.12203032 302.28310707 748.08685057 277.9647789 829.41706848 C270.56419689 854.17174044 263.27162572 878.92982393 257 904 C256.8168927 904.72938782 256.6337854 905.45877563 256.44512939 906.21026611 C234.47109821 993.95013747 227.05309302 1083.60248806 277.04956055 1187.13745117 C286.48575482 1202.6222651 296.92890427 1217.46232255 309 1231 C310.11761719 1232.299375 310.11761719 1232.299375 311.2578125 1233.625 C344.56481732 1271.82658259 394.95534325 1293.08973436 444.92578125 1296.72265625 C501.82151525 1300.13356695 559.99996153 1282.93395313 603.27734375 1245.18359375 C606.25174946 1242.5247124 609.13133618 1239.7726416 612 1237 C613.40185547 1235.67548828 613.40185547 1235.67548828 614.83203125 1234.32421875 C621.66477088 1227.72082982 627.38985041 1220.63022212 633 1213 C633.85078125 1211.97712891 633.85078125 1211.97712891 634.71875 1210.93359375 C636.14190325 1209.06351231 636.14190325 1209.06351231 636.40234375 1206.75390625 C637.28620985 1202.68118989 639.45484141 1199.50036344 641.5625 1195.9375 C646.65074061 1187.04885677 650.62248623 1177.95310944 654.13916016 1168.34277344 C654.68723519 1166.85118864 655.24807535 1165.36418771 655.82568359 1163.88378906 C665.75283402 1138.41011188 657.5306733 1111.6940543 649 1087 C652.51351021 1088.35053136 655.84402307 1089.88221076 659.18359375 1091.6171875 C660.18197266 1092.13531006 661.18035156 1092.65343262 662.20898438 1093.18725586 C663.80709961 1094.02268921 663.80709961 1094.02268921 665.4375 1094.875 C666.55060547 1095.45580322 667.66371094 1096.03660645 668.81054688 1096.63500977 C678.66302984 1101.79300024 688.44937043 1107.06400555 698.18261719 1112.44335938 C700.09851716 1113.50191901 702.01589276 1114.55781133 703.93457031 1115.61132812 C719.81708791 1124.33821259 735.33693208 1133.56849161 750.78222656 1143.03710938 C754.57374086 1145.34999063 758.38558286 1147.62699411 762.20288086 1149.89697266 C771.95940147 1155.70084175 781.52891994 1161.74225276 791 1168 C791.89170898 1168.58765137 792.78341797 1169.17530273 793.70214844 1169.78076172 C821.35970461 1188.03025315 848.4058892 1207.03715523 874.68359375 1227.22265625 C876.67066537 1228.74730648 878.66184082 1230.26622262 880.65625 1231.78125 C888.63059674 1237.86070246 896.41693246 1244.15571003 904.17529297 1250.50732422 C905.78223696 1251.82186202 907.39279191 1253.13198302 909.00390625 1254.44140625 C914.44775611 1258.87097258 919.82561444 1263.37163985 925.16918945 1267.92114258 C928.52797366 1270.77533936 931.93232217 1273.5593793 935.375 1276.3125 C941.36455756 1281.17956361 946.93265253 1286.46910384 952.54296875 1291.76171875 C955.72724029 1294.76084826 958.99605836 1297.64423984 962.3125 1300.49609375 C964.69316601 1302.61775212 966.90439923 1304.89259086 969.13624573 1307.16868591 C970.89019472 1308.89210597 972.69652412 1310.48702059 974.57006836 1312.07836914 C979.73489182 1316.57205192 984.54516579 1321.40173021 989.37890625 1326.24609375 C990.35946881 1327.22598053 991.34017959 1328.20571901 992.32102966 1329.18531799 C994.36400213 1331.2268264 996.40518169 1333.27010566 998.44506836 1335.31469727 C1001.03919866 1337.91452404 1003.63779434 1340.50983373 1006.2377634 1343.10381985 C1008.26007825 1345.12249396 1010.2799719 1347.14357733 1012.29917717 1349.1653614 C1013.71516246 1350.58232324 1015.13313515 1351.99729817 1016.55116272 1353.41221619 C1021.03175045 1357.90895278 1025.39166236 1362.449641 1029.51539612 1367.27728271 C1032.04174192 1370.20882535 1034.71989003 1372.99807531 1037.375 1375.8125 C1042.08153274 1380.83688701 1046.52858064 1385.98983391 1050.83203125 1391.3671875 C1053.09032463 1394.10969154 1055.45781334 1396.7093759 1057.875 1399.3125 C1062.14154 1403.94889486 1066.05119842 1408.77229823 1069.90283203 1413.75073242 C1072.76932445 1417.45207193 1075.71317418 1421.06024916 1078.75 1424.625 C1085.19734428 1432.30672507 1091.12854469 1440.37524291 1097.09619141 1448.43164062 C1098.89591801 1450.85958675 1100.70295646 1453.28190691 1102.51171875 1455.703125 C1116.8311902 1474.92886954 1130.37792483 1494.6186702 1143 1515 C1143.99966797 1516.61068359 1143.99966797 1516.61068359 1145.01953125 1518.25390625 C1187.63990244 1587.05140635 1220.93921775 1660.4043822 1273 1906 C1273.06670898 1906.83047852 1273.13341797 1907.66095703 1273.20214844 1908.51660156 C1274.02217798 1919.03141822 1274.23889905 1929.58564223 1274.5625 1940.125 C1274.5961264 1941.20803909 1274.5961264 1941.20803909 1274.63043213 1942.31295776 C1277.09867892 2023.33529031 1267.22054803 2105.15559114 1206 2287 C1205.57817444 2287.93646362 1205.57817444 2287.93646362 1205.14782715 2288.8918457 C1192.98962797 2315.82838041 1179.69846618 2342.03185675 1164.53564453 2367.41650391 C1163.16048214 2369.7300124 1161.80643398 2372.05363562 1160.46484375 2374.38671875 C1137.0159193 2415.08035284 1109.12907646 2454.40290246 1078.51953125 2490.046875 C1076.09183864 2492.89235657 1073.7268294 2495.77919283 1071.375 2498.6875 C1067.74931653 2503.14191113 1063.97570347 2507.42948601 1060.109375 2511.67578125 C1058.25373343 2513.72042335 1056.43243624 2515.78784149 1054.625 2517.875 C1050.84322385 2522.2131754 1046.95433908 2526.45106503 1043.05224609 2530.68066406 C1041.20340784 2532.68707718 1039.36598635 2534.7017574 1037.53686523 2536.72631836 C1028.66403614 2546.48618073 1019.35331168 2555.79865182 1010.01708984 2565.11328125 C1007.23809327 2567.88688362 1004.46452717 2570.66583681 1001.69140625 2573.4453125 C999.90396663 2575.23209181 998.1162171 2577.01856115 996.328125 2578.8046875 C995.51023499 2579.62460175 994.69234497 2580.44451599 993.84967041 2581.28927612 C989.6109098 2585.51094011 985.30405403 2589.58650535 980.75965881 2593.47845459 C977.81911816 2596.02108734 975.01465329 2598.70788195 972.1875 2601.375 C967.1665666 2606.07829762 962.01660138 2610.5218434 956.64453125 2614.82421875 C953.84160752 2617.130317 951.16996725 2619.54151531 948.5 2622 C943.17368912 2626.89506128 937.63059305 2631.4617902 932 2636 C930.22848705 2637.4575077 928.45765983 2638.91584922 926.6875 2640.375 C882.88822207 2676.19944497 836.31989504 2708.5906398 788 2738 C787.04287109 2738.58539551 787.04287109 2738.58539551 786.06640625 2739.18261719 C767.00486876 2750.83017593 747.55968695 2761.86464836 727.88623047 2772.44140625 C724.8658375 2774.07244911 721.85652948 2775.72281249 718.84765625 2777.375 C686.72591637 2794.91885479 653.62117192 2810.55807006 620 2825 C619.27697693 2825.31112732 618.55395386 2825.62225464 617.809021 2825.94281006 C548.93966754 2855.54433086 477.99447735 2879.12223578 405.3125 2897.375 C404.64255508 2897.54365067 403.97261017 2897.71230133 403.28236389 2897.88606262 C398.83293332 2899.00566863 394.38035906 2900.11194608 389.92578125 2901.2109375 C388.79165298 2901.49454132 387.65752472 2901.77814514 386.48902893 2902.07034302 C384.91725136 2902.45390457 384.91725136 2902.45390457 383.3137207 2902.84521484 C381.94870171 2903.18158463 381.94870171 2903.18158463 380.55610657 2903.52474976 C377.97646522 2904.00437576 375.61732725 2904.08713678 373 2904 C375.06873274 2901.93126726 376.30974888 2901.33925654 378.98828125 2900.29296875 C379.82447998 2899.96071289 380.66067871 2899.62845703 381.5222168 2899.28613281 C382.44301025 2898.92358398 383.36380371 2898.56103516 384.3125 2898.1875 C414.48557876 2886.05706448 444.16126878 2872.25910467 472.53759766 2856.37158203 C474.83240712 2855.09335086 477.13749994 2853.83716659 479.44921875 2852.58984375 C500.3423017 2841.26526265 520.40635688 2828.43076595 540 2815 C540.72944824 2814.50081055 541.45889648 2814.00162109 542.21044922 2813.48730469 C569.44221989 2794.76663317 595.30896253 2773.97507692 619.46044922 2751.42626953 C621.84581745 2749.2164184 624.27172989 2747.05151915 626.6875 2744.875 C632.0269008 2739.98410887 637.18407051 2734.92372174 642.3125 2729.8125 C643.0655542 2729.06403809 643.8186084 2728.31557617 644.59448242 2727.54443359 C648.70444704 2723.42309915 652.64459947 2719.21193569 656.44311523 2714.80200195 C658.53443573 2712.38142228 660.70448633 2710.03706278 662.875 2707.6875 C667.79577302 2702.2850248 672.4270049 2696.69762419 677 2691 C677.92389449 2689.86801214 678.8484029 2688.73652513 679.7734375 2687.60546875 C697.80178184 2665.45961359 713.66895393 2641.68181592 728 2617 C728.41668945 2616.28908203 728.83337891 2615.57816406 729.26269531 2614.84570312 C771.85134176 2541.86596303 792.77146364 2457.11444969 792.25 2346.4375 C792.20709839 2345.64485748 792.16419678 2344.85221497 792.11999512 2344.03555298 C786.94853986 2251.19314229 755.20906745 2161.46492313 646.453125 1998.7734375 C645.12843071 1997.1567407 643.8136704 1995.53191712 642.5 1993.90625 C638.18143179 1988.56801985 633.72863657 1983.39704411 629.10546875 1978.3203125 C627.27082315 1976.29845816 625.47231214 1974.25321478 623.6875 1972.1875 C619.13354845 1966.96660818 614.41390236 1961.89816161 609.69628906 1956.82568359 C608.55596547 1955.59837504 607.41731878 1954.36950649 606.28027344 1953.13916016 C598.84790276 1945.09740944 591.29269543 1937.19406471 583.5625 1929.4375 C582.82950684 1928.69991455 582.09651367 1927.9623291 581.34130859 1927.20239258 C577.26697889 1923.13962979 573.08813203 1919.26837294 568.73022461 1915.51196289 C566.72533353 1913.75998173 564.84905277 1911.91509037 563 1910 C559.8288397 1906.78565269 556.54417247 1903.78249037 553.12109375 1900.83984375 C550.77508942 1898.80491181 548.4826355 1896.71709033 546.1875 1894.625 C541.92175991 1890.77416472 537.52206078 1887.13266176 533.0546875 1883.51953125 C529.45959879 1880.55427266 525.94782901 1877.50212865 522.4375 1874.4375 C516.73811302 1869.4716834 510.9567013 1864.65623063 505 1860 C503.98035156 1859.195625 502.96070313 1858.39125 501.91015625 1857.5625 C498.93922655 1855.2191521 495.96173558 1852.88429825 492.98193359 1850.55224609 C491.62719438 1849.49121728 490.27339562 1848.42898688 488.92041016 1847.36572266 C472.65044682 1834.58244386 456.03062226 1822.33315919 439.08398438 1810.46337891 C436.99431343 1808.99600688 434.91035153 1807.52088211 432.828125 1806.04296875 C402.67775668 1784.65136665 371.7690196 1764.35303733 340.52587891 1744.59814453 C338.12315952 1743.07792405 335.72330246 1741.55329328 333.32421875 1740.02734375 C314.77903602 1728.24853961 296.02039441 1716.81388602 277.23196411 1705.42861938 C268.80055372 1700.31909246 260.39119166 1695.17544002 252 1690 C243.06134554 1684.48816911 234.10365927 1679.00883522 225.125 1673.5625 C224.54628143 1673.21143188 223.96756287 1672.86036377 223.37130737 1672.49865723 C218.0414927 1669.26592673 212.71004477 1666.03589298 207.37841797 1662.80615234 C192.20464283 1653.61363563 177.05817947 1644.38118754 162 1635 C161.05205566 1634.41009277 160.10411133 1633.82018555 159.12744141 1633.21240234 C135.90160217 1618.75375664 112.83762474 1604.0652488 90 1589 C89.33133911 1588.55901978 88.66267822 1588.11803955 87.97375488 1587.66369629 C83.6322712 1584.79915772 79.29501337 1581.92833757 74.96182251 1579.05126953 C73.55810718 1578.11977768 72.15365864 1577.18938952 70.74838257 1576.26025391 C60.95337974 1569.78033918 51.41550896 1563.01906439 42 1556 C41.19135498 1555.4013916 40.38270996 1554.8027832 39.54956055 1554.18603516 C16.72622553 1537.27312554 -5.19320136 1519.3479962 -26 1500 C-26.61439941 1499.43071777 -27.22879883 1498.86143555 -27.86181641 1498.27490234 C-29.84717108 1496.43518955 -31.83025723 1494.59306506 -33.8125 1492.75 C-34.42287109 1492.1835376 -35.03324219 1491.6170752 -35.66210938 1491.03344727 C-41.713832 1485.38917877 -47.52592696 1479.62900733 -52.92578125 1473.35546875 C-55.01409295 1470.98399614 -57.15461064 1468.67159127 -59.31152344 1466.36279297 C-65.14619275 1460.11084094 -70.71161923 1453.72675143 -76 1447 C-76.48049805 1446.3920459 -76.96099609 1445.7840918 -77.45605469 1445.15771484 C-85.87501218 1434.47009746 -93.70287333 1423.48345427 -101 1412 C-101.42345703 1411.33629395 -101.84691406 1410.67258789 -102.28320312 1409.98876953 C-128.74068732 1368.04883519 -145.58317111 1316.96659515 -135.046875 1267.21875 C-134.11433636 1263.12292833 -133.06982016 1259.06197344 -132 1255 C-131.32736386 1252.33479446 -130.66388718 1249.66740384 -130 1247 C-137.81461936 1253.98892373 -145.36668044 1261.23669155 -152.80316162 1268.62591553 C-154.21338639 1270.02614587 -155.62836138 1271.42158697 -157.04345703 1272.81689453 C-163.13539839 1278.90009409 -168.62962363 1285.27798286 -174 1292 C-174.94745212 1293.12440406 -175.90067101 1294.24401406 -176.86328125 1295.35546875 C-238.29585412 1366.38994296 -275.71286341 1461.50893892 -269.53295898 1555.84790039 C-263.80563952 1627.99436652 -230.9294899 1693.59544997 -190 1752 C-189.40413086 1752.85239258 -188.80826172 1753.70478516 -188.19433594 1754.58300781 C-181.52221168 1764.08781821 -174.51740069 1773.23682098 -167.125 1782.19140625 C-164.14234968 1785.8067678 -161.25104728 1789.48715059 -158.375 1793.1875 C-153.53504671 1799.39169436 -148.49716095 1805.40644563 -143.37939453 1811.38232422 C-141.98282977 1813.02013627 -140.59729267 1814.66666774 -139.21484375 1816.31640625 C-134.02377168 1822.5056213 -128.73188289 1828.56295203 -123.26953125 1834.515625 C-121.29677727 1836.67512849 -119.35720821 1838.85593884 -117.4375 1841.0625 C-111.65516065 1847.70747273 -105.72586213 1854.21654464 -99.75 1860.6875 C-97.82664689 1862.7856418 -95.91114819 1864.89073736 -94 1867 C-93.48920898 1867.56315918 -92.97841797 1868.12631836 -92.45214844 1868.70654297 C-79.62535704 1882.93614119 -68.2921184 1898.23042375 -59 1915 C-58.5373877 1915.83096191 -58.07477539 1916.66192383 -57.59814453 1917.51806641 C-28.53179485 1970.21205731 -15.08333548 2033.98522733 -31.83691406 2092.9453125 C-45.2351298 2137.38817447 -72.64271006 2175.3656236 -113.92578125 2197.89208984 C-136.59685104 2210.00147246 -160.70993259 2218.345513 -186 2223 C-186.6904541 2223.12987305 -187.3809082 2223.25974609 -188.09228516 2223.39355469 C-237.84985017 2232.25092228 -292.6986881 2218.35768256 -334 2190 C-350.57461757 2178.42440182 -365.57484481 2164.96642676 -378 2149 C-378.42007324 2148.46697266 -378.84014648 2147.93394531 -379.27294922 2147.38476562 C-399.85392924 2121.10338069 -412.31090795 2090.96561514 -417 2058 C-417.09571289 2057.3613501 -417.19142578 2056.7227002 -417.29003906 2056.06469727 C-422.41600058 2017.22038137 -414.52377527 1975.79822471 -404.33447266 1938.36767578 C-403.85304203 1936.58795104 -403.41983972 1934.79525213 -403 1933 C-403.33 1932.67 -403.66 1932.34 -404 1932 C-414.00281871 1938.93900136 -423.79775389 1946.03298177 -433.29833984 1953.64550781 C-435.01804153 1955.01436075 -436.75051913 1956.36510444 -438.48828125 1957.7109375 C-445.13336813 1962.86383649 -451.61444605 1968.15909408 -457.9675293 1973.66870117 C-461.3587782 1976.60784687 -464.79811436 1979.45760295 -468.3125 1982.25 C-474.08517824 1986.92638327 -479.44059169 1992.02474552 -484.81176758 1997.15332031 C-485.49650146 1997.80655273 -486.18123535 1998.45978516 -486.88671875 1999.1328125 C-487.48701904 1999.70918457 -488.08731934 2000.28555664 -488.70581055 2000.87939453 C-490.6960672 2002.7190635 -492.7217488 2004.49411499 -494.77246094 2006.26538086 C-498.93227963 2009.89287197 -502.85827488 2013.71348874 -506.75390625 2017.62109375 C-507.45845444 2018.32468521 -508.16300262 2019.02827667 -508.88890076 2019.75318909 C-510.36653367 2021.23014648 -511.84292457 2022.70834742 -513.31811523 2024.18774414 C-515.55666481 2026.43165085 -517.80050473 2028.67016704 -520.04492188 2030.90820312 C-521.48990404 2032.35384618 -522.93457592 2033.79979945 -524.37890625 2035.24609375 C-525.03951553 2035.9046788 -525.70012482 2036.56326385 -526.38075256 2037.24180603 C-530.23895229 2041.11917807 -533.91728008 2045.10439168 -537.48719788 2049.24908447 C-539.56379182 2051.65253204 -541.71982263 2053.97953864 -543.875 2056.3125 C-547.94294714 2060.77253843 -551.79778936 2065.35631295 -555.5859375 2070.0546875 C-557.82996907 2072.79255126 -560.12447978 2075.47363418 -562.4453125 2078.14599609 C-567.80919054 2084.32692214 -572.89008927 2090.62640443 -577.71289062 2097.24462891 C-579.17562752 2099.23952235 -580.65746851 2101.21946177 -582.140625 2103.19921875 C-639.0027686 2179.3370776 -680.3161948 2265.86130644 -700 2390 C-700.11859375 2391.06976074 -700.2371875 2392.13952148 -700.359375 2393.24169922 C-709.92790485 2484.4987049 -686.89198129 2574.14105476 -597.25195312 2719.40087891 C-595.95602716 2721.05616656 -594.67260831 2722.72061525 -593.390625 2724.38671875 C-583.40556132 2737.30877968 -572.61451582 2749.47941403 -561.47509766 2761.41162109 C-559.9985417 2763.00157029 -558.53464779 2764.60226599 -557.07421875 2766.20703125 C-547.89031538 2776.28235381 -538.52901592 2786.35525576 -528.109375 2795.171875 C-525.81371963 2797.16144299 -523.59713796 2799.22216871 -521.37792969 2801.29614258 C-515.12122227 2807.13989285 -508.68043725 2812.64164142 -502 2818 C-500.80726658 2818.9827665 -499.61594599 2819.96724931 -498.42578125 2820.953125 C-458.38467224 2854.02152316 -413.43707622 2881.86388229 -366 2903 C-369.1545081 2904.0515027 -369.91696273 2903.99243383 -373.00097656 2903.23413086 C-373.81194794 2903.03840485 -374.62291931 2902.84267883 -375.45846558 2902.64102173 C-376.78613449 2902.30631363 -376.78613449 2902.30631363 -378.140625 2901.96484375 C-379.07319122 2901.73558197 -380.00575745 2901.50632019 -380.96658325 2901.27011108 C-384.06389944 2900.50350156 -387.15719362 2899.72209627 -390.25 2898.9375 C-391.31986145 2898.66779388 -392.3897229 2898.39808777 -393.49200439 2898.12020874 C-473.80459429 2877.81161174 -551.50505254 2849.18097663 -626 2813 C-627.13083008 2812.45118164 -628.26166016 2811.90236328 -629.42675781 2811.33691406 C-643.8458942 2804.30350727 -658.00435228 2796.84049375 -672 2789 C-673.07765625 2788.39671875 -674.1553125 2787.7934375 -675.265625 2787.171875 C-699.426772 2773.60191572 -722.92711928 2759.16072234 -746 2743.8125 C-747.21860214 2743.00332123 -747.21860214 2743.00332123 -748.46182251 2742.17779541 C-759.53027714 2734.8167623 -770.39430191 2727.21537817 -781.12487793 2719.37020874 C-783.52816883 2717.61405097 -785.94026742 2715.87014437 -788.3515625 2714.125 C-797.91314229 2707.15218707 -807.19734549 2699.91832449 -816.31933594 2692.38085938 C-818.5868871 2690.51780455 -820.88581347 2688.69562664 -823.1875 2686.875 C-828.64701567 2682.51832472 -833.96670611 2677.99969905 -839.27929688 2673.46630859 C-841.01105917 2671.99057585 -842.74742194 2670.5203988 -844.484375 2669.05078125 C-851.34129387 2663.23255826 -858.04658049 2657.28376495 -864.61865234 2651.14575195 C-867.17171807 2648.76424126 -869.74669642 2646.40825664 -872.32919312 2644.05865479 C-880.34141285 2636.74126649 -888.03491135 2629.11792933 -895.6953125 2621.43505859 C-897.88948502 2619.23547928 -900.08901723 2617.04135993 -902.2890625 2614.84765625 C-903.71125856 2613.4248 -905.13314471 2612.00163391 -906.5546875 2610.578125 C-907.19961151 2609.93522522 -907.84453552 2609.29232544 -908.50900269 2608.62994385 C-912.30099022 2604.8186211 -915.91114096 2600.89766214 -919.41693115 2596.82118225 C-921.98628135 2593.86536957 -924.68809033 2591.03599429 -927.375 2588.1875 C-932.02315533 2583.22026907 -936.44478536 2578.14423967 -940.69921875 2572.83203125 C-943.35910377 2569.55797922 -946.11271379 2566.3750231 -948.875 2563.1875 C-954.81477614 2556.29653744 -960.45044526 2549.20705829 -966 2542 C-966.59828613 2541.22769043 -967.19657227 2540.45538086 -967.81298828 2539.65966797 C-977.59051728 2527.02882234 -986.99275857 2514.19143601 -996 2501 C-996.66757324 2500.02353516 -996.66757324 2500.02353516 -997.34863281 2499.02734375 C-1000.28342266 2494.71780044 -1003.15666902 2490.3703429 -1006 2486 C-1006.51498047 2485.20964355 -1007.02996094 2484.41928711 -1007.56054688 2483.60498047 C-1021.38632767 2462.31376202 -1034.06123112 2440.39926154 -1046 2418 C-1046.54624023 2416.98131836 -1047.09248047 2415.96263672 -1047.65527344 2414.91308594 C-1089.45428639 2336.72771031 -1116.74522186 2250.67144594 -1143 2068 C-1143.06670898 2067.1140918 -1143.13341797 2066.22818359 -1143.20214844 2065.31542969 C-1144.90301315 2042.01660236 -1145.40957611 2018.35379098 -1145 1995 C-1144.98211426 1993.8332373 -1144.96422852 1992.66647461 -1144.94580078 1991.46435547 C-1143.35495891 1897.83692452 -1129.00438676 1804.12965729 -1095.74029541 1692.35375977 C-1095.00593884 1690.01888246 -1094.27663042 1687.68247881 -1093.54833984 1685.34570312 C-1068.9194394 1606.49748462 -1036.23507475 1528.96868143 -993.41064453 1451.54785156 C-991.95225807 1448.91377037 -990.51799758 1446.26777243 -989.08984375 1443.6171875 C-981.69274856 1429.89876043 -973.94006739 1416.41081298 -966 1403 C-965.48969238 1402.13665039 -964.97938477 1401.27330078 -964.45361328 1400.38378906 C-941.03316585 1360.83234437 -915.68550124 1322.41995932 -889 1285 C-888.49533203 1284.29053223 -887.99066406 1283.58106445 -887.47070312 1282.85009766 C-879.12623648 1271.13575026 -870.47319127 1259.67567894 -861.72558594 1248.26025391 C-859.58749371 1245.45967979 -857.47841203 1242.63920427 -855.375 1239.8125 C-849.91906306 1232.51362253 -844.30015349 1225.34095108 -838.68847656 1218.16162109 C-837.17231092 1216.22059584 -835.65978725 1214.27680647 -834.1484375 1212.33203125 C-827.44539734 1203.72800107 -820.53002243 1195.30752032 -813.57470703 1186.90673828 C-811.47508831 1184.36440925 -809.39353488 1181.80755092 -807.3125 1179.25 C-803.62244299 1174.73156284 -799.86079982 1170.2777226 -796.08300781 1165.83276367 C-793.20396139 1162.43988883 -790.36770164 1159.0170069 -787.5625 1155.5625 C-782.68066605 1149.57076419 -777.65449992 1143.70881818 -772.60449219 1137.85888672 C-770.96624849 1135.96089714 -769.330794 1134.06052614 -767.6953125 1132.16015625 C-761.9494448 1125.49545596 -756.14297837 1118.9033846 -750.19921875 1112.4140625 C-747.68154574 1109.65043564 -745.22265414 1106.84033532 -742.76953125 1104.01953125 C-739.22420775 1099.97332319 -735.60412756 1095.99376297 -732 1092 C-731.278125 1091.195625 -730.55625 1090.39125 -729.8125 1089.5625 C-724.38078025 1083.51001228 -718.89618415 1077.50739339 -713.39404297 1071.51904297 C-712.04322497 1070.04710084 -710.69539027 1068.57242264 -709.34765625 1067.09765625 C-704.17365339 1061.43740349 -698.9744912 1055.80120433 -693.75 1050.1875 C-693.18369873 1049.57737061 -692.61739746 1048.96724121 -692.03393555 1048.33862305 C-689.24761013 1045.35080799 -686.42680451 1042.41733565 -683.515625 1039.55078125 C-681.11383465 1037.17056585 -678.85739196 1034.72286338 -676.65625 1032.15625 C-671.76088306 1026.48505481 -666.36328709 1021.31805348 -661.02734375 1016.06640625 C-660.22425781 1015.27105469 -659.42117188 1014.47570313 -658.59375 1013.65625 C-657.87896484 1012.95306641 -657.16417969 1012.24988281 -656.42773438 1011.52539062 C-654.54717887 1009.56918928 -652.78923711 1007.59677438 -651.03100586 1005.53540039 C-645.63172517 999.32297557 -639.73252442 993.58876781 -633.91015625 987.77734375 C-632.63880593 986.50531833 -631.36760396 985.23314461 -630.09654236 983.96083069 C-627.44301665 981.30583772 -624.78770906 978.65264357 -622.13110352 976.00073242 C-618.74433465 972.61966022 -615.36207607 969.23411742 -611.98114872 965.84720516 C-609.36026982 963.22269432 -606.73699108 960.60059256 -604.11300468 957.97918892 C-602.86567456 956.73252079 -601.61907269 955.48512352 -600.37324715 954.23695183 C-594.62638537 948.48164151 -588.90562815 942.7736848 -582.71409607 937.49171448 C-579.87015563 935.01673819 -577.23731084 932.34165926 -574.59375 929.65625 C-574.02474976 929.08346313 -573.45574951 928.51067627 -572.86950684 927.92053223 C-571.07717018 926.11614749 -569.28815684 924.3085264 -567.5 922.5 C-553.84092649 908.68533086 -553.84092649 908.68533086 -547.61914062 903.39648438 C-545.28709807 901.38513283 -543.14738523 899.20542267 -541 897 C-538.10408042 894.06881809 -535.19757429 891.23596826 -532.0625 888.5625 C-528.19540184 885.25788884 -524.64222155 881.67154696 -521.07324219 878.05371094 C-517.80651487 874.75974197 -514.42114792 871.68525658 -510.89453125 868.67578125 C-508.21538454 866.30597931 -505.73358347 863.75978288 -503.25 861.1875 C-501.29801266 859.28973453 -499.30483681 857.50268548 -497.25 855.71875 C-493.06455629 852.08361463 -489.02414745 848.31193655 -485 844.5 C-480.37089098 840.11500415 -475.69012561 835.81899088 -470.875 831.63867188 C-468.2054458 829.30559274 -465.6041206 826.90598099 -463 824.5 C-459.04501384 820.85734744 -455.05435984 817.26498426 -450.9921875 813.7421875 C-448.63979365 811.68499601 -446.31965034 809.59403085 -444 807.5 C-440.37567842 804.22927077 -436.72116822 800.9983078 -433.0390625 797.79296875 C-430.79710187 795.82158957 -428.58614197 793.81837309 -426.375 791.8125 C-422.37269974 788.19633284 -418.29731703 784.67974469 -414.1875 781.1875 C-409.45854542 777.16734239 -404.8451098 773.05259599 -400.3125 768.8125 C-396.50004434 765.2466722 -392.6396494 761.82898811 -388.5625 758.5625 C-382.85422221 753.98085598 -377.55703962 749.01197564 -372.22265625 744.0078125 C-369.17862987 741.15453222 -366.07033123 738.38811991 -362.91015625 735.6640625 C-360.63795489 733.68459874 -358.41540128 731.6541683 -356.1875 729.625 C-352.81059018 726.57141133 -349.36782868 723.65570795 -345.8125 720.8125 C-339.74392602 715.90764404 -334.11293336 710.57244999 -328.4375 705.22265625 C-325.35960942 702.32430929 -322.21519825 699.52046357 -319.01171875 696.76171875 C-315.81120646 693.95894003 -312.69235428 691.06702469 -309.56176758 688.18676758 C-306.39166422 685.27166704 -303.2057954 682.37593864 -300 679.5 C-295.79084874 675.72255656 -291.61822769 671.90648664 -287.4543457 668.0793457 C-284.38432558 665.26037977 -281.29493079 662.46512056 -278.1875 659.6875 C-272.04234805 654.16860558 -266.02091662 648.51916905 -259.99755859 642.86816406 C-258.07384233 641.06905909 -256.14162677 639.27958011 -254.20703125 637.4921875 C-243.59272535 627.64258956 -233.35997759 617.43155293 -223.17675781 607.13989258 C-222.3231366 606.27987389 -222.3231366 606.27987389 -221.45227051 605.40248108 C-220.38224556 604.32424019 -219.31430601 603.24392398 -218.24890137 602.16111755 C-215.31548087 599.20803028 -212.24779161 596.59524244 -209 594 C-207.92365955 592.84383525 -206.8802877 591.6559508 -205.875 590.4375 C-200.777247 584.47908741 -195.12226272 579.06424159 -189.54296875 573.56347656 C-184.3196611 568.40704414 -179.19582804 563.22550968 -174.421875 557.64453125 C-172.70720973 555.6613607 -170.88552987 553.8205116 -169 552 C-165.82910002 548.87154036 -162.8743004 545.63144648 -159.97265625 542.25390625 C-158.0351462 540.04015714 -156.0485561 537.87757752 -154.04760742 535.72119141 C-149.21493915 530.51116531 -144.62879735 525.17626231 -140.171875 519.63671875 C-138.06243651 517.07579972 -135.87112352 514.62876545 -133.625 512.1875 C-129.64316413 507.81299174 -125.98257917 503.25470925 -122.36108398 498.58349609 C-119.39954516 494.76685432 -116.38040171 491.00788283 -113.30761719 487.28027344 C-106.11115188 478.5395395 -99.35400937 469.51967809 -92.70996094 460.35400391 C-91.07859281 458.10819416 -89.43558578 455.87143081 -87.7890625 453.63671875 C-30.52500257 375.59113299 18.63276864 284.3192995 34 94 C29.03147739 63.65038149 18.95304706 34.75650873 4.02392578 7.87353516 C2.60923808 5.28500072 1.29733278 2.64889491 0 0 Z M663 1142 C664 1144 664 1144 664 1144 Z M662 1146 C663 1148 663 1148 663 1148 Z " fill="#EE4222" transform="translate(1435,48)"/>
</svg>
