<?xml version="1.0" encoding="UTF-8"?>
<svg version="1.1" xmlns="http://www.w3.org/2000/svg" width="200" height="200">
<path d="M0 0 C37.95 0 75.9 0 115 0 C115.94133492 3.76533967 115.99428511 5.8396529 115.6262207 9.61499023 C115.51879547 10.75229584 115.41137024 11.88960144 115.3006897 13.06137085 C115.17696991 14.29795441 115.05325012 15.53453796 114.92578125 16.80859375 C114.73593771 18.79226659 114.54609611 20.77593961 114.3563385 22.75962067 C114.15315038 24.87012548 113.94663412 26.98028037 113.73910522 29.09036255 C113.31088068 33.44496079 112.89129597 37.80036001 112.47387695 42.15600586 C112.36991183 43.24061836 112.36991183 43.24061836 112.2638464 44.34714222 C112.12369553 45.8093998 111.98357247 47.27166005 111.84347725 48.73392296 C111.63237621 50.93423496 111.4203899 53.13446025 111.20823669 55.33467102 C109.87522212 69.17988953 108.64084446 83.03328874 107.44302368 96.89083862 C107.28854237 98.67748062 107.13338165 100.46406405 106.97744751 102.25057983 C106.83987673 103.82702921 106.70386831 105.40361625 106.56991577 106.9803772 C106.18791702 111.35038477 105.65748285 115.6651549 105 120 C103.49612895 120.44022443 101.99221241 120.88029346 100.48828125 121.3203125 C99.51262207 121.60583984 98.53696289 121.89136719 97.53173828 122.18554688 C95.36807909 122.81695599 93.20367654 123.44582289 91.03857422 124.07226562 C85.70510389 125.61639068 80.38239607 127.18142606 75.08203125 128.8359375 C74.16059326 129.11679199 73.23915527 129.39764648 72.28979492 129.68701172 C70.56538405 130.21310317 68.8450779 130.75292708 67.13012695 131.30908203 C57.94005151 134.07030531 49.58592156 132.16742387 40.5625 129.53125 C39.71574707 129.29088013 38.86899414 129.05051025 37.99658203 128.80285645 C35.32871411 128.04316268 32.6644578 127.27155741 30 126.5 C28.18380336 125.98233696 26.36739859 125.46540352 24.55078125 124.94921875 C22.82533411 124.45638241 21.10006685 123.96291581 19.375 123.46875 C18.15792358 123.12028015 18.15792358 123.12028015 16.91625977 122.76477051 C11.23740975 121.11870487 11.23740975 121.11870487 9 120 C8.553393 117.39429252 8.23757067 114.87099229 7.99438477 112.24389648 C7.91283174 111.43940536 7.83127871 110.63491423 7.74725437 109.80604458 C7.48725606 107.20496243 7.24209298 104.60280565 7 102 C6.88182985 100.75640654 6.88182985 100.75640654 6.76127243 99.48768997 C6.26850187 94.2904797 5.79822494 89.09145782 5.33753777 83.89131355 C5.08294399 81.01983623 4.82558105 78.14861826 4.56752014 75.27745056 C3.83567092 67.13037882 3.10816609 58.98292275 2.38354492 50.83520508 C1.93689081 45.81511247 1.48675565 40.7953419 1.03445625 35.77575493 C0.86364813 33.87204534 0.69420854 31.96821245 0.52616692 30.06425667 C0.29276093 27.42021936 0.05496284 24.77661136 -0.18383789 22.13305664 C-0.25190643 21.34925629 -0.31997498 20.56545593 -0.3901062 19.75790405 C-0.67304252 16.66803674 -1.01476182 13.95571453 -2 11 C-2.06740865 9.43881572 -2.08514456 7.8749748 -2.0625 6.3125 C-2.05347656 5.50425781 -2.04445312 4.69601563 -2.03515625 3.86328125 C-2.02355469 3.24839844 -2.01195312 2.63351563 -2 2 C-1.34 2 -0.68 2 0 2 C0 1.34 0 0.68 0 0 Z " fill="#1772B5" transform="translate(43,33)"/>
<path d="M0 0 C23.76 0 47.52 0 72 0 C70.85072802 26.43325564 70.85072802 26.43325564 69.80859375 36.62109375 C69.69902847 37.74274429 69.5894632 38.86439484 69.47657776 40.02003479 C69.13601428 43.4931255 68.78698211 46.96529674 68.4375 50.4375 C68.20060034 52.83783429 67.96426945 55.23822478 67.72851562 57.63867188 C67.15886672 63.42644244 66.58232463 69.21349173 66 75 C35.79180307 85.00814959 35.79180307 85.00814959 21 79 C18.18539004 78.17378844 15.34480017 77.46404685 12.5 76.75 C10.33298788 76.16795129 8.16618513 75.58511897 6 75 C4.75088333 67.34916042 4.90946574 59.72559014 5 52 C9.62 52 14.24 52 19 52 C19.33 55.63 19.66 59.26 20 63 C30.1840248 65.80938615 37.34141607 66.7349918 47.546875 63.65625 C50 63 50 63 53 63 C52.98839844 62.04738281 52.97679687 61.09476563 52.96484375 60.11328125 C52.95582031 58.85902344 52.94679687 57.60476562 52.9375 56.3125 C52.92589844 55.07113281 52.91429687 53.82976562 52.90234375 52.55078125 C53 49 53 49 54 44 C42.78 44 31.56 44 20 44 C19 40 19 40 19 30 C30.88 30 42.76 30 55 30 C55.33 25.05 55.66 20.1 56 15 C37.85 15 19.7 15 1 15 C0 11 0 11 0 0 Z " fill="#F5FBFD" transform="translate(64,57)"/>
<path d="M0 0 C33.99 0 67.98 0 103 0 C103 0.33 103 0.66 103 1 C52.51 1.495 52.51 1.495 1 2 C1.33 5.3 1.66 8.6 2 12 C1.87890625 15.3828125 1.87890625 15.3828125 1.5625 18.125 C1.46066406 19.05570313 1.35882813 19.98640625 1.25390625 20.9453125 C1.12822266 21.96238281 1.12822266 21.96238281 1 23 C0.67 23 0.34 23 0 23 C-1.34495828 15.90294338 -2.24091535 9.2274605 -2 2 C-1.34 2 -0.68 2 0 2 C0 1.34 0 0.68 0 0 Z " fill="#3C6D97" transform="translate(43,33)"/>
<path d="M0 0 C0.99 0.33 1.98 0.66 3 1 C2.44879433 7.2072883 1.89743779 13.41456317 1.34594727 19.62182617 C1.15873228 21.72924445 0.97155704 23.83666626 0.78442383 25.9440918 C0.51394171 28.99008114 0.24331208 32.03605734 -0.02734375 35.08203125 C-0.10967758 36.00957718 -0.19201141 36.93712311 -0.27684021 37.89277649 C-0.84303518 44.26260356 -1.41884581 50.63152072 -2 57 C-2.33 57 -2.66 57 -3 57 C-3 48.75 -3 40.5 -3 32 C-2.34 32 -1.68 32 -1 32 C-1 24.74 -1 17.48 -1 10 C-0.34 10 0.32 10 1 10 C0.67 6.7 0.34 3.4 0 0 Z " fill="#286FA3" transform="translate(156,33)"/>
<path d="M0 0 C11.22 0 22.44 0 34 0 C33.67 6.27 33.34 12.54 33 19 C22.82142857 22.34821429 22.82142857 22.34821429 19 21 C20.43554025 20.49440092 21.8735202 19.9957251 23.3125 19.5 C24.11300781 19.2215625 24.91351563 18.943125 25.73828125 18.65625 C28 18 28 18 31 18 C30.98839844 17.18015625 30.97679688 16.3603125 30.96484375 15.515625 C30.95582031 14.43796875 30.94679688 13.3603125 30.9375 12.25 C30.92589844 11.18265625 30.91429688 10.1153125 30.90234375 9.015625 C31 6 31 6 32 2 C21.44 1.67 10.88 1.34 0 1 C0 0.67 0 0.34 0 0 Z " fill="#4E88B3" transform="translate(84,101)"/>
<path d="M0 0 C6.7685324 -0.10152799 13.30324864 -0.03026944 20 1 C20 1.33 20 1.66 20 2 C13.73 2 7.46 2 1 2 C1.185625 3.423125 1.37125 4.84625 1.5625 6.3125 C2.14614016 11.9786732 1.69649425 17.36375421 1 23 C0.67 23 0.34 23 0 23 C-1.34495828 15.90294338 -2.24091535 9.2274605 -2 2 C-1.34 2 -0.68 2 0 2 C0 1.34 0 0.68 0 0 Z " fill="#6F9FC4" transform="translate(43,33)"/>
<path d="M0 0 C0.33 0 0.66 0 1 0 C1 1.65 1 3.3 1 5 C-2.85180418 6.15387809 -6.70681969 7.29664728 -10.5625 8.4375 C-11.64853516 8.76298828 -12.73457031 9.08847656 -13.85351562 9.42382812 C-19.23524756 11.01053936 -24.41235971 12.43081426 -30 13 C-30 12.34 -30 11.68 -30 11 C-28.3962669 10.35309078 -26.79199694 9.70751236 -25.1875 9.0625 C-24.29417969 8.70285156 -23.40085937 8.34320313 -22.48046875 7.97265625 C-20.6729091 7.26386514 -18.84192591 6.6139753 -17 6 C-17 6.66 -17 7.32 -17 8 C-16.02417969 7.71125 -15.04835937 7.4225 -14.04296875 7.125 C-12.75787385 6.74978981 -11.47271419 6.37480138 -10.1875 6 C-8.92292969 5.62875 -7.65835938 5.2575 -6.35546875 4.875 C-3 4 -3 4 0 4 C0 2.68 0 1.36 0 0 Z " fill="#2A6FA5" transform="translate(147,148)"/>
<path d="M0 0 C1.9375 0.3125 1.9375 0.3125 4 1 C5.04976964 4.14930893 5.10131595 6.38814456 5.0625 9.6875 C5.05347656 10.68136719 5.04445313 11.67523438 5.03515625 12.69921875 C5.02355469 13.45847656 5.01195313 14.21773437 5 15 C6.32 15.66 7.64 16.32 9 17 C7.35 16.67 5.7 16.34 4 16 C2.6728739 12.0186217 2.93084087 8.14954773 3 4 C-1.29 4 -5.58 4 -10 4 C-10 3.67 -10 3.34 -10 3 C-6.7 2.67 -3.4 2.34 0 2 C0 1.34 0 0.68 0 0 Z " fill="#2971A8" transform="translate(80,104)"/>
<path d="M0 0 C2.97 0 5.94 0 9 0 C3.28447359 3.81035094 -4.1463221 5.55570361 -11 5 C-8.28817788 2.39665076 -7.10866187 2.00543309 -3.25 1.8125 C-2.1775 1.874375 -1.105 1.93625 0 2 C0 1.34 0 0.68 0 0 Z " fill="#2F72A4" transform="translate(108,161)"/>
<path d="M0 0 C-0.33 0.99 -0.66 1.98 -1 3 C-5.7300622 4.8621508 -10.96242242 5.25833731 -16 5 C-13.02025837 3.01350558 -10.86336935 2.27822521 -7.4375 1.375 C-6.46683594 1.11460937 -5.49617188 0.85421875 -4.49609375 0.5859375 C-2 0 -2 0 0 0 Z " fill="#367AAB" transform="translate(117,135)"/>
<path d="M0 0 C0.33 1.32 0.66 2.64 1 4 C2.093125 4.12375 3.18625 4.2475 4.3125 4.375 C8 5 8 5 11 7 C7.7 7 4.4 7 1 7 C0.67 4.69 0.34 2.38 0 0 Z " fill="#2370A7" transform="translate(69,128)"/>
<path d="M0 0 C3.96 0 7.92 0 12 0 C12 0.99 12 1.98 12 3 C12.66 3.33 13.32 3.66 14 4 C9.13103697 3.40380045 4.67209049 2.43023178 0 1 C0 0.67 0 0.34 0 0 Z " fill="#2D73A7" transform="translate(58,154)"/>
<path d="M0 0 C7.50769231 -0.36923077 7.50769231 -0.36923077 10 1.5 C10.495 2.2425 10.495 2.2425 11 3 C6.94393835 2.53199289 3.53411321 2.12046792 0 0 Z " fill="#3170A3" transform="translate(86,162)"/>
<path d="M0 0 C0.99 0.33 1.98 0.66 3 1 C2.67 4.63 2.34 8.26 2 12 C1.67 12 1.34 12 1 12 C0.67 8.04 0.34 4.08 0 0 Z " fill="#38709D" transform="translate(156,33)"/>
</svg>
