<?xml version="1.0" encoding="UTF-8"?>
<svg version="1.1" xmlns="http://www.w3.org/2000/svg" width="960" height="960">
<path d="M0 0 C0 0.66 0 1.32 0 2 C0.8353125 2.0928125 0.8353125 2.0928125 1.6875 2.1875 C4.98120783 3.3447487 6.59504754 5.48318929 9 8 C10.17815932 9.01098806 11.36609803 10.01066761 12.5625 11 C15.44227883 13.43195146 17.69657391 16.00554608 20 19 C22.71490898 21.86166082 25.53960555 24.47446212 28.5625 27 C31.44227883 29.43195146 33.69657391 32.00554608 36 35 C38.71490898 37.86166082 41.53960555 40.47446212 44.5625 43 C47.44227883 45.43195146 49.69657391 48.00554608 52 51 C54.71490898 53.86166082 57.53960555 56.47446212 60.5625 59 C63.44227883 61.43195146 65.69657391 64.00554608 68 67 C70.71490898 69.86166082 73.53960555 72.47446212 76.5625 75 C79.44227883 77.43195146 81.69657391 80.00554608 84 83 C86.71490898 85.86166082 89.53960555 88.47446212 92.5625 91 C95.44227883 93.43195146 97.69657391 96.00554608 100 99 C102.71490898 101.86166082 105.53960555 104.47446212 108.5625 107 C111.44227883 109.43195146 113.69657391 112.00554608 116 115 C118.71490898 117.86166082 121.53960555 120.47446212 124.5625 123 C127.44227883 125.43195146 129.69657391 128.00554608 132 131 C134.71490898 133.86166082 137.53960555 136.47446212 140.5625 139 C143.44227883 141.43195146 145.69657391 144.00554608 148 147 C150.71490898 149.86166082 153.53960555 152.47446212 156.5625 155 C159.44227883 157.43195146 161.69657391 160.00554608 164 163 C166.71490898 165.86166082 169.53960555 168.47446212 172.5625 171 C175.44227883 173.43195146 177.69657391 176.00554608 180 179 C182.71490898 181.86166082 185.53960555 184.47446212 188.5625 187 C191.44227883 189.43195146 193.69657391 192.00554608 196 195 C198.71490898 197.86166082 201.53960555 200.47446212 204.5625 203 C207.44227883 205.43195146 209.69657391 208.00554608 212 211 C214.71490898 213.86166082 217.53960555 216.47446212 220.5625 219 C223.44227883 221.43195146 225.69657391 224.00554608 228 227 C230.71490898 229.86166082 233.53960555 232.47446212 236.5625 235 C239.44227883 237.43195146 241.69657391 240.00554608 244 243 C246.71490898 245.86166082 249.53960555 248.47446212 252.5625 251 C255.44227883 253.43195146 257.69657391 256.00554608 260 259 C262.71490898 261.86166082 265.53960555 264.47446212 268.5625 267 C271.44227883 269.43195146 273.69657391 272.00554608 276 275 C278.71490898 277.86166082 281.53960555 280.47446212 284.5625 283 C287.44227883 285.43195146 289.69657391 288.00554608 292 291 C294.71490898 293.86166082 297.53960555 296.47446212 300.5625 299 C303.44227883 301.43195146 305.69657391 304.00554608 308 307 C310.71490898 309.86166082 313.53960555 312.47446212 316.5625 315 C319.44227883 317.43195146 321.69657391 320.00554608 324 323 C326.71490898 325.86166082 329.53960555 328.47446212 332.5625 331 C335.44227883 333.43195146 337.69657391 336.00554608 340 339 C342.71490898 341.86166082 345.53960555 344.47446212 348.5625 347 C351.44227883 349.43195146 353.69657391 352.00554608 356 355 C359.25221519 358.42801061 362.69783951 361.48850693 366.3515625 364.47265625 C369.24683806 367.1552457 370.86662144 368.93846235 371.37259549 372.96542525 C371.37145633 374.13344499 371.37031717 375.30146472 371.36914349 376.504879 C371.37260502 377.15951824 371.37606655 377.81415749 371.37963298 378.48863429 C371.38760095 380.69168699 371.37409321 382.89408758 371.36076355 385.09710693 C371.36207129 386.68860886 371.36469714 388.28011017 371.36853105 389.87160802 C371.3752541 394.25225888 371.36321841 398.6326906 371.34819686 403.01331353 C371.33526694 407.73448709 371.3396238 412.45564783 371.34190369 417.17683411 C371.34347835 425.35903614 371.33404898 433.54116652 371.31719017 441.72335052 C371.29283089 453.55347025 371.28499805 465.38355526 371.2812262 477.21369734 C371.27465689 496.40631918 371.25468272 515.59890282 371.22631836 534.79150391 C371.1987902 553.43766081 371.17755053 572.08380735 371.16479492 590.72998047 C371.16400675 591.87892287 371.16321858 593.02786528 371.16240653 594.21162412 C371.15849147 599.97540895 371.15470034 605.73919385 371.15097082 611.5029788 C371.11985997 659.33535313 371.06454884 707.16765681 371 755 C316.22 755 261.44 755 205 755 C205 810.11 205 865.22 205 922 C155.01921821 922.13220366 105.03860094 922.243015 55.05769442 922.30639198 C49.16077709 922.31389647 43.26386014 922.32166238 37.36694336 922.32958984 C35.60594328 922.33195064 35.60594328 922.33195064 33.80936744 922.33435912 C14.78493355 922.36048707 -4.23939188 922.40780559 -23.26376136 922.46291678 C-42.77570286 922.51897017 -62.28758743 922.55234089 -81.79960614 922.56453097 C-93.84551304 922.57277528 -105.89111337 922.59884016 -117.93692593 922.6474988 C-126.19039191 922.67914577 -134.44369877 922.6888162 -142.69722106 922.68100826 C-147.46350311 922.67715446 -152.22924843 922.68317798 -156.99543571 922.71523285 C-161.35619681 922.74434774 -165.71605833 922.74596113 -170.07686011 922.72539337 C-171.65703741 922.72284998 -173.23726997 922.73053351 -174.81733789 922.74929909 C-186.65362167 922.88173444 -186.65362167 922.88173444 -189.97577345 920.70607877 C-191.31772327 919.11506081 -191.31772327 919.11506081 -193 916 C-195.55612636 913.31279024 -198.1199811 910.90251536 -201 908.5625 C-204.07903881 905.93248768 -206.45078401 903.1374966 -209 900 C-211.55612636 897.31279024 -214.1199811 894.90251536 -217 892.5625 C-220.07903881 889.93248768 -222.45078401 887.1374966 -225 884 C-227.55612636 881.31279024 -230.1199811 878.90251536 -233 876.5625 C-236.07903881 873.93248768 -238.45078401 871.1374966 -241 868 C-243.55612636 865.31279024 -246.1199811 862.90251536 -249 860.5625 C-252.07903881 857.93248768 -254.45078401 855.1374966 -257 852 C-259.55612636 849.31279024 -262.1199811 846.90251536 -265 844.5625 C-268.07903881 841.93248768 -270.45078401 839.1374966 -273 836 C-275.55612636 833.31279024 -278.1199811 830.90251536 -281 828.5625 C-284.07903881 825.93248768 -286.45078401 823.1374966 -289 820 C-291.55612636 817.31279024 -294.1199811 814.90251536 -297 812.5625 C-300.07903881 809.93248768 -302.45078401 807.1374966 -305 804 C-307.55612636 801.31279024 -310.1199811 798.90251536 -313 796.5625 C-316.07903881 793.93248768 -318.45078401 791.1374966 -321 788 C-323.55612636 785.31279024 -326.1199811 782.90251536 -329 780.5625 C-332.07903881 777.93248768 -334.45078401 775.1374966 -337 772 C-339.55612636 769.31279024 -342.1199811 766.90251536 -345 764.5625 C-348.07903881 761.93248768 -350.45078401 759.1374966 -353 756 C-355.55612636 753.31279024 -358.1199811 750.90251536 -361 748.5625 C-364.07903881 745.93248768 -366.45078401 743.1374966 -369 740 C-371.55612636 737.31279024 -374.1199811 734.90251536 -377 732.5625 C-380.07903881 729.93248768 -382.45078401 727.1374966 -385 724 C-387.55612636 721.31279024 -390.1199811 718.90251536 -393 716.5625 C-396.07903881 713.93248768 -398.45078401 711.1374966 -401 708 C-403.55612636 705.31279024 -406.1199811 702.90251536 -409 700.5625 C-412.07903881 697.93248768 -414.45078401 695.1374966 -417 692 C-419.55612636 689.31279024 -422.1199811 686.90251536 -425 684.5625 C-428.07903881 681.93248768 -430.45078401 679.1374966 -433 676 C-435.55612636 673.31279024 -438.1199811 670.90251536 -441 668.5625 C-444.07903881 665.93248768 -446.45078401 663.1374966 -449 660 C-451.55612636 657.31279024 -454.1199811 654.90251536 -457 652.5625 C-460.07903881 649.93248768 -462.45078401 647.1374966 -465 644 C-467.55612636 641.31279024 -470.1199811 638.90251536 -473 636.5625 C-476.07903881 633.93248768 -478.45078401 631.1374966 -481 628 C-483.55612636 625.31279024 -486.1199811 622.90251536 -489 620.5625 C-492.07903881 617.93248768 -494.45078401 615.1374966 -497 612 C-499.55612636 609.31279024 -502.1199811 606.90251536 -505 604.5625 C-508.07903881 601.93248768 -510.45078401 599.1374966 -513 596 C-515.55612636 593.31279024 -518.1199811 590.90251536 -521 588.5625 C-524.07903881 585.93248768 -526.45078401 583.1374966 -529 580 C-531.49529455 577.37674162 -533.95323145 575.03637554 -536.8125 572.8125 C-541.24931571 569.16999912 -544.53783156 564.54001333 -548 560 C-548.66257812 559.17628906 -549.32515625 558.35257813 -550.0078125 557.50390625 C-565.52356713 537.51596351 -572.25588032 511.0435409 -570 486 C-568.08051264 474.01490819 -564.50320053 462.55289474 -558.61328125 451.9375 C-556.83808684 448.70518475 -555.43200033 445.39665846 -554 442 C-552.79164397 439.52434374 -551.53892146 437.07584695 -550.28125 434.625 C-549.04057847 432.08313639 -547.92378287 429.50504532 -546.82128906 426.90087891 C-545.3346119 423.4599549 -543.72535213 420.07666271 -542.125 416.6875 C-541.79886719 415.99205078 -541.47273437 415.29660156 -541.13671875 414.58007812 C-539.32982035 410.74481323 -537.47727737 406.93695117 -535.57421875 403.1484375 C-532.87647353 397.7772185 -530.27469696 392.36267006 -527.6875 386.9375 C-527.21038574 385.93887939 -526.73327148 384.94025879 -526.24169922 383.91137695 C-523.04157317 377.20591673 -519.86195945 370.49104413 -516.7253418 363.75561523 C-515.06947098 360.2139301 -513.36043542 356.70468811 -511.60546875 353.2109375 C-508.89735997 347.8188262 -506.28473534 342.38371983 -503.6875 336.9375 C-503.21038574 335.93887939 -502.73327148 334.94025879 -502.24169922 333.91137695 C-499.04157317 327.20591673 -495.86195945 320.49104413 -492.7253418 313.75561523 C-491.07363718 310.22284103 -489.36873442 306.72274162 -487.6171875 303.23828125 C-484.8330063 297.69578628 -482.16280786 292.101593 -479.5 286.5 C-476.0746392 279.29426902 -472.59488859 272.12276393 -469 265 C-467.43102864 261.88800364 -467.43102864 261.88800364 -465.86328125 258.77539062 C-465.19813973 257.45430914 -464.53144363 256.13400933 -463.86328125 254.81445312 C-462.29034549 251.68400255 -460.78011977 248.55094023 -459.4140625 245.32421875 C-457.85790595 241.66596122 -456.09511728 238.15971573 -454.28125 234.625 C-453.05203584 232.10661001 -451.94911634 229.55223163 -450.85693359 226.97216797 C-449.18565389 223.1258439 -447.36405365 219.34907103 -445.5625 215.5625 C-444.98918945 214.35110352 -444.98918945 214.35110352 -444.40429688 213.11523438 C-441.99779576 208.0448305 -439.53025398 203.00968956 -437 198 C-435.98308469 195.98404437 -434.96641707 193.96796918 -433.95117188 191.95117188 C-433.2730316 190.60403773 -432.59333248 189.25768721 -431.91210938 187.91210938 C-429.77935055 183.66721801 -427.8628909 179.37209088 -426 175 C-424.54720755 171.84158784 -423.05609232 168.7017867 -421.5625 165.5625 C-421.18029297 164.75490234 -420.79808594 163.94730469 -420.40429688 163.11523438 C-418.2972609 158.67579186 -416.14982677 154.26422052 -413.90136719 149.89453125 C-412.83001102 147.73247316 -412.83001102 147.73247316 -411.69921875 144.24609375 C-409.53794095 140.11730788 -406.92007447 138.83631433 -402.8125 137.0625 C-401.36039794 136.38731879 -399.90858278 135.71152023 -398.45703125 135.03515625 C-397.71533691 134.69887207 -396.97364258 134.36258789 -396.20947266 134.01611328 C-392.76237908 132.43083113 -389.38482335 130.71316075 -386 129 C-384.66702541 128.33261634 -383.33369074 127.66595137 -382 127 C-381.34 126.67 -380.68 126.34 -380 126 C-314 93 -248 60 -106 -11 C-104.99582031 -11.53882813 -103.99164063 -12.07765625 -102.95703125 -12.6328125 C-99.74170213 -14.11942438 -96.78318862 -14.86994526 -93.3125 -15.5625 C-92.08273437 -15.80871094 -90.85296875 -16.05492187 -89.5859375 -16.30859375 C-88.40257812 -16.53675781 -87.21921875 -16.76492187 -86 -17 C-84.56527344 -17.29583984 -84.56527344 -17.29583984 -83.1015625 -17.59765625 C-53.57101506 -23.44314585 -24.62655414 -17.44380918 0 0 Z " fill="#02579B" transform="translate(578,28)"/>
<path d="M0 0 C3.6961371 1.72090044 5.68123912 3.64929745 8.3775177 6.74443054 C13.68872671 12.69461867 19.2541048 18.36835942 24.88676453 24.01374817 C25.58147368 24.71009822 25.58147368 24.71009822 26.29021735 25.42051594 C29.30746143 28.44374723 32.32861902 31.46304577 35.35070813 34.4814328 C38.11391757 37.24235794 40.87422102 40.00618604 43.63491821 42.7696228 C49.02754107 48.16666949 54.42283598 53.56103715 59.8191255 58.95441744 C64.20612351 63.33914899 68.59213467 67.72486543 72.97745705 72.11127281 C73.91676729 73.05081291 73.91676729 73.05081291 74.8750535 74.00933361 C76.147472 75.28207186 77.41988826 76.55481234 78.69230232 77.82755502 C90.5948851 89.73298242 102.50051892 101.6353549 114.40721551 113.53666785 C124.6124899 123.73747073 134.81513358 133.94089863 145.01586914 144.14624023 C156.8833614 156.01908868 168.75248004 167.89030737 180.62418491 179.75894374 C181.89078877 181.02522908 183.15739056 182.29151649 184.42399025 183.55780602 C185.04707272 184.18073421 185.67015519 184.8036624 186.31211894 185.44546721 C190.69263604 189.82512262 195.07199531 194.20593371 199.45090294 198.58719826 C204.78771065 203.92681557 210.12630676 209.26463714 215.46717676 214.60019133 C218.18943124 217.31982515 220.91089383 220.04023861 223.63017845 222.76284218 C226.5821322 225.71834427 229.537969 228.66993264 232.4941864 231.62117004 C233.77284522 232.90317495 233.77284522 232.90317495 235.07733554 234.21107894 C239.36936109 238.48911167 243.7276518 242.6136087 248.34309989 246.54212683 C251.37935983 249.21367105 253.90885618 252.30881645 256.53125 255.375 C258.49392626 257.46189628 260.42309227 259.26146981 262.59385681 261.11170959 C267.2500594 265.16171924 271.61039878 269.46987574 275.96704102 273.83764648 C277.25402893 275.12200592 277.25402893 275.12200592 278.5670166 276.43231201 C280.89733001 278.75900354 283.22541128 281.0878983 285.55231977 283.41799426 C288.00187327 285.87010096 290.45389015 288.31974253 292.90550232 290.76979065 C297.02009876 294.88257397 301.13259656 298.99744692 305.24389648 303.11352539 C309.97946951 307.85453938 314.71863389 312.59194049 319.45967919 317.32748169 C323.54924139 321.41248825 327.63682959 325.49946237 331.72281021 329.58805138 C334.15483604 332.02162654 336.58750928 334.45454421 339.02197456 336.88567924 C341.737868 339.59901997 344.45051288 342.31556849 347.16235352 345.03295898 C347.95683395 345.82541519 348.75131439 346.6178714 349.56987 347.43434143 C353.69221979 351.57225418 357.64574147 355.78298754 361.41323757 360.24786472 C363.08219836 362.0907651 364.84723089 363.65104841 366.75 365.25 C369.89534069 367.9277315 372.64006915 370.75454604 375.38244629 373.84310913 C384.06699866 383.44824819 393.34921261 392.49106494 402.50854635 401.63927102 C405.29415507 404.42259581 408.07685832 407.20882306 410.85995483 409.99465942 C416.29501643 415.43414436 421.73274937 420.87095102 427.17147762 426.30676956 C431.58998264 430.72300908 436.007502 435.14023234 440.42433167 439.55814743 C441.05475747 440.18872647 441.68518328 440.81930551 442.33471289 441.468993 C443.61559705 442.7501969 444.89647898 444.03140304 446.17735869 445.31261139 C458.15656995 457.29466682 470.13883177 469.27366785 482.12215668 481.25160901 C492.40577042 491.53074586 502.68674584 501.81251539 512.96582031 512.09619141 C524.91713628 524.05285504 536.87006749 536.00790008 548.82559443 547.96035326 C550.09912986 549.23357015 551.37266322 550.50678913 552.64619446 551.78001022 C553.2727446 552.40640609 553.89929474 553.03280195 554.54483125 553.67817951 C558.96226344 558.09474786 563.37853338 562.51247632 567.7943573 566.93065262 C573.16791064 572.30700583 578.54323254 577.68158319 583.92085344 583.05386801 C586.66477247 585.7951541 589.40787685 588.53724265 592.14883041 591.28149414 C595.11568602 594.25186566 598.08637904 597.21836879 601.05749512 600.18447876 C601.92838949 601.05760385 602.79928386 601.93072894 603.69656897 602.83031237 C604.88667444 604.01650622 604.88667444 604.01650622 606.10082245 605.22666359 C607.12908433 606.25468194 607.12908433 606.25468194 608.17811918 607.30346835 C610.09455008 609.17936834 610.09455008 609.17936834 613 611 C613.36914349 613.85419655 613.36914349 613.85419655 613.36076355 617.58047485 C613.36332682 618.26413695 613.3658901 618.94779904 613.36853105 619.65217817 C613.37349148 621.95406472 613.35693967 624.25530231 613.34057617 626.55712891 C613.33973038 628.20272303 613.3402041 629.84831828 613.34190369 631.49391174 C613.34276695 635.97102171 613.32508777 640.44789217 613.30418181 644.92494631 C613.28547007 649.60012897 613.28366893 654.27531668 613.28010559 658.95053101 C613.2707689 667.80805097 613.24613322 676.66546029 613.21605712 685.52293146 C613.18256354 695.60499534 613.16603981 705.68706441 613.15097082 715.76917005 C613.11958504 736.51284186 613.06679307 757.25641397 613 778 C563.01927557 778.13724873 513.03857014 778.24301504 463.05769442 778.30639198 C457.16077709 778.31389647 451.26386014 778.32166238 445.36694336 778.32958984 C443.60594328 778.33195064 443.60594328 778.33195064 441.80936744 778.33435912 C422.78493355 778.36048707 403.76060812 778.40780559 384.73623864 778.46291678 C365.22429714 778.51897017 345.71241257 778.55234089 326.20039386 778.56453097 C314.15448696 778.57277528 302.10888663 778.59884016 290.06307407 778.6474988 C281.80960809 778.67914577 273.55630123 778.6888162 265.30277894 778.68100826 C260.53649689 778.67715446 255.77075157 778.68317798 251.00456429 778.71523285 C246.64380319 778.74434774 242.28394167 778.74596113 237.92313989 778.72539337 C236.34296259 778.72284998 234.76273003 778.73053351 233.18266211 778.74929909 C221.34637833 778.88173444 221.34637833 778.88173444 218.02422655 776.70607877 C216.68227673 775.11506081 216.68227673 775.11506081 215 772 C212.44387364 769.31279024 209.8800189 766.90251536 207 764.5625 C203.92096119 761.93248768 201.54921599 759.1374966 199 756 C196.44387364 753.31279024 193.8800189 750.90251536 191 748.5625 C187.92096119 745.93248768 185.54921599 743.1374966 183 740 C180.44387364 737.31279024 177.8800189 734.90251536 175 732.5625 C171.92096119 729.93248768 169.54921599 727.1374966 167 724 C164.44387364 721.31279024 161.8800189 718.90251536 159 716.5625 C155.92096119 713.93248768 153.54921599 711.1374966 151 708 C148.44387364 705.31279024 145.8800189 702.90251536 143 700.5625 C139.92096119 697.93248768 137.54921599 695.1374966 135 692 C132.44387364 689.31279024 129.8800189 686.90251536 127 684.5625 C123.92096119 681.93248768 121.54921599 679.1374966 119 676 C116.44387364 673.31279024 113.8800189 670.90251536 111 668.5625 C107.92096119 665.93248768 105.54921599 663.1374966 103 660 C100.44387364 657.31279024 97.8800189 654.90251536 95 652.5625 C91.92096119 649.93248768 89.54921599 647.1374966 87 644 C84.44387364 641.31279024 81.8800189 638.90251536 79 636.5625 C75.92096119 633.93248768 73.54921599 631.1374966 71 628 C68.44387364 625.31279024 65.8800189 622.90251536 63 620.5625 C59.92096119 617.93248768 57.54921599 615.1374966 55 612 C52.44387364 609.31279024 49.8800189 606.90251536 47 604.5625 C43.92096119 601.93248768 41.54921599 599.1374966 39 596 C36.52470695 593.39776884 34.12487907 591.09365931 31.25 588.9375 C26.74524109 585.23921967 23.5461093 580.35710146 20.18212891 575.64697266 C19.02718483 574.03787461 17.84782173 572.44639279 16.66796875 570.85546875 C8.71987558 559.87437239 3.07256451 549.45798038 1.32723522 535.90476036 C1.13843503 534.46594826 1.13843503 534.46594826 0.9458207 532.99806925 C-0.33062319 522.48275667 -0.40897165 512.03930195 -0.36076355 501.46133423 C-0.36207555 499.28095048 -0.36470918 497.1005672 -0.36853105 494.9201864 C-0.37517055 488.99540521 -0.36333455 483.07078982 -0.34819686 477.14602971 C-0.3351453 470.73190564 -0.33963236 464.31778964 -0.34190369 457.90365601 C-0.34398642 446.81284112 -0.33422747 435.72207618 -0.31719017 424.63127518 C-0.29938505 413.01062389 -0.28788147 401.3899939 -0.28463173 389.76932907 C-0.28442551 389.04439563 -0.28421929 388.31946219 -0.28400682 387.57256107 C-0.2829917 383.89037464 -0.28208759 380.2081882 -0.2812262 376.52600174 C-0.27493979 350.50511304 -0.25476932 324.48425203 -0.22631836 298.46337891 C-0.19872595 273.19840644 -0.17749432 247.93344157 -0.16479492 222.66845703 C-0.16440034 221.88846531 -0.16400576 221.10847359 -0.16359923 220.30484575 C-0.15964337 212.47121588 -0.15581597 204.63758595 -0.15208265 196.80395598 C-0.14447582 180.84866353 -0.13601207 164.89337157 -0.12702942 148.93807983 C-0.12661755 148.20462402 -0.12620568 147.4711682 -0.12578133 146.71548645 C-0.09822062 97.81031254 -0.05062716 48.9051549 0 0 Z " fill="#2AB6F5" transform="translate(170,172)"/>
<path d="M0 0 C3.47899158 1.39159663 4.48052501 2.63251488 6 6 C7.18244732 6.00173625 8.36489464 6.0034725 9.58317369 6.00526136 C61.66800756 6.0818057 113.75283945 6.15957937 165.83766174 6.2436676 C166.62556697 6.24493928 167.4134722 6.24621096 168.22525335 6.24752118 C185.34644385 6.27516223 202.46763399 6.3030252 219.58882376 6.33111694 C227.98442736 6.34489075 236.38003104 6.35861549 244.77563477 6.37231445 C245.61112107 6.37367854 246.44660738 6.37504262 247.30741145 6.37644804 C274.41292939 6.42067972 301.51845106 6.46166826 328.62397654 6.50098413 C356.46651227 6.54138607 384.30904103 6.5850416 412.15156513 6.63282111 C416.07950368 6.63956017 420.00744229 6.64626184 423.93538094 6.65294075 C424.70849463 6.65425648 425.48160833 6.65557221 426.27814971 6.6569278 C438.74887095 6.67805483 451.21959484 6.69572773 463.69032309 6.71212531 C476.21202662 6.72866304 488.73372018 6.74880068 501.25541192 6.77266841 C508.04625352 6.7855114 514.83708853 6.79671802 521.62793922 6.80341911 C527.83370631 6.80969754 534.03944779 6.8204967 540.24520088 6.8350333 C542.50092103 6.83949374 544.75664531 6.84223374 547.01236968 6.84316199 C550.05722399 6.84465583 553.10200261 6.85217659 556.146842 6.8613348 C557.04104409 6.86031213 557.93524618 6.85928946 558.8565453 6.85823581 C564.8858542 6.8858542 564.8858542 6.8858542 566 8 C566.096937 10.15159726 566.12186783 12.30644111 566.12025452 14.46022034 C566.12110894 15.14302801 566.12196337 15.82583568 566.12284368 16.52933449 C566.12450043 18.83411691 566.11897397 21.13882772 566.11352539 23.44360352 C566.11324353 25.08905028 566.11340122 26.73449716 566.1139679 28.37994385 C566.11425593 32.86115759 566.10835821 37.34234481 566.10139394 41.82355237 C566.09516142 46.50142105 566.09455668 51.17929028 566.09336853 55.85716248 C566.09025491 64.72175168 566.08204111 73.58632862 566.07201904 82.45091242 C566.06085885 92.54022202 566.05534769 102.6295322 566.05032361 112.71884644 C566.03985852 133.47923782 566.02225849 154.23961814 566 175 C516.01927557 175.13724873 466.03857014 175.24301504 416.05769442 175.30639198 C410.16077709 175.31389647 404.26386014 175.32166238 398.36694336 175.32958984 C397.19294331 175.33116371 396.01894325 175.33273757 394.80936744 175.33435912 C375.78493355 175.36048707 356.76060812 175.40780559 337.73623864 175.46291678 C318.22429714 175.51897017 298.71241257 175.55234089 279.20039386 175.56453097 C267.15448696 175.57277528 255.10888663 175.59884016 243.06307407 175.6474988 C234.80960809 175.67914577 226.55630123 175.6888162 218.30277894 175.68100826 C213.53649689 175.67715446 208.77075157 175.68317798 204.00456429 175.71523285 C199.64380319 175.74434774 195.28394167 175.74596113 190.92313989 175.72539337 C189.34296259 175.72284998 187.76273003 175.73053351 186.18266211 175.74929909 C174.34637833 175.88173444 174.34637833 175.88173444 171.02422655 173.70607877 C169.68227673 172.11506081 169.68227673 172.11506081 168 169 C165.44387364 166.31279024 162.8800189 163.90251536 160 161.5625 C156.92096119 158.93248768 154.54921599 156.1374966 152 153 C149.44387364 150.31279024 146.8800189 147.90251536 144 145.5625 C140.92096119 142.93248768 138.54921599 140.1374966 136 137 C133.44387364 134.31279024 130.8800189 131.90251536 128 129.5625 C124.92096119 126.93248768 122.54921599 124.1374966 120 121 C117.44387364 118.31279024 114.8800189 115.90251536 112 113.5625 C108.92096119 110.93248768 106.54921599 108.1374966 104 105 C101.44387364 102.31279024 98.8800189 99.90251536 96 97.5625 C92.92096119 94.93248768 90.54921599 92.1374966 88 89 C85.44387364 86.31279024 82.8800189 83.90251536 80 81.5625 C76.92096119 78.93248768 74.54921599 76.1374966 72 73 C69.44387364 70.31279024 66.8800189 67.90251536 64 65.5625 C60.92096119 62.93248768 58.54921599 60.1374966 56 57 C53.44387364 54.31279024 50.8800189 51.90251536 48 49.5625 C44.92096119 46.93248768 42.54921599 44.1374966 40 41 C37.44387364 38.31279024 34.8800189 35.90251536 32 33.5625 C28.92096119 30.93248768 26.54921599 28.1374966 24 25 C21.44387364 22.31279024 18.8800189 19.90251536 16 17.5625 C12.92096119 14.93248768 10.54921599 12.1374966 8 9 C7.13375 8.13375 6.2675 7.2675 5.375 6.375 C3.34449936 4.34449936 1.64810923 2.34204997 0 0 Z " fill="#40C3FE" transform="translate(217,775)"/>
<path d="M0 0 C0 0.66 0 1.32 0 2 C0.8353125 2.0928125 0.8353125 2.0928125 1.6875 2.1875 C4.98120783 3.3447487 6.59504754 5.48318929 9 8 C10.17815932 9.01098806 11.36609803 10.01066761 12.5625 11 C15.44227883 13.43195146 17.69657391 16.00554608 20 19 C22.71490898 21.86166082 25.53960555 24.47446212 28.5625 27 C31.44227883 29.43195146 33.69657391 32.00554608 36 35 C38.71490898 37.86166082 41.53960555 40.47446212 44.5625 43 C47.44227883 45.43195146 49.69657391 48.00554608 52 51 C54.71490898 53.86166082 57.53960555 56.47446212 60.5625 59 C63.44227883 61.43195146 65.69657391 64.00554608 68 67 C70.71490898 69.86166082 73.53960555 72.47446212 76.5625 75 C79.44227883 77.43195146 81.69657391 80.00554608 84 83 C86.71490898 85.86166082 89.53960555 88.47446212 92.5625 91 C95.44227883 93.43195146 97.69657391 96.00554608 100 99 C102.71490898 101.86166082 105.53960555 104.47446212 108.5625 107 C111.44227883 109.43195146 113.69657391 112.00554608 116 115 C118.71490898 117.86166082 121.53960555 120.47446212 124.5625 123 C127.44227883 125.43195146 129.69657391 128.00554608 132 131 C134.71490898 133.86166082 137.53960555 136.47446212 140.5625 139 C143.44227883 141.43195146 145.69657391 144.00554608 148 147 C150.71490898 149.86166082 153.53960555 152.47446212 156.5625 155 C159.44258864 157.4250097 161.67424798 160.03266122 164 163 C164.7425 163.556875 165.485 164.11375 166.25 164.6875 C166.8275 165.120625 167.405 165.55375 168 166 C168 166.66 168 167.32 168 168 C164.16884863 166.69196392 161.89951938 165.17199082 159.0625 162.3125 C140.17330404 145.04952621 112.73628616 142.53821381 88.41064453 142.60127258 C86.26018548 142.5958241 84.10972941 142.58906881 81.95927811 142.58113068 C76.08937712 142.56319881 70.21960325 142.56365094 64.34968138 142.56726015 C58.00496114 142.56788629 51.66028271 142.55124253 45.31558228 142.53674316 C34.33599499 142.51399352 23.35644039 142.50197401 12.37683105 142.49761391 C0.86843311 142.49299837 -10.63993188 142.48218286 -22.14831543 142.46318626 C-22.86534323 142.46200614 -23.58237103 142.46082601 -24.32112694 142.45961012 C-27.96292701 142.45358424 -31.6047269 142.44744855 -35.24652672 142.44127061 C-61.00451171 142.39777201 -86.76249591 142.36802463 -112.52050781 142.34643555 C-137.5354938 142.32543759 -162.55046019 142.29816646 -187.56542969 142.26245117 C-188.33724623 142.26135169 -189.10906277 142.26025222 -189.9042677 142.25911942 C-197.65555511 142.24807057 -205.40684234 142.2368947 -213.15812943 142.2256258 C-228.94672719 142.20267507 -244.7353261 142.18057176 -260.52392578 142.15898132 C-261.2497724 142.1579877 -261.97561903 142.15699409 -262.723461 142.15597036 C-311.1489582 142.08977728 -359.57447757 142.04339689 -408 142 C-408 141.34 -408 140.68 -408 140 C-341.33333333 106.66666667 -274.66666667 73.33333333 -148 10 C-147.3402417 9.67008057 -146.6804834 9.34016113 -146.00073242 9.00024414 C-144.66508781 8.33250333 -143.32931266 7.66502354 -141.9934082 6.99780273 C-138.69432636 5.34966773 -135.39751174 3.69731115 -132.10546875 2.03515625 C-123.80646375 -2.14696243 -115.45226211 -6.18992853 -107.0300293 -10.11889648 C-106.25828369 -10.48055908 -105.48653809 -10.84222168 -104.69140625 -11.21484375 C-104.00248291 -11.53573975 -103.31355957 -11.85663574 -102.60375977 -12.18725586 C-101.00164387 -12.89465753 -101.00164387 -12.89465753 -100 -14 C-95.3649901 -15.14243202 -90.67830372 -16.05267993 -86 -17 C-85.03707031 -17.19980469 -84.07414062 -17.39960938 -83.08203125 -17.60546875 C-53.53967701 -23.40921043 -24.63834116 -17.45215832 0 0 Z " fill="#40C3FE" transform="translate(578,28)"/>
<path d="M0 0 C49.21169582 0.02693349 98.42338567 0.0586593 147.63505554 0.11663818 C148.36408624 0.11749569 149.09311694 0.1183532 149.84423948 0.1192367 C165.6902798 0.13790488 181.53631892 0.15745766 197.38235702 0.17792095 C205.15391163 0.18795162 212.92546649 0.19778693 220.69702148 0.20751953 C221.85702989 0.20897724 221.85702989 0.20897724 223.0404728 0.2104644 C248.08010425 0.24183865 273.11972494 0.26032756 298.15937263 0.27209247 C323.90349044 0.28425673 349.64756338 0.30950427 375.39165129 0.35107614 C379.03272427 0.35694972 382.67379747 0.36267466 386.31487083 0.36830902 C387.38973193 0.36997921 387.38973193 0.36997921 388.48630739 0.37168314 C399.99389689 0.38918285 411.5014517 0.39300198 423.00905273 0.39162921 C434.59461201 0.39054185 446.18006749 0.40436741 457.76559547 0.43216428 C464.03620004 0.44677923 470.30663852 0.45503964 476.57725716 0.44580269 C482.32887631 0.43747397 488.08016277 0.44778499 493.83173277 0.47233662 C495.90203633 0.47798825 497.97237176 0.47705499 500.0426654 0.46851245 C516.78716861 0.40539232 532.92811316 2.18426669 548.5 8.75 C549.32532227 9.08708984 550.15064453 9.42417969 551.00097656 9.77148438 C557.73660108 12.63736944 563.43682641 16.20240076 569 21 C568.34 21.33 567.68 21.66 567 22 C565.09200937 21.19948658 563.22291613 20.30583617 561.375 19.375 C551.22989736 14.58642246 541.03191941 11.07117252 529.83128929 9.87230396 C529.05914023 9.78909112 528.28699117 9.70587827 527.49144366 9.62014382 C517.80062992 8.67015732 508.11395544 8.74601635 498.38687134 8.7931366 C496.25816546 8.79585083 494.12945827 8.79765881 492.0007509 8.79864866 C486.20009108 8.80383991 480.39952742 8.82145713 474.59890127 8.84116399 C468.32506594 8.86018871 462.05121595 8.86732717 455.77735901 8.87574768 C445.62555084 8.89067461 435.47377292 8.91097898 425.32198553 8.93614196 C408.19631985 8.97857682 391.07066406 9.00329108 373.94495822 9.02250934 C367.3457787 9.0299852 360.7465998 9.03800444 354.14742088 9.04598713 C353.41448232 9.04687043 352.68154376 9.04775373 351.92639494 9.04866379 C334.51244724 9.0697323 317.09850812 9.09576982 299.68457031 9.1237793 C298.923331 9.12499886 298.16209169 9.12621843 297.37778452 9.12747496 C279.59610492 9.1560246 261.81443634 9.18799697 244.03277588 9.22674561 C243.26657286 9.22841406 242.50036984 9.23008252 241.71094855 9.23180154 C237.84667182 9.24022892 233.98239518 9.24869547 230.11811857 9.25717602 C229.35428588 9.2588522 228.59045319 9.26052838 227.80347405 9.26225535 C226.26173662 9.26564018 224.71999919 9.26902838 223.17826177 9.27241995 C197.72564761 9.32831028 172.27305282 9.36739709 146.8203843 9.38739093 C143.22958438 9.39023222 139.63878468 9.39329535 136.04798508 9.39650917 C135.34133558 9.39713929 134.63468608 9.3977694 133.90662296 9.39841861 C122.52532801 9.40912158 111.14414876 9.43809275 99.76290913 9.47423776 C88.34114588 9.51020956 76.91949607 9.52814013 65.49766506 9.52848049 C59.30770864 9.52924988 53.11804589 9.53835364 46.92815971 9.56911087 C41.26870303 9.59707651 35.60971174 9.60227648 29.95020597 9.58891992 C27.89683497 9.58819109 25.84344045 9.59603705 23.79013987 9.61305835 C21.01071765 9.63489222 18.23304128 9.62625798 15.45362282 9.60965252 C14.64624692 9.62335928 13.83887101 9.63706605 13.00702918 9.65118816 C10.76545298 9.61869115 10.76545298 9.61869115 7 9 C4.59664857 6.52439672 4.59664857 6.52439672 3 4 C2.34 3.67 1.68 3.34 1 3 C1.33 178.23 1.66 353.46 2 534 C1.67 534 1.34 534 1 534 C-0.17533781 529.3560413 -0.1379974 524.87812037 -0.12304783 520.12317181 C-0.1247786 518.77479346 -0.1247786 518.77479346 -0.12654433 517.39917514 C-0.12920213 514.37137888 -0.12469566 511.34363524 -0.12025452 508.31584167 C-0.12069039 506.12950688 -0.12156559 503.94317213 -0.12284368 501.75683767 C-0.12508549 495.73669523 -0.12107161 489.7165705 -0.11606562 483.69643033 C-0.11175684 477.20906837 -0.11320785 470.72170746 -0.1139679 464.23434448 C-0.11466581 452.99046285 -0.11138377 441.74658665 -0.10573006 430.50270653 C-0.09981502 418.7089148 -0.09596451 406.91512537 -0.09487724 395.12133217 C-0.0948085 394.38829842 -0.09473976 393.65526467 -0.09466894 392.90001778 C-0.09433061 389.17737882 -0.09402923 385.45473985 -0.09374207 381.73210088 C-0.09164111 355.35793873 -0.08490222 328.98377959 -0.07543945 302.60961914 C-0.06625655 276.98592139 -0.05917219 251.36222446 -0.05493164 225.73852539 C-0.05480011 224.94882744 -0.05466859 224.1591295 -0.05453308 223.34550131 C-0.05321457 215.41510086 -0.05193875 207.48470039 -0.05069422 199.55429993 C-0.04815794 183.39885555 -0.04533668 167.24341122 -0.04234314 151.08796692 C-0.04220585 150.34514973 -0.04206856 149.60233254 -0.04192711 148.83700574 C-0.03272492 99.22466921 -0.01685876 49.61233445 0 0 Z " fill="#307CB3" transform="translate(169,169)"/>
<path d="M0 0 C5.06526352 2.53263176 5.06526352 2.53263176 7 6 C7.37259549 8.96542525 7.37259549 8.96542525 7.36914349 12.504879 C7.37260502 13.15951824 7.37606655 13.81415749 7.37963298 14.48863429 C7.38760095 16.69168699 7.37409321 18.89408758 7.36076355 21.09710693 C7.36207129 22.68860886 7.36469714 24.28011017 7.36853105 25.87160802 C7.3752541 30.25225888 7.36321841 34.6326906 7.34819686 39.01331353 C7.33526694 43.73448709 7.3396238 48.45564783 7.34190369 53.17683411 C7.34347835 61.35903614 7.33404898 69.54116652 7.31719017 77.72335052 C7.29283089 89.55347025 7.28499805 101.38355526 7.2812262 113.21369734 C7.27465689 132.40631918 7.25468272 151.59890282 7.22631836 170.79150391 C7.1987902 189.43766081 7.17755053 208.08380735 7.16479492 226.72998047 C7.16361267 228.45339407 7.16361267 228.45339407 7.16240653 230.21162412 C7.15849147 235.97540895 7.15470034 241.73919385 7.15097082 247.5029788 C7.11985998 295.33534561 7.06701113 343.16767094 7 391 C-14.6704055 391.11679707 -36.3407591 391.20497047 -58.01141548 391.25906086 C-68.07347256 391.28484345 -78.13533407 391.31999509 -88.19726562 391.37719727 C-96.96716691 391.42703048 -105.73692658 391.45929062 -114.50696552 391.47044247 C-119.15078887 391.47696137 -123.79420704 391.49228372 -128.43790054 391.52865028 C-132.80952211 391.56260851 -137.18057192 391.57305337 -141.55231285 391.56553841 C-143.1559313 391.56691304 -144.75956902 391.57684693 -146.36307335 391.59602737 C-148.55558375 391.62096505 -150.74594534 391.61490549 -152.93850708 391.60127258 C-154.16449175 391.60588155 -155.39047642 391.61049051 -156.65361214 391.61523914 C-161.13320324 390.79165864 -162.81965153 389.21610114 -166 386 C-166 385.34 -166 384.68 -166 384 C-111.22 384 -56.44 384 0 384 C0 257.28 0 130.56 0 0 Z " fill="#075087" transform="translate(942,392)"/>
<path d="M0 0 C2.46800047 1.15173355 4.04783565 2.04783565 6 4 C6.19785675 6.7534551 6.26870196 9.40644489 6.25333309 12.16118336 C6.25643036 13.01925007 6.25952764 13.87731679 6.26271877 14.76138553 C6.27075005 17.66861174 6.26441158 20.57563592 6.25828552 23.48286438 C6.2611373 25.57582154 6.26487373 27.66877765 6.26942402 29.7617318 C6.27945298 35.53884965 6.27701878 41.31590713 6.27269709 47.09302962 C6.2702297 53.31515518 6.27927841 59.53726451 6.28707886 65.75938416 C6.29915009 76.55472107 6.30425751 87.35003784 6.30496025 98.14538002 C6.30613866 113.78537277 6.32134008 129.42533029 6.34045542 145.06531026 C6.34935666 152.3543901 6.35762596 159.64347067 6.36577702 166.93255138 C6.36659477 167.66242857 6.36741252 168.39230576 6.36825505 169.14430044 C6.3876096 186.53215077 6.40113692 203.92000468 6.41333008 221.30786133 C6.41386687 222.068863 6.41440366 222.82986468 6.41495672 223.61392701 C6.42742928 241.33646885 6.43820967 259.05901113 6.44702148 276.78155518 C6.45009085 282.91174318 6.45318337 289.04193116 6.45629883 295.17211914 C6.45668064 295.92860388 6.45706246 296.68508862 6.45745584 297.46449714 C6.46623465 314.76768154 6.47743475 332.07085846 6.49742985 349.37403393 C6.49827251 350.10347133 6.49911518 350.83290874 6.49998338 351.58445031 C6.50847192 358.87214521 6.51746817 366.15983933 6.52717515 373.44753271 C6.53193587 377.03477147 6.53655152 380.62201041 6.54106331 384.2092495 C6.54195119 384.91517427 6.54283907 385.62109905 6.54375386 386.34841549 C6.55761954 397.65493374 6.56033232 408.96142792 6.55838365 420.2679534 C6.55657688 431.66746542 6.56558236 443.06691953 6.58469205 454.46641956 C6.5946655 460.62889227 6.59994335 466.79126903 6.59192467 472.9537468 C6.43231934 502.98658029 6.43231934 502.98658029 8.28675842 532.94206238 C8.39611204 534.03998086 8.50546565 535.13789935 8.61813301 536.26908809 C10.22104897 549.62690419 15.47430121 562.23781111 23.06640625 573.3203125 C23.37449219 573.87460937 23.68257812 574.42890625 24 575 C23.67 575.66 23.34 576.32 23 577 C11.06299369 565.78644862 3.31791459 552.14542211 1.28817272 535.82663536 C1.16512575 534.87306694 1.04207879 533.91949852 0.91530312 532.93703409 C-0.33553164 522.44494804 -0.40885433 512.0135596 -0.36076355 501.46133423 C-0.36207555 499.28095048 -0.36470918 497.1005672 -0.36853105 494.9201864 C-0.37517055 488.99540521 -0.36333455 483.07078982 -0.34819686 477.14602971 C-0.3351453 470.73190564 -0.33963236 464.31778964 -0.34190369 457.90365601 C-0.34398642 446.81284112 -0.33422747 435.72207618 -0.31719017 424.63127518 C-0.29938505 413.01062389 -0.28788147 401.3899939 -0.28463173 389.76932907 C-0.28442551 389.04439563 -0.28421929 388.31946219 -0.28400682 387.57256107 C-0.2829917 383.89037464 -0.28208759 380.2081882 -0.2812262 376.52600174 C-0.27493979 350.50511304 -0.25476932 324.48425203 -0.22631836 298.46337891 C-0.19872595 273.19840644 -0.17749432 247.93344157 -0.16479492 222.66845703 C-0.16440034 221.88846531 -0.16400576 221.10847359 -0.16359923 220.30484575 C-0.15964337 212.47121588 -0.15581597 204.63758595 -0.15208265 196.80395598 C-0.14447582 180.84866353 -0.13601207 164.89337157 -0.12702942 148.93807983 C-0.12661755 148.20462402 -0.12620568 147.4711682 -0.12578133 146.71548645 C-0.09822062 97.81031254 -0.05062716 48.9051549 0 0 Z " fill="#53C4F7" transform="translate(170,172)"/>
<path d="M0 0 C3.86933162 0.57323431 6.15222057 2.38953552 9 5 C9 5.66 9 6.32 9 7 C5.07353523 5.69117841 2.72225079 4.1255472 0 1 C0 0.67 0 0.34 0 0 Z " fill="#39A5DC" transform="translate(737,189)"/>
<path d="M0 0 C2.96404505 2.80804268 5.44499019 5.18315774 7 9 C5.8225266 8.26708288 4.65823146 7.51296199 3.5 6.75 C2.52546875 6.12351562 2.52546875 6.12351562 1.53125 5.484375 C1.0259375 4.99453125 0.520625 4.5046875 0 4 C0 2.68 0 1.36 0 0 Z " fill="#3FBDF6" transform="translate(198,754)"/>
<path d="M0 0 C2.1875 -0.3125 2.1875 -0.3125 5 0 C7.8125 2.5 7.8125 2.5 10 5 C6.08788267 3.84414715 3.1254959 2.64465038 0 0 Z " fill="#2973AC" transform="translate(728,186)"/>
</svg>
