<?xml version="1.0" encoding="UTF-8"?>
<svg version="1.1" xmlns="http://www.w3.org/2000/svg" width="500" height="500">
<path d="M0 0 C-3.67454059 10.75465557 -14.77888593 18.93309205 -22.67179871 26.8391571 C-23.83043059 28.00324897 -24.98885953 29.16754286 -26.14710504 30.33201915 C-29.30539982 33.50602174 -32.46674081 36.67697432 -35.62867343 39.84735239 C-38.34595807 42.57269046 -41.06142484 45.29983631 -43.77689167 48.02698543 C-53.48534384 57.77712342 -63.20095089 67.52011839 -72.91796875 77.26171875 C-73.68478085 78.03050575 -74.45159296 78.79929276 -75.24164179 79.59137633 C-90.47426743 94.86314926 -105.70963558 110.13218391 -120.95070934 125.39552593 C-124.29326971 128.74305517 -127.63579226 132.09062216 -130.97827148 135.43823242 C-132.22433462 136.68620157 -132.22433462 136.68620157 -133.49557076 137.95938221 C-146.98471015 151.46993213 -160.45996452 164.99424627 -173.92981704 178.52402212 C-187.7642976 192.41954026 -201.61189163 206.30188234 -215.4722746 220.1715644 C-223.25244972 227.95765809 -231.02656558 235.74960525 -238.78584862 243.55652428 C-245.38496502 250.19611932 -251.99567807 256.82387825 -258.62215205 263.43617489 C-262.0040159 266.81154797 -265.37985579 270.19243417 -268.74077606 273.58867264 C-271.81424009 276.69417563 -274.90324651 279.78326128 -278.00570814 282.85978768 C-279.12809669 283.97850698 -280.24452795 285.10323995 -281.35445895 286.23432001 C-282.85875471 287.76554925 -284.38281682 289.27383517 -285.91398907 290.77811718 C-287.17911391 292.04641598 -287.17911391 292.04641598 -288.46979684 293.34033698 C-291 295 -291 295 -294.189946 294.87055713 C-297.44519006 293.86207974 -298.62551528 292.81386987 -300.75 290.1875 C-301.32234375 289.50042969 -301.8946875 288.81335938 -302.484375 288.10546875 C-303.9050156 286.13194998 -304.98857274 284.20629966 -306 282 C-306.66 282 -307.32 282 -308 282 C-308 281.34 -308 280.68 -308 280 C-308.58265625 279.7421875 -309.1653125 279.484375 -309.765625 279.21875 C-312.1802903 277.90165983 -313.81740177 276.44911616 -315.75 274.5 C-316.36359375 273.8915625 -316.9771875 273.283125 -317.609375 272.65625 C-319 271 -319 271 -319 269 C-319.66 269 -320.32 269 -321 269 C-321 268.34 -321 267.68 -321 267 C-321.66 267 -322.32 267 -323 267 C-323 266.34 -323 265.68 -323 265 C-323.58265625 264.7421875 -324.1653125 264.484375 -324.765625 264.21875 C-327.1802903 262.90165983 -328.81740177 261.44911616 -330.75 259.5 C-331.36359375 258.8915625 -331.9771875 258.283125 -332.609375 257.65625 C-334 256 -334 256 -334 254 C-334.66 254 -335.32 254 -336 254 C-336 253.34 -336 252.68 -336 252 C-336.58265625 251.7421875 -337.1653125 251.484375 -337.765625 251.21875 C-340.1802903 249.90165983 -341.81740177 248.44911616 -343.75 246.5 C-344.36359375 245.8915625 -344.9771875 245.283125 -345.609375 244.65625 C-347 243 -347 243 -347 241 C-347.66 241 -348.32 241 -349 241 C-349 240.34 -349 239.68 -349 239 C-349.66 239 -350.32 239 -351 239 C-351 238.34 -351 237.68 -351 237 C-351.57105469 236.74863281 -352.14210938 236.49726563 -352.73046875 236.23828125 C-355.31032205 234.83068487 -357.18943905 233.2174102 -359.3125 231.1875 C-360.38951172 230.18783203 -360.38951172 230.18783203 -361.48828125 229.16796875 C-363 227 -363 227 -362.9453125 224.5390625 C-361.86337364 221.63302837 -360.49453508 219.60957308 -358.5625 217.1875 C-357.94503906 216.39730469 -357.32757813 215.60710937 -356.69140625 214.79296875 C-355.85416016 213.90544922 -355.85416016 213.90544922 -355 213 C-354.34 213 -353.68 213 -353 213 C-353 212.34 -353 211.68 -353 211 C-352.34 211 -351.68 211 -351 211 C-350.77441406 210.45601562 -350.54882812 209.91203125 -350.31640625 209.3515625 C-348.58776213 206.26359881 -346.35449856 203.95545026 -343.9375 201.375 C-340.58466353 197.95790247 -340.58466353 197.95790247 -338 194 C-337.34 194 -336.68 194 -336 194 C-336 193.34 -336 192.68 -336 192 C-335.34 192 -334.68 192 -334 192 C-333.61714844 191.13387085 -333.61714844 191.13387085 -333.2265625 190.25024414 C-331.87212704 187.76540505 -330.33617265 186.03320324 -328.375 183.99609375 C-327.31539062 182.88524414 -327.31539062 182.88524414 -326.234375 181.75195312 C-325.49703125 180.98818359 -324.7596875 180.22441406 -324 179.4375 C-322.53972303 177.91722913 -321.08130756 176.39516745 -319.625 174.87109375 C-318.97789062 174.20005615 -318.33078125 173.52901855 -317.6640625 172.83764648 C-315.82583567 170.89835738 -315.82583567 170.89835738 -314 168 C-313.34 168 -312.68 168 -312 168 C-312 167.34 -312 166.68 -312 166 C-311.34 166 -310.68 166 -310 166 C-309.61521484 165.12214844 -309.61521484 165.12214844 -309.22265625 164.2265625 C-307.89437838 161.80765392 -306.43475199 160.26801128 -304.4375 158.375 C-301.85984611 155.95478041 -301.85984611 155.95478041 -300 153 C-299.34 153 -298.68 153 -298 153 C-297.76410156 152.43539062 -297.52820313 151.87078125 -297.28515625 151.2890625 C-295.70765058 148.47928037 -293.75948714 146.60380949 -291.4375 144.375 C-288.30957946 141.48929319 -288.30957946 141.48929319 -286 138 C-285.34 138 -284.68 138 -284 138 C-284 137.34 -284 136.68 -284 136 C-283.34 136 -282.68 136 -282 136 C-282 135.34 -282 134.68 -282 134 C-281.34 134 -280.68 134 -280 134 C-279.76667969 133.43796875 -279.53335938 132.8759375 -279.29296875 132.296875 C-277.68062924 129.43265858 -275.6806438 127.52747979 -273.3125 125.25 C-268.41888036 120.45509892 -263.82265104 115.5132997 -259.53125 110.171875 C-258.38987657 108.7517941 -257.1997374 107.37112845 -256 106 C-255.34 106 -254.68 106 -254 106 C-253.7834375 105.46503906 -253.566875 104.93007812 -253.34375 104.37890625 C-251.51527832 101.14187354 -249.04385824 98.61474407 -246.5 95.9375 C-245.41632566 94.78026716 -244.33299813 93.62270945 -243.25 92.46484375 C-242.70601563 91.88589355 -242.16203125 91.30694336 -241.6015625 90.71044922 C-239.21296466 88.15945586 -236.85464438 85.58240016 -234.5 83 C-233.33984375 81.7315625 -233.33984375 81.7315625 -232.15625 80.4375 C-230.65571305 78.74124084 -229.22167031 76.98478736 -227.84375 75.1875 C-227.2353125 74.465625 -226.626875 73.74375 -226 73 C-225.34 73 -224.68 73 -224 73 C-223.773125 72.46375 -223.54625 71.9275 -223.3125 71.375 C-221.54429911 68.17539839 -219.46329797 65.70962777 -217 63 C-216.34 63 -215.68 63 -215 63 C-215 62.34 -215 61.68 -215 61 C-212.625 58.375 -212.625 58.375 -210 56 C-209.34 56 -208.68 56 -208 56 C-207.74476563 55.41863281 -207.48953125 54.83726563 -207.2265625 54.23828125 C-203.83549083 48.05011543 -197.3557747 43.32555281 -192.0546875 38.77734375 C-190.64707409 37.55973139 -189.25709517 36.3215168 -187.8828125 35.06640625 C-169.79741623 18.55785058 -148.40858654 6.9257642 -125 0 C-123.75347656 -0.36996094 -122.50695312 -0.73992188 -121.22265625 -1.12109375 C-82.27274991 -12.09459678 -39.19288018 -7.26440272 0 0 Z " fill="#48C4F9" transform="translate(431,24)"/>
<path d="M0 0 C1.18077621 0.00515121 1.18077621 0.00515121 2.38540649 0.01040649 C26.75989676 0.13435344 55.18919295 0.45889765 78.5625 8.25 C77.75 10.6875 77.75 10.6875 76.5625 13.25 C75.0775 13.745 75.0775 13.745 73.5625 14.25 C73.5625 14.91 73.5625 15.57 73.5625 16.25 C72.9025 16.25 72.2425 16.25 71.5625 16.25 C71.5625 16.91 71.5625 17.57 71.5625 18.25 C70.9025 18.25 70.2425 18.25 69.5625 18.25 C69.5625 18.91 69.5625 19.57 69.5625 20.25 C68.11791992 21.67333984 68.11791992 21.67333984 66.10546875 23.3359375 C61.45458683 27.29138916 57.16514174 31.53501747 52.875 35.875 C52.14216797 36.61234375 51.40933594 37.3496875 50.65429688 38.109375 C49.28958111 39.48270484 47.92590764 40.85707197 46.5637207 42.23291016 C41.65054441 47.18504661 36.69199478 52.09008437 31.72705078 56.99023438 C23.8713868 64.74793735 16.03096549 72.52086503 8.19906807 80.3025589 C3.46214196 85.00805792 -1.2798805 89.70807682 -6.03515625 94.39501953 C-10.63808799 98.93293446 -15.22636213 103.48519709 -19.80469131 108.04792786 C-21.55304529 109.78517624 -23.30668072 111.5171257 -25.06557846 113.24369812 C-27.51725162 115.65204035 -29.94972543 118.07828184 -32.37841797 120.50976562 C-33.11286636 121.22264236 -33.84731476 121.9355191 -34.60401917 122.66999817 C-35.26013687 123.33436386 -35.91625458 123.99872955 -36.59225464 124.68322754 C-37.1692555 125.25469765 -37.74625637 125.82616776 -38.34074211 126.41495514 C-39.67837767 128.26633812 -39.67837767 128.26633812 -39.30282784 130.84792328 C-38.5878974 133.57931719 -38.5878974 133.57931719 -35.4375 135.25 C-35.4375 135.91 -35.4375 136.57 -35.4375 137.25 C-34.7775 137.25 -34.1175 137.25 -33.4375 137.25 C-33.4375 137.91 -33.4375 138.57 -33.4375 139.25 C-32.87546875 139.4871875 -32.3134375 139.724375 -31.734375 139.96875 C-28.91855958 141.53947697 -26.95794584 143.46471464 -24.6875 145.75 C-23.48867188 146.94109375 -23.48867188 146.94109375 -22.265625 148.15625 C-20.4375 150.25 -20.4375 150.25 -20.4375 152.25 C-19.87546875 152.4871875 -19.3134375 152.724375 -18.734375 152.96875 C-15.91855958 154.53947697 -13.95794584 156.46471464 -11.6875 158.75 C-10.48867188 159.94109375 -10.48867188 159.94109375 -9.265625 161.15625 C-7.4375 163.25 -7.4375 163.25 -7.4375 165.25 C-6.7775 165.25 -6.1175 165.25 -5.4375 165.25 C-5.4375 165.91 -5.4375 166.57 -5.4375 167.25 C-4.87546875 167.4871875 -4.3134375 167.724375 -3.734375 167.96875 C-0.91855958 169.53947697 1.04205416 171.46471464 3.3125 173.75 C4.51132812 174.94109375 4.51132812 174.94109375 5.734375 176.15625 C7.5625 178.25 7.5625 178.25 7.5625 180.25 C8.10390625 180.4665625 8.6453125 180.683125 9.203125 180.90625 C12.37895344 182.71499997 14.76978081 185.16723799 17.3125 187.75 C17.81910156 188.24886719 18.32570313 188.74773437 18.84765625 189.26171875 C22.5625 192.99658861 22.5625 192.99658861 22.5625 195.25 C23.12453125 195.4871875 23.6865625 195.724375 24.265625 195.96875 C27.08144042 197.53947697 29.04205416 199.46471464 31.3125 201.75 C32.51132812 202.94109375 32.51132812 202.94109375 33.734375 204.15625 C35.5625 206.25 35.5625 206.25 35.5625 208.25 C36.37799316 208.57871094 36.37799316 208.57871094 37.20996094 208.9140625 C40.33917207 210.69104915 42.68935399 213.09104975 45.203125 215.625 C45.73017029 216.15013184 46.25721558 216.67526367 46.80023193 217.21630859 C47.90866928 218.32338883 49.01460046 219.4329833 50.11816406 220.54492188 C51.81356301 222.25106975 53.5194161 223.94624047 55.2265625 225.640625 C56.30272558 226.71810892 57.37826851 227.79621267 58.453125 228.875 C58.96554749 229.38337402 59.47796997 229.89174805 60.00592041 230.41552734 C63.5625 234.02005909 63.5625 234.02005909 63.5625 236.25 C64.10390625 236.46914063 64.6453125 236.68828125 65.203125 236.9140625 C68.35617673 238.69939974 70.76743337 241.08661334 73.3125 243.625 C73.81910156 244.10710937 74.32570313 244.58921875 74.84765625 245.0859375 C76.296875 246.5234375 76.296875 246.5234375 78.5625 249.25 C78.5625 250.57 78.5625 251.89 78.5625 253.25 C39.08759625 262.24549322 -3.63990767 264.9642659 -43.6875 258.6875 C-44.44178284 258.57424377 -45.19606567 258.46098755 -45.97320557 258.34429932 C-56.56118219 256.7006784 -65.10619834 253.57046286 -74.4375 248.25 C-74.4375 247.59 -74.4375 246.93 -74.4375 246.25 C-75.02015625 245.98445312 -75.6028125 245.71890625 -76.203125 245.4453125 C-83.25454422 241.67304977 -88.88627266 234.90094999 -94.4375 229.25 C-97.92572524 225.75504867 -101.42619407 222.2726063 -104.9296875 218.79296875 C-106.51488211 217.2151599 -108.09958966 215.63686367 -109.68408203 214.05834961 C-110.76521017 212.98224621 -111.84723467 211.90704256 -112.93017578 210.83276367 C-129.70013177 194.19290621 -129.70013177 194.19290621 -132.4375 188.25 C-133.0975 188.25 -133.7575 188.25 -134.4375 188.25 C-134.4375 187.59 -134.4375 186.93 -134.4375 186.25 C-135.0975 186.25 -135.7575 186.25 -136.4375 186.25 C-137.95490976 184.55096977 -139.402628 182.78927277 -140.8125 181 C-143.02979313 178.19686688 -145.1680752 175.51298803 -147.7265625 173.015625 C-149.4375 171.25 -149.4375 171.25 -149.4375 169.25 C-150.0975 169.25 -150.7575 169.25 -151.4375 169.25 C-153.04384015 167.51608049 -154.5750287 165.711909 -156.0625 163.875 C-156.87976563 162.87726563 -157.69703125 161.87953125 -158.5390625 160.8515625 C-160.4375 158.25 -160.4375 158.25 -160.4375 156.25 C-161.0975 156.25 -161.7575 156.25 -162.4375 156.25 C-164.17812009 154.17999173 -165.81608375 152.09808666 -167.4375 149.9375 C-172.45732669 143.38260175 -177.78067973 137.2626723 -183.4375 131.25 C-181.97816002 126.97397693 -179.83249426 123.86687775 -177.0625 120.3125 C-176.6284082 119.75473877 -176.19431641 119.19697754 -175.74707031 118.62231445 C-171.85841785 113.67618519 -167.77226836 108.90639139 -163.64160156 104.16186523 C-160.88796655 100.98906178 -158.2766104 97.78268438 -155.8125 94.375 C-155.02875 93.34375 -154.245 92.3125 -153.4375 91.25 C-152.7775 91.25 -152.1175 91.25 -151.4375 91.25 C-151.21449219 90.70859375 -150.99148437 90.1671875 -150.76171875 89.609375 C-149.01668837 86.50023533 -146.68431433 84.07152782 -144.25 81.5 C-143.25455278 80.4316 -142.25976139 79.36258858 -141.265625 78.29296875 C-140.78158203 77.77395996 -140.29753906 77.25495117 -139.79882812 76.72021484 C-136.07459049 72.69809163 -132.47145777 68.59135062 -129.125 64.25 C-128.2896875 63.26 -128.2896875 63.26 -127.4375 62.25 C-126.7775 62.25 -126.1175 62.25 -125.4375 62.25 C-125.4375 61.59 -125.4375 60.93 -125.4375 60.25 C-124.7775 60.25 -124.1175 60.25 -123.4375 60.25 C-123.23382813 59.72019531 -123.03015625 59.19039063 -122.8203125 58.64453125 C-120.83679506 55.20979624 -118.13617359 52.69710772 -115.3125 49.9375 C-114.72791016 49.36008057 -114.14332031 48.78266113 -113.54101562 48.18774414 C-109.3139013 44.03945032 -104.99757372 40.03205166 -100.4375 36.25 C-99.48875 35.445625 -98.54 34.64125 -97.5625 33.8125 C-95.4375 32.25 -95.4375 32.25 -93.4375 32.25 C-93.4375 31.59 -93.4375 30.93 -93.4375 30.25 C-91.46539358 28.82739691 -89.4994029 27.53076106 -87.4375 26.25 C-86.21585248 25.46139176 -84.99450782 24.67231418 -83.7734375 23.8828125 C-57.51939915 7.1807964 -31.06028694 -0.22341371 0 0 Z " fill="#47C4F9" transform="translate(352.4375,222.75)"/>
<path d="M0 0 C0.99 0.66 1.98 1.32 3 2 C3 2.66 3 3.32 3 4 C3.66 4 4.32 4 5 4 C5 4.66 5 5.32 5 6 C5.56203125 6.2371875 6.1240625 6.474375 6.703125 6.71875 C9.51894042 8.28947697 11.47955416 10.21471464 13.75 12.5 C14.54921875 13.2940625 15.3484375 14.088125 16.171875 14.90625 C18 17 18 17 18 19 C18.56203125 19.2371875 19.1240625 19.474375 19.703125 19.71875 C22.51894042 21.28947697 24.47955416 23.21471464 26.75 25.5 C27.54921875 26.2940625 28.3484375 27.088125 29.171875 27.90625 C31 30 31 30 31 32 C31.66 32 32.32 32 33 32 C33 32.66 33 33.32 33 34 C33.56203125 34.2371875 34.1240625 34.474375 34.703125 34.71875 C37.51894042 36.28947697 39.47955416 38.21471464 41.75 40.5 C42.54921875 41.2940625 43.3484375 42.088125 44.171875 42.90625 C46 45 46 45 46 47 C46.54140625 47.2165625 47.0828125 47.433125 47.640625 47.65625 C50.81645344 49.46499997 53.20728081 51.91723799 55.75 54.5 C56.25660156 54.99886719 56.76320313 55.49773437 57.28515625 56.01171875 C61 59.74658861 61 59.74658861 61 62 C61.56203125 62.2371875 62.1240625 62.474375 62.703125 62.71875 C65.51894042 64.28947697 67.47955416 66.21471464 69.75 68.5 C70.94882812 69.69109375 70.94882812 69.69109375 72.171875 70.90625 C74 73 74 73 74 75 C74.54366211 75.21914063 75.08732422 75.43828125 75.64746094 75.6640625 C78.77667207 77.44104915 81.12685399 79.84104975 83.640625 82.375 C84.16767029 82.90013184 84.69471558 83.42526367 85.23773193 83.96630859 C86.34616928 85.07338883 87.45210046 86.1829833 88.55566406 87.29492188 C90.25106301 89.00106975 91.9569161 90.69624047 93.6640625 92.390625 C94.74022558 93.46810892 95.81576851 94.54621267 96.890625 95.625 C97.40304749 96.13337402 97.91546997 96.64174805 98.44342041 97.16552734 C102 100.77005909 102 100.77005909 102 103 C102.54140625 103.21914063 103.0828125 103.43828125 103.640625 103.6640625 C106.79367673 105.44939974 109.20493337 107.83661334 111.75 110.375 C112.25660156 110.85710937 112.76320313 111.33921875 113.28515625 111.8359375 C114.734375 113.2734375 114.734375 113.2734375 117 116 C117 117.32 117 118.64 117 120 C77.52509625 128.99549322 34.79759233 131.7142659 -5.25 125.4375 C-6.00428284 125.32424377 -6.75856567 125.21098755 -7.53570557 125.09429932 C-18.12368219 123.4506784 -26.66869834 120.32046286 -36 115 C-36 114.34 -36 113.68 -36 113 C-36.58265625 112.73445313 -37.1653125 112.46890625 -37.765625 112.1953125 C-41.68479875 110.09869158 -44.74802379 106.99726769 -48 104 C-48.67675781 103.38898438 -49.35351562 102.77796875 -50.05078125 102.1484375 C-54.65685924 97.80173089 -57.92753632 93.22408365 -61.19921875 87.81640625 C-63.61969037 84.03080964 -66.41681623 80.63063369 -69.30078125 77.19140625 C-71.72847479 74.06051872 -72.86487094 71.98065091 -73.41015625 68.0234375 C-72.86935265 64.0369424 -71.53787517 63.11084477 -68.4375 60.625 C-64.37987435 57.22645197 -60.92769914 53.76014285 -57.53125 49.71484375 C-55.57304993 47.52185949 -53.29085353 45.83268282 -51 44 C-50.690625 43.34 -50.38125 42.68 -50.0625 42 C-48.76024171 39.54869027 -47.08008943 38.68917979 -44.76953125 37.25 C-39.59838283 33.59709162 -35.41314923 28.5281478 -31.3125 23.75 C-28.75784382 20.7782571 -26.1233372 18.38359944 -23 16 C-21.31126121 14.35570171 -19.64694485 12.68615782 -18 11 C-17.09121094 10.10667969 -17.09121094 10.10667969 -16.1640625 9.1953125 C-15.53242188 8.57398438 -14.90078125 7.95265625 -14.25 7.3125 C-13.65703125 6.73113281 -13.0640625 6.14976562 -12.453125 5.55078125 C-10.90358196 4.04486026 -10.90358196 4.04486026 -10 2 C-9.34 2 -8.68 2 -8 2 C-8 1.34 -8 0.68 -8 0 C-5.08931154 -1.45534423 -3.1172005 -0.69977971 0 0 Z " fill="#02559D" transform="translate(314,356)"/>
<path d="M0 0 C5.31140555 3.76302761 9.66038158 8.63188811 13.83984375 13.58203125 C18.48223111 18.77848293 23.52973197 23.60553588 28.48535156 28.5012207 C28.98518555 28.99581787 29.48501953 29.49041504 30 30 C30.55913086 30.51715576 31.11826172 31.03431152 31.69433594 31.56713867 C33 33 33 33 33 35 C33.556875 35.226875 34.11375 35.45375 34.6875 35.6875 C37.61637557 37.34983479 39.66428025 39.61377061 42 42 C43.48820137 43.49096401 44.97793573 44.98039862 46.46875 46.46875 C56.53125 56.53125 56.53125 56.53125 58.890625 58.89453125 C60.14570973 60.14729175 61.40469952 61.39618949 62.671875 62.63671875 C65.89991197 65.79982394 65.89991197 65.79982394 67 68 C66.34 68 65.68 68 65 68 C65 68.66 65 69.32 65 70 C64.34 70 63.68 70 63 70 C63 70.66 63 71.32 63 72 C62.34 72 61.68 72 61 72 C60.73445312 72.59167969 60.46890625 73.18335938 60.1953125 73.79296875 C58.96662421 76.06162523 57.71612243 77.51847605 55.875 79.3125 C55.33617187 79.84488281 54.79734375 80.37726563 54.2421875 80.92578125 C52.93632294 82.13381972 51.61641179 83.32760331 50.26367188 84.48291016 C45.05710362 88.93199682 40.37874612 93.7076587 35.75 98.75 C34.3727747 100.24754053 32.99266556 101.74243519 31.609375 103.234375 C30.7117041 104.21229004 30.7117041 104.21229004 29.79589844 105.20996094 C24.99018003 110 24.99018003 110 22 110 C21.79375 110.721875 21.5875 111.44375 21.375 112.1875 C19.6003512 115.81746346 17.13869148 117.5018578 14 120 C12.99426222 121.32901064 11.99204592 122.66073801 11 124 C10.34 124 9.68 124 9 124 C8.63261719 124.88558594 8.63261719 124.88558594 8.2578125 125.7890625 C6.79592248 128.35872011 5.21473411 129.58875138 2.875 131.375 C-0.29956784 134.0756743 -0.29956784 134.0756743 -1.875 137.875 C0.20594873 145.30695974 5.88346848 151.25684801 10.77734375 157.0546875 C11.18082031 157.69664062 11.58429688 158.33859375 12 159 C11.67 159.99 11.34 160.98 11 162 C7.56446391 158.58942868 4.13241435 155.1753981 0.70336914 151.75830078 C-0.46042274 150.59949681 -1.62511549 149.44159678 -2.79077148 148.28466797 C-20.25439269 130.94840908 -20.25439269 130.94840908 -23 125 C-23.66 125 -24.32 125 -25 125 C-25 124.34 -25 123.68 -25 123 C-25.66 123 -26.32 123 -27 123 C-28.51740976 121.30096977 -29.965128 119.53927277 -31.375 117.75 C-33.59229313 114.94686688 -35.7305752 112.26298803 -38.2890625 109.765625 C-40 108 -40 108 -40 106 C-40.66 106 -41.32 106 -42 106 C-43.60634015 104.26608049 -45.1375287 102.461909 -46.625 100.625 C-47.44226563 99.62726563 -48.25953125 98.62953125 -49.1015625 97.6015625 C-51 95 -51 95 -51 93 C-51.66 93 -52.32 93 -53 93 C-54.8270373 90.847559 -56.54909065 88.6863134 -58.25 86.4375 C-59.24222666 85.14616404 -60.2357044 83.85578835 -61.23046875 82.56640625 C-61.70790527 81.94652832 -62.1853418 81.32665039 -62.67724609 80.68798828 C-64.24178047 78.69145992 -65.8808743 76.77360966 -67.5625 74.875 C-72.05099602 69.58087649 -72.05099602 69.58087649 -71.9375 66.0625 C-70.58131752 63.07889854 -68.33473382 61.28043768 -66 59 C-65.29875 57.9275 -64.5975 56.855 -63.875 55.75 C-62 53 -62 53 -59 52 C-57.78130071 49.49552484 -57.78130071 49.49552484 -57 47 C-56.34 47 -55.68 47 -55 47 C-54.67 45.68 -54.34 44.36 -54 43 C-53.030625 42.855625 -52.06125 42.71125 -51.0625 42.5625 C-45.36847716 40.96863559 -41.87745747 36.20667556 -38 32 C-33 27 -33 27 -30.5 24.5625 C-27.94454137 22.02477047 -27.94454137 22.02477047 -25.6875 19.125 C-23.71070154 16.69724439 -21.57742341 14.7086657 -19.1875 12.6875 C-15.28285118 9.37558725 -11.9782314 5.71545125 -8.6640625 1.8203125 C-5.73338976 -1.38554078 -4.03839246 -1.19722254 0 0 Z " fill="#01B3F6" transform="translate(243,286)"/>
<path d="M0 0 C4.91427279 1.48917357 8.40319126 4.44186662 12 8 C12.33 8.66 12.66 9.32 13 10 C13.99 10.33 14.98 10.66 16 11 C16 11.66 16 12.32 16 13 C16.99 13.33 17.98 13.66 19 14 C20.60546875 15.55859375 20.60546875 15.55859375 22.1875 17.4375 C22.71730469 18.05496094 23.24710938 18.67242187 23.79296875 19.30859375 C25 21 25 21 25 23 C25.99 23.33 26.98 23.66 28 24 C28 24.66 28 25.32 28 26 C28.57435791 26.24838623 29.14871582 26.49677246 29.74047852 26.75268555 C32.33942136 28.18736939 34.06959671 29.84318058 36.15234375 31.95703125 C36.92900391 32.74013672 37.70566406 33.52324219 38.50585938 34.33007812 C39.30830078 35.14927734 40.11074219 35.96847656 40.9375 36.8125 C41.73607422 37.62009766 42.53464844 38.42769531 43.35742188 39.25976562 C46.10428018 42.03848476 48.85014096 44.81805187 51.57470703 47.61865234 C53.63929956 49.72498504 55.52422382 51.34948255 58 53 C58.66796875 54.8125 58.66796875 54.8125 59.1875 57 C61.27103507 63.89683532 66.19924109 68.74653221 70.8125 74.10546875 C71.204375 74.73066406 71.59625 75.35585938 72 76 C71.505 77.485 71.505 77.485 71 79 C67.56446391 75.58942868 64.13241435 72.1753981 60.70336914 68.75830078 C59.53957726 67.59949681 58.37488451 66.44159678 57.20922852 65.28466797 C39.74560731 47.94840908 39.74560731 47.94840908 37 42 C36.34 42 35.68 42 35 42 C35 41.34 35 40.68 35 40 C34.34 40 33.68 40 33 40 C31.48259024 38.30096977 30.034872 36.53927277 28.625 34.75 C26.40770687 31.94686688 24.2694248 29.26298803 21.7109375 26.765625 C20 25 20 25 20 23 C19.34 23 18.68 23 18 23 C16.39365985 21.26608049 14.8624713 19.461909 13.375 17.625 C12.55773437 16.62726563 11.74046875 15.62953125 10.8984375 14.6015625 C9 12 9 12 9 10 C8.34 10 7.68 10 7 10 C5.2734375 8.06640625 5.2734375 8.06640625 3.375 5.5625 C2.74335938 4.73878906 2.11171875 3.91507812 1.4609375 3.06640625 C0 1 0 1 0 0 Z " fill="#40C3FA" transform="translate(183,369)"/>
<path d="M0 0 C-3.28573315 1.89277157 -6.21821791 2.48731436 -9.9609375 3 C-11.14196045 3.1640332 -12.3229834 3.32806641 -13.53979492 3.49707031 C-15.43822144 3.74602051 -15.43822144 3.74602051 -17.375 4 C-18.3577037 4.12973206 -18.3577037 4.12973206 -19.36026001 4.26208496 C-22.69246099 4.70061908 -26.02575773 5.12886279 -29.36083984 5.54492188 C-31.52093506 5.81504246 -33.68040717 6.09036201 -35.83837891 6.37695312 C-64.35643747 10.10713976 -94.83897467 10.01109596 -123 4 C-123 3.67 -123 3.34 -123 3 C-121.89176376 2.98786972 -121.89176376 2.98786972 -120.76113892 2.97549438 C-111.38225516 2.87091252 -102.00358799 2.75316319 -92.625 2.625 C-91.5053227 2.60975218 -91.5053227 2.60975218 -90.36302567 2.59419632 C-71.73098166 2.33712907 -53.1490858 1.97008678 -34.55566406 0.66503906 C-23.02979123 -0.13396567 -11.54841893 -0.22032499 0 0 Z " fill="#49BFF6" transform="translate(426,476)"/>
<path d="M0 0 C0.66 0.33 1.32 0.66 2 1 C1.67 3.64 1.34 6.28 1 9 C-0.32 8.67 -1.64 8.34 -3 8 C-2.505 8.99 -2.505 8.99 -2 10 C-1.960008 11.99960012 -1.95653201 14.00047242 -2 16 C-2.99 16.33 -3.98 16.66 -5 17 C-5.433125 17.8971875 -5.433125 17.8971875 -5.875 18.8125 C-7.36236733 21.70460314 -9.45570516 22.98823198 -12 25 C-12.91786881 26.06472782 -13.81375654 27.14877303 -14.6875 28.25 C-15.450625 29.1575 -16.21375 30.065 -17 31 C-17.66 31 -18.32 31 -19 31 C-19.24234375 31.56203125 -19.4846875 32.1240625 -19.734375 32.703125 C-21.2556889 35.46402801 -23.06654816 37.47742767 -25.25 39.75 C-25.99765625 40.54921875 -26.7453125 41.3484375 -27.515625 42.171875 C-30.56261617 44.41400058 -32.30136651 44.36344953 -36 44 C-36.12375 44.639375 -36.2475 45.27875 -36.375 45.9375 C-36.684375 46.9584375 -36.684375 46.9584375 -37 48 C-37.99 48.495 -37.99 48.495 -39 49 C-39.309375 49.825 -39.61875 50.65 -39.9375 51.5 C-40.288125 52.325 -40.63875 53.15 -41 54 C-42.485 54.495 -42.485 54.495 -44 55 C-45.3540932 56.98600337 -46.68457624 58.98817543 -48 61 C-48.928125 61.825 -49.85625 62.65 -50.8125 63.5 C-53.39542015 65.86338152 -53.39542015 65.86338152 -52.8125 69.3125 C-52.4103125 70.6428125 -52.4103125 70.6428125 -52 72 C-53.32 71.01 -54.64 70.02 -56 69 C-54.54066002 64.72397693 -52.39499426 61.61687775 -49.625 58.0625 C-48.9738623 57.22585815 -48.9738623 57.22585815 -48.30957031 56.37231445 C-44.42091785 51.42618519 -40.33476836 46.65639139 -36.20410156 41.91186523 C-33.45046655 38.73906178 -30.8391104 35.53268438 -28.375 32.125 C-27.59125 31.09375 -26.8075 30.0625 -26 29 C-25.34 29 -24.68 29 -24 29 C-23.66548828 28.18789063 -23.66548828 28.18789063 -23.32421875 27.359375 C-21.57918837 24.25023533 -19.24681433 21.82152782 -16.8125 19.25 C-15.81705278 18.1816 -14.82226139 17.11258858 -13.828125 16.04296875 C-13.34408203 15.52395996 -12.86003906 15.00495117 -12.36132812 14.47021484 C-8.04675917 9.81054228 -3.90975121 5.00448154 0 0 Z " fill="#4DC4F5" transform="translate(225,285)"/>
<path d="M0 0 C-3.6212009 2.20175467 -7.31494119 2.61409639 -11.4453125 3.0703125 C-12.19105026 3.15662933 -12.93678802 3.24294617 -13.7051239 3.33187866 C-16.17715297 3.60995241 -18.65043736 3.87048672 -21.125 4.125 C-22.40653458 4.25757202 -22.40653458 4.25757202 -23.71395874 4.39282227 C-52.77338127 7.31797174 -82.30322254 8.12545463 -111 2 C-111 1.67 -111 1.34 -111 1 C-99.95687814 0.85340989 -89.01889539 1.2931751 -78 2 C-78 2.66 -78 3.32 -78 4 C-70.20354707 3.73994238 -62.40736369 3.47272035 -54.61132812 3.20043945 C-51.95741384 3.1086057 -49.3034416 3.01843182 -46.64941406 2.92993164 C-42.84163327 2.80267384 -39.03409866 2.66951043 -35.2265625 2.53515625 C-34.03382721 2.49656998 -32.84109192 2.4579837 -31.61221313 2.41822815 C-30.51122284 2.37826218 -29.41023254 2.3382962 -28.27587891 2.29711914 C-27.30325104 2.26380997 -26.33062317 2.23050079 -25.32852173 2.19618225 C-22.97698303 2.1428847 -22.97698303 2.1428847 -21 1 C-14.0137385 0.11718068 -7.03350091 -0.11722502 0 0 Z " fill="#7FCFF0" transform="translate(414,478)"/>
<path d="M0 0 C0.495 0.99 0.495 0.99 1 2 C0.67 2.99 0.34 3.98 0 5 C-0.66 5 -1.32 5 -2 5 C-2.2475 5.886875 -2.495 6.77375 -2.75 7.6875 C-4.04612064 11.12221969 -5.66207313 13.20957115 -8 16 C-8.33 16.99 -8.66 17.98 -9 19 C-10.65 19 -12.3 19 -14 19 C-14.12375 19.639375 -14.2475 20.27875 -14.375 20.9375 C-14.684375 21.9584375 -14.684375 21.9584375 -15 23 C-15.66 23.33 -16.32 23.66 -17 24 C-17.309375 24.825 -17.61875 25.65 -17.9375 26.5 C-18.288125 27.325 -18.63875 28.15 -19 29 C-19.99 29.33 -20.98 29.66 -22 30 C-23.3540932 31.98600337 -24.68457624 33.98817543 -26 36 C-26.928125 36.825 -27.85625 37.65 -28.8125 38.5 C-31.39542015 40.86338152 -31.39542015 40.86338152 -30.8125 44.3125 C-30.544375 45.199375 -30.27625 46.08625 -30 47 C-31.32 46.01 -32.64 45.02 -34 44 C-32.54066002 39.72397693 -30.39499426 36.61687775 -27.625 33.0625 C-26.9738623 32.22585815 -26.9738623 32.22585815 -26.30957031 31.37231445 C-22.42091785 26.42618519 -18.33476836 21.65639139 -14.20410156 16.91186523 C-11.45046655 13.73906178 -8.8391104 10.53268438 -6.375 7.125 C-5.59125 6.09375 -4.8075 5.0625 -4 4 C-3.34 4 -2.68 4 -2 4 C-1.34 2.68 -0.68 1.36 0 0 Z " fill="#72CEF1" transform="translate(203,310)"/>
<path d="M0 0 C29.85591803 -0.32408729 58.43428078 1.47019422 88 6 C88 6.33 88 6.66 88 7 C83.92497206 7.07420211 79.85020608 7.1286257 75.7746582 7.16479492 C74.38852081 7.17987397 73.00243106 7.2003405 71.61645508 7.22631836 C69.62341854 7.26273716 67.63003277 7.27813018 65.63671875 7.29296875 C64.43748779 7.3086792 63.23825684 7.32438965 62.00268555 7.34057617 C58.58007982 6.95237103 58.23403111 6.39136264 56 4 C53.46705583 3.41809488 53.46705583 3.41809488 50.56640625 3.3046875 C49.45491211 3.22911621 48.34341797 3.15354492 47.19824219 3.07568359 C45.99844727 3.00945801 44.79865234 2.94323242 43.5625 2.875 C42.33305664 2.79717285 41.10361328 2.7193457 39.83691406 2.63916016 C26.56924936 1.83623246 13.2859371 1.3753262 0 1 C0 0.67 0 0.34 0 0 Z " fill="#8AD3EE" transform="translate(335,223)"/>
<path d="M0 0 C0 0.99 0 1.98 0 3 C-1.42370871 4.22505168 -2.85557034 5.44282405 -4.33984375 6.59375 C-6.04979251 8.04217718 -7.36287147 9.55685076 -8.75 11.3125 C-9.4925 12.199375 -10.235 13.08625 -11 14 C-11.66 14 -12.32 14 -13 14 C-13.23460937 14.56203125 -13.46921875 15.1240625 -13.7109375 15.703125 C-15.30663 18.54635891 -17.28924543 20.48098127 -19.625 22.75 C-20.44226563 23.54921875 -21.25953125 24.3484375 -22.1015625 25.171875 C-22.72804687 25.77515625 -23.35453125 26.3784375 -24 27 C-24.33 26.01 -24.66 25.02 -25 24 C-23.8203125 21.80859375 -23.8203125 21.80859375 -22.125 19.4375 C-19.89372857 16.31956534 -19.89372857 16.31956534 -18 13 C-17.34 13 -16.68 13 -16 13 C-16 12.34 -16 11.68 -16 11 C-15.34 11 -14.68 11 -14 11 C-14 10.34 -14 9.68 -14 9 C-13.01 8.67 -12.02 8.34 -11 8 C-10.484375 7.484375 -9.96875 6.96875 -9.4375 6.4375 C-8.963125 5.963125 -8.48875 5.48875 -8 5 C-7.34 5 -6.68 5 -6 5 C-6 4.34 -6 3.68 -6 3 C-4.02 2.01 -2.04 1.02 0 0 Z " fill="#3DC3FC" transform="translate(219,302)"/>
<path d="M0 0 C2 1.375 2 1.375 4 3 C4 3.66 4 4.32 4 5 C4.99 5.33 5.98 5.66 7 6 C7 6.66 7 7.32 7 8 C7.58265625 8.25523437 8.1653125 8.51046875 8.765625 8.7734375 C11.21388223 10.11741087 12.81743248 11.61810296 14.75 13.625 C15.36359375 14.25664062 15.9771875 14.88828125 16.609375 15.5390625 C17.06828125 16.02117187 17.5271875 16.50328125 18 17 C17.34 17.33 16.68 17.66 16 18 C12.9533855 16.98446183 10.68856164 15.79237442 8 14 C7.67 13.01 7.34 12.02 7 11 C5.845 10.505 4.69 10.01 3.5 9.5 C2.345 9.005 1.19 8.51 0 8 C-0.33 7.01 -0.66 6.02 -1 5 C-1.66 5 -2.32 5 -3 5 C-3.33 4.01 -3.66 3.02 -4 2 C-3.01 2 -2.02 2 -1 2 C-0.67 1.34 -0.34 0.68 0 0 Z " fill="#44C3F7" transform="translate(204,387)"/>
<path d="M0 0 C2.04119788 1.61594832 4.04072937 3.2856382 6 5 C6 5.66 6 6.32 6 7 C6.56203125 7.23460937 7.1240625 7.46921875 7.703125 7.7109375 C10.54635891 9.30663 12.48098127 11.28924543 14.75 13.625 C15.54921875 14.44226563 16.3484375 15.25953125 17.171875 16.1015625 C17.77515625 16.72804688 18.3784375 17.35453125 19 18 C16.13822943 19.43088528 14.06624227 18.59991697 11 18 C11 17.34 11 16.68 11 16 C10.34 16 9.68 16 9 16 C8.67 14.35 8.34 12.7 8 11 C5.36 10.67 2.72 10.34 0 10 C0.66 8.02 1.32 6.04 2 4 C1.34 4 0.68 4 0 4 C0 2.68 0 1.36 0 0 Z " fill="#4880AD" transform="translate(354,396)"/>
<path d="M0 0 C8.57570203 1.54839064 12.16388961 6.0740772 17 13 C17.59039062 13.70253906 18.18078125 14.40507812 18.7890625 15.12890625 C19.18867188 15.74636719 19.58828125 16.36382812 20 17 C19.67 17.99 19.34 18.98 19 20 C15.8293305 16.85817898 12.66414446 13.71089125 9.5 10.5625 C8.59378906 9.66466797 7.68757812 8.76683594 6.75390625 7.84179688 C5.89667969 6.98779297 5.03945312 6.13378906 4.15625 5.25390625 C3.36025391 4.46314697 2.56425781 3.6723877 1.74414062 2.85766602 C0 1 0 1 0 0 Z " fill="#6CC8F0" transform="translate(235,428)"/>
<path d="M0 0 C0.33 0.99 0.66 1.98 1 3 C-2.03797468 8.62587904 -2.03797468 8.62587904 -5.25 9.875 C-5.8275 9.91625 -6.405 9.9575 -7 10 C-7 11.65 -7 13.3 -7 15 C-7.78375 15.0825 -8.5675 15.165 -9.375 15.25 C-12.09194817 15.70480489 -12.09194817 15.70480489 -13.0625 17.75 C-13.371875 18.4925 -13.68125 19.235 -14 20 C-16.621992 23.79736773 -18.55965358 25.64322748 -23 27 C-21 24.33333333 -19 21.66666667 -17 19 C-16.48050781 18.25234375 -15.96101563 17.5046875 -15.42578125 16.734375 C-14.95527344 16.16203125 -14.48476562 15.5896875 -14 15 C-13.34 15 -12.68 15 -12 15 C-12 14.34 -12 13.68 -12 13 C-11.34 13 -10.68 13 -10 13 C-9.75507812 12.43796875 -9.51015625 11.8759375 -9.2578125 11.296875 C-7.77073461 8.58134146 -5.95937218 6.53608562 -3.875 4.25 C-3.15054688 3.45078125 -2.42609375 2.6515625 -1.6796875 1.828125 C-1.12539062 1.22484375 -0.57109375 0.6215625 0 0 Z " fill="#80D1F0" transform="translate(107,203)"/>
<path d="M0 0 C2.64 0.33 5.28 0.66 8 1 C7.1875 3.4375 7.1875 3.4375 6 6 C5.01 6.33 4.02 6.66 3 7 C3 7.66 3 8.32 3 9 C2.34 9 1.68 9 1 9 C1 9.66 1 10.32 1 11 C0.34 11 -0.32 11 -1 11 C-1 11.66 -1 12.32 -1 13 C-1.99 13.33 -2.98 13.66 -4 14 C-4 12.68 -4 11.36 -4 10 C-4.66 9.67 -5.32 9.34 -6 9 C-0.69688385 3.25495751 -0.69688385 3.25495751 3 3 C3.66 3.33 4.32 3.66 5 4 C5 3.34 5 2.68 5 2 C3.35 1.67 1.7 1.34 0 1 C0 0.67 0 0.34 0 0 Z " fill="#64CAF4" transform="translate(423,230)"/>
<path d="M0 0 C3.70653731 1.23551244 4.64915435 2.96665078 7 6 C7.66 6.33 8.32 6.66 9 7 C9.6328125 9.06640625 9.6328125 9.06640625 10.125 11.5625 C10.29257813 12.38878906 10.46015625 13.21507812 10.6328125 14.06640625 C10.75398437 14.70449219 10.87515625 15.34257812 11 16 C10.01 16 9.02 16 8 16 C8 15.34 8 14.68 8 14 C6.35 13.67 4.7 13.34 3 13 C3.33 10.69 3.66 8.38 4 6 C2.35 6 0.7 6 -1 6 C-0.67 4.02 -0.34 2.04 0 0 Z " fill="#41C3FA" transform="translate(232,415)"/>
<path d="M0 0 C1.32 0.66 2.64 1.32 4 2 C2.64798215 3.54130035 1.26736622 5.05754972 -0.125 6.5625 C-0.89070312 7.40941406 -1.65640625 8.25632812 -2.4453125 9.12890625 C-5 11 -5 11 -8.3046875 10.77734375 C-9.63886719 10.39255859 -9.63886719 10.39255859 -11 10 C-11 9.34 -11 8.68 -11 8 C-9.02 8 -7.04 8 -5 8 C-5 7.34 -5 6.68 -5 6 C-6.32 6.33 -7.64 6.66 -9 7 C-9 6.01 -9 5.02 -9 4 C-6.1875 2.4375 -6.1875 2.4375 -3 1 C-2.01 1.33 -1.02 1.66 0 2 C0 1.34 0 0.68 0 0 Z " fill="#55C5F5" transform="translate(145,308)"/>
<path d="M0 0 C9.0066983 7.55316774 9.0066983 7.55316774 12 11 C12 12.32 12 13.64 12 15 C8.37 15 4.74 15 1 15 C1 14.67 1 14.34 1 14 C3.64 14 6.28 14 9 14 C9 13.01 9 12.02 9 11 C7.35 10.67 5.7 10.34 4 10 C4 9.34 4 8.68 4 8 C3.34 8 2.68 8 2 8 C0.74335022 5.09399739 0 3.20395416 0 0 Z " fill="#4984B0" transform="translate(419,461)"/>
<path d="M0 0 C0 0.33 0 0.66 0 1 C-3.3 1 -6.6 1 -10 1 C-10 1.66 -10 2.32 -10 3 C-13.96 3 -17.92 3 -22 3 C-22 3.66 -22 4.32 -22 5 C-28.435 5.495 -28.435 5.495 -35 6 C-31.70686966 3.80457977 -28.58629447 2.90978967 -24.8125 1.9375 C-24.13558105 1.7619458 -23.45866211 1.5863916 -22.76123047 1.40551758 C-14.8077307 -0.61106465 -8.13047754 -1.22333574 0 0 Z " fill="#72CBF0" transform="translate(338,20)"/>
<path d="M0 0 C2.475 0.495 2.475 0.495 5 1 C5.33 2.32 5.66 3.64 6 5 C6.53625 5.103125 7.0725 5.20625 7.625 5.3125 C10.62502044 6.18092697 13.2379535 7.55620296 16 9 C15.67 9.66 15.34 10.32 15 11 C14.34 11 13.68 11 13 11 C13.33 12.32 13.66 13.64 14 15 C13.34 15 12.68 15 12 15 C12 14.34 12 13.68 12 13 C11.34 13 10.68 13 10 13 C8.4169795 11.26303438 6.90646276 9.45943503 5.4375 7.625 C4.63183594 6.62726563 3.82617188 5.62953125 2.99609375 4.6015625 C1 2 1 2 0 0 Z " fill="#68CBF3" transform="translate(206,396)"/>
<path d="M0 0 C0.33 0.66 0.66 1.32 1 2 C-0.80288943 6.60738411 -2.88550128 9.25700085 -7 12 C-7.66 12 -8.32 12 -9 12 C-9.226875 12.804375 -9.45375 13.60875 -9.6875 14.4375 C-10.3371875 15.7059375 -10.3371875 15.7059375 -11 17 C-13.625 17.8125 -13.625 17.8125 -16 18 C-15.34 16.68 -14.68 15.36 -14 14 C-13.34 14 -12.68 14 -12 14 C-12 13.34 -12 12.68 -12 12 C-11.34 12 -10.68 12 -10 12 C-10 11.34 -10 10.68 -10 10 C-9.34 10 -8.68 10 -8 10 C-7.79375 9.46375 -7.5875 8.9275 -7.375 8.375 C-5.42003056 4.9982346 -2.81776305 2.69525161 0 0 Z " fill="#84D2EF" transform="translate(159,148)"/>
<path d="M0 0 C-2.83244103 1.5865974 -5.00217362 2.27973416 -8.23828125 2.44921875 C-9.05200195 2.49312744 -9.86572266 2.53703613 -10.70410156 2.58227539 C-11.99525879 2.63436157 -11.99525879 2.63436157 -13.3125 2.6875 C-14.19518555 2.7280249 -15.07787109 2.7685498 -15.98730469 2.81030273 C-23.7231608 3.10713723 -31.29826566 2.75850414 -39 2 C-39 1.67 -39 1.34 -39 1 C-26.00156173 -0.16652651 -13.04119828 -0.10531468 0 0 Z " fill="#55B5E8" transform="translate(426,476)"/>
<path d="M0 0 C0.60546875 1.87890625 0.60546875 1.87890625 1 4 C-0.6875 5.9375 -0.6875 5.9375 -3 8 C-3.639375 8.804375 -4.27875 9.60875 -4.9375 10.4375 C-7.13610979 13.16910611 -9.42075481 15.62437943 -12 18 C-12.66 18 -13.32 18 -14 18 C-14 18.66 -14 19.32 -14 20 C-14.99 19.67 -15.98 19.34 -17 19 C-16.443125 18.38253906 -15.88625 17.76507813 -15.3125 17.12890625 C-10.18569228 11.4391889 -5.08048256 5.73111656 0 0 Z " fill="#7ACFF0" transform="translate(198,105)"/>
<path d="M0 0 C0.66 0.33 1.32 0.66 2 1 C1.26418258 2.1549921 0.51069961 3.29874185 -0.25 4.4375 C-0.66765625 5.07558594 -1.0853125 5.71367187 -1.515625 6.37109375 C-3.28819276 8.31625364 -4.48439905 8.46131622 -7 9 C-7.268125 9.66 -7.53625 10.32 -7.8125 11 C-8.204375 11.66 -8.59625 12.32 -9 13 C-12.625 13.75 -12.625 13.75 -16 14 C-13.19195732 11.03595495 -10.81684226 8.55500981 -7 7 C-7 6.34 -7 5.68 -7 5 C-5.03277992 3.61876037 -3.03131672 2.28511874 -1 1 C-0.67 0.67 -0.34 0.34 0 0 Z " fill="#7DD0F1" transform="translate(266,248)"/>
<path d="M0 0 C-3.20380017 2.13586678 -4.01939967 2.23132175 -7.6875 2.125 C-8.49574219 2.10695312 -9.30398438 2.08890625 -10.13671875 2.0703125 C-11.05904297 2.03550781 -11.05904297 2.03550781 -12 2 C-12 2.66 -12 3.32 -12 4 C-14.64 4 -17.28 4 -20 4 C-20 4.66 -20 5.32 -20 6 C-22.97 6 -25.94 6 -29 6 C-26.26811573 3.26811573 -23.20723009 2.77615115 -19.5625 1.875 C-18.49128906 1.60671387 -18.49128906 1.60671387 -17.3984375 1.33300781 C-11.55100857 -0.0448648 -6.00591293 -0.4580781 0 0 Z " fill="#7BCDEE" transform="translate(331,225)"/>
<path d="M0 0 C11.04312186 -0.14659011 21.98110461 0.2931751 33 1 C33 1.66 33 2.32 33 3 C21.78461253 3.20127315 11.03691812 3.25572049 0 1 C0 0.67 0 0.34 0 0 Z " fill="#51C2F5" transform="translate(303,479)"/>
<path d="M0 0 C0.33 1.32 0.66 2.64 1 4 C0.51789063 4.38671875 0.03578125 4.7734375 -0.4609375 5.171875 C-1.09257812 5.69265625 -1.72421875 6.2134375 -2.375 6.75 C-3.00148437 7.26046875 -3.62796875 7.7709375 -4.2734375 8.296875 C-6.11196418 9.91150641 -6.11196418 9.91150641 -7 12.15625 C-7.33 12.7646875 -7.66 13.373125 -8 14 C-11.625 14.75 -11.625 14.75 -15 15 C-10.45200375 9.40246616 -5.47668152 4.6856053 0 0 Z " fill="#77CFF2" transform="translate(246,56)"/>
<path d="M0 0 C0.66 0.33 1.32 0.66 2 1 C1.23151537 2.25144533 0.46009379 3.50108733 -0.3125 4.75 C-0.76625 5.48476563 -1.22 6.21953125 -1.6875 6.9765625 C-3 9 -3 9 -4.8125 11.125 C-6.48687735 13.76875371 -6.20840375 15.94341173 -6 19 C-5.34 19.33 -4.68 19.66 -4 20 C-4.99 20 -5.98 20 -7 20 C-8.82225203 17.65710453 -10 16.02115891 -10 13 C-8.55236584 10.10473167 -6.3078043 8.25413443 -4 6 C-2.56213727 4.05058996 -1.28961943 2.05383835 0 0 Z " fill="#21BBF4" transform="translate(181,339)"/>
<path d="M0 0 C0.33 0.99 0.66 1.98 1 3 C-0.2578125 4.8671875 -0.2578125 4.8671875 -2.125 6.875 C-2.76953125 7.57625 -3.4140625 8.2775 -4.078125 9 C-5.65908239 10.64522395 -7.25219094 12.27128281 -8.875 13.875 C-11.03952847 15.8155338 -11.03952847 15.8155338 -12 18 C-12.66 18 -13.32 18 -14 18 C-12.51131293 13.39860359 -10.25370145 10.49772906 -7 7 C-6.34 7 -5.68 7 -5 7 C-5 6.34 -5 5.68 -5 5 C-4.34 5 -3.68 5 -3 5 C-2.690625 4.360625 -2.38125 3.72125 -2.0625 3.0625 C-1 1 -1 1 0 0 Z " fill="#85D5F1" transform="translate(83,230)"/>
<path d="M0 0 C0.66 0 1.32 0 2 0 C3.4453125 1.46875 3.4453125 1.46875 5.125 3.5 C8.8615876 7.90524012 12.86943366 11.96599235 17 16 C16.01 16.33 15.02 16.66 14 17 C12.5 15.625 12.5 15.625 11 14 C11 13.34 11 12.68 11 12 C10.01 11.67 9.02 11.34 8 11 C8 10.34 8 9.68 8 9 C7.34 9 6.68 9 6 9 C6 8.34 6 7.68 6 7 C5.38125 6.773125 4.7625 6.54625 4.125 6.3125 C1.38589791 4.62070165 0.94975528 3.00755839 0 0 Z " fill="#0BB2EF" transform="translate(280,324)"/>
<path d="M0 0 C0.66 0.33 1.32 0.66 2 1 C-0.7612268 6.28234693 -3.52020256 8.12234494 -8.9765625 10.43359375 C-11 11 -11 11 -13 10 C-8.71 6.7 -4.42 3.4 0 0 Z " fill="#7CCFF2" transform="translate(261,45)"/>
<path d="M0 0 C0.99 0.33 1.98 0.66 3 1 C3 1.66 3 2.32 3 3 C3.87398437 3.38285156 3.87398437 3.38285156 4.765625 3.7734375 C7.21388223 5.11741087 8.81743248 6.61810296 10.75 8.625 C11.36359375 9.25664062 11.9771875 9.88828125 12.609375 10.5390625 C13.29773438 11.26222656 13.29773438 11.26222656 14 12 C13.01 12.495 13.01 12.495 12 13 C8.9533855 11.98446183 6.68856164 10.79237442 4 9 C3.8125 6.375 3.8125 6.375 4 4 C2.68 3.34 1.36 2.68 0 2 C0 1.34 0 0.68 0 0 Z " fill="#37C5FB" transform="translate(208,392)"/>
<path d="M0 0 C0.33 0.66 0.66 1.32 1 2 C-2.68336255 6.4688635 -5.85335931 10.19274144 -11 13 C-11 13.66 -11 14.32 -11 15 C-12.32 14.67 -13.64 14.34 -15 14 C-10.18045285 9.08406191 -5.39294334 4.28669855 0 0 Z " fill="#0166AF" transform="translate(295,368)"/>
<path d="M0 0 C5.75 0.875 5.75 0.875 8 2 C8 2.66 8 3.32 8 4 C9.010625 4.144375 10.02125 4.28875 11.0625 4.4375 C14.70833333 4.95833333 18.35416667 5.47916667 22 6 C22 6.66 22 7.32 22 8 C13.50515863 7.96241221 7.3295066 5.11812484 0 1 C0 0.67 0 0.34 0 0 Z " fill="#4D85AE" transform="translate(280,471)"/>
<path d="M0 0 C0.66 0.33 1.32 0.66 2 1 C1.67 3.64 1.34 6.28 1 9 C0.29875 9.12375 -0.4025 9.2475 -1.125 9.375 C-4.17656387 10.03838345 -7.05340938 10.97211955 -10 12 C-9.61328125 11.55269531 -9.2265625 11.10539062 -8.828125 10.64453125 C-5.81609925 7.1478974 -2.85678969 3.62592537 0 0 Z " fill="#7DD0F4" transform="translate(225,285)"/>
<path d="M0 0 C0.99 0.495 0.99 0.495 2 1 C2 1.66 2 2.32 2 3 C2.87398438 3.38285156 2.87398438 3.38285156 3.765625 3.7734375 C6.21388223 5.11741087 7.81743248 6.61810296 9.75 8.625 C10.36359375 9.25664062 10.9771875 9.88828125 11.609375 10.5390625 C12.29773438 11.26222656 12.29773438 11.26222656 13 12 C12.01 12.495 12.01 12.495 11 13 C10.01 12.67 9.02 12.34 8 12 C8 11.34 8 10.68 8 10 C7.01 9.67 6.02 9.34 5 9 C3.97980427 8.0206121 2.97850195 7.02104551 2 6 C1.34 5.67 0.68 5.34 0 5 C0 3.35 0 1.7 0 0 Z " fill="#5E8FB5" transform="translate(373,415)"/>
<path d="M0 0 C-1.65 1.98 -3.3 3.96 -5 6 C-5.99 5.67 -6.98 5.34 -8 5 C-10.33299825 4.96045766 -12.66708189 4.95598268 -15 5 C-12.91806813 2.91806813 -11.28020285 2.03424616 -8.625 0.8125 C-7.85414063 0.44769531 -7.08328125 0.08289063 -6.2890625 -0.29296875 C-3.72666635 -1.08442558 -2.48946307 -0.89234179 0 0 Z " fill="#75CCF1" transform="translate(302,232)"/>
<path d="M0 0 C4.64769602 0.82018165 7.12003158 1.59213371 10 5.4375 C11.25 7.24609375 11.25 7.24609375 12 9 C11.67 9.99 11.34 10.98 11 12 C9.16364422 10.19047409 7.33083792 8.37759362 5.5 6.5625 C4.97535156 6.04623047 4.45070312 5.52996094 3.91015625 4.99804688 C2.58775448 3.68423213 1.29164432 2.34406495 0 1 C0 0.67 0 0.34 0 0 Z " fill="#85CBEA" transform="translate(243,436)"/>
<path d="M0 0 C0.33 1.32 0.66 2.64 1 4 C0.01 4 -0.98 4 -2 4 C-2 4.66 -2 5.32 -2 6 C-2.66 6 -3.32 6 -4 6 C-4.061875 6.94875 -4.12375 7.8975 -4.1875 8.875 C-5 12 -5 12 -7.4375 13.4375 C-10 14 -10 14 -12 13 C-10.88200014 11.66079162 -9.75538103 10.32877444 -8.625 9 C-7.99851563 8.2575 -7.37203125 7.515 -6.7265625 6.75 C-6.15679687 6.1725 -5.58703125 5.595 -5 5 C-4.34 5 -3.68 5 -3 5 C-2.690625 4.360625 -2.38125 3.72125 -2.0625 3.0625 C-1 1 -1 1 0 0 Z " fill="#6FCEF5" transform="translate(180,125)"/>
<path d="M0 0 C4.80470023 1.60156674 7.59195315 3.78735495 10.3125 8.0625 C11 10 11 10 10 13 C9.67 12.01 9.34 11.02 9 10 C8.34 10 7.68 10 7 10 C5.2734375 8.06640625 5.2734375 8.06640625 3.375 5.5625 C2.74335938 4.73878906 2.11171875 3.91507812 1.4609375 3.06640625 C0 1 0 1 0 0 Z " fill="#79D1F3" transform="translate(183,369)"/>
<path d="M0 0 C7.48291572 6.15034169 7.48291572 6.15034169 10 10 C9.34 10 8.68 10 8 10 C7.67 10.66 7.34 11.32 7 12 C7 10.68 7 9.36 7 8 C4.69 7.67 2.38 7.34 0 7 C0 4.69 0 2.38 0 0 Z " fill="#568AB2" transform="translate(333,375)"/>
<path d="M0 0 C6.26086957 1.04347826 6.26086957 1.04347826 9 3 C9.625 5.5 9.625 5.5 10 8 C10.66 8.66 11.32 9.32 12 10 C9 10 9 10 7.17578125 8.5390625 C6.56089844 7.90742188 5.94601563 7.27578125 5.3125 6.625 C4.68988281 5.99851562 4.06726563 5.37203125 3.42578125 4.7265625 C2 3 2 3 2 1 C1.34 0.67 0.68 0.34 0 0 Z " fill="#7DD2F2" transform="translate(123,305)"/>
<path d="M0 0 C0.99 0.33 1.98 0.66 3 1 C-0.63 4.63 -4.26 8.26 -8 12 C-8.33 11.01 -8.66 10.02 -9 9 C-8.34 9 -7.68 9 -7 9 C-7 7.35 -7 5.7 -7 4 C-5.68 4.33 -4.36 4.66 -3 5 C-2.814375 4.0409375 -2.814375 4.0409375 -2.625 3.0625 C-2.41875 2.381875 -2.2125 1.70125 -2 1 C-1.34 0.67 -0.68 0.34 0 0 Z " fill="#87D6F0" transform="translate(339,321)"/>
<path d="M0 0 C1.14926266 0.95421808 2.29430541 1.91352045 3.4375 2.875 C4.07558594 3.40867187 4.71367187 3.94234375 5.37109375 4.4921875 C7 6 7 6 8 8 C4.7 8 1.4 8 -2 8 C-1.34 5.36 -0.68 2.72 0 0 Z " fill="#4682B0" transform="translate(405,447)"/>
<path d="M0 0 C-0.1875 1.875 -0.1875 1.875 -1 4 C-3 5.0625 -3 5.0625 -6 6 C-7.60464217 6.54025641 -9.20878125 7.08200861 -10.8125 7.625 C-12.2078492 8.08480512 -13.603522 8.54363464 -15 9 C-12.59888822 6.36115438 -9.99444972 4.63586471 -6.9375 2.8125 C-5.62072266 2.01779297 -5.62072266 2.01779297 -4.27734375 1.20703125 C-2 0 -2 0 0 0 Z " fill="#7ED3EF" transform="translate(283,239)"/>
<path d="M0 0 C7.05889737 0.70588974 14.01204964 1.78213386 21 3 C21 3.33 21 3.66 21 4 C18.24915453 3.88588196 15.49988053 3.75914051 12.75 3.625 C11.97269531 3.5940625 11.19539063 3.563125 10.39453125 3.53125 C3.27568856 3.16618114 3.27568856 3.16618114 0 1 C0 0.67 0 0.34 0 0 Z " fill="#8DD5ED" transform="translate(403,20)"/>
<path d="M0 0 C1.98 0.66 3.96 1.32 6 2 C5.02433888 3.16959987 4.044375 4.33561177 3.0625 5.5 C2.51722656 6.1496875 1.97195313 6.799375 1.41015625 7.46875 C0.94480469 7.9740625 0.47945313 8.479375 0 9 C-0.33 9 -0.66 9 -1 9 C-1.625 6.1875 -1.625 6.1875 -2 3 C-1.34 2.01 -0.68 1.02 0 0 Z " fill="#62C7F4" transform="translate(375,280)"/>
<path d="M0 0 C0.66 0.33 1.32 0.66 2 1 C1.67 2.32 1.34 3.64 1 5 C-1.31 5.33 -3.62 5.66 -6 6 C-6 6.66 -6 7.32 -6 8 C-7.65 8 -9.3 8 -11 8 C-7.71644638 4.32241995 -4.37221763 2.18610882 0 0 Z " fill="#79CFF2" transform="translate(274,37)"/>
<path d="M0 0 C2.86724686 0.57344937 3.8614515 0.8614515 6 3 C6 4.32 6 5.64 6 7 C2.37 7 -1.26 7 -5 7 C-5 6.67 -5 6.34 -5 6 C-2.36 6 0.28 6 3 6 C3 5.01 3 4.02 3 3 C2.01 3 1.02 3 0 3 C0 2.01 0 1.02 0 0 Z " fill="#3E79A9" transform="translate(425,469)"/>
<path d="M0 0 C2.31 0 4.62 0 7 0 C6.67 2.31 6.34 4.62 6 7 C3.95880212 5.38405168 1.95927063 3.7143618 0 2 C0 1.34 0 0.68 0 0 Z " fill="#75CEF4" transform="translate(229,421)"/>
<path d="M0 0 C1.32 0 2.64 0 4 0 C4.33 1.32 4.66 2.64 5 4 C5.66 4 6.32 4 7 4 C7.12375 4.639375 7.2475 5.27875 7.375 5.9375 C7.684375 6.9584375 7.684375 6.9584375 8 8 C8.66 8.33 9.32 8.66 10 9 C7 9 7 9 5.17578125 7.5390625 C4.56089844 6.90742188 3.94601563 6.27578125 3.3125 5.625 C2.68988281 4.99851562 2.06726563 4.37203125 1.42578125 3.7265625 C0 2 0 2 0 0 Z " fill="#78D0EE" transform="translate(220,411)"/>
<path d="M0 0 C0.99 0.495 0.99 0.495 2 1 C2 1.66 2 2.32 2 3 C2.66 3 3.32 3 4 3 C4 3.66 4 4.32 4 5 C4.598125 5.2475 5.19625 5.495 5.8125 5.75 C8.28647521 7.16370012 9.43370255 8.65055383 11 11 C9.35 11 7.7 11 6 11 C6 9.68 6 8.36 6 7 C4.02 6.34 2.04 5.68 0 5 C0 3.35 0 1.7 0 0 Z " fill="#5D91B5" transform="translate(343,385)"/>
<path d="M0 0 C0.66 1.32 1.32 2.64 2 4 C1.34 4.66 0.68 5.32 0 6 C-0.99 6 -1.98 6 -3 6 C-3 6.99 -3 7.98 -3 9 C-4.32 9 -5.64 9 -7 9 C-7 8.34 -7 7.68 -7 7 C-6.34 7 -5.68 7 -5 7 C-4.731875 6.401875 -4.46375 5.80375 -4.1875 5.1875 C-3.01506533 3.02775192 -1.80630718 1.64209744 0 0 Z " fill="#7CD2F4" transform="translate(234,276)"/>
<path d="M0 0 C7.55128205 1.46153846 7.55128205 1.46153846 9.5625 3.875 C10.05688635 6.27630511 9.81864929 7.70778199 9 10 C8.67 9.01 8.34 8.02 8 7 C7.34 7 6.68 7 6 7 C6 6.34 6 5.68 6 5 C5.34 5 4.68 5 4 5 C4 4.34 4 3.68 4 3 C2.68 2.34 1.36 1.68 0 1 C0 0.67 0 0.34 0 0 Z " fill="#82D2F2" transform="translate(76,258)"/>
<path d="M0 0 C1.14926266 0.95421808 2.29430541 1.91352045 3.4375 2.875 C4.07558594 3.40867187 4.71367187 3.94234375 5.37109375 4.4921875 C7 6 7 6 8 8 C4.17902761 7.46930939 1.93828597 6.50298434 -1 4 C-0.67 2.68 -0.34 1.36 0 0 Z " fill="#5587B1" transform="translate(397,439)"/>
<path d="M0 0 C0 0.66 0 1.32 0 2 C0.66 2.33 1.32 2.66 2 3 C-0.31 4.98 -2.62 6.96 -5 9 C-5.36666667 3.5 -5.36666667 3.5 -3.625 1.125 C-2 0 -2 0 0 0 Z " fill="#76D3F3" transform="translate(246,208)"/>
<path d="M0 0 C0.33 0.99 0.66 1.98 1 3 C-1.3125 6.1875 -1.3125 6.1875 -4 9 C-4.66 9 -5.32 9 -6 9 C-6.33 9.99 -6.66 10.98 -7 12 C-7.99 11.67 -8.98 11.34 -10 11 C-8.38405168 8.95880212 -6.7143618 6.95927063 -5 5 C-4.34 5 -3.68 5 -3 5 C-3 4.34 -3 3.68 -3 3 C-2.34 3 -1.68 3 -1 3 C-0.67 2.01 -0.34 1.02 0 0 Z " fill="#80CEF0" transform="translate(122,187)"/>
<path d="M0 0 C0.33 0.66 0.66 1.32 1 2 C-1.16798732 7.4770206 -1.16798732 7.4770206 -4.1875 9.375 C-4.785625 9.58125 -5.38375 9.7875 -6 10 C-5.58578031 5.16743695 -3.53586014 3.17320782 0 0 Z " fill="#6ECDF4" transform="translate(159,148)"/>
<path d="M0 0 C0 0.66 0 1.32 0 2 C0.66 2.33 1.32 2.66 2 3 C-0.31 4.98 -2.62 6.96 -5 9 C-5.36666667 3.5 -5.36666667 3.5 -3.625 1.125 C-2 0 -2 0 0 0 Z " fill="#78D3F3" transform="translate(422,32)"/>
<path d="M0 0 C1.32 0.33 2.64 0.66 4 1 C3.16855469 1.81404297 3.16855469 1.81404297 2.3203125 2.64453125 C1.23363281 3.71767578 1.23363281 3.71767578 0.125 4.8125 C-0.59429687 5.52019531 -1.31359375 6.22789062 -2.0546875 6.95703125 C-4.15358937 9.04399194 -4.15358937 9.04399194 -6 12 C-6 10.35 -6 8.7 -6 7 C-5.34 7 -4.68 7 -4 7 C-3.67 6.01 -3.34 5.02 -3 4 C-2.34 4 -1.68 4 -1 4 C-0.67 2.68 -0.34 1.36 0 0 Z " fill="#8EDAF0" transform="translate(317,342)"/>
<path d="M0 0 C0.99 0.33 1.98 0.66 3 1 C-0.16952847 4.26008643 -3.39937989 7.22237877 -7 10 C-7.33 8.68 -7.66 7.36 -8 6 C-6.68 6 -5.36 6 -4 6 C-4 5.01 -4 4.02 -4 3 C-2.68 2.67 -1.36 2.34 0 2 C0 1.34 0 0.68 0 0 Z " fill="#79CDF0" transform="translate(394,266)"/>
<path d="M0 0 C2.625 0.375 2.625 0.375 5 1 C4.02433888 2.16959987 3.044375 3.33561177 2.0625 4.5 C1.51722656 5.1496875 0.97195312 5.799375 0.41015625 6.46875 C-0.05519531 6.9740625 -0.52054688 7.479375 -1 8 C-1.33 8 -1.66 8 -2 8 C-2.125 5.125 -2.125 5.125 -2 2 C-1.34 1.34 -0.68 0.68 0 0 Z " fill="#77D3F3" transform="translate(227,225)"/>
<path d="M0 0 C0.33 1.32 0.66 2.64 1 4 C-0.98 4.99 -0.98 4.99 -3 6 C-3 6.66 -3 7.32 -3 8 C-5 9.625 -5 9.625 -7 11 C-7.66 10.67 -8.32 10.34 -9 10 C-8.04882866 8.8274869 -7.08882991 7.66212985 -6.125 6.5 C-5.32449219 5.52546875 -5.32449219 5.52546875 -4.5078125 4.53125 C-4.01023438 4.0259375 -3.51265625 3.520625 -3 3 C-2.34 3 -1.68 3 -1 3 C-0.67 2.01 -0.34 1.02 0 0 Z " fill="#83D1F1" transform="translate(208,94)"/>
<path d="M0 0 C1.65 0 3.3 0 5 0 C4.01 0.495 4.01 0.495 3 1 C2.9175 1.61875 2.835 2.2375 2.75 2.875 C2 5 2 5 -1.0625 6.75 C-2.5165625 7.36875 -2.5165625 7.36875 -4 8 C-3.67 6.68 -3.34 5.36 -3 4 C-2.34 4 -1.68 4 -1 4 C-0.67 2.68 -0.34 1.36 0 0 Z " fill="#3AC2FB" transform="translate(189,329)"/>
<path d="M0 0 C1.32 0.66 2.64 1.32 4 2 C0.535 4.97 0.535 4.97 -3 8 C-3.66 6.35 -4.32 4.7 -5 3 C-3.35 2.67 -1.7 2.34 0 2 C0 1.34 0 0.68 0 0 Z " fill="#79D4F5" transform="translate(145,308)"/>
<path d="M0 0 C1.65 0 3.3 0 5 0 C4.06725891 1.12894876 3.12859878 2.25300876 2.1875 3.375 C1.66542969 4.00148437 1.14335937 4.62796875 0.60546875 5.2734375 C-1 7 -1 7 -4 9 C-4 7.35 -4 5.7 -4 4 C-2.68 4 -1.36 4 0 4 C0 2.68 0 1.36 0 0 Z " fill="#8DD9F3" transform="translate(269,184)"/>
<path d="M0 0 C4.95 0 9.9 0 15 0 C15 0.66 15 1.32 15 2 C15.99 2.33 16.98 2.66 18 3 C12 2.33333333 6 1.66666667 0 1 C0 0.67 0 0.34 0 0 Z " fill="#90CCEC" transform="translate(303,479)"/>
<path d="M0 0 C3.83286936 0.54755277 5.40098264 2.2333041 8 5 C8.99 5.66 9.98 6.32 11 7 C11 7.99 11 8.98 11 10 C10.34 10 9.68 10 9 10 C9 9.34 9 8.68 9 8 C8.34 8 7.68 8 7 8 C7 7.34 7 6.68 7 6 C6.401875 5.7525 5.80375 5.505 5.1875 5.25 C2.71352479 3.83629988 1.56629745 2.34944617 0 0 Z " fill="#92D8F2" transform="translate(101,283)"/>
<path d="M0 0 C-1.65 1.98 -3.3 3.96 -5 6 C-5.66 5.01 -6.32 4.02 -7 3 C-6.67 2.01 -6.34 1.02 -6 0 C-3.50907189 -1.24546405 -2.58919267 -0.7767578 0 0 Z " fill="#79D2F3" transform="translate(312,146)"/>
<path d="M0 0 C0.66 0 1.32 0 2 0 C2 0.66 2 1.32 2 2 C2.99 1.34 3.98 0.68 5 0 C5.99 0.33 6.98 0.66 8 1 C4.535 3.97 4.535 3.97 1 7 C0.67 4.69 0.34 2.38 0 0 Z " fill="#39C5FD" transform="translate(222,293)"/>
<path d="M0 0 C0.66 0 1.32 0 2 0 C2.66 2.97 3.32 5.94 4 9 C3.01 9 2.02 9 1 9 C1 8.34 1 7.68 1 7 C-0.65 6.67 -2.3 6.34 -4 6 C-2.68 5.34 -1.36 4.68 0 4 C0 2.68 0 1.36 0 0 Z " fill="#46BAEE" transform="translate(239,422)"/>
<path d="M0 0 C0.33 0.66 0.66 1.32 1 2 C3.02463255 2.65213292 3.02463255 2.65213292 5 3 C2.03 5.475 2.03 5.475 -1 8 C-1.04241723 5.66705225 -1.04092937 3.33297433 -1 1 C-0.67 0.67 -0.34 0.34 0 0 Z " fill="#76D0F2" transform="translate(348,308)"/>
<path d="M0 0 C0.33 0.66 0.66 1.32 1 2 C1.99 2 2.98 2 4 2 C4 1.34 4 0.68 4 0 C4.99 0.33 5.98 0.66 7 1 C3.535 3.97 3.535 3.97 0 7 C-0.38133299 5.0085944 -0.71325582 3.00720923 -1 1 C-0.67 0.67 -0.34 0.34 0 0 Z " fill="#87D6F5" transform="translate(249,202)"/>
<path d="M0 0 C0.99 0 1.98 0 3 0 C2.67 1.65 2.34 3.3 2 5 C0.68 5.33 -0.64 5.66 -2 6 C-1.125 1.125 -1.125 1.125 0 0 Z " fill="#014688" transform="translate(245,417)"/>
<path d="M0 0 C1.75 0.0625 1.75 0.0625 4 1 C5.59501537 3.24164322 6.74543018 5.53566643 8 8 C7.01 8 6.02 8 5 8 C3.61328125 6.50390625 3.61328125 6.50390625 2.3125 4.5625 C1.87550781 3.92441406 1.43851563 3.28632813 0.98828125 2.62890625 C0 1 0 1 0 0 Z " fill="#63CDEF" transform="translate(176,360)"/>
<path d="M0 0 C0 2.62113708 -0.31292445 4.50935112 -1 7 C-1.99 7 -2.98 7 -4 7 C-4 7.66 -4 8.32 -4 9 C-5.32 9.33 -6.64 9.66 -8 10 C-6.7260411 7.96166576 -5.38938077 5.96147874 -4 4 C-3.34 4 -2.68 4 -2 4 C-1.34 2.68 -0.68 1.36 0 0 Z " fill="#88D3EF" transform="translate(135,173)"/>
<path d="M0 0 C0 0.99 0 1.98 0 3 C-6.435 3.495 -6.435 3.495 -13 4 C-8.93662608 1.29108405 -4.89951609 0 0 0 Z " fill="#87D1F2" transform="translate(316,22)"/>
<path d="M0 0 C0.99 0.495 0.99 0.495 2 1 C2 1.66 2 2.32 2 3 C2.8971875 3.37125 2.8971875 3.37125 3.8125 3.75 C6.28647521 5.16370012 7.43370255 6.65055383 9 9 C7.02 8.34 5.04 7.68 3 7 C3 6.01 3 5.02 3 4 C2.34 4 1.68 4 1 4 C0.67 2.68 0.34 1.36 0 0 Z " fill="#739EBD" transform="translate(386,428)"/>
<path d="M0 0 C0 0.66 0 1.32 0 2 C0.66 2.33 1.32 2.66 2 3 C-1.68890899 4.22963633 -5.13699206 4.55670401 -9 5 C-6.45523312 2.20075644 -3.92372883 0 0 0 Z " fill="#7BD1F1" transform="translate(286,32)"/>
<path d="M0 0 C3.26954202 0.56371414 4.82575883 1.49962266 7 4 C6.01 5.485 6.01 5.485 5 7 C0 1.125 0 1.125 0 0 Z " fill="#7FD1EE" transform="translate(194,382)"/>
<path d="M0 0 C0.33 0.66 0.66 1.32 1 2 C0.67 2.99 0.34 3.98 0 5 C-0.66 5 -1.32 5 -2 5 C-2.33 5.99 -2.66 6.98 -3 8 C-5.0625 8.6875 -5.0625 8.6875 -7 9 C-5.625 6.5 -5.625 6.5 -4 4 C-3.34 4 -2.68 4 -2 4 C-1.34 2.68 -0.68 1.36 0 0 Z " fill="#87D7F1" transform="translate(203,310)"/>
<path d="M0 0 C1.98 0 3.96 0 6 0 C4.35830472 2.02054804 2.69088222 4.02043058 1 6 C0.67 6 0.34 6 0 6 C0 4.02 0 2.04 0 0 Z " fill="#7BD4F3" transform="translate(364,293)"/>
<path d="M0 0 C1.98 0 3.96 0 6 0 C4.35830472 2.02054804 2.69088222 4.02043058 1 6 C0.67 6 0.34 6 0 6 C0 4.02 0 2.04 0 0 Z " fill="#87D5F3" transform="translate(289,163)"/>
<path d="M0 0 C0.33 0.99 0.66 1.98 1 3 C0.01 3.33 -0.98 3.66 -2 4 C-2.33 5.65 -2.66 7.3 -3 9 C-4.32 8.67 -5.64 8.34 -7 8 C-4.69 5.36 -2.38 2.72 0 0 Z " fill="#92D5EE" transform="translate(167,139)"/>
<path d="M0 0 C0.33 0.66 0.66 1.32 1 2 C0.67 2.66 0.34 3.32 0 4 C-0.66 4 -1.32 4 -2 4 C-2.061875 4.61875 -2.12375 5.2375 -2.1875 5.875 C-3 8 -3 8 -5.5625 9.25 C-6.366875 9.4975 -7.17125 9.745 -8 10 C-8 8 -8 8 -5.625 5.375 C-3 3 -3 3 -1 3 C-0.67 2.01 -0.34 1.02 0 0 Z " fill="#95D8F1" transform="translate(224,77)"/>
<path d="M0 0 C2.125 0.9375 2.125 0.9375 4 2 C1.03 4.475 1.03 4.475 -2 7 C-2 5.02 -2 3.04 -2 1 C-1.34 0.67 -0.68 0.34 0 0 Z " fill="#81D5F3" transform="translate(371,82)"/>
<path d="M0 0 C4.875 0.875 4.875 0.875 6 2 C6.04063832 3.66617115 6.042721 5.33388095 6 7 C1.125 2.25 1.125 2.25 0 0 Z " fill="#7FD0F0" transform="translate(206,396)"/>
<path d="M0 0 C1.98 0.99 3.96 1.98 6 3 C6 3.66 6 4.32 6 5 C6.66 5 7.32 5 8 5 C7.67 5.66 7.34 6.32 7 7 C6.34 7 5.68 7 5 7 C4.67 6.34 4.34 5.68 4 5 C1.98330173 3.86649466 1.98330173 3.86649466 0 3 C0 2.01 0 1.02 0 0 Z " fill="#3872A2" transform="translate(311,355)"/>
<path d="M0 0 C0.99 0.33 1.98 0.66 3 1 C-0.465 3.97 -0.465 3.97 -4 7 C-4 5.35 -4 3.7 -4 2 C-2.68 2 -1.36 2 0 2 C0 1.34 0 0.68 0 0 Z " fill="#8FD9F2" transform="translate(157,298)"/>
<path d="M0 0 C0.99 0.33 1.98 0.66 3 1 C-0.465 3.97 -0.465 3.97 -4 7 C-4 5.35 -4 3.7 -4 2 C-2.68 2 -1.36 2 0 2 C0 1.34 0 0.68 0 0 Z " fill="#93D9F3" transform="translate(205,250)"/>
<path d="M0 0 C0.66 0 1.32 0 2 0 C2 0.66 2 1.32 2 2 C2.66 2.33 3.32 2.66 4 3 C2.35 4.32 0.7 5.64 -1 7 C-1.04254356 5.00045254 -1.04080783 2.99958364 -1 1 C-0.67 0.67 -0.34 0.34 0 0 Z " fill="#77D4F4" transform="translate(211,241)"/>
<path d="M0 0 C0.66 0 1.32 0 2 0 C2 0.66 2 1.32 2 2 C2.66 2.33 3.32 2.66 4 3 C2.35 4.32 0.7 5.64 -1 7 C-1.04254356 5.00045254 -1.04080783 2.99958364 -1 1 C-0.67 0.67 -0.34 0.34 0 0 Z " fill="#7AD3F3" transform="translate(402,50)"/>
<path d="M0 0 C0.66 0.33 1.32 0.66 2 1 C-2.43076923 6.78461538 -2.43076923 6.78461538 -5.3125 7.875 C-5.869375 7.91625 -6.42625 7.9575 -7 8 C-4.79020692 5.18060883 -2.59937954 2.46941056 0 0 Z " fill="#0068B0" transform="translate(267,395)"/>
<path d="M0 0 C2.375 0.3125 2.375 0.3125 5 1 C5.66 1.99 6.32 2.98 7 4 C6.67 4.99 6.34 5.98 6 7 C4.02 4.69 2.04 2.38 0 0 Z " fill="#35C5FD" transform="translate(289,332)"/>
<path d="M0 0 C0.99 0 1.98 0 3 0 C2.67 1.65 2.34 3.3 2 5 C0.68 5 -0.64 5 -2 5 C-2 4.01 -2 3.02 -2 2 C-1.34 2 -0.68 2 0 2 C0 1.34 0 0.68 0 0 Z " fill="#6BCAF0" transform="translate(97,214)"/>
<path d="M0 0 C0.99 0.33 1.98 0.66 3 1 C-0.465 3.97 -0.465 3.97 -4 7 C-4 5.35 -4 3.7 -4 2 C-2.68 2 -1.36 2 0 2 C0 1.34 0 0.68 0 0 Z " fill="#94D9F2" transform="translate(317,138)"/>
<path d="M0 0 C2.475 0.495 2.475 0.495 5 1 C5.33 2.98 5.66 4.96 6 7 C5.01 6.34 4.02 5.68 3 5 C3 4.34 3 3.68 3 3 C2.34 3 1.68 3 1 3 C0.67 2.01 0.34 1.02 0 0 Z " fill="#7FD3F1" transform="translate(200,389)"/>
<path d="M0 0 C1.98 1.65 3.96 3.3 6 5 C2.98968256 5.93423645 2.13349732 6.04449911 -1 5 C-0.67 3.35 -0.34 1.7 0 0 Z " fill="#6897BA" transform="translate(324,366)"/>
<path d="M0 0 C2.31 0 4.62 0 7 0 C6.67 0.99 6.34 1.98 6 3 C3.03 2.505 3.03 2.505 0 2 C0 1.34 0 0.68 0 0 Z " fill="#8CD3EE" transform="translate(134,316)"/>
<path d="M0 0 C0.33 0.66 0.66 1.32 1 2 C0.0625 4.125 0.0625 4.125 -1 6 C-1.99 6 -2.98 6 -4 6 C-4 6.66 -4 7.32 -4 8 C-4.66 7.67 -5.32 7.34 -6 7 C-4.02 4.69 -2.04 2.38 0 0 Z " fill="#82D5F3" transform="translate(213,299)"/>
<path d="M0 0 C2.64 0.33 5.28 0.66 8 1 C7.67 2.32 7.34 3.64 7 5 C6.34 5 5.68 5 5 5 C5 4.01 5 3.02 5 2 C3.35 1.67 1.7 1.34 0 1 C0 0.67 0 0.34 0 0 Z " fill="#87D0EB" transform="translate(423,230)"/>
<path d="M0 0 C3.39914975 1.13304992 4.05254451 2.12518475 6 5 C5.67 5.66 5.34 6.32 5 7 C4.01 6.67 3.02 6.34 2 6 C0.8125 2.9375 0.8125 2.9375 0 0 Z " fill="#47C3F5" transform="translate(192,376)"/>
<path d="M0 0 C1.32 0.33 2.64 0.66 4 1 C3.01 1.495 3.01 1.495 2 2 C2 2.66 2 3.32 2 4 C1.34 4 0.68 4 0 4 C-0.33 4.66 -0.66 5.32 -1 6 C-1 2 -1 2 0 0 Z " fill="#0AABEC" transform="translate(306,352)"/>
<path d="M0 0 C2 2 2 2 2.125 4.625 C2.08375 5.40875 2.0425 6.1925 2 7 C2.66 7.33 3.32 7.66 4 8 C3.01 8 2.02 8 1 8 C-0.42944945 5.64561267 -1.08661261 4.51967567 -0.625 1.75 C-0.41875 1.1725 -0.2125 0.595 0 0 Z " fill="#2BB9ED" transform="translate(173,351)"/>
<path d="M0 0 C2.475 0.495 2.475 0.495 5 1 C3.35 2.65 1.7 4.3 0 6 C0 4.02 0 2.04 0 0 Z " fill="#7FD7F3" transform="translate(342,315)"/>
<path d="M0 0 C0.66 0 1.32 0 2 0 C2.33 2.31 2.66 4.62 3 7 C1.35 5.35 -0.3 3.7 -2 2 C-1.34 2 -0.68 2 0 2 C0 1.34 0 0.68 0 0 Z " fill="#51BFF0" transform="translate(114,290)"/>
<path d="M0 0 C2.97 0.495 2.97 0.495 6 1 C4.35 2.65 2.7 4.3 1 6 C0.67 4.02 0.34 2.04 0 0 Z " fill="#80D6F5" transform="translate(283,168)"/>
<path d="M0 0 C0.33 1.32 0.66 2.64 1 4 C0.01 4 -0.98 4 -2 4 C-2 4.66 -2 5.32 -2 6 C-2.66 6 -3.32 6 -4 6 C-4 6.66 -4 7.32 -4 8 C-4.66 7.67 -5.32 7.34 -6 7 C-5.67 6.34 -5.34 5.68 -5 5 C-4.34 5 -3.68 5 -3 5 C-2.5359375 4.0409375 -2.5359375 4.0409375 -2.0625 3.0625 C-1 1 -1 1 0 0 Z " fill="#91D8F3" transform="translate(180,125)"/>
<path d="M0 0 C0.99 0 1.98 0 3 0 C1.8141763 3.37503669 0.72426311 5.64722731 -2 8 C-2 6.68 -2 5.36 -2 4 C-1.34 4 -0.68 4 0 4 C0 2.68 0 1.36 0 0 Z " fill="#98D7EE" transform="translate(428,24)"/>
</svg>
