<?xml version="1.0" encoding="UTF-8"?>
<svg version="1.1" xmlns="http://www.w3.org/2000/svg" width="600" height="600">
<path d="M0 0 C198 0 396 0 600 0 C600 198 600 396 600 600 C402 600 204 600 0 600 C0 402 0 204 0 0 Z " fill="#FEFEFE" transform="translate(0,0)"/>
<path d="M0 0 C-2.31987193 4.32534198 -5.3268791 7.60807628 -8.78278446 11.03446674 C-9.66587647 11.92191908 -9.66587647 11.92191908 -10.56680873 12.82729974 C-12.5467419 14.81454928 -14.53374008 16.79457996 -16.52076721 18.7747345 C-17.95366099 20.20993204 -19.38611838 21.64556538 -20.81817573 23.08159751 C-24.75937788 27.03116754 -28.70681696 30.97445241 -32.65529621 34.91674554 C-36.91044111 39.16737525 -41.15983932 43.42374321 -45.40997314 47.67938232 C-53.25642063 55.53421985 -61.10742746 63.38448472 -68.96080552 71.23239176 C-76.21369642 78.48025464 -83.46472944 85.72996974 -90.71391106 92.98154259 C-91.43475985 93.70262054 -91.43475985 93.70262054 -92.17017125 94.43826572 C-94.12083413 96.38955126 -96.07148995 98.34084387 -98.02213412 100.29214811 C-116.32311118 118.59924428 -134.62991803 136.90050083 -152.93933518 155.19915538 C-169.21763485 171.46795917 -185.49074995 187.74193188 -201.75952148 204.02026367 C-220.02892766 222.30036982 -238.30154871 240.57725242 -256.57939857 258.84891623 C-258.52624033 260.79511652 -260.47307419 262.74132471 -262.41990471 264.68753624 C-262.89928358 265.16675695 -263.37866245 265.64597767 -263.87256795 266.13972022 C-271.1228422 273.38771613 -278.37063907 280.63818316 -285.61725044 287.88984108 C-293.85170803 296.13000448 -302.08980282 304.36651578 -310.33245439 312.59848354 C-314.54172759 316.80248143 -318.74935053 321.00809772 -322.95269585 325.2180233 C-326.79420021 329.06545073 -330.64022423 332.90829685 -334.49003743 336.74740978 C-335.88808993 338.14321272 -337.28442711 339.54073609 -338.67894573 340.94006965 C-340.56244317 342.82957493 -342.45188069 344.71292388 -344.34305668 346.59473896 C-344.89365298 347.15001759 -345.44424928 347.70529622 -346.01153031 348.27740148 C-349.77169916 352 -349.77169916 352 -352 352 C-353.46415234 350.51695919 -353.46415234 350.51695919 -355.15849304 348.47459412 C-358.74966412 344.25452643 -362.5413575 340.31711191 -366.46411133 336.40649414 C-367.17393158 335.69492157 -367.88375183 334.983349 -368.61508179 334.25021362 C-370.93490904 331.92602576 -373.25832599 329.60546641 -375.58203125 327.28515625 C-377.20405948 325.66245377 -378.82593928 324.03960292 -380.44767761 322.41661072 C-383.83255566 319.03026394 -387.21922215 315.64571886 -390.60717773 312.26245117 C-394.95637071 307.91898243 -399.30102215 303.57100286 -403.64436817 299.22168827 C-406.98559927 295.87685258 -410.32919729 292.53439118 -413.67352867 289.19265556 C-415.27749791 287.58935446 -416.88072174 285.98530728 -418.48319435 284.38051033 C-420.71401174 282.14716516 -422.94798888 279.91703045 -425.18286133 277.68774414 C-425.84727737 277.02130386 -426.51169342 276.35486359 -427.19624329 275.66822815 C-428.10654297 274.7621582 -428.10654297 274.7621582 -429.03523254 273.83778381 C-429.56262433 273.31076905 -430.09001612 272.78375429 -430.63338947 272.24076939 C-432.00075861 270.88706794 -432.00075861 270.88706794 -434 270 C-432.49882169 266.59609204 -430.53006553 264.12711017 -428.06337357 261.3535881 C-426.8210836 259.95176698 -426.8210836 259.95176698 -425.55369687 258.52162623 C-424.62878192 257.48770555 -423.70358508 256.45403697 -422.77813721 255.42059326 C-421.7973672 254.32008136 -420.81675568 253.2194282 -419.83628917 252.11864591 C-417.13443838 249.08949203 -414.42496827 246.06725094 -411.71283531 243.04730225 C-409.97678001 241.11403443 -408.24220795 239.17944307 -406.50770187 237.24478531 C-384.27649558 212.46667852 -361.56825322 188.14642974 -338.64892597 164.00464647 C-334.86949732 160.02307505 -331.09376015 156.03802109 -327.3203125 152.05078125 C-326.56948351 151.25753973 -325.81865451 150.4642982 -325.04507312 149.64701906 C-314.55651803 138.5501891 -304.2932374 127.28014908 -294.18638057 115.83502918 C-276.73745792 96.07586311 -258.91924926 76.74004301 -240.328125 58.046875 C-239.60596684 57.31902322 -238.88380867 56.59117143 -238.13976693 55.84126353 C-168.05650191 -14.58531407 -94.16343052 -15.92678224 0 0 Z " fill="#47C5FB" transform="translate(516,30)"/>
<path d="M0 0 C0.94342538 0.06007673 1.88685076 0.12015347 2.85886478 0.1820507 C27.14704865 1.75683654 51.16410567 4.60746237 75.125 8.875 C74.03958711 12.13123867 73.45142644 12.66442578 70.88905334 14.7480011 C64.5633078 20.12280324 58.77540595 26.05154412 52.90014648 31.90698242 C51.57733596 33.22187845 50.25434834 34.53659632 48.93119812 35.85115051 C44.61578747 40.14053715 40.30565393 44.43520534 35.99609375 48.73046875 C34.50895394 50.21224427 33.02180753 51.69401316 31.53465462 53.17577553 C25.35486574 59.33398109 19.17649806 65.49360662 13.00184536 71.65696239 C4.15966696 80.4828521 -4.69093238 89.30010284 -13.55330712 98.10571402 C-19.7922664 104.30606697 -26.02169988 110.51588709 -32.24403518 116.73292238 C-35.95955266 120.44477901 -39.67917458 124.15229755 -43.40899849 127.84978294 C-46.90913271 131.31999408 -50.39737975 134.8017153 -53.8766613 138.29282951 C-55.15791682 139.57430696 -56.44349308 140.85148045 -57.73356628 142.12408066 C-59.48807667 143.85610297 -61.22664851 145.6026717 -62.96192932 147.35392761 C-63.48077228 147.85888848 -63.99961523 148.36384935 -64.5341807 148.88411206 C-67.10878847 151.45347663 -67.10878847 151.45347663 -68.02888489 154.8511219 C-66.26513648 157.94468158 -63.84452754 160.30237461 -61.32591248 162.77812195 C-60.74111006 163.36478207 -60.15630765 163.95144219 -59.55378395 164.55587989 C-57.58775136 166.52451715 -55.6111801 168.48222209 -53.63452148 170.44018555 C-52.22487402 171.84735039 -50.81589323 173.25518334 -49.40753174 174.66363525 C-45.57751613 178.4902346 -41.73839267 182.30757956 -37.89774585 186.1235044 C-33.88689529 190.1119134 -29.88489863 194.10918474 -25.88209534 198.10566711 C-18.29826235 205.67500221 -10.70723983 213.23708162 -3.11326987 220.7962454 C10.49815041 234.34574939 24.09739131 247.90747268 37.69395775 261.47188026 C42.47037549 266.23642776 47.24994875 270.99778145 52.03213322 275.75654066 C54.99883134 278.70946296 57.96358222 281.66433473 60.92788696 284.61965942 C62.30896325 285.99564418 63.69091387 287.37075197 65.07377434 288.74494362 C66.95240953 290.61198556 68.82802144 292.48201197 70.70289612 294.35282898 C71.2586196 294.90359327 71.81434309 295.45435755 72.38690668 296.02181166 C76.125 299.76096404 76.125 299.76096404 76.125 300.875 C51.61535533 305.41322153 27.0573442 308.29397565 2.1875 309.9375 C1.26288404 310.00040773 0.33826809 310.06331546 -0.61436653 310.12812948 C-48.72642395 313.31070424 -87.92372448 308.08447101 -125.28196985 275.68662983 C-142.015649 260.85612443 -157.53512829 244.92070514 -172.625 228.4375 C-173.81575646 227.13966324 -173.81575646 227.13966324 -175.0305686 225.81560755 C-193.06232643 206.13152328 -210.54802587 186.01239602 -227.26939297 165.20144749 C-228.0284563 164.25873131 -228.0284563 164.25873131 -228.80285424 163.29697037 C-229.73738512 162.13394151 -230.66852582 160.96817694 -231.59557325 159.79917431 C-233.86357363 156.90344844 -233.86357363 156.90344844 -236.875 154.875 C-235.2429837 151.16675758 -232.88471632 148.14589422 -230.37411499 145.00311279 C-229.67987682 144.12815188 -229.67987682 144.12815188 -228.97161365 143.235515 C-211.52324928 121.33329763 -193.1836232 100.25254515 -174.25 79.625 C-173.47977603 78.78331866 -172.70955206 77.94163733 -171.91598797 77.07445049 C-120.21316191 20.69847679 -77.51435396 -5.07546553 0 0 Z " fill="#47C5FA" transform="translate(440.875,269.125)"/>
<path d="M0 0 C4.56574039 3.82237345 8.91800264 7.77301403 13.11875916 11.99177551 C13.97915128 12.84982765 13.97915128 12.84982765 14.85692507 13.72521418 C16.75846855 15.62280184 18.65645668 17.52390415 20.55444336 19.42504883 C21.92470987 20.79395898 23.29518874 22.1626566 24.66586304 23.53115845 C28.37221323 27.23296479 32.07541158 30.93790898 35.77790141 34.64357591 C39.65345959 38.52167036 43.53146205 42.39731936 47.40907288 46.27336121 C53.91294251 52.77541416 60.41470621 59.27956738 66.9152832 65.78491211 C74.44059691 73.31568121 81.9695249 80.84282252 89.5003137 88.3681162 C95.96508456 94.828358 102.42791587 101.29053526 108.88911158 107.75435275 C112.74894621 111.61574953 116.60946085 115.47645994 120.47172356 119.33542824 C124.09615708 122.9569856 127.71815955 126.58095645 131.33825302 130.20685196 C132.67096906 131.54089639 134.00454814 132.87407924 135.3390255 134.20636177 C137.15170333 136.01633154 138.96131183 137.82931333 140.77012634 139.6431427 C141.30619332 140.17697895 141.84226029 140.71081521 142.39457172 141.26082832 C146 144.88584929 146 144.88584929 146 146 C119.64631479 147.88652735 93.28653738 149.15983055 66.875 149.875 C65.43430342 149.91499272 65.43430342 149.91499272 63.96450186 149.95579338 C-22.62260632 152.2898322 -22.62260632 152.2898322 -49.58953857 128.24838257 C-53.86799539 124.1784137 -57.70928719 119.82408348 -61.4375 115.25 C-62.03881996 114.51675255 -62.64013992 113.7835051 -63.2596817 113.02803802 C-82.50586176 89.19674703 -82.50586176 89.19674703 -81.77748108 81.71405029 C-80.7567733 79.46377756 -79.48925284 78.41795298 -77.5625 76.875 C-72.39004139 72.55841584 -67.72525027 67.79462588 -63 63 C-62.13375 62.1440625 -61.2675 61.288125 -60.375 60.40625 C-58.52463845 58.53154158 -56.83793243 56.66934228 -55.1875 54.625 C-52.40334174 51.31970442 -49.30627792 48.61638816 -46.015625 45.828125 C-43.2847989 43.35132924 -40.97176303 40.59162903 -38.59375 37.78125 C-36.60715609 35.56093915 -34.34065536 33.83456772 -32 32 C-31.34 31.175 -30.68 30.35 -30 29.5 C-27.89680365 26.87100457 -25.62100457 25.09680365 -23 23 C-22.401875 22.236875 -21.80375 21.47375 -21.1875 20.6875 C-19.34291047 18.42129 -17.64203677 16.75244086 -15.4375 14.875 C-9.98609537 10.22739416 -5.01981294 5.10286131 0 0 Z " fill="#00559C" transform="translate(371,424)"/>
<path d="M0 0 C3.05775179 1.36584717 5.15881191 2.91088365 7.51812744 5.27761841 C8.53607391 6.29144089 8.53607391 6.29144089 9.57458496 7.32574463 C10.30826294 8.06661316 11.04194092 8.80748169 11.79785156 9.57080078 C12.57872131 10.35137848 13.35959106 11.13195618 14.16412354 11.93618774 C16.74439273 14.51785045 19.31750522 17.10652558 21.890625 19.6953125 C23.67809165 21.48650919 25.46600032 23.27726488 27.2543335 25.06759644 C31.47948631 29.29960572 35.7001546 33.53603758 39.91868377 37.77464569 C44.72246886 42.60079715 49.53194442 47.42126063 54.34190416 52.24125695 C64.23427667 62.15452608 74.11948887 72.07490966 84 82 C82.54727443 85.03567724 81.10786199 87.13049155 78.69921875 89.49609375 C78.05146484 90.13740234 77.40371094 90.77871094 76.73632812 91.43945312 C76.06021484 92.09880859 75.38410156 92.75816406 74.6875 93.4375 C74.02298828 94.09298828 73.35847656 94.74847656 72.67382812 95.42382812 C71.3751455 96.70452701 70.07425983 97.98299643 68.77099609 99.2590332 C67.25818443 100.74619339 65.76207997 102.25031694 64.26953125 103.7578125 C62.24621644 105.75675002 60.17569037 107.60834096 58 109.4375 C54.57726709 112.397875 51.83221711 115.47886522 49 119 C47.34312466 120.67640081 45.67519165 122.34190214 44 124 C42.71029297 125.32451172 42.71029297 125.32451172 41.39453125 126.67578125 C40.54246094 127.54589844 39.69039063 128.41601562 38.8125 129.3125 C37.95269531 130.19550781 37.09289062 131.07851563 36.20703125 131.98828125 C34 134 34 134 32 134 C31.73574219 134.60328125 31.47148437 135.2065625 31.19921875 135.828125 C29.94244926 138.1042287 28.84559838 139.16818433 26.8125 140.75 C24.19640853 142.90411228 21.94261954 145.10390734 19.75 147.6875 C16.74970251 151.21165896 13.57989925 154.53697019 10.3125 157.8125 C9.40113281 158.72644531 8.48976563 159.64039063 7.55078125 160.58203125 C5.44024086 162.58268133 3.33775325 164.28676393 1 166 C-9.72387889 155.39282178 -20.43350632 144.7714168 -31.12622929 134.13283157 C-36.09117247 129.19369148 -41.06071036 124.25934422 -46.04125977 119.3359375 C-50.84417918 114.58809677 -55.63399145 109.82739765 -60.41595268 105.05843353 C-62.24612923 103.23752392 -64.08071391 101.42103424 -65.91966438 99.6089859 C-68.4868427 97.07789323 -71.03815625 94.53179723 -73.58618164 91.98144531 C-74.35653748 91.22906586 -75.12689331 90.4766864 -75.92059326 89.70150757 C-76.95347221 88.65831863 -76.95347221 88.65831863 -78.00721741 87.59405518 C-78.6128354 86.99304615 -79.21845339 86.39203712 -79.84242344 85.7728157 C-81 84 -81 84 -80.88438416 81.99525452 C-79.84592616 79.65239481 -78.65939204 78.29009912 -76.84263611 76.48187256 C-75.83087563 75.46392609 -75.83087563 75.46392609 -74.79867554 74.42541504 C-74.05421173 73.69173706 -73.30974792 72.95805908 -72.54272461 72.20214844 C-71.76229294 71.42127869 -70.98186127 70.64040894 -70.17778015 69.83587646 C-67.59301443 67.25320295 -64.99778008 64.68132133 -62.40234375 62.109375 C-60.60950077 60.3221264 -58.81731841 58.53421488 -57.02577209 56.7456665 C-52.78847018 52.51865382 -48.5445568 48.29839165 -44.29737335 44.08131623 C-39.46202585 39.2795045 -34.63519736 34.46916819 -29.80906665 29.65809584 C-19.88216322 19.7625474 -9.94460591 9.87775576 0 0 Z " fill="#00B4F7" transform="translate(287,341)"/>
<path d="M0 0 C0.33 1.32 0.66 2.64 1 4 C0.01 4.66 -0.98 5.32 -2 6 C-2.99 5.67 -3.98 5.34 -5 5 C-3.35 3.35 -1.7 1.7 0 0 Z " fill="#002B50" transform="translate(296,499)"/>
</svg>
