<?xml version="1.0" encoding="UTF-8"?>
<svg version="1.1" xmlns="http://www.w3.org/2000/svg" width="900" height="250">
<path d="M0 0 C1.02480469 0.55816406 2.04960938 1.11632812 3.10546875 1.69140625 C3.68804443 2.00343994 4.27062012 2.31547363 4.87084961 2.63696289 C7.03006476 3.81192197 9.16145857 5.02938435 11.29296875 6.25390625 C12.21271484 6.77855469 13.13246094 7.30320312 14.08007812 7.84375 C26.87989218 15.16979542 26.87989218 15.16979542 32.03907776 18.38427734 C35.23647182 20.32582541 35.23647182 20.32582541 38.67300415 21.5894928 C42.52692248 23.31955938 45.70022416 24.84937594 48.29296875 28.25390625 C50.7356234 35.10493413 49.94305328 42.8823595 49.78125 50.03515625 C49.77943968 52.17606876 49.78336414 54.31699313 49.79277039 56.45788574 C49.80211765 62.07507842 49.73386823 67.6887189 49.64916992 73.30517578 C49.57645977 79.0431845 49.57751189 84.78113443 49.57226562 90.51953125 C49.55115768 101.76548212 49.44803218 113.00906021 49.29296875 124.25390625 C52.9192545 122.21451724 56.54375205 120.17196959 60.16796875 118.12890625 C61.68777344 117.27425781 61.68777344 117.27425781 63.23828125 116.40234375 C65.27126307 115.25553349 67.29689229 114.09559138 69.31495667 112.92272949 C72.29296875 111.25390625 72.29296875 111.25390625 75.25132751 109.89074707 C77.98593971 108.54978137 80.10602165 107.37680051 82.29296875 105.25390625 C83.59743799 101.37622218 83.39219055 97.77295668 83.171875 93.72265625 C83.15857651 92.61337769 83.14527802 91.50409912 83.13157654 90.36120605 C83.08703432 86.822597 82.97846125 83.29060241 82.85546875 79.75390625 C82.70049022 75.09694414 82.60674774 70.44419011 82.546875 65.78515625 C82.49092667 64.71938354 82.43497833 63.65361084 82.37733459 62.55554199 C82.28368408 55.30701395 82.28368408 55.30701395 85.13407898 52.33285522 C87.45347417 50.7617183 89.77896868 49.485571 92.29296875 48.25390625 C93.34444092 47.61662598 94.39591309 46.9793457 95.47924805 46.32275391 C96.43226807 45.7766748 97.38528809 45.2305957 98.3671875 44.66796875 C99.97750854 43.74177734 99.97750854 43.74177734 101.62036133 42.796875 C102.72919678 42.16394531 103.83803223 41.53101563 104.98046875 40.87890625 C107.29059516 39.55899665 109.60038147 38.23849378 111.91015625 36.91796875 C113.01069336 36.28922852 114.11123047 35.66048828 115.24511719 35.01269531 C117.82391964 33.52457509 120.38085798 32.00985174 122.92578125 30.46484375 C123.885448 29.88935791 123.885448 29.88935791 124.86450195 29.30224609 C126.46736742 28.33706529 128.06221173 27.35859686 129.65625 26.37890625 C132.86689145 25.00903256 133.97631174 25.31167069 137.29296875 26.25390625 C139.85400391 27.56982422 139.85400391 27.56982422 142.58203125 29.24609375 C143.59773193 29.86395752 144.61343262 30.48182129 145.65991211 31.1184082 C147.27265015 32.11360474 147.27265015 32.11360474 148.91796875 33.12890625 C151.16065136 34.49611626 153.40415034 35.86198798 155.6484375 37.2265625 C156.76395996 37.90605957 157.87948242 38.58555664 159.02880859 39.28564453 C164.50983402 42.59065777 170.0625931 45.76936382 175.62939453 48.92724609 C176.35239746 49.34055176 177.07540039 49.75385742 177.8203125 50.1796875 C178.44671631 50.53458252 179.07312012 50.88947754 179.71850586 51.25512695 C181.29296875 52.25390625 181.29296875 52.25390625 183.29296875 54.25390625 C183.69497681 56.56414795 183.69497681 56.56414795 183.90087891 59.49121094 C183.97819244 60.58705505 184.05550598 61.68289917 184.13516235 62.81195068 C184.41066822 67.86928338 184.60759613 72.92634925 184.76220703 77.98876953 C184.85118563 80.65674988 185.01406091 83.28899989 185.21337891 85.95458984 C186.50468689 103.54673625 186.50468689 103.54673625 183.29296875 111.25390625 C177.68330622 117.53341985 170.04743354 120.74108768 162.39614868 123.89724731 C157.48149499 126.04585261 152.98335505 128.83063261 148.41796875 131.62890625 C140.62858376 136.25390625 140.62858376 136.25390625 138.29296875 136.25390625 C138.3218367 136.88760132 138.35070465 137.52129639 138.38044739 138.17419434 C138.66889226 144.79223901 138.86442392 151.40849276 139.00708008 158.03125 C139.07231348 160.49943581 139.16092958 162.96712186 139.27368164 165.43359375 C140.15474873 185.20776913 140.15474873 185.20776913 137.18954468 190.05926514 C133.85581821 193.3634335 129.62199695 194.70261152 125.29296875 196.25390625 C123.0859757 197.47557928 120.90165504 198.73912702 118.7421875 200.04296875 C116.4893325 201.32346588 114.23539285 202.60205628 111.98046875 203.87890625 C109.50948046 205.28351431 107.03974271 206.69031104 104.5703125 208.09765625 C103.95511749 208.44813019 103.33992249 208.79860413 102.70608521 209.15969849 C93.86800152 214.20010293 85.09190526 219.34694393 76.31201172 224.48779297 C73.09004475 226.37261499 69.86564887 228.25322608 66.640625 230.1328125 C65.54717773 230.77009277 64.45373047 231.40737305 63.32714844 232.06396484 C61.23280809 233.2844466 59.13841022 234.50482966 57.04394531 235.72509766 C56.10131836 236.27472168 55.15869141 236.8243457 54.1875 237.390625 C53.36096924 237.87233154 52.53443848 238.35403809 51.68286133 238.8503418 C49.98489303 239.84754475 48.31403786 240.89155681 46.6640625 241.96630859 C44.29296875 243.25390625 44.29296875 243.25390625 41.4609375 242.71875 C37.68275059 240.97174619 34.15974568 238.97678378 30.60546875 236.81640625 C29.07983032 235.90427311 27.5537738 234.992839 26.02734375 234.08203125 C25.24294922 233.61216797 24.45855469 233.14230469 23.65039062 232.65820312 C19.90495491 230.42707779 16.13113647 228.24585672 12.35546875 226.06640625 C11.57655273 225.61620117 10.79763672 225.16599609 9.99511719 224.70214844 C8.32766622 223.73859951 6.66001553 222.77539612 4.9921875 221.8125 C2.09183972 220.13776952 -0.80758898 218.46145388 -3.70703125 216.78515625 C-15.3064231 210.08285952 -26.92109738 203.40833697 -38.5546875 196.765625 C-39.84185045 196.03041806 -41.12900056 195.29518865 -42.4161377 194.55993652 C-45.51295529 192.79100243 -48.60994309 191.0223666 -51.70703125 189.25390625 C-51.91727758 168.36596028 -52.07598251 147.47818876 -52.1733408 126.58939934 C-52.21974788 116.89029444 -52.28301472 107.19184697 -52.38598633 97.49316406 C-52.47569472 89.03968594 -52.53375561 80.58668389 -52.5538277 72.132743 C-52.56556139 67.65617254 -52.59312954 63.18096402 -52.65860176 58.70483017 C-52.71974537 54.49044183 -52.73852666 50.27797449 -52.72500038 46.06318474 C-52.72747423 44.51754369 -52.74535146 42.97183773 -52.77988052 41.42658043 C-53.02770433 29.76265626 -53.02770433 29.76265626 -49.78303337 26.05591202 C-47.47559293 24.48577596 -45.2674827 23.35185209 -42.70703125 22.25390625 C-41.29319468 21.45997611 -39.88563045 20.65463329 -38.48828125 19.83203125 C-37.06299292 19.05269777 -35.63585693 18.27673526 -34.20703125 17.50390625 C-26.47985331 13.2694681 -18.86166241 8.87394725 -11.28125 4.3828125 C-10.66064697 4.02131104 -10.04004395 3.65980957 -9.40063477 3.28735352 C-7.50952011 2.16795806 -7.50952011 2.16795806 -5.08984375 0.31640625 C-2.70703125 -0.74609375 -2.70703125 -0.74609375 0 0 Z M-10.16796875 14.61328125 C-10.79555084 14.95893127 -11.42313293 15.3045813 -12.06973267 15.66070557 C-13.39779275 16.39411527 -14.72411989 17.13067045 -16.04882812 17.87011719 C-18.06319729 18.99340374 -20.08376216 20.10482915 -22.10546875 21.21484375 C-23.39752534 21.93028584 -24.68920441 22.64641025 -25.98046875 23.36328125 C-26.57959076 23.69261658 -27.17871277 24.0219519 -27.79598999 24.36126709 C-31.38255241 26.3730543 -34.56680008 28.60104132 -37.70703125 31.25390625 C-33.93776875 33.46492869 -30.16633071 35.67221487 -26.39453125 37.87890625 C-25.34201172 38.49636719 -24.28949219 39.11382812 -23.20507812 39.75 C-21.08940947 40.98685244 -18.96943026 42.2163609 -16.84521484 43.43847656 C-14.76164649 44.64381454 -12.69128829 45.87229689 -10.63525391 47.12402344 C-9.67538574 47.69024414 -8.71551758 48.25646484 -7.7265625 48.83984375 C-6.87811768 49.35337402 -6.02967285 49.8669043 -5.15551758 50.39599609 C-2.73442644 51.49959142 -2.73442644 51.49959142 -0.30004883 50.62915039 C4.67740859 47.98928431 9.57997772 45.23234815 14.46826172 42.43188477 C16.41560945 41.31775607 18.367731 40.21234636 20.3203125 39.10742188 C21.56410119 38.39765932 22.80760088 37.68739001 24.05078125 36.9765625 C25.73905029 36.01375366 25.73905029 36.01375366 27.46142578 35.03149414 C29.78252181 33.57435496 31.50313048 32.29769209 33.29296875 30.25390625 C32.51171631 29.82045898 31.73046387 29.38701172 30.92553711 28.94042969 C27.99744509 27.31561759 25.06957367 25.69040933 22.1418457 24.06494141 C20.8802137 23.3645898 19.61849668 22.66439132 18.35668945 21.96435547 C17.13093894 21.28429919 15.90532065 20.60400454 14.67984009 19.92346191 C12.91710479 18.94481977 11.15362793 17.96751372 9.39013672 16.99023438 C6.94002869 15.6166597 4.52102325 14.20852578 2.109375 12.76953125 C-2.88519358 10.08174677 -5.64096591 12.08073559 -10.16796875 14.61328125 Z M126.65234375 38.91015625 C125.58113281 39.52117188 124.50992188 40.1321875 123.40625 40.76171875 C121.74142578 41.74785156 121.74142578 41.74785156 120.04296875 42.75390625 C118.94855469 43.38039063 117.85414063 44.006875 116.7265625 44.65234375 C110.42179951 48.29173987 104.28531269 52.12045898 98.29296875 56.25390625 C101.80095654 59.18697942 105.3629872 61.58272652 109.328125 63.85546875 C110.46701172 64.5103125 111.60589844 65.16515625 112.77929688 65.83984375 C113.36654541 66.17467773 113.95379395 66.50951172 114.55883789 66.85449219 C116.3561138 67.87927405 118.15001022 68.90977081 119.94335938 69.94140625 C124.60779553 72.61598567 124.60779553 72.61598567 129.29296875 75.25390625 C129.97157959 75.7022583 130.65019043 76.15061035 131.34936523 76.61254883 C133.37155262 77.50131198 133.37155262 77.50131198 135.66796875 76.39868164 C136.53421875 75.88813232 137.40046875 75.37758301 138.29296875 74.8515625 C139.25775146 74.29364014 140.22253418 73.73571777 141.21655273 73.16088867 C142.23177002 72.55220947 143.2469873 71.94353027 144.29296875 71.31640625 C145.32429932 70.71481689 146.35562988 70.11322754 147.41821289 69.4934082 C150.38452724 67.76019402 153.33898161 66.00801568 156.29296875 64.25390625 C157.68613053 63.44165695 159.08044006 62.63136856 160.4765625 61.82421875 C163.08920613 60.31246097 165.69484857 58.79042893 168.29296875 57.25390625 C164.79395522 54.33136163 161.2403567 51.9288764 157.29296875 49.65234375 C156.15859375 48.9975 155.02421875 48.34265625 153.85546875 47.66796875 C153.27023438 47.33313477 152.685 46.99830078 152.08203125 46.65332031 C150.29486301 45.6299909 148.51246591 44.59870857 146.73046875 43.56640625 C142.03798337 40.86289054 142.03798337 40.86289054 137.29296875 38.25390625 C136.46055664 37.80031738 135.62814453 37.34672852 134.77050781 36.87939453 C131.22745434 35.98490271 129.77249266 37.10128356 126.65234375 38.91015625 Z M-42.70703125 40.25390625 C-42.8238257 58.55160461 -42.91200025 76.84920624 -42.96609211 95.14719677 C-42.99187535 103.64326118 -43.02702796 112.139094 -43.08422852 120.63500977 C-43.13406007 128.03994711 -43.1663214 135.44471674 -43.17747372 142.8498171 C-43.18399301 146.7709662 -43.19931688 150.6916355 -43.23568153 154.61263084 C-43.26963761 158.30385391 -43.28008534 161.99439989 -43.27256966 165.68576431 C-43.27459959 167.68518461 -43.30149691 169.68453126 -43.32913208 171.6837616 C-43.56363196 178.69010555 -43.56363196 178.69010555 -40.28649902 184.51937866 C-39.43527466 185.09177277 -38.58405029 185.66416687 -37.70703125 186.25390625 C-36.79667114 186.87930298 -36.79667114 186.87930298 -35.86791992 187.51733398 C-35.00517456 187.97281616 -35.00517456 187.97281616 -34.125 188.4375 C-33.45355957 188.7998877 -32.78211914 189.16227539 -32.09033203 189.53564453 C-31.00341064 190.10774658 -31.00341064 190.10774658 -29.89453125 190.69140625 C-28.26949511 191.57044725 -26.64586834 192.45209718 -25.0234375 193.3359375 C-24.15992676 193.80596191 -23.29641602 194.27598633 -22.40673828 194.76025391 C-17.66653064 197.38284301 -13.00268796 200.13495816 -8.33203125 202.87890625 C0.27204809 207.9205727 8.89795753 212.92182505 17.55352783 217.87445068 C18.78462676 218.57896636 20.01538737 219.28407362 21.24578857 219.98980713 C22.97145584 220.97932044 24.69859398 221.96626724 26.42578125 222.953125 C27.41465332 223.51862061 28.40352539 224.08411621 29.42236328 224.66674805 C32.33555759 226.27745363 35.31557747 227.76521061 38.29296875 229.25390625 C38.29296875 215.72390625 38.29296875 202.19390625 38.29296875 188.25390625 C32.16415247 184.75167359 32.16415247 184.75167359 26.03515625 181.24975586 C21.12013239 178.44161859 16.20586444 175.6321716 11.29296875 172.8203125 C10.3393042 172.2747168 9.38563965 171.72912109 8.40307617 171.16699219 C6.55924188 170.11208534 4.71564878 169.0567568 2.87231445 168.00097656 C2.03788818 167.52370117 1.20346191 167.04642578 0.34375 166.5546875 C-0.39190186 166.13356689 -1.12755371 165.71244629 -1.88549805 165.27856445 C-3.14192977 164.57179003 -4.41764356 163.89860009 -5.70703125 163.25390625 C-5.69957382 161.97683807 -5.69211639 160.6997699 -5.68443298 159.38400269 C-5.62001082 147.34786667 -5.60282654 135.31246623 -5.63187313 123.27618217 C-5.64528886 117.08807021 -5.64207054 110.90089886 -5.60083008 104.71289062 C-5.56164031 98.74074161 -5.56615479 92.77007665 -5.60095406 86.79791641 C-5.60655233 84.5197504 -5.59641025 82.2414895 -5.57026482 79.96346664 C-5.53631137 76.77067849 -5.55836304 73.58280866 -5.59350586 70.39013672 C-5.57049911 69.44858231 -5.54749237 68.50702789 -5.52378845 67.53694153 C-5.61749559 63.59272895 -5.7176893 61.21669443 -8.62426949 58.38812637 C-10.92719331 56.82815239 -13.23115461 55.51820648 -15.70703125 54.25390625 C-17.23262523 53.3800562 -18.75637475 52.50296913 -20.27734375 51.62109375 C-21.7933776 50.78636499 -23.31161102 49.95561845 -24.83203125 49.12890625 C-26.3556813 48.29335622 -27.87912177 47.45742389 -29.40234375 46.62109375 C-30.12583008 46.22631836 -30.84931641 45.83154297 -31.59472656 45.42480469 C-33.6284848 44.29744633 -35.63252375 43.128096 -37.63671875 41.94921875 C-40.41429225 40.09278233 -40.41429225 40.09278233 -42.70703125 40.25390625 Z M31.7890625 42.359375 C30.65533203 43.01357422 29.52160156 43.66777344 28.35351562 44.34179688 C27.46007446 44.85963745 27.46007446 44.85963745 26.54858398 45.38793945 C24.76374626 46.42212433 22.97678539 47.45255562 21.18945312 48.48242188 C18.9121467 49.79896958 16.63905034 51.1228315 14.37060547 52.45458984 C12.49392333 53.55177748 10.60713496 54.63219474 8.70361328 55.68212891 C4.78321674 57.74102645 4.78321674 57.74102645 2.59864807 61.37028503 C2.19721545 65.15719358 2.16205269 68.91320714 2.17944336 72.71606445 C2.17929733 73.55560165 2.17915131 74.39513885 2.17900085 75.26011658 C2.17969549 78.02500017 2.18746687 80.78981573 2.1953125 83.5546875 C2.19717827 85.4756822 2.19860143 87.39667738 2.19960022 89.31767273 C2.20341284 94.36631592 2.21323242 99.41493021 2.2243042 104.46356201 C2.2345453 109.61828216 2.23910362 114.77300698 2.24414062 119.92773438 C2.25485581 130.03647101 2.27191717 140.14518622 2.29296875 150.25390625 C2.95296875 150.58390625 3.61296875 150.91390625 4.29296875 151.25390625 C7.15478511 149.92909986 7.15478511 149.92909986 10.40234375 147.9921875 C11.00677307 147.64512253 11.61120239 147.29805756 12.23394775 146.94047546 C13.5171726 146.20176458 14.79818389 145.45919742 16.07714844 144.71313477 C18.01706635 143.58151598 19.9628237 142.46059827 21.91015625 141.34179688 C25.38570716 139.3360634 28.85511771 137.32396806 32.29296875 135.25390625 C33.85650589 134.4792527 33.85650589 134.4792527 35.45162964 133.68894958 C38.5845979 131.0177328 38.5845979 131.0177328 39.01449585 127.2802124 C39.03186643 125.63834239 39.0159805 123.99592042 38.97412109 122.35449219 C38.97499725 121.45657959 38.97587341 120.55866699 38.97677612 119.63354492 C38.97259807 116.66756997 38.92593609 113.7038607 38.87890625 110.73828125 C38.86771488 108.68134802 38.85917442 106.62439879 38.85317993 104.56744385 C38.83027711 99.15502725 38.7713406 93.74357764 38.70495605 88.33154297 C38.6435653 82.80840131 38.61617173 77.2851033 38.5859375 71.76171875 C38.52159939 60.92535652 38.4192017 50.08971181 38.29296875 39.25390625 C36.08655921 39.25390625 33.60055284 41.31327924 31.7890625 42.359375 Z M93.29296875 65.25390625 C91.42625647 68.98733082 92.16632709 73.39272465 92.25390625 77.49609375 C92.32512615 81.02223629 92.17186611 84.49191083 91.95703125 88.01171875 C91.2522387 98.01293397 91.2522387 98.01293397 94.62060547 107.09765625 C98.23160665 110.34406996 102.46910088 112.260355 106.89501953 114.16503906 C110.32198913 115.72116657 113.50968679 117.63425025 116.75610352 119.53198242 C120.22693358 121.56023447 123.67654464 123.4931746 127.29296875 125.25390625 C127.95296875 124.92390625 128.61296875 124.59390625 129.29296875 124.25390625 C131.90999431 102.46194223 131.90999431 102.46194223 126.27978516 82.24365234 C121.21867743 77.78624362 115.32607671 75.39781091 109 73.23291016 C105.3063687 71.89710014 102.29273085 70.04372795 98.98046875 67.94140625 C96.31444079 66.10588527 96.31444079 66.10588527 93.29296875 65.25390625 Z M160.29296875 71.87890625 C159.18050781 72.49636719 158.06804687 73.11382812 156.921875 73.75 C154.71983545 74.98200093 152.532459 76.24060267 150.36108398 77.52587891 C147.29296875 79.25390625 147.29296875 79.25390625 144.49243164 80.33740234 C141.50126252 81.67067654 140.13714881 82.51857115 138.29296875 85.25390625 C136.806179 91.89263921 137.45331211 98.88766645 137.73046875 105.62890625 C137.77563673 107.52855164 137.8166973 109.42829944 137.85351562 111.328125 C137.95246877 115.97258452 138.10761433 120.61212452 138.29296875 125.25390625 C146.14363586 121.3977816 153.9101056 117.50289294 161.41796875 113.00390625 C162.13210937 112.58367187 162.84625 112.1634375 163.58203125 111.73046875 C165.50141428 110.59173031 167.41333593 109.45715799 169.29296875 108.25390625 C170.0195166 107.8993335 170.74606445 107.54476074 171.49462891 107.17944336 C174.46448001 103.99953355 173.78405092 100.39301828 173.68359375 96.2109375 C173.67510406 94.88554207 173.67510406 94.88554207 173.66644287 93.53337097 C173.64404742 90.71049882 173.59384602 87.88889487 173.54296875 85.06640625 C173.52290781 83.15301312 173.50465633 81.2396001 173.48828125 79.32617188 C173.44417232 74.63492783 173.3751236 69.94463207 173.29296875 65.25390625 C169.31216888 65.25390625 163.69779616 69.97112809 160.29296875 71.87890625 Z M80.5234375 117.1640625 C79.3996167 117.81721436 78.2757959 118.47036621 77.11791992 119.14331055 C75.90530211 119.8674513 74.69282179 120.59182231 73.48046875 121.31640625 C72.22125812 122.05450632 70.96123701 122.79122528 69.70043945 123.52661133 C66.49624766 125.39937572 63.30158064 127.28777335 60.10888672 129.18005371 C56.38730983 131.38082757 52.64965115 133.55409011 48.9140625 135.73095703 C46.96472882 136.86752758 45.01679978 138.00651079 43.0703125 139.14794922 C38.00319737 142.11541688 32.91605708 145.0402498 27.79296875 147.91015625 C26.20609253 148.79924683 26.20609253 148.79924683 24.5871582 149.70629883 C22.56484086 150.83577697 20.54005491 151.9608501 18.51245117 153.08081055 C17.60857666 153.58523682 16.70470215 154.08966309 15.7734375 154.609375 C14.97832764 155.04918701 14.18321777 155.48899902 13.36401367 155.94213867 C11.37076884 157.20462889 9.87949944 158.51815214 8.29296875 160.25390625 C8.8770752 160.59711914 9.46118164 160.94033203 10.06298828 161.29394531 C14.82624915 164.11918071 19.49405574 167.03396009 24.09765625 170.11328125 C26.12042334 171.41120166 28.1438678 172.70806697 30.16796875 174.00390625 C31.16699219 174.69484375 32.16601562 175.38578125 33.1953125 176.09765625 C36.27178817 178.01896492 38.76344805 179.39929254 42.29296875 180.25390625 C46.87621261 179.10393514 50.40103369 176.87694471 54.29296875 174.25390625 C55.62533184 173.48497725 56.96193059 172.72328739 58.3046875 171.97265625 C59.53190536 171.23632553 60.75712279 170.49665201 61.98046875 169.75390625 C69.17754749 165.45174186 76.46687252 161.33203376 83.79296875 157.25390625 C93.71167796 151.7259347 103.54751371 146.08148043 113.29296875 140.25390625 C114.36804688 139.61195313 115.443125 138.97 116.55078125 138.30859375 C118.80070364 136.96114719 121.04854604 135.61048607 123.29296875 134.25390625 C118.33282406 130.34106262 112.77145587 127.37834573 107.30297852 124.24658203 C105.36130634 123.13225644 103.42578582 122.00772738 101.49023438 120.8828125 C100.24906351 120.16993601 99.00753858 119.45767555 97.765625 118.74609375 C96.64422119 118.1001123 95.52281738 117.45413086 94.36743164 116.78857422 C88.56097057 113.89018509 86.16235514 113.83756266 80.5234375 117.1640625 Z M120.95703125 146.19140625 C119.84416748 146.83102295 118.73130371 147.47063965 117.5847168 148.12963867 C116.36245249 148.83770205 115.14020356 149.54579197 113.91796875 150.25390625 C112.65496795 150.98133452 111.39169886 151.70829715 110.12817383 152.43481445 C107.49567709 153.94900215 104.86435847 155.46520749 102.23388672 156.98291016 C96.73874211 160.15177856 91.23164393 163.29968699 85.72344971 166.44580078 C83.98516235 167.43872523 82.24721935 168.43225244 80.50927734 169.42578125 C69.45851415 175.73960648 58.3807054 182.00528138 47.29296875 188.25390625 C47.24361665 193.77147101 47.20727213 199.28890796 47.18310547 204.80664062 C47.17303341 206.68459307 47.15937513 208.56252978 47.14208984 210.44042969 C47.11789422 213.13610715 47.10649792 215.83157771 47.09765625 218.52734375 C47.08733368 219.37009857 47.07701111 220.21285339 47.06637573 221.08114624 C47.06597731 223.14011872 47.17039287 225.1985856 47.29296875 227.25390625 C47.95296875 227.91390625 48.61296875 228.57390625 49.29296875 229.25390625 C50.21851562 228.70605469 51.1440625 228.15820312 52.09765625 227.59375 C66.61307246 219.01990597 81.22979587 210.62223333 95.84033203 202.21191406 C98.19207813 200.85812553 100.54355387 199.50386931 102.89477539 198.14916992 C105.09271309 196.88289631 107.29108875 195.61738245 109.48999023 194.3527832 C111.48941635 193.20077479 113.4773154 192.02846792 115.45166016 190.83398438 C118.29296875 189.25390625 118.29296875 189.25390625 121.23974609 188.20507812 C124.47973046 186.9024453 126.13110845 186.02361132 128.29296875 183.25390625 C129.96774655 176.66390684 129.22500638 169.60013384 128.91796875 162.87890625 C128.86778269 160.97928294 128.82215968 159.07953322 128.78125 157.1796875 C128.67128803 152.53463502 128.49891658 147.89565342 128.29296875 143.25390625 C125.31566293 143.25390625 123.52703181 144.70720884 120.95703125 146.19140625 Z " fill="#F32B21" transform="translate(56.70703125,3.74609375)"/>
<path d="M0 0 C2.85212936 1.81298146 5.46682955 3.7648496 8 6 C8.33 3.36 8.66 0.72 9 -2 C12.64581687 -2.02887512 16.29160463 -2.04675585 19.9375 -2.0625 C20.97841797 -2.07087891 22.01933594 -2.07925781 23.09179688 -2.08789062 C24.08115234 -2.09111328 25.07050781 -2.09433594 26.08984375 -2.09765625 C27.46450806 -2.10551147 27.46450806 -2.10551147 28.86694336 -2.11352539 C31 -2 31 -2 32 -1 C32.10050214 1.76401408 32.13616075 4.50307226 32.12939453 7.26757812 C32.13202301 8.5674894 32.13202301 8.5674894 32.13470459 9.8936615 C32.13912425 12.77287773 32.13618472 15.65203309 32.1328125 18.53125 C32.13348551 20.52282727 32.1344555 22.51440446 32.13571167 24.50598145 C32.1371888 28.68579895 32.13503361 32.86559513 32.13037109 37.04541016 C32.1246738 42.41602526 32.12795273 47.7865904 32.13394356 53.15720367 C32.13754877 57.2714272 32.13641077 61.38563879 32.13381577 65.49986267 C32.13314639 67.48070786 32.1339753 69.46155412 32.13629532 71.44239807 C32.13882119 74.20576876 32.13498218 76.96905734 32.12939453 79.73242188 C32.13141876 80.55947128 32.13344299 81.38652069 32.13552856 82.2386322 C32.11426244 87.88573756 32.11426244 87.88573756 31 89 C29.36527118 89.08700342 27.72685945 89.10701063 26.08984375 89.09765625 C25.10048828 89.09443359 24.11113281 89.09121094 23.09179688 89.08789062 C22.05087891 89.07951172 21.00996094 89.07113281 19.9375 89.0625 C18.89271484 89.05798828 17.84792969 89.05347656 16.77148438 89.04882812 C14.1809334 89.03699913 11.59049441 89.02051689 9 89 C8.505 84.545 8.505 84.545 8 80 C6.88625 80.9075 5.7725 81.815 4.625 82.75 C-5.57752574 90.22476712 -15.63787362 91.34785936 -28 90 C-39.60821787 87.5460062 -49.09755597 80.50357558 -56 71 C-63.27256766 58.90592961 -66.06939768 46.68156165 -63.34765625 32.6328125 C-59.70420238 19.59143684 -53.23829755 8.53166056 -41.44921875 1.47265625 C-28.24314017 -5.44099642 -13.6371079 -6.56970161 0 0 Z M-35 23 C-40.74757251 30.00311019 -42.59484838 37.59217777 -42.44140625 46.54296875 C-41.50878974 53.84708918 -38.03754194 60.48746022 -32.6875 65.5625 C-26.50157923 70.18150251 -19.58531708 71.72241115 -12 71 C-3.86781509 68.98259259 1.97110811 65.06761068 6.375 57.9375 C10.62152289 50.56853381 11.45175627 42.45348858 9.24609375 34.16796875 C5.78769432 25.12188083 0.85247948 20.01922919 -8 16 C-18.27437496 13.33856552 -27.08515853 16.14248468 -35 23 Z " fill="#FB2B21" transform="translate(637,106)"/>
<path d="M0 0 C2.81876899 1.84027912 5.44789747 3.80621559 8 6 C8.144375 4.865625 8.28875 3.73125 8.4375 2.5625 C9 -1 9 -1 10 -2 C17.26 -2 24.52 -2 32 -2 C32 27.7 32 57.4 32 88 C24.41 88 16.82 88 9 88 C8.505 84.535 8.505 84.535 8 81 C7.43152344 81.39832031 6.86304688 81.79664063 6.27734375 82.20703125 C-3.74699977 89.08517013 -12.70849909 92.08315908 -25 91 C-37.27035326 88.65924002 -47.18491539 82.60176636 -54.50390625 72.421875 C-62.28253226 59.82984334 -64.93482689 46.9601571 -62.34765625 32.3046875 C-58.98882299 19.1864975 -52.19275055 8.51846588 -40.44921875 1.46875 C-27.657439 -5.20859785 -13.10767186 -6.88778935 0 0 Z M-35.0859375 23.80859375 C-40.82935394 30.38421951 -42.38727657 37.50927974 -42.2734375 46.05859375 C-41.48607859 54.52832599 -37.30210578 61.41960776 -31 67 C-25.60643174 70.86856767 -19.60606079 72.38055594 -13 72 C-4.82802562 70.37016411 1.00793471 66.65216247 6 60 C10.70788294 52.15809033 11.91089127 44.46741273 9.84765625 35.5859375 C7.21953971 27.5683654 2.57295984 20.93079222 -5 17 C-16.46055969 13.11058436 -26.39861568 15.4742903 -35.0859375 23.80859375 Z " fill="#F92B21" transform="translate(469,106)"/>
<path d="M0 0 C0.77214844 0.4125 1.54429687 0.825 2.33984375 1.25 C13.16243051 7.76205221 20.52659991 17.74384222 24.12109375 29.7421875 C25.18307159 34.1871669 25.22748944 38.45104567 25.125 43 C25.11597656 43.77472656 25.10695313 44.54945313 25.09765625 45.34765625 C25.07439388 47.23190843 25.0385364 49.11599832 25 51 C22.16605613 52.41697193 19.79126262 52.11945929 16.62255859 52.11352539 C15.64188667 52.11374443 15.64188667 52.11374443 14.6414032 52.1139679 C12.47704773 52.11327036 10.31277796 52.1054854 8.1484375 52.09765625 C6.64913988 52.09579151 5.14984166 52.09436787 3.65054321 52.09336853 C-0.29831622 52.08954779 -4.24713896 52.07972128 -8.19598389 52.06866455 C-12.22440087 52.05844091 -16.25282378 52.05386887 -20.28125 52.04882812 C-28.18751685 52.03809862 -36.09375386 52.0210275 -44 52 C-43.40555445 53.76372296 -42.79903308 55.5233787 -42.1875 57.28125 C-41.85105469 58.26158203 -41.51460937 59.24191406 -41.16796875 60.25195312 C-39.36481116 64.49449949 -37.04794746 66.856114 -33 69 C-23.79258777 72.51933528 -15.34853131 72.95371728 -6.1875 69.25 C-0.84615054 66.64997804 2.61260596 62.81366521 6 58 C9.80133442 59.67923025 12.97082702 62.11462834 16.25 64.625 C16.80429687 65.04523438 17.35859375 65.46546875 17.9296875 65.8984375 C19.28866663 66.92938719 20.64463835 67.96429911 22 69 C17.85984176 78.09250063 8.45414092 84.19296093 -0.4609375 88.0703125 C-13.57570771 92.68062421 -27.18986059 92.2766734 -40 87 C-45.77011179 84.12675197 -50.77537178 80.92873292 -55 76 C-55.47953125 75.44957031 -55.9590625 74.89914063 -56.453125 74.33203125 C-65.59839071 63.13139016 -68.06501994 50.14109812 -67 36 C-64.26611583 22.74660502 -58.21781262 11.43971874 -47.3125 3.3125 C-33.67113003 -5.63398193 -14.79367702 -8.01011277 0 0 Z M-36 18 C-36.9075 18.53625 -37.815 19.0725 -38.75 19.625 C-42.07752882 23.13739153 -43.79911363 27.32901991 -45 32 C-44.67 32.99 -44.34 33.98 -44 35 C-28.49 35 -12.98 35 3 35 C3 27.89070886 1.32414069 24.53802642 -3.45703125 19.44921875 C-9.75309972 13.817643 -16.49704523 13.56041479 -24.58203125 13.6796875 C-29.17571486 14.11018128 -32.25414667 15.39339647 -36 18 Z " fill="#F82B22" transform="translate(836,106)"/>
<path d="M0 0 C7.92 0 15.84 0 24 0 C24 37.29 24 74.58 24 113 C37.2 113 50.4 113 64 113 C68.95535625 117.95535625 65 126.99206799 65 134 C43.55 134 22.1 134 0 134 C0 89.78 0 45.56 0 0 Z " fill="#FE2A20" transform="translate(339,60)"/>
<path d="M0 0 C7.26 0 14.52 0 22 0 C24.6145738 6.74022478 27.22890344 13.4805442 29.84301758 20.22094727 C30.73032205 22.50873302 31.6176905 24.79649396 32.50512695 27.08422852 C34.6069771 32.5026728 36.70785042 37.92148918 38.80615234 43.34130859 C40.10716927 46.70103478 41.41294227 50.0587377 42.72900391 53.41259766 C43.18581543 54.58226074 43.64262695 55.75192383 44.11328125 56.95703125 C44.48880127 57.91198486 44.86432129 58.86693848 45.2512207 59.85083008 C46 62 46 62 46 64 C46.66 64 47.32 64 48 64 C48.15843384 62.75391968 48.15843384 62.75391968 48.32006836 61.48266602 C49.08813354 57.54857274 50.39803704 53.98297851 51.87890625 50.27734375 C52.16695129 49.54260834 52.45499634 48.80787292 52.75177002 48.0508728 C53.68336835 45.67761934 54.62285818 43.30757883 55.5625 40.9375 C56.52248166 38.4986351 57.48055243 36.0590252 58.43852234 33.61936951 C59.07171717 32.00725306 59.70559455 30.39540452 60.34016418 28.78382874 C63.22248551 21.45825868 66.02347524 14.10299509 68.77758789 6.72827148 C70.89481691 1.10518309 70.89481691 1.10518309 72 0 C73.70772358 -0.08713831 75.41898649 -0.10700007 77.12890625 -0.09765625 C78.68061523 -0.09282227 78.68061523 -0.09282227 80.26367188 -0.08789062 C81.35228516 -0.07951172 82.44089844 -0.07113281 83.5625 -0.0625 C85.2012207 -0.05573242 85.2012207 -0.05573242 86.87304688 -0.04882812 C89.58208759 -0.03699825 92.29100822 -0.01967721 95 0 C93.08293356 6.66788722 90.91266787 13.17697166 88.4453125 19.66015625 C87.93791031 21.00474411 87.93791031 21.00474411 87.42025757 22.37649536 C86.32559391 25.27326814 85.22560245 28.16797893 84.125 31.0625 C83.36520958 33.0674548 82.60544418 35.07241908 81.84570312 37.07739258 C77.13916806 49.47704322 72.36613804 61.84960678 67.5 74.1875 C67.08479095 75.2403569 67.08479095 75.2403569 66.66119385 76.31448364 C62.22093192 87.55813615 62.22093192 87.55813615 61 90 C51.76 90 42.52 90 33 90 C30.48296304 84.33666684 28.05460239 78.73959138 25.85546875 72.9609375 C25.5684761 72.21302948 25.28148346 71.46512146 24.98579407 70.69454956 C24.05054336 68.25564316 23.11875459 65.81543481 22.1875 63.375 C20.85879329 59.89816179 19.52915495 56.42168057 18.19921875 52.9453125 C17.85853363 52.05404663 17.51784851 51.16278076 17.1668396 50.24450684 C15.0430167 44.69658664 12.89528425 39.15860619 10.72688293 33.62796021 C9.31830119 30.03506698 7.91630686 26.43961831 6.51455688 22.84405518 C5.83940522 21.11780335 5.1610088 19.39281698 4.4793396 17.66912842 C3.52985021 15.2670039 2.59185971 12.86068263 1.65625 10.453125 C1.3705867 9.73929657 1.0849234 9.02546814 0.79060364 8.29000854 C-1.11387183 3.3416155 -1.11387183 3.3416155 0 0 Z " fill="#FA2B21" transform="translate(677,104)"/>
<path d="M0 0 C7.59 0 15.18 0 23 0 C23 44.22 23 88.44 23 134 C15.41 134 7.82 134 0 134 C0 89.78 0 45.56 0 0 Z " fill="#FE2A20" transform="translate(871,60)"/>
<path d="M0 0 C19.14 0 38.28 0 58 0 C58 7.26 58 14.52 58 22 C46.45 22 34.9 22 23 22 C23 44.44 23 66.88 23 90 C15.41 90 7.82 90 0 90 C0 60.3 0 30.6 0 0 Z " fill="#F72B21" transform="translate(515,104)"/>
<path d="M0 0 C5 2 5 2 6 4 C6.1031634 5.80712912 6.14221496 7.61805299 6.15148926 9.42810059 C6.15983292 10.5806987 6.16817657 11.73329681 6.17677307 12.92082214 C6.18095749 14.19154068 6.18514191 15.46225922 6.18945312 16.77148438 C6.1973933 18.11827352 6.20578107 19.46506009 6.21458435 20.81184387 C6.23265821 23.71527868 6.24766773 26.61870775 6.26036072 29.52217102 C6.28055311 34.10999189 6.30820898 38.69774884 6.33703613 43.28552246 C6.40228479 53.85252757 6.45768012 64.41958014 6.51302338 74.98664093 C6.56383755 84.66967033 6.61670619 94.35267657 6.67754889 104.03564882 C6.70594104 108.59954659 6.72952152 113.16343672 6.74947357 117.72737885 C6.76283749 120.56273213 6.7802511 123.39804989 6.79878426 126.23337364 C6.81027239 128.18195822 6.81681025 130.13056998 6.82322693 132.07917786 C6.83157059 133.23177597 6.83991425 134.38437408 6.84851074 135.57189941 C6.85366447 136.5777433 6.85881821 137.58358719 6.86412811 138.61991119 C6.84355027 141.01669186 6.84355027 141.01669186 8 143 C7.1875 146.5625 7.1875 146.5625 6 150 C5.34 150.33 4.68 150.66 4 151 C4 150.34 4 149.68 4 149 C2.68 148.67 1.36 148.34 0 148 C0 99.16 0 50.32 0 0 Z " fill="#FD2A1F" transform="translate(7,44)"/>
<path d="M0 0 C7.92 0 15.84 0 24 0 C24 37.29 24 74.58 24 113 C37.2 113 50.4 113 64 113 C68.95535625 117.95535625 65 126.99206799 65 134 C43.55 134 22.1 134 0 134 C0 89.78 0 45.56 0 0 Z M2 1 C2 44.56 2 88.12 2 133 C22.46 133 42.92 133 64 133 C64.84370962 123.68279319 64.84370962 123.68279319 63 115 C61.23571655 114.96241577 61.23571655 114.96241577 59.43579102 114.92407227 C55.08785378 114.83017194 50.74008284 114.72990952 46.39233398 114.62768555 C44.50760782 114.58427067 42.62284064 114.54260057 40.73803711 114.50268555 C38.03486751 114.44514107 35.33190564 114.38140196 32.62890625 114.31640625 C31.78099014 114.29969376 30.93307404 114.28298126 30.0594635 114.26576233 C24.11387171 114.11387171 24.11387171 114.11387171 23 113 C22.89228095 111.5456272 22.85318741 110.08610424 22.84178162 108.62779236 C22.8319928 107.68403244 22.82220398 106.74027252 22.81211853 105.76791382 C22.80348534 104.20238266 22.80348534 104.20238266 22.79467773 102.60522461 C22.78477814 101.51267868 22.77487854 100.42013275 22.76467896 99.29447937 C22.7329555 95.66378994 22.70826382 92.03308741 22.68359375 88.40234375 C22.66303358 85.89270171 22.64203737 83.38306322 22.62062073 80.87342834 C22.5709649 74.93068679 22.52572477 68.98792189 22.48259836 63.04513031 C22.42843131 55.61794064 22.36745412 48.19080958 22.30664062 40.76367188 C22.1989408 27.50915415 22.09752227 14.25459624 22 1 C15.4 1 8.8 1 2 1 Z " fill="#D12C26" transform="translate(339,60)"/>
<path d="M0 0 C1.25151326 2.50302652 1.08375047 4.11081202 1.02172852 6.90869141 C1.00163223 7.92959869 0.98153595 8.95050598 0.96083069 10.00234985 C0.92027809 11.66021011 0.92027809 11.66021011 0.87890625 13.3515625 C0.85529526 14.4807309 0.83168427 15.60989929 0.80735779 16.77328491 C0.73059782 20.39064728 0.64662645 24.00780217 0.5625 27.625 C0.50929167 30.07290641 0.4565512 32.52082304 0.40429688 34.96875 C0.27496601 40.97929589 0.13970928 46.98968688 0 53 C1.485 52.505 1.485 52.505 3 52 C3.66 53.32 4.32 54.64 5 56 C4.34 56.99 3.68 57.98 3 59 C7.07415064 58.82826291 7.07415064 58.82826291 11 58 C11.66 56.68 12.32 55.36 13 54 C19.27 57.63 25.54 61.26 32 65 C28.16380575 65.95904856 26.67568464 65.91892116 23 65 C23.33 65.99 23.66 66.98 24 68 C23.34 68 22.68 68 22 68 C22 68.66 22 69.32 22 70 C22.99 70 23.98 70 25 70 C25 70.66 25 71.32 25 72 C19.4813286 70.40758947 14.92348831 67.71208998 10.12304688 64.65820312 C6.62457904 62.5144392 6.62457904 62.5144392 2.63891602 62.21020508 C-0.41351141 63.12375885 -2.82195615 64.42853826 -5.5625 66.0546875 C-7.12871094 66.97701172 -7.12871094 66.97701172 -8.7265625 67.91796875 C-9.80679688 68.56378906 -10.88703125 69.20960937 -12 69.875 C-13.08023438 70.51308594 -14.16046875 71.15117187 -15.2734375 71.80859375 C-21.04785516 75.20867831 -21.04785516 75.20867831 -26.72265625 78.77001953 C-27.47417969 79.17591309 -28.22570312 79.58180664 -29 80 C-29.66 79.67 -30.32 79.34 -31 79 C-29.515 78.505 -29.515 78.505 -28 78 C-28.33 76.68 -28.66 75.36 -29 74 C-25.25 72.875 -25.25 72.875 -23 74 C-23.33 73.01 -23.66 72.02 -24 71 C-25.65 70.67 -27.3 70.34 -29 70 C-28.67 69.01 -28.34 68.02 -28 67 C-25.515625 66.09179687 -25.515625 66.09179687 -22.25 65.21875 C-14.43528288 62.50429471 -6.23943491 59.61366998 -2 52 C2.45820946 36.70661756 0.16515202 18.6363218 -0.98326111 2.95547485 C-0.98878494 2.31016815 -0.99430878 1.66486145 -1 1 C-0.67 0.67 -0.34 0.34 0 0 Z " fill="#ED2E26" transform="translate(141,57)"/>
<path d="M0 0 C7.59 0 15.18 0 23 0 C23 44.22 23 88.44 23 134 C15.41 134 7.82 134 0 134 C0 89.78 0 45.56 0 0 Z M2 1 C1.97688146 18.06300637 1.95902101 35.12600651 1.94818783 52.18902493 C1.94302479 60.11112945 1.93598195 68.03322409 1.92456055 75.95532227 C1.91461394 82.85774637 1.90814663 89.76016331 1.90591151 96.66259438 C1.90460436 100.31960661 1.90151826 103.97659836 1.89426994 107.63360405 C1.88625652 111.70944006 1.88600885 115.78524013 1.88647461 119.86108398 C1.88287933 121.08243546 1.87928406 122.30378693 1.87557983 123.56214905 C1.8769545 124.66577789 1.87832916 125.76940674 1.87974548 126.90647888 C1.87882369 127.87159614 1.8779019 128.83671339 1.87695217 129.83107662 C1.75732936 131.97930278 1.75732936 131.97930278 3 133 C9.27 133 15.54 133 22 133 C22 89.44 22 45.88 22 1 C15.4 1 8.8 1 2 1 Z " fill="#D23129" transform="translate(871,60)"/>
<path d="M0 0 C0.33 0 0.66 0 1 0 C1 30.36 1 60.72 1 92 C-0.485 92.495 -0.485 92.495 -2 93 C-0.07423885 95.43929746 1.80090595 97.80090595 4 100 C0.42158006 102.15410876 -3.16352988 104.29682565 -6.75 106.4375 C-8.27367188 107.35499023 -8.27367188 107.35499023 -9.828125 108.29101562 C-11.29765625 109.1659668 -11.29765625 109.1659668 -12.796875 110.05859375 C-13.69760742 110.59798584 -14.59833984 111.13737793 -15.52636719 111.69311523 C-18 113 -18 113 -22 114 C-21.01 111.03 -20.02 108.06 -19 105 C-19.99 104.34 -20.98 103.68 -22 103 C-21.37333939 102.87868713 -20.74667877 102.75737427 -20.10102844 102.63238525 C-12.27741235 100.7548517 -5.61897552 97.81237602 -1 91 C3.38956425 77.77316314 1.35581385 61.69090126 0.90551758 47.99188232 C0.75031392 42.58266811 0.71538695 37.17277111 0.66992188 31.76171875 C0.56340397 21.17043067 0.32428113 10.58670392 0 0 Z " fill="#D7342C" transform="translate(95,44)"/>
<path d="M0 0 C0.66 0.33 1.32 0.66 2 1 C1.01 2.485 1.01 2.485 0 4 C-0.66 4 -1.32 4 -2 4 C-2.66 5.65 -3.32 7.3 -4 9 C-2.68 8.67 -1.36 8.34 0 8 C-0.33 7.01 -0.66 6.02 -1 5 C3.14301125 2.83842891 5.39915378 2 10 2 C12.1875 3 12.1875 3 14 4 C10.26624527 6.22640712 6.53084461 8.45001946 2.79394531 10.67114258 C1.52494306 11.42592445 0.25638059 12.18144628 -1.01171875 12.93774414 C-2.84257584 14.02949344 -4.67503823 15.11850423 -6.5078125 16.20703125 C-8.15740967 17.18893433 -8.15740967 17.18893433 -9.84033203 18.19067383 C-12.84540702 19.91147515 -15.88713025 21.4845779 -19 23 C-19.66 22.01 -20.32 21.02 -21 20 C-20.34 18.68 -19.68 17.36 -19 16 C-21.29629994 14.85185003 -23.07698086 14.69230191 -25.625 14.4375 C-26.44226562 14.35371094 -27.25953125 14.26992188 -28.1015625 14.18359375 C-28.72804687 14.12300781 -29.35453125 14.06242187 -30 14 C-30 13.01 -30 12.02 -30 11 C-28.91460937 11.46277344 -27.82921875 11.92554688 -26.7109375 12.40234375 C-22.44230585 13.46997198 -20.24547106 12.46329401 -16.4765625 10.31640625 C-14.51038121 9.08985843 -12.56005617 7.83758668 -10.625 6.5625 C-8.66296353 5.30735506 -6.697014 4.05829868 -4.7265625 2.81640625 C-3.86627441 2.25381104 -3.00598633 1.69121582 -2.11962891 1.11157227 C-1.42015137 0.74475342 -0.72067383 0.37793457 0 0 Z " fill="#F82B22" transform="translate(78,41)"/>
<path d="M0 0 C0.66 0 1.32 0 2 0 C2.33062973 7.25782147 2.55765019 14.51369546 2.71411133 21.77734375 C2.77934473 24.24552956 2.86796083 26.71321561 2.98071289 29.1796875 C3.87189061 49.18078029 3.87189061 49.18078029 0.73040771 53.91210938 C-2.67574834 57.14011837 -6.51063228 58.67692187 -11 60 C-12.485 60.495 -12.485 60.495 -14 61 C-14 59.68 -14 58.36 -14 57 C-13.01 57 -12.02 57 -11 57 C-11 56.01 -11 55.02 -11 54 C-13.37429296 53.74930087 -13.37429296 53.74930087 -16 54 C-17.60411246 55.35405861 -17.60411246 55.35405861 -19 57 C-22.08771148 58.95555061 -24.37314539 59.20149192 -28 59 C-28 59.66 -28 60.32 -28 61 C-29.32 60.67 -30.64 60.34 -32 60 C-31.30849854 59.81042725 -30.61699707 59.62085449 -29.90454102 59.42553711 C-21.87204049 56.93824063 -14.11745926 53.93459097 -9 47 C-4.98648641 35.01663577 -6.99741573 20.38133332 -8 8 C-7.67 8 -7.34 8 -7 8 C-6.97535362 13.82071622 -6.9571657 19.64140234 -6.94506836 25.4621582 C-6.94002733 27.44393441 -6.93319462 29.42570689 -6.92456055 31.4074707 C-6.91248485 34.24952109 -6.90676955 37.09152247 -6.90234375 39.93359375 C-6.89718246 40.82525742 -6.89202118 41.71692108 -6.88670349 42.63560486 C-6.88650823 44.75740601 -6.9378997 46.8791078 -7 49 C-7.33 49.33 -7.66 49.66 -8 50 C-6.35 50.33 -4.7 50.66 -3 51 C-2.67 50.34 -2.34 49.68 -2 49 C-1.67 49 -1.34 49 -1 49 C-0.67 32.83 -0.34 16.66 0 0 Z " fill="#D82C26" transform="translate(193,140)"/>
<path d="M0 0 C3.64581687 -0.02887512 7.29160463 -0.04675585 10.9375 -0.0625 C12.49887695 -0.07506836 12.49887695 -0.07506836 14.09179688 -0.08789062 C15.57583008 -0.09272461 15.57583008 -0.09272461 17.08984375 -0.09765625 C18.46450806 -0.10551147 18.46450806 -0.10551147 19.86694336 -0.11352539 C22 0 22 0 23 1 C23.10050214 3.76401408 23.13616075 6.50307226 23.12939453 9.26757812 C23.13114685 10.13418564 23.13289917 11.00079315 23.13470459 11.8936615 C23.13912425 14.77287773 23.13618472 17.65203309 23.1328125 20.53125 C23.13348551 22.52282727 23.1344555 24.51440446 23.13571167 26.50598145 C23.1371888 30.68579895 23.13503361 34.86559513 23.13037109 39.04541016 C23.1246738 44.41602526 23.12795273 49.7865904 23.13394356 55.15720367 C23.13754877 59.2714272 23.13641077 63.38563879 23.13381577 67.49986267 C23.13314639 69.48070786 23.1339753 71.46155412 23.13629532 73.44239807 C23.13882119 76.20576876 23.13498218 78.96905734 23.12939453 81.73242188 C23.13141876 82.55947128 23.13344299 83.38652069 23.13552856 84.2386322 C23.11426244 89.88573756 23.11426244 89.88573756 22 91 C20.36527118 91.08700342 18.72685945 91.10701063 17.08984375 91.09765625 C16.10048828 91.09443359 15.11113281 91.09121094 14.09179688 91.08789062 C13.05087891 91.07951172 12.00996094 91.07113281 10.9375 91.0625 C9.89271484 91.05798828 8.84792969 91.05347656 7.77148438 91.04882812 C5.1809334 91.03699913 2.59049441 91.02051689 0 91 C0 88.03 0 85.06 0 82 C0.33 82 0.66 82 1 82 C1 84.31 1 86.62 1 89 C7.6 89 14.2 89 21 89 C21 59.96 21 30.92 21 1 C14.07 1 7.14 1 0 1 C0 0.67 0 0.34 0 0 Z " fill="#CE403C" transform="translate(646,104)"/>
<path d="M0 0 C0.66 0.33 1.32 0.66 2 1 C1.01 2.485 1.01 2.485 0 4 C2.31 4 4.62 4 7 4 C7 3.67 7 3.34 7 3 C8.65 3 10.3 3 12 3 C7.33488467 6.86538127 7.33488467 6.86538127 4.3684082 8.05786133 C1.88052349 9.70748764 1.88052349 9.70748764 1.52523804 11.85116577 C1.32187781 14.33238911 1.28185987 16.77211952 1.29296875 19.26171875 C1.27784744 20.16751175 1.26272614 21.07330475 1.24714661 22.00654602 C1.20414864 24.90044818 1.19542008 27.79330976 1.1875 30.6875 C1.16436506 32.64911644 1.13900182 34.61070796 1.11132812 36.57226562 C1.04835634 41.38160289 1.01611559 46.19028666 1 51 C0.01 51.495 0.01 51.495 -1 52 C-1 37.48 -1 22.96 -1 8 C-1.66 8 -2.32 8 -3 8 C-3 7.34 -3 6.68 -3 6 C-3.66 6 -4.32 6 -5 6 C-3.86695008 2.60085025 -2.87481525 1.94745549 0 0 Z " fill="#DD2820" transform="translate(194,79)"/>
<path d="M0 0 C2.484375 1.59765625 2.484375 1.59765625 4.25 2.9375 C3.26 3.5975 2.27 4.2575 1.25 4.9375 C0.59 4.6075 -0.07 4.2775 -0.75 3.9375 C-0.42 3.2775 -0.09 2.6175 0.25 1.9375 C-1.07 1.9375 -2.39 1.9375 -3.75 1.9375 C-3.75 1.2775 -3.75 0.6175 -3.75 -0.0625 C-4.74 -0.0625 -5.73 -0.0625 -6.75 -0.0625 C-7.41 1.9175 -8.07 3.8975 -8.75 5.9375 C-8.09 6.2675 -7.43 6.5975 -6.75 6.9375 C-7.08 7.5975 -7.41 8.2575 -7.75 8.9375 C-6.43 9.2675 -5.11 9.5975 -3.75 9.9375 C-5.4 10.2675 -7.05 10.5975 -8.75 10.9375 C-8.75 10.2775 -8.75 9.6175 -8.75 8.9375 C-16.31407533 8.73160279 -16.31407533 8.73160279 -23.75 9.9375 C-23.75 10.5975 -23.75 11.2575 -23.75 11.9375 C-23.09 12.2675 -22.43 12.5975 -21.75 12.9375 C-23.2062672 13.30006858 -24.66511185 13.65229793 -26.125 14 C-26.93710937 14.19722656 -27.74921875 14.39445312 -28.5859375 14.59765625 C-30.75 14.9375 -30.75 14.9375 -32.75 13.9375 C-31.80640625 13.36902344 -30.8628125 12.80054688 -29.890625 12.21484375 C-29.27533936 11.84375488 -28.66005371 11.47266602 -28.02612305 11.09033203 C-26.66626661 10.27464757 -25.30308316 9.46448621 -23.93676758 8.65966797 C-20.6869172 6.74021678 -17.50327924 4.80375965 -14.43359375 2.60546875 C-6.14839956 -3.04401829 -6.14839956 -3.04401829 0 0 Z " fill="#E93029" transform="translate(59.75,5.0625)"/>
<path d="M0 0 C4.97209562 1.76429199 9.43438061 4.3939166 14 7 C12.47793991 9.62901288 11.15634036 11.84365964 9 14 C3.7411716 13.76096235 0.00799305 11.58651146 -4.375 8.9375 C-5.01566406 8.56044922 -5.65632813 8.18339844 -6.31640625 7.79492188 C-7.88254066 6.87160383 -9.44198034 5.93694607 -11 5 C-9.68 4.67 -8.36 4.34 -7 4 C-7 4.66 -7 5.32 -7 6 C-6.071875 6.144375 -5.14375 6.28875 -4.1875 6.4375 C-1 7 -1 7 2 8 C2 8.66 2 9.32 2 10 C2.66 10 3.32 10 4 10 C4.33 9.01 4.66 8.02 5 7 C5.33 6.01 5.66 5.02 6 4 C5.01 4 4.02 4 3 4 C2.67 4.66 2.34 5.32 2 6 C0.68 5.34 -0.64 4.68 -2 4 C-1.34 2.68 -0.68 1.36 0 0 Z " fill="#EB3029" transform="translate(66,165)"/>
<path d="M0 0 C0.66 0.268125 1.32 0.53625 2 0.8125 C5.64939067 2.25705047 9.32245433 3.62871178 13 5 C13 5.99 13 6.98 13 8 C13.99 8.33 14.98 8.66 16 9 C15.67 9.66 15.34 10.32 15 11 C14.34 11 13.68 11 13 11 C12.67 12.65 12.34 14.3 12 16 C10.0625 15.25 10.0625 15.25 8 14 C7.25 11.875 7.25 11.875 7 10 C6.01 10 5.02 10 4 10 C3.67 9.34 3.34 8.68 3 8 C2.01 8 1.02 8 0 8 C0 7.34 0 6.68 0 6 C-0.66 6 -1.32 6 -2 6 C-1.34 4.02 -0.68 2.04 0 0 Z " fill="#F82B21" transform="translate(46,207)"/>
<path d="M0 0 C7.56147318 3.68515617 14.96678328 7.35807696 22 12 C20 13 20 13 16.5 12.875 C15.345 12.91625 14.19 12.9575 13 13 C12.01 14.485 12.01 14.485 11 16 C12.32 16 13.64 16 15 16 C15 16.99 15 17.98 15 19 C10.49197399 17.74194623 7.5087188 16.09592835 4 13 C4.515625 12.62875 5.03125 12.2575 5.5625 11.875 C7.36319983 9.96826848 7.36319983 9.96826848 6.6875 6.8125 C6.3471875 5.4203125 6.3471875 5.4203125 6 4 C4.68 4.33 3.36 4.66 2 5 C1.34 3.35 0.68 1.7 0 0 Z " fill="#F02F26" transform="translate(26,39)"/>
<path d="M0 0 C0.66 0 1.32 0 2 0 C2 14.19 2 28.38 2 43 C1.01 42.67 0.02 42.34 -1 42 C-0.67 28.14 -0.34 14.28 0 0 Z " fill="#D82F22" transform="translate(95,192)"/>
<path d="M0 0 C0.66 0 1.32 0 2 0 C2 0.99 2 1.98 2 3 C2.99 3 3.98 3 5 3 C5.12375 4.0725 5.2475 5.145 5.375 6.25 C5.91090178 9.4654107 6.55401488 11.20442877 8 14 C8 15.32 8 16.64 8 18 C16.58 18 25.16 18 34 18 C34.66 15.69 35.32 13.38 36 11 C36.66 10.67 37.32 10.34 38 10 C37.01 12.97 36.02 15.94 35 19 C25.76 19 16.52 19 7 19 C2.5 8.875 2.5 8.875 1.25 4.4375 C1.00765625 3.59058594 0.7653125 2.74367187 0.515625 1.87109375 C0.34546875 1.25363281 0.1753125 0.63617188 0 0 Z " fill="#DB352F" transform="translate(703,175)"/>
<path d="M0 0 C1.2065625 0.0309375 1.2065625 0.0309375 2.4375 0.0625 C2.4375 0.7225 2.4375 1.3825 2.4375 2.0625 C4.7475 2.0625 7.0575 2.0625 9.4375 2.0625 C9.4375 2.7225 9.4375 3.3825 9.4375 4.0625 C8.6640625 3.96710938 7.890625 3.87171875 7.09375 3.7734375 C-2.24364481 2.77960587 -8.80747941 3.36027623 -16.80078125 8.62109375 C-19.42716272 10.76995131 -20.86472926 13.14233432 -22.5625 16.0625 C-22.8925 16.0625 -23.2225 16.0625 -23.5625 16.0625 C-23.2325 13.0925 -22.9025 10.1225 -22.5625 7.0625 C-20.5825 7.5575 -20.5825 7.5575 -18.5625 8.0625 C-18.5625 7.4025 -18.5625 6.7425 -18.5625 6.0625 C-17.2425 5.4025 -15.9225 4.7425 -14.5625 4.0625 C-14.5625 3.0725 -14.5625 2.0825 -14.5625 1.0625 C-13.38880859 1.07990234 -13.38880859 1.07990234 -12.19140625 1.09765625 C-11.17949219 1.10667969 -10.16757812 1.11570312 -9.125 1.125 C-7.61099609 1.14240234 -7.61099609 1.14240234 -6.06640625 1.16015625 C-3.08270118 1.0437871 -3.00665528 0.07333306 0 0 Z " fill="#E4322D" transform="translate(621.5625,118.9375)"/>
<path d="M0 0 C2 0.3125 2 0.3125 4 1 C4.33 1.66 4.66 2.32 5 3 C3.02 3 1.04 3 -1 3 C-1.33 4.98 -1.66 6.96 -2 9 C-2.94875 8.95875 -3.8975 8.9175 -4.875 8.875 C-8.10244856 8.65026182 -8.10244856 8.65026182 -10 11 C-13 7.25 -13 7.25 -13 5 C-12.34 5 -11.68 5 -11 5 C-11 4.34 -11 3.68 -11 3 C-10.01 3 -9.02 3 -8 3 C-8 2.34 -8 1.68 -8 1 C-6.865625 1.020625 -5.73125 1.04125 -4.5625 1.0625 C-1.18424326 1.41577477 -1.18424326 1.41577477 0 0 Z " fill="#FB291D" transform="translate(215,122)"/>
<path d="M0 0 C5.58507504 2.69319824 10.9400039 5.40473961 16 9 C12.86314002 10.04561999 10.27634061 10 7 10 C7 11.32 7 12.64 7 14 C7.99 14 8.98 14 10 14 C10.33 14.99 10.66 15.98 11 17 C6.69235185 15.43358249 2.93828536 13.31663844 -1 11 C2.75 9.875 2.75 9.875 5 11 C5 10.34 5 9.68 5 9 C5.66 9 6.32 9 7 9 C7 8.01 7 7.02 7 6 C6.21625 5.87625 5.4325 5.7525 4.625 5.625 C2 5 2 5 0 3 C0 2.01 0 1.02 0 0 Z " fill="#E3332C" transform="translate(159,63)"/>
<path d="M0 0 C3.05430807 1.07833396 5.72741309 2.39695381 8.453125 4.12109375 C15.2060954 8.70355029 15.2060954 8.70355029 22.91015625 9.41015625 C25.14386201 8.09898913 27.022136 6.66159458 29 5 C29.66 5 30.32 5 31 5 C29.8742387 8.37728391 29.49503032 8.65740451 26.5 10.25 C21.81709847 12.48964856 17.96929523 12.05827584 13 11 C13 10.01 13 9.02 13 8 C9.38026598 6.68373308 6.90432869 6 3 6 C2.01 4.02 1.02 2.04 0 0 Z " fill="#DF312A" transform="translate(80,173)"/>
<path d="M0 0 C-1.47971641 2.95943281 -2.51356928 4.70558141 -5.375 6.4375 C-8.63524644 7.13612424 -10.11583738 6.60231257 -13 5 C-13.33 4.34 -13.66 3.68 -14 3 C-13.67 2.34 -13.34 1.68 -13 1 C-11.68 1 -10.36 1 -9 1 C-9 0.34 -9 -0.32 -9 -1 C-5.38055101 -2.34053666 -3.42632833 -1.61798838 0 0 Z M-14 6 C-13.01 6.495 -13.01 6.495 -12 7 C-12.99 7.495 -12.99 7.495 -14 8 C-14 7.34 -14 6.68 -14 6 Z " fill="#FB2A1F" transform="translate(95,142)"/>
<path d="M0 0 C0.66 0.33 1.32 0.66 2 1 C1.505 1.5775 1.01 2.155 0.5 2.75 C-1.36980013 5.10400629 -1.36980013 5.10400629 -1 9 C-0.01 9.66 0.98 10.32 2 11 C-1.96 12.98 -1.96 12.98 -6 15 C-6 14.01 -6 13.02 -6 12 C-5.01 12 -4.02 12 -3 12 C-4.32 10.68 -5.64 9.36 -7 8 C-7.5775 8.350625 -8.155 8.70125 -8.75 9.0625 C-11.39786506 10.16577711 -12.33185326 9.80156509 -15 9 C-12.54732365 7.46931512 -10.08866106 5.95031377 -7.625 4.4375 C-6.92632812 3.99986328 -6.22765625 3.56222656 -5.5078125 3.11132812 C-3.70814097 2.01249022 -1.85677657 0.99932133 0 0 Z " fill="#E4322B" transform="translate(159,201)"/>
<path d="M0 0 C3.7910119 1.44950455 7.3874638 3.15172566 11 5 C10.401875 5.144375 9.80375 5.28875 9.1875 5.4375 C7.43849596 5.8872439 5.71322977 6.42892341 4 7 C4.495 7.4125 4.99 7.825 5.5 8.25 C7 10 7 10 7 14 C8.65 14.33 10.3 14.66 12 15 C12 15.66 12 16.32 12 17 C6.03347646 15.42986223 1.17090975 12.24970218 -4 9 C-2.68 8.67 -1.36 8.34 0 8 C0 8.66 0 9.32 0 10 C0.99 10 1.98 10 3 10 C2.814375 9.236875 2.62875 8.47375 2.4375 7.6875 C2 5 2 5 3 2 C2.01 2 1.02 2 0 2 C0 1.34 0 0.68 0 0 Z " fill="#E4362D" transform="translate(71,13)"/>
<path d="M0 0 C1.60781893 0.7631861 3.21113138 1.53587058 4.8125 2.3125 C5.70582031 2.74175781 6.59914062 3.17101562 7.51953125 3.61328125 C9.78931933 4.88221789 11.29248171 6.06556898 13 8 C10.23723823 7.47731534 7.6739124 6.89130413 5 6 C5.33 6.99 5.66 7.98 6 9 C6 10.66666667 6 12.33333333 6 14 C2.62496331 12.8141763 0.35277269 11.72426311 -2 9 C-1.34 9 -0.68 9 0 9 C0.33 8.01 0.66 7.02 1 6 C1.33 5.01 1.66 4.02 2 3 C1.34 2.67 0.68 2.34 0 2 C0 1.34 0 0.68 0 0 Z " fill="#E6302B" transform="translate(176,73)"/>
<path d="M0 0 C1.32 0 2.64 0 4 0 C2.80010777 3.5996767 2.01596192 3.86867665 -1.18359375 5.69921875 C-2.02857422 6.18583984 -2.87355469 6.67246094 -3.74414062 7.17382812 C-4.63294922 7.67333984 -5.52175781 8.17285156 -6.4375 8.6875 C-7.32244141 9.19861328 -8.20738281 9.70972656 -9.11914062 10.23632812 C-15.7168725 14 -15.7168725 14 -18 14 C-17.34 12.68 -16.68 11.36 -16 10 C-14.68 10 -13.36 10 -12 10 C-12.33 9.01 -12.66 8.02 -13 7 C-12.21625 6.71125 -11.4325 6.4225 -10.625 6.125 C-7.90328368 5.15087746 -7.90328368 5.15087746 -6 3 C-3.375 2.875 -3.375 2.875 -1 3 C-0.67 2.01 -0.34 1.02 0 0 Z " fill="#E52F2C" transform="translate(226,67)"/>
<path d="M0 0 C4.13515757 0.47713357 7.3202808 1.09199745 11 3 C11.66 2.67 12.32 2.34 13 2 C12.67 3.65 12.34 5.3 12 7 C14.86724686 6.42655063 15.8614515 6.1385485 18 4 C18.061875 4.94875 18.12375 5.8975 18.1875 6.875 C18.455625 7.90625 18.72375 8.9375 19 10 C21.45704762 11.23290201 21.45704762 11.23290201 24 12 C24.33 12.99 24.66 13.98 25 15 C19.76063732 13.00603504 15.08795836 10.30703131 10.25 7.5 C9.37472656 7.00113281 8.49945313 6.50226563 7.59765625 5.98828125 C6.76621094 5.50746094 5.93476562 5.02664062 5.078125 4.53125 C4.31918945 4.09361328 3.56025391 3.65597656 2.77832031 3.20507812 C1 2 1 2 0 0 Z " fill="#E3322C" transform="translate(72,230)"/>
<path d="M0 0 C0.33 0 0.66 0 1 0 C1.02689216 1.47906892 1.04634621 2.95827483 1.0625 4.4375 C1.07410156 5.26121094 1.08570313 6.08492187 1.09765625 6.93359375 C1 9 1 9 0 10 C-0.72579268 17.56499297 0.15619508 24.92962264 3 32 C3.66 32.33 4.32 32.66 5 33 C5 35.31 5 37.62 5 40 C-2.39582759 31.1207686 -2.88358822 19.03223007 -2 8 C-1.52527282 5.19186805 -0.88580553 2.71277944 0 0 Z " fill="#D6332C" transform="translate(408,134)"/>
<path d="M0 0 C3.45925163 1.2491742 6.14693203 2.67527795 9 5 C7.02 5 5.04 5 3 5 C4.19899698 8.0831351 5.47700477 11.06279492 7 14 C3.89656201 12.79310745 0.98806107 11.49403054 -2 10 C-1.34 6.7 -0.68 3.4 0 0 Z " fill="#E92F29" transform="translate(14,187)"/>
<path d="M0 0 C0.33 0.99 0.66 1.98 1 3 C2.0828125 2.938125 2.0828125 2.938125 3.1875 2.875 C6.20729369 3.00921305 8.26935729 3.75170619 11 5 C9.35 6.32 7.7 7.64 6 9 C5.34 8.67 4.68 8.34 4 8 C4 7.34 4 6.68 4 6 C0.7 5.67 -2.6 5.34 -6 5 C-6 5.66 -6 6.32 -6 7 C-7.98 7.33 -9.96 7.66 -12 8 C-9.69716746 5.45868642 -7.32686207 3.92889705 -4.3125 2.3125 C-3.50425781 1.87550781 -2.69601563 1.43851563 -1.86328125 0.98828125 C-1.24839844 0.66214844 -0.63351563 0.33601562 0 0 Z " fill="#E53129" transform="translate(158,150)"/>
<path d="M0 0 C3.46941546 0.45822468 6.67395049 0.89131683 10 2 C6.54565686 4.00695291 3.0858937 6.00436779 -0.375 8 C-1.35984375 8.57234375 -2.3446875 9.1446875 -3.359375 9.734375 C-4.77089844 10.54648437 -4.77089844 10.54648437 -6.2109375 11.375 C-7.08024902 11.87773437 -7.94956055 12.38046875 -8.84521484 12.8984375 C-11 14 -11 14 -13 14 C-13 13.01 -13 12.02 -13 11 C-11.02 10.67 -9.04 10.34 -7 10 C-7 9.34 -7 8.68 -7 8 C-5.68 8 -4.36 8 -3 8 C-2.67 6.35 -2.34 4.7 -2 3 C-1.34 3 -0.68 3 0 3 C0 2.01 0 1.02 0 0 Z " fill="#EB2F29" transform="translate(41,15)"/>
<path d="M0 0 C0.99 0 1.98 0 3 0 C1.5371193 3.75472713 -0.30093225 5.1287214 -3.75 7.125 C-4.59046875 7.62257812 -5.4309375 8.12015625 -6.296875 8.6328125 C-12.48611403 11.76320796 -17.56793648 12.26613529 -24.375 12.125 C-25.20644531 12.11597656 -26.03789063 12.10695312 -26.89453125 12.09765625 C-28.92981337 12.0742622 -30.96494564 12.03839725 -33 12 C-33 11.67 -33 11.34 -33 11 C-27.39 11 -21.78 11 -16 11 C-16 10.34 -16 9.68 -16 9 C-15.38511719 8.81824219 -14.77023437 8.63648438 -14.13671875 8.44921875 C-12.92435547 8.07216797 -12.92435547 8.07216797 -11.6875 7.6875 C-10.88699219 7.44386719 -10.08648438 7.20023438 -9.26171875 6.94921875 C-6.94107096 6.15113008 -6.94107096 6.15113008 -5.45703125 4.39453125 C-4 3 -4 3 0 3 C0 2.01 0 1.02 0 0 Z " fill="#DD3C36" transform="translate(642,184)"/>
<path d="M0 0 C0.99 0 1.98 0 3 0 C3 0.66 3 1.32 3 2 C4.32 2.33 5.64 2.66 7 3 C6.34 3 5.68 3 5 3 C5.33 5.31 5.66 7.62 6 10 C5.01 10.33 4.02 10.66 3 11 C3 10.34 3 9.68 3 9 C1.68 9 0.36 9 -1 9 C-1.80967438 6.08517222 -2.21845993 4.53886783 -1.0625 1.6875 C-0.711875 1.130625 -0.36125 0.57375 0 0 Z " fill="#FC281E" transform="translate(53,5)"/>
<path d="M0 0 C0.33 0 0.66 0 1 0 C0.24524868 6.54117814 0.24524868 6.54117814 -1.01318359 8.89550781 C-2.2351019 11.5013801 -2.31835384 13.55061517 -2.4140625 16.421875 C-2.45273437 17.44667969 -2.49140625 18.47148437 -2.53125 19.52734375 C-2.5621875 20.59082031 -2.593125 21.65429688 -2.625 22.75 C-2.66367187 23.82894531 -2.70234375 24.90789062 -2.7421875 26.01953125 C-2.83634631 28.67951775 -2.92197387 31.3394994 -3 34 C-3.33 34 -3.66 34 -4 34 C-6.65394425 22.43484457 -5.31688873 10.63377746 0 0 Z " fill="#D3322B" transform="translate(774,127)"/>
<path d="M0 0 C3.17059189 1.41842269 5.07412779 3.49867097 7.375 6.0625 C1.435 9.5275 1.435 9.5275 -4.625 13.0625 C-4.955 12.4025 -5.285 11.7425 -5.625 11.0625 C-3.315 9.7425 -1.005 8.4225 1.375 7.0625 C1.375 6.0725 1.375 5.0825 1.375 4.0625 C-1.73040926 2.85168149 -1.73040926 2.85168149 -5.625 3.0625 C-5.625 3.7225 -5.625 4.3825 -5.625 5.0625 C-6.945 4.7325 -8.265 4.4025 -9.625 4.0625 C-3.4744382 0.08272472 -3.4744382 0.08272472 0 0 Z " fill="#E1342C" transform="translate(91.625,137.9375)"/>
<path d="M0 0 C2.97 0.33 5.94 0.66 9 1 C8.67 2.98 8.34 4.96 8 7 C4.25 8.125 4.25 8.125 2 7 C2 6.34 2 5.68 2 5 C1.01 5 0.02 5 -1 5 C-0.67 3.35 -0.34 1.7 0 0 Z " fill="#FB2A20" transform="translate(164,122)"/>
<path d="M0 0 C2.64 0 5.28 0 8 0 C7 2 7 2 6 3 C9.465 2.505 9.465 2.505 13 2 C12.67 3.65 12.34 5.3 12 7 C13.65 7 15.3 7 17 7 C17.66 8.32 18.32 9.64 19 11 C14.25652774 9.62309544 10.27474838 7.56160559 6.125 4.9375 C5.53203125 4.57333984 4.9390625 4.20917969 4.328125 3.83398438 C2.86464287 2.9218371 1.4292745 1.96486632 0 1 C0 0.67 0 0.34 0 0 Z " fill="#E8322A" transform="translate(75,180)"/>
<path d="M0 0 C0.33 0.66 0.66 1.32 1 2 C0.36328125 3.875 0.36328125 3.875 -0.6875 6 C-1.02136719 6.70125 -1.35523438 7.4025 -1.69921875 8.125 C-3.24786426 10.35728182 -4.47489398 11.05612607 -7 12 C-9.75 12.125 -9.75 12.125 -12 12 C-11.67 11.01 -11.34 10.02 -11 9 C-10.360625 8.690625 -9.72125 8.38125 -9.0625 8.0625 C-6.849519 7.18379086 -6.849519 7.18379086 -6.0625 5.0625 C-4.6293766 2.28055457 -2.71816847 1.43061498 0 0 Z " fill="#FC2A20" transform="translate(182,35)"/>
<path d="M0 0 C0 0.66 0 1.32 0 2 C1.32 1.67 2.64 1.34 4 1 C4.33 2.32 4.66 3.64 5 5 C2.476506 6.19164995 0.62762177 7.0358641 -2.1875 6.875 C-4.57729507 5.72130583 -5.06163214 4.42411698 -6 2 C-3 0 -3 0 0 0 Z " fill="#FA281E" transform="translate(130,169)"/>
<path d="M0 0 C2.25195063 1.26747489 4.50155747 2.53882868 6.75 3.8125 C7.38421875 4.16892578 8.0184375 4.52535156 8.671875 4.89257812 C11.94804537 6.75248735 15.04985101 8.63839084 18 11 C16.35 11.33 14.7 11.66 13 12 C12.67 11.01 12.34 10.02 12 9 C9.36 9.33 6.72 9.66 4 10 C4 7 4 7 5 4 C3.02 4 1.04 4 -1 4 C-0.67 2.68 -0.34 1.36 0 0 Z " fill="#ED312A" transform="translate(71,219)"/>
<path d="M0 0 C0.66 0.99 1.32 1.98 2 3 C4.05003955 4.19232613 4.05003955 4.19232613 6 5 C-2.261959 10.55580866 -2.261959 10.55580866 -7 11 C-6.67 10.34 -6.34 9.68 -6 9 C-5.01 9 -4.02 9 -3 9 C-2.67 7.35 -2.34 5.7 -2 4 C-2.66 4 -3.32 4 -4 4 C-4 3.01 -4 2.02 -4 1 C-2.68 0.67 -1.36 0.34 0 0 Z " fill="#ED332A" transform="translate(468,184)"/>
<path d="M0 0 C0.74056641 0.00451172 1.48113281 0.00902344 2.24414062 0.01367188 C4.05862899 0.02537825 5.87307534 0.04331102 7.6875 0.0625 C6.08191516 1.98786938 5.20980522 2.97324167 2.69458008 3.40307617 C1.95618896 3.38736572 1.21779785 3.37165527 0.45703125 3.35546875 C-0.34541016 3.34580078 -1.14785156 3.33613281 -1.97460938 3.32617188 C-2.80798828 3.30103516 -3.64136719 3.27589844 -4.5 3.25 C-5.34498047 3.23646484 -6.18996094 3.22292969 -7.06054688 3.20898438 C-9.14480384 3.17365799 -11.22873277 3.11985139 -13.3125 3.0625 C-13.3125 2.4025 -13.3125 1.7425 -13.3125 1.0625 C-8.8746439 -0.04915232 -4.54293614 -0.05277763 0 0 Z " fill="#FB1A11" transform="translate(830.3125,139.9375)"/>
<path d="M0 0 C0.33 0.66 0.66 1.32 1 2 C-4.67966449 7.9952014 -9.92483316 10.61696854 -18.3125 11.25 C-21 11 -21 11 -23 9 C-22.23816406 8.91363281 -21.47632813 8.82726562 -20.69140625 8.73828125 C-12.73329772 7.65534264 -5.81429612 5.81429612 0 0 Z " fill="#D62F28" transform="translate(640,168)"/>
<path d="M0 0 C0.33 0.66 0.66 1.32 1 2 C0.01 2.495 0.01 2.495 -1 3 C-1.72693904 4.97888961 -2.39816251 6.97954558 -3 9 C-3.99 9 -4.98 9 -6 9 C-6 8.34 -6 7.68 -6 7 C-8.91517292 8.07401108 -10.77810176 8.77810176 -13 11 C-14.32 10.67 -15.64 10.34 -17 10 C-8.585 5.05 -8.585 5.05 0 0 Z " fill="#E2342A" transform="translate(225,60)"/>
<path d="M0 0 C0 3 0 3 -1.25 4.75 C-3 6 -3 6 -4.875 5.875 C-7.42566574 4.82472587 -9.67809909 3.48343669 -12 2 C-7.26221957 -0.36889021 -5.36029082 -1.04875255 0 0 Z " fill="#FB2A1F" transform="translate(38,201)"/>
<path d="M0 0 C0.87454834 0.00523682 1.74909668 0.01047363 2.65014648 0.01586914 C3.59438477 0.0190918 4.53862305 0.02231445 5.51147461 0.02563477 C6.50469727 0.03401367 7.49791992 0.04239258 8.52124023 0.05102539 C9.51833008 0.05553711 10.51541992 0.06004883 11.54272461 0.06469727 C14.01478872 0.07652532 16.48673541 0.0930069 18.95874023 0.11352539 C18.95874023 0.44352539 18.95874023 0.77352539 18.95874023 1.11352539 C13.01874023 1.44352539 7.07874023 1.77352539 0.95874023 2.11352539 C0.62874023 3.76352539 0.29874023 5.41352539 -0.04125977 7.11352539 C0.61874023 7.11352539 1.27874023 7.11352539 1.95874023 7.11352539 C1.95874023 9.09352539 1.95874023 11.07352539 1.95874023 13.11352539 C-0.39040469 10.76438047 -0.77266333 9.15673093 -1.66625977 5.98852539 C-1.92665039 5.07844727 -2.18704102 4.16836914 -2.45532227 3.23071289 C-2.64868164 2.53204102 -2.84204102 1.83336914 -3.04125977 1.11352539 C-2.04125977 0.11352539 -2.04125977 0.11352539 0 0 Z " fill="#D23432" transform="translate(679.041259765625,103.886474609375)"/>
<path d="M0 0 C2.97 0.495 2.97 0.495 6 1 C6.66 3.31 7.32 5.62 8 8 C6.02 8.99 6.02 8.99 4 10 C4 9.34 4 8.68 4 8 C3.34 8 2.68 8 2 8 C2 6.68 2 5.36 2 4 C1.34 3.67 0.68 3.34 0 3 C0 2.01 0 1.02 0 0 Z " fill="#FC2920" transform="translate(206,41)"/>
<path d="M0 0 C0.66 0.99 1.32 1.98 2 3 C1.01 3.33 0.02 3.66 -1 4 C-0.67 4.99 -0.34 5.98 0 7 C-0.99 7.33 -1.98 7.66 -3 8 C-3.10957031 8.75925781 -3.21914063 9.51851562 -3.33203125 10.30078125 C-3.49058594 11.29464844 -3.64914062 12.28851563 -3.8125 13.3125 C-3.96332031 14.29863281 -4.11414063 15.28476563 -4.26953125 16.30078125 C-5.03436705 19.12699269 -5.75258762 20.1959128 -8 22 C-7.83432041 13.71602066 -3.83270427 7.12502726 0 0 Z " fill="#DD342B" transform="translate(582,120)"/>
<path d="M0 0 C0.66 0.33 1.32 0.66 2 1 C-1.44615385 6.78461538 -1.44615385 6.78461538 -4.25 7.875 C-4.8275 7.91625 -5.405 7.9575 -6 8 C-6.33 9.65 -6.66 11.3 -7 13 C-7.99 13.33 -8.98 13.66 -10 14 C-10 14.99 -10 15.98 -10 17 C-10.66 17 -11.32 17 -12 17 C-9.91435882 10.32594822 -5.07434458 4.68401038 0 0 Z " fill="#DA312D" transform="translate(423,111)"/>
<path d="M0 0 C0.66 0.33 1.32 0.66 2 1 C2 1.66 2 2.32 2 3 C3.97290587 5.34869747 5.00306862 6.00102287 8 7 C8 7.66 8 8.32 8 9 C5.19044011 7.92575651 2.62845118 6.79100379 0 5.3125 C-3.36741431 3.83925624 -4.56320501 3.97825014 -8 5 C-8.99 5 -9.98 5 -11 5 C-9.9375 3 -9.9375 3 -8 1 C-4.375 0.8125 -4.375 0.8125 -1 1 C-0.67 0.67 -0.34 0.34 0 0 Z " fill="#DE352A" transform="translate(149,115)"/>
<path d="M0 0 C1.90318884 2.85478326 2.4619099 4.41941308 3.125 7.6875 C3.29257812 8.49574219 3.46015625 9.30398437 3.6328125 10.13671875 C3.75398437 10.75160156 3.87515625 11.36648437 4 12 C4.66 12 5.32 12 6 12 C8.09230769 16.43076923 8.09230769 16.43076923 7.625 19.3125 C7.315625 20.1478125 7.315625 20.1478125 7 21 C4.17380137 18.17380137 3.18636653 14.73799704 1.8125 11.0625 C1.52697266 10.33353516 1.24144531 9.60457031 0.94726562 8.85351562 C-1.12105341 3.36316023 -1.12105341 3.36316023 0 0 Z " fill="#DE342C" transform="translate(687,130)"/>
<path d="M0 0 C1.90389849 2.85584773 2.69462177 4.9311762 3.625 8.1875 C3.88539063 9.08855469 4.14578125 9.98960938 4.4140625 10.91796875 C4.60742188 11.60503906 4.80078125 12.29210937 5 13 C2.69 12.01 0.38 11.02 -2 10 C-1.125 2.25 -1.125 2.25 0 0 Z " fill="#E9312D" transform="translate(699,106)"/>
<path d="M0 0 C1.65 0 3.3 0 5 0 C2.20957375 3.28834617 -1.47328176 5.12735689 -5.1875 7.1875 C-5.84169922 7.55552734 -6.49589844 7.92355469 -7.16992188 8.30273438 C-8.77746961 9.2062466 -10.38840651 10.1037241 -12 11 C-12.33 10.01 -12.66 9.02 -13 8 C-10 6 -10 6 -7 6 C-7 5.34 -7 4.68 -7 4 C-5.5459375 3.566875 -5.5459375 3.566875 -4.0625 3.125 C-0.89335797 2.35785318 -0.89335797 2.35785318 0 0 Z " fill="#DD332A" transform="translate(135,223)"/>
<path d="M0 0 C0.2475 0.70125 0.495 1.4025 0.75 2.125 C1.95386081 5.15498822 1.95386081 5.15498822 4.1875 8.125 C5.0846875 9.548125 5.0846875 9.548125 6 11 C5.67 11.99 5.34 12.98 5 14 C1 9.25 1 9.25 1 7 C0.401875 6.731875 -0.19625 6.46375 -0.8125 6.1875 C-2.97224808 5.01506533 -4.35790256 3.80630718 -6 2 C-3 0 -3 0 0 0 Z " fill="#E4332E" transform="translate(638,121)"/>
<path d="M0 0 C2.97 1.98 2.97 1.98 6 4 C4.63016497 7.16115776 4.0109362 7.9927092 1 10 C-2 6.25 -2 6.25 -2 4 C-1.34 3.34 -0.68 2.68 0 2 C0 1.34 0 0.68 0 0 Z " fill="#F32F25" transform="translate(852,171)"/>
<path d="M0 0 C-0.66 1.32 -1.32 2.64 -2 4 C-3.32 4 -4.64 4 -6 4 C-6 4.66 -6 5.32 -6 6 C-5.34 6.33 -4.68 6.66 -4 7 C-5.4562672 7.36256858 -6.91511185 7.71479793 -8.375 8.0625 C-9.18710937 8.25972656 -9.99921875 8.45695312 -10.8359375 8.66015625 C-13 9 -13 9 -15 8 C-12.8782637 6.66121428 -10.75294812 5.32884524 -8.625 4 C-8.02171875 3.6184375 -7.4184375 3.236875 -6.796875 2.84375 C-2.2265625 0 -2.2265625 0 0 0 Z " fill="#DF322F" transform="translate(42,11)"/>
<path d="M0 0 C0.66 0.33 1.32 0.66 2 1 C-0.0063228 4.0094842 -1.55455695 5.78396128 -5 7 C-7.75 7.125 -7.75 7.125 -10 7 C-10 7.66 -10 8.32 -10 9 C-11.32 8.67 -12.64 8.34 -14 8 C-11.7136988 6.63597957 -9.42178251 5.28365726 -7.125 3.9375 C-6.47402344 3.54755859 -5.82304687 3.15761719 -5.15234375 2.75585938 C-3.46934275 1.77555467 -1.73703801 0.88101568 0 0 Z " fill="#DF3329" transform="translate(175,192)"/>
<path d="M0 0 C0.33 0 0.66 0 1 0 C1.10957031 1.01320312 1.21914063 2.02640625 1.33203125 3.0703125 C1.49159893 4.42194461 1.65178833 5.77350343 1.8125 7.125 C1.88275391 7.79015625 1.95300781 8.4553125 2.02539062 9.140625 C2.58045143 13.66992115 3.91873384 16.980592 6 21 C5.67 21.66 5.34 22.32 5 23 C3.68 22.67 2.36 22.34 1 22 C0.08839714 14.64206267 -0.11459026 7.41017023 0 0 Z " fill="#CA342A" transform="translate(426,144)"/>
<path d="M0 0 C-0.47050781 0.36351563 -0.94101562 0.72703125 -1.42578125 1.1015625 C-5.47192944 4.36863868 -8.00283426 7.06582581 -10 12 C-11.27099045 8.18702864 -10.45398157 6.6732166 -9 3 C-7 0 -7 0 -5.0625 -0.75 C-3 -1 -3 -1 0 0 Z " fill="#E53434" transform="translate(440,126)"/>
<path d="M0 0 C1.25103516 0.433125 1.25103516 0.433125 2.52734375 0.875 C9.29882594 3.10889103 14.87312105 4.48317823 22 4 C18.75900504 6.16066331 17.23720241 6.37886905 13.4375 6.6875 C11.98150391 6.81705078 11.98150391 6.81705078 10.49609375 6.94921875 C8 7 8 7 6 6 C6 5.34 6 4.68 6 4 C4.02 3.34 2.04 2.68 0 2 C0 1.34 0 0.68 0 0 Z " fill="#D2322C" transform="translate(438,173)"/>
<path d="M0 0 C1 3 1 3 0.375 5.0625 C-1.47564551 7.67022777 -2.93197478 8.16326585 -6 9 C-9.3125 9.125 -9.3125 9.125 -12 9 C-10.00956313 7.67304209 -8.00954842 6.36033335 -6 5.0625 C-3.69114831 3.47516446 -1.85637194 2.06263549 0 0 Z " fill="#DD382E" transform="translate(472,168)"/>
<path d="M0 0 C2.5 1.375 2.5 1.375 5 3 C5 3.66 5 4.32 5 5 C4.01 5 3.02 5 2 5 C2 5.66 2 6.32 2 7 C-0.475 6.01 -0.475 6.01 -3 5 C-3 4.01 -3 3.02 -3 2 C-2.01 1.34 -1.02 0.68 0 0 Z " fill="#FC2921" transform="translate(151,208)"/>
<path d="M0 0 C1.65 0 3.3 0 5 0 C1.53252172 2.77398263 -2.06402511 4.95912413 -6 7 C-6.66 6.67 -7.32 6.34 -8 6 C-8 5.34 -8 4.68 -8 4 C-7.34 4 -6.68 4 -6 4 C-6 3.34 -6 2.68 -6 2 C-2.25 0.875 -2.25 0.875 0 2 C0 1.34 0 0.68 0 0 Z " fill="#E1312D" transform="translate(220,123)"/>
<path d="M0 0 C0.33 0.66 0.66 1.32 1 2 C-2.32307692 7.78461538 -2.32307692 7.78461538 -5.75 8.875 C-6.4925 8.91625 -7.235 8.9575 -8 9 C-8 9.66 -8 10.32 -8 11 C-8.66 10.67 -9.32 10.34 -10 10 C-8.90033225 8.70450101 -7.79508199 7.41373929 -6.6875 6.125 C-6.07261719 5.40570313 -5.45773437 4.68640625 -4.82421875 3.9453125 C-3 2 -3 2 0 0 Z " fill="#DD312A" transform="translate(593,109)"/>
<path d="M0 0 C0.33 1.32 0.66 2.64 1 4 C0.01 4 -0.98 4 -2 4 C-2 4.66 -2 5.32 -2 6 C-4.3125 7.125 -4.3125 7.125 -7 8 C-7.99 7.34 -8.98 6.68 -10 6 C-6.7 4.02 -3.4 2.04 0 0 Z " fill="#E3312B" transform="translate(68,47)"/>
<path d="M0 0 C1.65 0 3.3 0 5 0 C5 0.33 5 0.66 5 1 C10.61 1.33 16.22 1.66 22 2 C22 2.33 22 2.66 22 3 C14.41 3 6.82 3 -1 3 C-0.67 2.01 -0.34 1.02 0 0 Z " fill="#ED2A17" transform="translate(795,140)"/>
<path d="M0 0 C-2.64 1.65 -5.28 3.3 -8 5 C-6.68 5.99 -5.36 6.98 -4 8 C-6.31 7.67 -8.62 7.34 -11 7 C-11 5.68 -11 4.36 -11 3 C-9.73581754 2.30034557 -8.46334598 1.61565237 -7.1875 0.9375 C-6.47980469 0.55464844 -5.77210937 0.17179687 -5.04296875 -0.22265625 C-3 -1 -3 -1 0 0 Z " fill="#E13734" transform="translate(28,30)"/>
<path d="M0 0 C0 0.99 0 1.98 0 3 C-2.125 4.5 -2.125 4.5 -5 6 C-6.546875 6.86625 -6.546875 6.86625 -8.125 7.75 C-11 9 -11 9 -14 8 C-9.38 5.36 -4.76 2.72 0 0 Z " fill="#D62F2B" transform="translate(182,33)"/>
<path d="M0 0 C1.2684375 0.12375 1.2684375 0.12375 2.5625 0.25 C3.2225 1.24 3.8825 2.23 4.5625 3.25 C-0.1875 6.25 -0.1875 6.25 -2.4375 6.25 C-2.81968767 4.59385343 -3.15145102 2.92542976 -3.4375 1.25 C-2.4375 0.25 -2.4375 0.25 0 0 Z " fill="#EB2F29" transform="translate(157.4375,156.75)"/>
<path d="M0 0 C0 0.33 0 0.66 0 1 C-0.64066406 1.17015625 -1.28132812 1.3403125 -1.94140625 1.515625 C-7.50365317 3.07404888 -12.11323714 4.91921472 -17 8 C-15.25513149 3.78397254 -13.18955429 2.62847514 -9.17578125 0.75 C-5.95755501 -0.35933472 -3.37543801 -0.2812865 0 0 Z " fill="#D93937" transform="translate(813,119)"/>
<path d="M0 0 C0.66 0.99 1.32 1.98 2 3 C1.01 4.485 1.01 4.485 0 6 C-2.31 5.67 -4.62 5.34 -7 5 C-2.25 1.125 -2.25 1.125 0 0 Z " fill="#E52F2A" transform="translate(214,118)"/>
<path d="M0 0 C0 0.66 0 1.32 0 2 C-0.66 2 -1.32 2 -2 2 C-2.33 2.99 -2.66 3.98 -3 5 C-5.06640625 5.73046875 -5.06640625 5.73046875 -7.5625 6.1875 C-8.38878906 6.34605469 -9.21507813 6.50460938 -10.06640625 6.66796875 C-11.02353516 6.83232422 -11.02353516 6.83232422 -12 7 C-8.96533294 3.76116573 -4.61110165 0 0 0 Z " fill="#DE3331" transform="translate(132,218)"/>
<path d="M0 0 C4.50802601 1.25805377 7.4912812 2.90407165 11 6 C8.36 6 5.72 6 3 6 C2.67 5.01 2.34 4.02 2 3 C1.34 2.67 0.68 2.34 0 2 C0 1.34 0 0.68 0 0 Z " fill="#E0342B" transform="translate(59,213)"/>
<path d="M0 0 C0.88751953 0.30744141 0.88751953 0.30744141 1.79296875 0.62109375 C5.83660816 1.9997571 9.76855249 3.31750847 14 4 C14 4.33 14 4.66 14 5 C9.545 5.495 9.545 5.495 5 6 C4.67 5.01 4.34 4.02 4 3 C3.01 3 2.02 3 1 3 C0.67 2.01 0.34 1.02 0 0 Z " fill="#DE312C" transform="translate(800,174)"/>
<path d="M0 0 C1.32 0.33 2.64 0.66 4 1 C3.67 2.65 3.34 4.3 3 6 C3.66 6.33 4.32 6.66 5 7 C5 8.98 5 10.96 5 13 C2.94876752 10.94876752 2.35852882 9.72994937 1.375 7.0625 C0.98441406 6.02802734 0.98441406 6.02802734 0.5859375 4.97265625 C0 3 0 3 0 0 Z " fill="#E2312A" transform="translate(694,151)"/>
<path d="M0 0 C0.33 1.65 0.66 3.3 1 5 C-2.69541586 5.95024979 -5.30458414 5.95024979 -9 5 C-2.87096774 0 -2.87096774 0 0 0 Z " fill="#E1332A" transform="translate(82,143)"/>
<path d="M0 0 C1.125 1.75 1.125 1.75 2 4 C1.1875 6 1.1875 6 0 8 C-0.144375 8.721875 -0.28875 9.44375 -0.4375 10.1875 C-0.623125 10.785625 -0.80875 11.38375 -1 12 C-1.99 12.33 -2.98 12.66 -4 13 C-3.52140759 11.39566191 -3.04210442 9.79153584 -2.5625 8.1875 C-2.29566406 7.29417969 -2.02882813 6.40085938 -1.75390625 5.48046875 C-1.19612127 3.64526945 -0.60655425 1.81966274 0 0 Z " fill="#DE302E" transform="translate(738,131)"/>
<path d="M0 0 C0 2.70254461 -0.03430669 4.50529228 -1 7 C-3.5164751 8.64872507 -6.07459296 9.37312706 -9 10 C-6.43571997 5.82117329 -3.98069267 2.87494471 0 0 Z " fill="#E1312C" transform="translate(788,110)"/>
<path d="M0 0 C1.32 0.33 2.64 0.66 4 1 C2.04480616 2.17192047 0.0857461 3.3373929 -1.875 4.5 C-2.96554688 5.1496875 -4.05609375 5.799375 -5.1796875 6.46875 C-8 8 -8 8 -10 8 C-10 7.01 -10 6.02 -10 5 C-8.02 4.67 -6.04 4.34 -4 4 C-4 3.34 -4 2.68 -4 2 C-2.68 2 -1.36 2 0 2 C0 1.34 0 0.68 0 0 Z " fill="#D73631" transform="translate(38,21)"/>
<path d="M0 0 C0.99 0.33 1.98 0.66 3 1 C5.14255793 0.61067144 5.14255793 0.61067144 7 0 C3.7129243 3.81300782 0.60272162 5.22972246 -4 7 C-3.67 5.35 -3.34 3.7 -3 2 C-2.01 2 -1.02 2 0 2 C0 1.34 0 0.68 0 0 Z " fill="#E32D29" transform="translate(107,238)"/>
<path d="M0 0 C1.98 0 3.96 0 6 0 C6.33 0.99 6.66 1.98 7 3 C6.34 3.66 5.68 4.32 5 5 C2.375 4.625 2.375 4.625 0 4 C0 2.68 0 1.36 0 0 Z " fill="#FB271F" transform="translate(159,149)"/>
<path d="M0 0 C0.99 0.33 1.98 0.66 3 1 C3.66 0.67 4.32 0.34 5 0 C4.01 3.3 3.02 6.6 2 10 C0.0044484 6.00889681 -0.19546065 4.30013434 0 0 Z " fill="#E92F29" transform="translate(764,112)"/>
<path d="M0 0 C1.65 0.33 3.3 0.66 5 1 C4.67 1.66 4.34 2.32 4 3 C3.34 3 2.68 3 2 3 C2 3.99 2 4.98 2 6 C2.99 6 3.98 6 5 6 C5 6.66 5 7.32 5 8 C3.68 8 2.36 8 1 8 C1 7.34 1 6.68 1 6 C0.34 5.67 -0.32 5.34 -1 5 C-0.67 3.35 -0.34 1.7 0 0 Z " fill="#FB291D" transform="translate(181,79)"/>
<path d="M0 0 C0.66 1.32 1.32 2.64 2 4 C-4.75 8 -4.75 8 -7 8 C-7 7.34 -7 6.68 -7 6 C-6.01 6 -5.02 6 -4 6 C-3.71125 5.38125 -3.4225 4.7625 -3.125 4.125 C-2 2 -2 2 0 0 Z " fill="#E1352B" transform="translate(192,189)"/>
<path d="M0 0 C0 0.66 0 1.32 0 2 C-0.99 2 -1.98 2 -3 2 C-3.66 3.65 -4.32 5.3 -5 7 C-6.65 6.67 -8.3 6.34 -10 6 C-7.35570758 3.077361 -4.105808 0 0 0 Z " fill="#DB2E2A" transform="translate(207,123)"/>
<path d="M0 0 C1.98 0 3.96 0 6 0 C5.67 1.65 5.34 3.3 5 5 C3.35 4.67 1.7 4.34 0 4 C0 2.68 0 1.36 0 0 Z " fill="#F62719" transform="translate(132,113)"/>
<path d="M0 0 C0 0.66 0 1.32 0 2 C-1.423125 2.6496875 -1.423125 2.6496875 -2.875 3.3125 C-6.20041937 4.79302201 -6.20041937 4.79302201 -8 8 C-8.99 7.01 -9.98 6.02 -11 5 C-9.54462432 4.16151196 -8.08559627 3.32936066 -6.625 2.5 C-5.81289062 2.0359375 -5.00078125 1.571875 -4.1640625 1.09375 C-2 0 -2 0 0 0 Z " fill="#DA2E2A" transform="translate(208,71)"/>
<path d="M0 0 C1.093125 0.226875 2.18625 0.45375 3.3125 0.6875 C0.75258376 2.69886276 -1.73340299 4.31595496 -4.6875 5.6875 C-5.3475 4.6975 -6.0075 3.7075 -6.6875 2.6875 C-4.58035839 -0.41123767 -3.86755884 -0.32775922 0 0 Z " fill="#E9332F" transform="translate(63.6875,58.3125)"/>
<path d="M0 0 C1.8125 1.5625 1.8125 1.5625 3 3 C1.865625 2.814375 0.73125 2.62875 -0.4375 2.4375 C-1.613125 2.293125 -2.78875 2.14875 -4 2 C-4.33 2.33 -4.66 2.66 -5 3 C-6.66617115 3.04063832 -8.33388095 3.042721 -10 3 C-6.54834745 -0.60854585 -4.93878324 -1.44549753 0 0 Z " fill="#D93A31" transform="translate(194,30)"/>
<path d="M0 0 C0.598125 0.350625 1.19625 0.70125 1.8125 1.0625 C0.4925 2.7125 -0.8275 4.3625 -2.1875 6.0625 C-2.8475 5.7325 -3.5075 5.4025 -4.1875 5.0625 C-4.8125 2.5 -4.8125 2.5 -5.1875 0.0625 C-2.1875 -0.9375 -2.1875 -0.9375 0 0 Z " fill="#FC2A1C" transform="translate(67.1875,218.9375)"/>
<path d="M0 0 C0.66 0 1.32 0 2 0 C1.67 1.98 1.34 3.96 1 6 C0.34 6 -0.32 6 -1 6 C-1 8.97 -1 11.94 -1 15 C-1.33 15 -1.66 15 -2 15 C-2.33 11.04 -2.66 7.08 -3 3 C-2.34 3 -1.68 3 -1 3 C-0.67 2.01 -0.34 1.02 0 0 Z " fill="#E32A1F" transform="translate(427,138)"/>
<path d="M0 0 C2.97 0.495 2.97 0.495 6 1 C6.66 3.31 7.32 5.62 8 8 C7.01 8.495 7.01 8.495 6 9 C4 6 2 3 0 0 Z " fill="#DE332F" transform="translate(831,124)"/>
<path d="M0 0 C3.96 1.98 3.96 1.98 8 4 C3.82091936 6.08954032 3.19589427 6.16552619 -1 5 C-0.67 3.35 -0.34 1.7 0 0 Z " fill="#E6342D" transform="translate(153,111)"/>
<path d="M0 0 C2.475 0.99 2.475 0.99 5 2 C5 4.97 5 7.94 5 11 C4.01 10.67 3.02 10.34 2 10 C1.855625 8.906875 1.71125 7.81375 1.5625 6.6875 C1.11711896 3.06877013 1.11711896 3.06877013 0 0 Z " fill="#F42B2B" transform="translate(89,230)"/>
<path d="M0 0 C1.32 0.66 2.64 1.32 4 2 C2.71186658 2.83878455 1.41936744 3.67086783 0.125 4.5 C-0.59429687 4.9640625 -1.31359375 5.428125 -2.0546875 5.90625 C-4 7 -4 7 -6 7 C-6 6.34 -6 5.68 -6 5 C-5.34 5 -4.68 5 -4 5 C-4 4.34 -4 3.68 -4 3 C-3.01 2.34 -2.02 1.68 -1 1 C-0.67 0.67 -0.34 0.34 0 0 Z " fill="#DB3934" transform="translate(76,50)"/>
<path d="M0 0 C0.66 0.33 1.32 0.66 2 1 C-1.96 4.465 -1.96 4.465 -6 8 C-6.66 7.01 -7.32 6.02 -8 5 C-6.71475739 4.13619741 -5.42157581 3.28419631 -4.125 2.4375 C-3.04605469 1.72400391 -3.04605469 1.72400391 -1.9453125 0.99609375 C-1.30335937 0.66738281 -0.66140625 0.33867187 0 0 Z " fill="#DB3B31" transform="translate(14,26)"/>
<path d="M0 0 C3.63 1.98 7.26 3.96 11 6 C10.01 6.33 9.02 6.66 8 7 C7.01 6.34 6.02 5.68 5 5 C3.0103005 4.60986284 1.00980131 4.26797351 -1 4 C-0.67 2.68 -0.34 1.36 0 0 Z " fill="#D63835" transform="translate(71,219)"/>
<path d="M0 0 C2.97 0.33 5.94 0.66 9 1 C9 4 9 4 8 6 C6.66402348 5.19185349 5.331275 4.37836819 4 3.5625 C3.2575 3.11003906 2.515 2.65757813 1.75 2.19140625 C1.1725 1.79824219 0.595 1.40507813 0 1 C0 0.67 0 0.34 0 0 Z " fill="#E43125" transform="translate(41,58)"/>
<path d="M0 0 C0.556875 0.474375 1.11375 0.94875 1.6875 1.4375 C4.18346074 3.12395996 6.0446237 3.58953107 9 4 C9 4.99 9 5.98 9 7 C4.49197399 5.74194623 1.5087188 4.09592835 -2 1 C-1.34 0.67 -0.68 0.34 0 0 Z " fill="#DF372F" transform="translate(32,51)"/>
<path d="M0 0 C0.66 0.33 1.32 0.66 2 1 C-0.51830747 4.12270126 -1.7261549 4.94523098 -5.75 5.75 C-7.35875 5.87375 -7.35875 5.87375 -9 6 C-3.30379747 1.25316456 -3.30379747 1.25316456 0 0 Z " fill="#DD3530" transform="translate(25,20)"/>
<path d="M0 0 C2.97 0 5.94 0 9 0 C9 1.32 9 2.64 9 4 C4.53159589 3.50351065 3.31012244 3.31012244 0 0 Z " fill="#FB251C" transform="translate(153,155)"/>
<path d="M0 0 C1.32 0.66 2.64 1.32 4 2 C-0.95 4.475 -0.95 4.475 -6 7 C-6 6.34 -6 5.68 -6 5 C-5.34 5 -4.68 5 -4 5 C-4 4.34 -4 3.68 -4 3 C-2 1.375 -2 1.375 0 0 Z " fill="#DC322D" transform="translate(106,136)"/>
<path d="M0 0 C1.65 0.33 3.3 0.66 5 1 C-0.14285714 5.42857143 -0.14285714 5.42857143 -4 6 C-3.67 4.68 -3.34 3.36 -3 2 C-2.01 2 -1.02 2 0 2 C0 1.34 0 0.68 0 0 Z " fill="#E0332B" transform="translate(133,120)"/>
<path d="M0 0 C3.26460973 1.80412643 4.88929795 2.83394693 7 6 C5.02 6.33 3.04 6.66 1 7 C1.33 5.35 1.66 3.7 2 2 C1.34 2 0.68 2 0 2 C0 1.34 0 0.68 0 0 Z " fill="#E4332C" transform="translate(637,107)"/>
<path d="M0 0 C0.66 0 1.32 0 2 0 C2 0.66 2 1.32 2 2 C1.34 2 0.68 2 0 2 C0.66 3.65 1.32 5.3 2 7 C-1.37503669 5.8141763 -3.64722731 4.72426311 -6 2 C-3.525 2.495 -3.525 2.495 -1 3 C-0.67 2.01 -0.34 1.02 0 0 Z " fill="#E53030" transform="translate(156,66)"/>
<path d="M0 0 C0.66 0.33 1.32 0.66 2 1 C1.01 2.485 1.01 2.485 0 4 C-0.66 4 -1.32 4 -2 4 C-2.33 4.66 -2.66 5.32 -3 6 C-4.65 6 -6.3 6 -8 6 C-5.63404067 3.38499232 -3.13950774 1.61000397 0 0 Z " fill="#DD322D" transform="translate(78,41)"/>
<path d="M0 0 C3.3 1.65 6.6 3.3 10 5 C8.68 5.33 7.36 5.66 6 6 C6 5.34 6 4.68 6 4 C4.68 4.33 3.36 4.66 2 5 C1.34 3.35 0.68 1.7 0 0 Z " fill="#DA3932" transform="translate(26,39)"/>
<path d="M0 0 C0.66 0 1.32 0 2 0 C2 0.99 2 1.98 2 3 C2.99 3 3.98 3 5 3 C5.33 4.65 5.66 6.3 6 8 C5.01 7.67 4.02 7.34 3 7 C3 6.34 3 5.68 3 5 C2.34 5 1.68 5 1 5 C0.67 3.35 0.34 1.7 0 0 Z " fill="#EA2E25" transform="translate(703,175)"/>
<path d="M0 0 C3.36591866 1.44253657 5.51047079 3.33264727 8 6 C1.25 4.375 1.25 4.375 -1 1 C-0.67 0.67 -0.34 0.34 0 0 Z " fill="#D73930" transform="translate(842,164)"/>
<path d="M0 0 C1.9375 0.3125 1.9375 0.3125 4 1 C4.33 1.99 4.66 2.98 5 4 C3.02 4.99 3.02 4.99 1 6 C0.67 4.02 0.34 2.04 0 0 Z " fill="#EA302A" transform="translate(771,162)"/>
<path d="M0 0 C0.66 0.99 1.32 1.98 2 3 C1.01 4.98 0.02 6.96 -1 9 C-1.33 9 -1.66 9 -2 9 C-1.125 1.125 -1.125 1.125 0 0 Z " fill="#E22B26" transform="translate(576,133)"/>
<path d="M0 0 C0.66 0.33 1.32 0.66 2 1 C1.01 1.33 0.02 1.66 -1 2 C-1 2.66 -1 3.32 -1 4 C-4 6 -4 6 -6.1875 5.625 C-6.785625 5.41875 -7.38375 5.2125 -8 5 C-6.71475739 4.13619741 -5.42157581 3.28419631 -4.125 2.4375 C-3.04605469 1.72400391 -3.04605469 1.72400391 -1.9453125 0.99609375 C-1.30335938 0.66738281 -0.66140625 0.33867188 0 0 Z " fill="#DB3432" transform="translate(154,49)"/>
<path d="M0 0 C1.32 0.66 2.64 1.32 4 2 C2.63016497 5.16115776 2.0109362 5.9927092 -1 8 C-1 6.68 -1 5.36 -1 4 C-0.01 4 0.98 4 2 4 C2 3.34 2 2.68 2 2 C1.34 2 0.68 2 0 2 C0 1.34 0 0.68 0 0 Z " fill="#D63833" transform="translate(854,173)"/>
<path d="M0 0 C1.39195915 4.17587745 -0.17676781 6.13474776 -2 10 C-2.33 10 -2.66 10 -3 10 C-2.25 2.25 -2.25 2.25 0 0 Z " fill="#DD3735" transform="translate(756,143)"/>
<path d="M0 0 C2 3 2 3 2 5 C-0.02045442 4.39816251 -2.02111039 3.72693904 -4 3 C-4.33 2.34 -4.66 1.68 -5 1 C-3.35 0.67 -1.7 0.34 0 0 Z " fill="#E5322C" transform="translate(27,46)"/>
<path d="M0 0 C0.66 0 1.32 0 2 0 C2.66 1.98 3.32 3.96 4 6 C2.35 5.67 0.7 5.34 -1 5 C-0.67 3.35 -0.34 1.7 0 0 Z " fill="#EA332F" transform="translate(428,161)"/>
<path d="M0 0 C0.33 0.66 0.66 1.32 1 2 C0.01 3.485 0.01 3.485 -1 5 C-3.625 5.1875 -3.625 5.1875 -6 5 C-2.25 1.125 -2.25 1.125 0 0 Z " fill="#E32E20" transform="translate(110,126)"/>
<path d="M0 0 C1.39195915 4.17587745 -0.17676781 6.13474776 -2 10 C-3.16909807 6.49270578 -2.85056945 4.55692677 -2 1 C-1.34 0.67 -0.68 0.34 0 0 Z " fill="#D9342F" transform="translate(764,122)"/>
<path d="M0 0 C4.455 0.99 4.455 0.99 9 2 C9 2.66 9 3.32 9 4 C6.03 3.67 3.06 3.34 0 3 C0 2.01 0 1.02 0 0 Z " fill="#DF362E" transform="translate(48,52)"/>
<path d="M0 0 C1.65 0 3.3 0 5 0 C2.64722731 2.72426311 0.37503669 3.8141763 -3 5 C-3 4.34 -3 3.68 -3 3 C-2.34 3 -1.68 3 -1 3 C-0.67 2.01 -0.34 1.02 0 0 Z " fill="#DD332E" transform="translate(87,44)"/>
</svg>
