<?xml version="1.0" encoding="UTF-8"?>
<svg version="1.1" xmlns="http://www.w3.org/2000/svg" width="2000" height="2000">
<path d="M0 0 C11.58688402 -0.02312228 23.17376259 -0.0409145 34.76066494 -0.05181217 C40.14033762 -0.05704125 45.51999458 -0.06413935 50.8996582 -0.07543945 C56.08674843 -0.08626745 61.27382349 -0.09227665 66.46092415 -0.09487724 C68.4445628 -0.09673165 70.42820058 -0.10035256 72.41183281 -0.10573006 C75.18009136 -0.11293932 77.94828638 -0.11399099 80.71655273 -0.11352539 C81.54517319 -0.11712067 82.37379364 -0.12071594 83.2275238 -0.12442017 C88.88594784 -0.11405216 88.88594784 -0.11405216 90 1 C91.99616505 1.22881538 93.99954193 1.39531688 96.00390625 1.53515625 C97.82631836 1.66567383 97.82631836 1.66567383 99.68554688 1.79882812 C101.60463867 1.9293457 101.60463867 1.9293457 103.5625 2.0625 C104.84576172 2.15337891 106.12902344 2.24425781 107.45117188 2.33789062 C110.63385015 2.56268946 113.81676858 2.78319818 117 3 C117 3.66 117 4.32 117 5 C117.55872803 4.98332275 118.11745605 4.96664551 118.69311523 4.94946289 C126.22867773 4.82746937 133.58349464 5.57345586 141.0625 6.4375 C142.29677734 6.57220703 143.53105469 6.70691406 144.80273438 6.84570312 C153.86980784 7.86980784 153.86980784 7.86980784 155 9 C156.99340319 9.36969114 158.99726328 9.68332633 161.00390625 9.97265625 C162.82631836 10.23852539 162.82631836 10.23852539 164.68554688 10.50976562 C165.96494141 10.69216797 167.24433594 10.87457031 168.5625 11.0625 C169.84576172 11.24876953 171.12902344 11.43503906 172.45117188 11.62695312 C175.63359738 12.08834567 178.81653416 12.54585037 182 13 C182 13.66 182 14.32 182 15 C182.82242188 15.04898438 183.64484375 15.09796875 184.4921875 15.1484375 C193.74975554 15.76845938 202.21385816 17.01271178 211 20 C212.95590692 20.48897673 214.91456732 20.96699616 216.875 21.4375 C221.77239186 22.63760345 226.31694667 24.14292713 231 26 C232.99640639 26.67735217 234.99504414 27.34838935 237 28 C237 28.66 237 29.32 237 30 C237.87269531 30.11988281 238.74539063 30.23976562 239.64453125 30.36328125 C250.21258176 32.36862727 260.66314125 38.30517731 269.5 44.3125 C271.95993343 46.13589869 271.95993343 46.13589869 275 47 C276.01379111 47.98601601 277.01232906 48.9878211 278 50 C279.37481277 50.96806343 280.77286074 51.90362558 282.1875 52.8125 C287.79729005 56.4913509 293.27673665 60.21586985 298 65 C299.28408393 66.13364732 300.57625431 67.25817978 301.875 68.375 C305.04813077 71.13626188 308.06406575 73.98471618 311 77 C311.845625 77.845625 312.69125 78.69125 313.5625 79.5625 C314.366875 80.366875 315.17125 81.17125 316 82 C316.70125 82.66 317.4025 83.32 318.125 84 C320.15586682 86.16625794 321.48736229 88.4560184 323 91 C323.66 91.33 324.32 91.66 325 92 C325.66666667 93.33333333 326.33333333 94.66666667 327 96 C327.66 96.33 328.32 96.66 329 97 C332 102.42307692 332 102.42307692 332 105 C332.66 105 333.32 105 334 105 C334.45375 105.969375 334.9075 106.93875 335.375 107.9375 C336.65786221 111.07079582 336.65786221 111.07079582 339 112 C340.3749149 114.90259811 341 116.76138705 341 120 C341.66 120.33 342.32 120.66 343 121 C346 126.30769231 346 126.30769231 346 130 C346.66 130.33 347.32 130.66 348 131 C351 137.23076923 351 137.23076923 351 141 C351.66 141 352.32 141 353 141 C352.67 142.32 352.34 143.64 352 145 C352.66 145 353.32 145 354 145 C355.19287411 148.87684087 356 151.91621923 356 156 C356.66 156 357.32 156 358 156 C358.33333333 157.66666667 358.66666667 159.33333333 359 161 C359.17660156 161.86238281 359.35320312 162.72476563 359.53515625 163.61328125 C360.62449081 169.18906034 361.21429439 174.32119864 361 180 C361.66 180 362.32 180 363 180 C363.125 187.75 363.125 187.75 362 190 C362.66 190 363.32 190 364 190 C364.02286673 240.541409 364.04049841 291.08281749 364.05106533 341.62423065 C364.0523161 347.58509908 364.05361042 353.54596751 364.05493164 359.50683594 C364.05519395 360.69358538 364.05545626 361.88033482 364.05572652 363.10304637 C364.06008309 382.34284629 364.06797057 401.58264323 364.0771528 420.82244138 C364.08648969 440.55020734 364.09205569 460.27797173 364.09408849 480.00573981 C364.09546365 492.18818257 364.09981382 504.37061692 364.10791647 516.55305709 C364.11318437 524.89617379 364.11480419 533.23928612 364.11350138 541.58240436 C364.11285807 546.40279218 364.11387473 551.22316526 364.11920547 556.04355049 C364.12404328 560.45013674 364.12433611 564.85669824 364.12089889 569.26328559 C364.12047358 570.86358027 364.1217661 572.46387644 364.12488318 574.06416814 C364.12885424 576.22741244 364.12675891 578.39056553 364.12304783 580.55380821 C364.12342755 581.75904054 364.12380727 582.96427287 364.1241985 584.20602739 C364 587 364 587 363 589 C362.95977609 591.3329866 362.95679753 593.66706666 363 596 C362.34 596 361.68 596 361 596 C360.95101563 596.88042969 360.90203125 597.76085937 360.8515625 598.66796875 C360.77679687 599.82941406 360.70203125 600.99085938 360.625 602.1875 C360.52058594 603.91033203 360.52058594 603.91033203 360.4140625 605.66796875 C360.02081972 608.83246019 359.27465411 611.10527024 358 614 C357.65729868 615.33095631 357.32431285 616.66444391 357 618 C356.37797375 619.90377731 355.73052879 621.79937335 355.0625 623.6875 C354.72347656 624.66074219 354.38445312 625.63398437 354.03515625 626.63671875 C353 629 353 629 351 630 C350.63729412 631.99488234 350.30830925 633.99598989 350 636 C349.37774395 637.68375165 348.72455635 639.35767228 348 641 C347.34 641 346.68 641 346 641 C345.814375 642.0828125 345.814375 642.0828125 345.625 643.1875 C345.0039987 645.98200584 344.22183229 648.41259045 343 651 C342.34 651.33 341.68 651.66 341 652 C340.67 652.99 340.34 653.98 340 655 C339.34 655.33 338.68 655.66 338 656 C336.98470459 658.32671865 335.98511802 660.6603447 335 663 C334.34 663.66 333.68 664.32 333 665 C332.34 666.03125 331.68 667.0625 331 668.125 C330.34 669.07375 329.68 670.0225 329 671 C328.34 671 327.68 671 327 671 C326.71125 671.639375 326.4225 672.27875 326.125 672.9375 C325 675 325 675 323 676 C322.54810303 676.75579346 322.09620605 677.51158691 321.63061523 678.2902832 C319.96284038 681.06175096 318.18882299 683.06959185 315.91015625 685.35546875 C315.12576172 686.14244141 314.34136719 686.92941406 313.53320312 687.74023438 C312.71787109 688.54783203 311.90253906 689.35542969 311.0625 690.1875 C310.25103516 691.00669922 309.43957031 691.82589844 308.60351562 692.66992188 C307.42499023 693.84458008 307.42499023 693.84458008 306.22265625 695.04296875 C305.50859619 695.75477295 304.79453613 696.46657715 304.05883789 697.19995117 C302 699 302 699 299.86108398 700.05981445 C297.65639871 700.98181369 297.65639871 700.98181369 296 704 C294.34051852 705.01187895 292.67419438 706.0126546 291 707 C290.67 707.66 290.34 708.32 290 709 C287.0425138 710.77449172 284.0451764 712.43214825 281.015625 714.078125 C277.39456772 715.89548317 277.39456772 715.89548317 275 719 C273.02948374 720.05691327 271.02166431 721.04455591 269 722 C267.7536162 722.61920134 266.50888274 723.24173322 265.265625 723.8671875 C263.21773974 724.89163641 261.16940563 725.91513093 259.11962891 726.93579102 C256.04824757 728.46654717 252.98635735 730.00713535 249.9453125 731.59765625 C245.61213595 733.85643977 241.96411378 735.60809628 237 736 C237 736.66 237 737.32 237 738 C235.25183142 738.50636607 233.50137737 739.00484619 231.75 739.5 C230.77546875 739.7784375 229.8009375 740.056875 228.796875 740.34375 C226 741 226 741 222 741 C222 741.66 222 742.32 222 743 C220.85402344 743.26554688 219.70804688 743.53109375 218.52734375 743.8046875 C216.99737464 744.16136742 215.46742791 744.51814337 213.9375 744.875 C213.18533203 745.04902344 212.43316406 745.22304688 211.65820312 745.40234375 C208.20045202 746.2106492 204.79433511 747.06069894 201.38671875 748.06640625 C192.02763878 750.64636024 182.07277647 751.17814349 172.4140625 751.75390625 C170.05148745 751.73792956 170.05148745 751.73792956 169 753 C167.25682579 753.10058851 165.50954055 753.13031462 163.76346874 753.13307858 C162.62080774 753.13731962 161.47814673 753.14156067 160.30085963 753.14593023 C158.39383666 753.14535103 158.39383666 753.14535103 156.44828796 753.14476013 C155.09636878 753.14789136 153.74445055 753.15146558 152.3925336 753.15544754 C148.65948282 753.16518305 144.92644735 753.16870218 141.19338572 753.17129052 C137.17320749 753.17517384 133.15304291 753.18481244 129.13287354 753.19384766 C122.15716008 753.20881445 115.18144772 753.22034721 108.20572472 753.22979546 C98.09810677 753.24366248 87.99051389 753.2648522 77.88291392 753.28822399 C61.45686069 753.32618795 45.03080286 753.3611334 28.60473633 753.39282227 C27.12861366 753.395673 27.12861366 753.395673 25.62267033 753.39858133 C11.69409174 753.42534491 -2.23449033 753.44923268 -16.16307601 753.47196633 C-17.14139715 753.47356363 -18.1197183 753.47516094 -19.12768555 753.47680664 C-20.1048103 753.47840011 -21.08193505 753.47999357 -22.08866964 753.48163532 C-38.42879536 753.50847977 -54.76889484 753.54291768 -71.10899228 753.58346039 C-81.17786747 753.6081404 -91.24671451 753.62651997 -101.31561508 753.636616 C-108.23432652 753.64405392 -115.1530002 753.65865011 -122.07168654 753.67868023 C-126.05383454 753.68998002 -130.03592192 753.69821169 -134.01808739 753.69767189 C-148.80813485 753.69747916 -163.48400555 753.74138334 -178.18654156 755.57315159 C-181.50379925 755.94445921 -184.66749036 756.08242551 -188 756 C-188 756.66 -188 757.32 -188 758 C-190.58252893 758.50449402 -193.16588703 759.00374301 -195.75 759.5 C-196.47960937 759.64308594 -197.20921875 759.78617188 -197.9609375 759.93359375 C-201.39343532 760.58888879 -204.49169491 761 -208 761 C-208 761.66 -208 762.32 -208 763 C-208.845625 763.25394531 -209.69125 763.50789062 -210.5625 763.76953125 C-220.7819395 766.8702021 -230.33408615 770.4588711 -240 775 C-240.67933594 775.31839844 -241.35867188 775.63679687 -242.05859375 775.96484375 C-247.35062556 778.52834356 -252.34406897 781.55029044 -257.36328125 784.609375 C-260 786 -260 786 -263 786 C-263.33 786.99 -263.66 787.98 -264 789 C-265.98166034 790.0358679 -267.98473831 791.03112419 -270 792 C-270.886875 792.721875 -271.77375 793.44375 -272.6875 794.1875 C-275 796 -275 796 -278 796 C-278.37125 796.928125 -278.37125 796.928125 -278.75 797.875 C-280.22246063 800.37818306 -281.41028837 800.83045281 -284 802 C-284.33 802.66 -284.66 803.32 -285 804 C-285.721875 804.4228125 -286.44375 804.845625 -287.1875 805.28125 C-290.51341626 807.31375438 -293.19957577 809.82040626 -296 812.5 C-299.46410045 815.81463419 -302.86919105 818.54776392 -307 821 C-308.803202 822.73559713 -308.803202 822.73559713 -310.375 824.6875 C-310.96539063 825.38617187 -311.55578125 826.08484375 -312.1640625 826.8046875 C-312.76992188 827.52914062 -313.37578125 828.25359375 -314 829 C-315.24605976 830.44091684 -316.4959439 831.87853712 -317.75 833.3125 C-318.30171875 833.94800781 -318.8534375 834.58351563 -319.421875 835.23828125 C-321 837 -321 837 -322.640625 838.54296875 C-324.25451532 840.07029564 -324.25451532 840.07029564 -325 843 C-326.66666667 844.33333333 -328.33333333 845.66666667 -330 847 C-330.33 847.99 -330.66 848.98 -331 850 C-331.99 850.66 -332.98 851.32 -334 852 C-334.33 852.99 -334.66 853.98 -335 855 C-335.45375 855.433125 -335.9075 855.86625 -336.375 856.3125 C-338.2292989 858.0702189 -338.2292989 858.0702189 -339.5625 861.125 C-341 864 -341 864 -343 865 C-344.04808041 866.97522846 -345.0520411 868.97481509 -346 871 C-346.66 871 -347.32 871 -348 871 C-348.28875 871.721875 -348.5775 872.44375 -348.875 873.1875 C-349.91666667 875.79166667 -350.95833333 878.39583333 -352 881 C-352.66 881 -353.32 881 -354 881 C-354.12375 881.556875 -354.2475 882.11375 -354.375 882.6875 C-355.05976855 885.22114364 -355.99133763 887.57921032 -357 890 C-357.66 890 -358.32 890 -359 890 C-359.12375 890.721875 -359.2475 891.44375 -359.375 892.1875 C-359.9904931 894.95721894 -360.88444374 897.3970354 -362 900 C-362.66 900 -363.32 900 -364 900 C-364.13277344 900.62648438 -364.26554687 901.25296875 -364.40234375 901.8984375 C-364.57894531 902.71570312 -364.75554687 903.53296875 -364.9375 904.375 C-365.19853516 905.59316406 -365.19853516 905.59316406 -365.46484375 906.8359375 C-366 909 -366 909 -367 911 C-367.66 911 -368.32 911 -369 911 C-369.144375 912.093125 -369.28875 913.18625 -369.4375 914.3125 C-370 918 -370 918 -371 921 C-371.66 921 -372.32 921 -373 921 C-372.67 922.32 -372.34 923.64 -372 925 C-372.66 925 -373.32 925 -374 925 C-374.144375 926.258125 -374.28875 927.51625 -374.4375 928.8125 C-374.73748686 931.42667123 -375.15813297 933.47439892 -376 936 C-376.66 936 -377.32 936 -378 936 C-377.67 937.65 -377.34 939.3 -377 941 C-377.66 941 -378.32 941 -379 941 C-379.04898437 941.6290625 -379.09796875 942.258125 -379.1484375 942.90625 C-379.51658946 947.1209552 -379.94540286 951.16189983 -381.0625 955.25 C-381.92256628 958.69026513 -382.17603899 961.47922013 -382 965 C-382.66 965 -383.32 965 -384 965 C-385.22270549 989.94227279 -385.21555455 1014.89327101 -385.30332303 1039.85957241 C-385.32548785 1045.89461555 -385.35272445 1051.92963597 -385.37937927 1057.96466064 C-385.42890066 1069.3464075 -385.47398645 1080.72816725 -385.51740164 1092.10993886 C-385.56712517 1105.08738175 -385.62191077 1118.06480181 -385.67708123 1131.0422225 C-385.79027707 1157.69479362 -385.89724707 1184.34738672 -386 1211 C-406.42963077 1211.04698855 -426.85925038 1211.0821191 -447.28892422 1211.10362434 C-456.77751422 1211.1138807 -466.2660704 1211.12783131 -475.75463867 1211.15087891 C-484.03726431 1211.17098747 -492.31986543 1211.18375725 -500.6025148 1211.18817699 C-504.97684113 1211.19075523 -509.35109736 1211.19669312 -513.72540092 1211.21146011 C-568.44789925 1211.3889361 -568.44789925 1211.3889361 -584 1206 C-586.14068152 1205.49831881 -588.28683344 1205.01948437 -590.4375 1204.5625 C-596.07077702 1203.28511292 -600.75066703 1201.68208713 -605.87890625 1199.02734375 C-610.24394922 1196.78075608 -614.49548782 1195.08707902 -619.21484375 1193.7109375 C-621 1193 -621 1193 -622 1191 C-623.86504417 1190.05052297 -625.73331604 1189.10686321 -627.6171875 1188.1953125 C-634.1171995 1184.93465074 -640.10677885 1181.27205594 -645.4296875 1176.296875 C-646.97976663 1174.90938555 -646.97976663 1174.90938555 -649.01171875 1174.04296875 C-651.29297946 1172.84631529 -652.36604188 1171.58667736 -653.9375 1169.5625 C-656.39274835 1166.57323513 -658.65136516 1164.96017649 -662 1163 C-666.11755621 1159.36632512 -669.24650926 1155.75602945 -672 1151 C-673.64488294 1149.31183067 -675.31337542 1147.64646685 -677 1146 C-680.89892977 1141.50123488 -684.4739474 1136.79468529 -688 1132 C-688.44601562 1131.39929687 -688.89203125 1130.79859375 -689.3515625 1130.1796875 C-693.6367001 1124.31719864 -696.9994409 1118.17475048 -700.0703125 1111.6015625 C-700.91104052 1109.81571837 -700.91104052 1109.81571837 -703 1109 C-704.3749149 1106.09740189 -705 1104.23861295 -705 1101 C-705.66 1100.67 -706.32 1100.34 -707 1100 C-710 1094.69230769 -710 1094.69230769 -710 1091 C-710.66 1090.67 -711.32 1090.34 -712 1090 C-715 1083.76923077 -715 1083.76923077 -715 1080 C-715.66 1080 -716.32 1080 -717 1080 C-716.67 1078.68 -716.34 1077.36 -716 1076 C-716.66 1076 -717.32 1076 -718 1076 C-720.74871167 1070.09794397 -723.01727281 1064.19602248 -725 1058 C-725.66625686 1056.04152721 -726.33294793 1054.08320209 -727 1052.125 C-728.62783823 1047.25391154 -730.03833564 1042.3568753 -731.34375 1037.390625 C-732.00658439 1034.85494518 -732.00658439 1034.85494518 -733.125 1031.875 C-734.31510628 1027.96465078 -734.65702325 1024.06156674 -735 1020 C-735.66 1020 -736.32 1020 -737 1020 C-738.02140091 1014.97156477 -738.95457765 1009.92691992 -739.89453125 1004.8828125 C-740.26089401 1002.92147653 -740.63035602 1000.96072022 -741 999 C-741.1546875 998.13375 -741.309375 997.2675 -741.46875 996.375 C-741.97559366 993.88468907 -741.97559366 993.88468907 -743.0234375 991.1171875 C-744.08780558 987.71972458 -744.40775196 984.67338459 -744.625 981.125 C-744.69976563 979.97257812 -744.77453125 978.82015625 -744.8515625 977.6328125 C-744.90054688 976.76398437 -744.94953125 975.89515625 -745 975 C-745.66 975 -746.32 975 -747 975 C-746.95875 974.29875 -746.9175 973.5975 -746.875 972.875 C-746.85991023 969.97121779 -746.85991023 969.97121779 -747.96875 967.28125 C-749.10851718 963.65471808 -749.41047194 960.41499571 -749.625 956.625 C-749.73714844 954.75714844 -749.73714844 954.75714844 -749.8515625 952.8515625 C-749.90054688 951.91054687 -749.94953125 950.96953125 -750 950 C-750.66 950 -751.32 950 -752 950 C-751.95875 948.989375 -751.9175 947.97875 -751.875 946.9375 C-751.8285491 943.06877517 -751.8285491 943.06877517 -752.96875 939.78125 C-754.09996137 935.63347497 -754.43741433 931.83398212 -754.625 927.5625 C-754.66367187 926.83095703 -754.70234375 926.09941406 -754.7421875 925.34570312 C-754.83533984 923.56416468 -754.91870286 921.78211878 -755 920 C-755.66 920 -756.32 920 -757 920 C-757.125 913.25 -757.125 913.25 -756 911 C-756.66 911 -757.32 911 -758 911 C-759.25940704 899.30024254 -760.35640731 887.7812416 -760 876 C-760.66 876 -761.32 876 -762 876 C-762.02312079 862.71812591 -762.04091374 849.43625657 -762.05181217 836.15436649 C-762.05704158 829.9877508 -762.06414027 823.82114882 -762.07543945 817.65454102 C-762.08626629 811.70883994 -762.0922764 805.76315211 -762.09487724 799.81744194 C-762.09673186 797.54353057 -762.10035317 795.26961996 -762.10573006 792.99571419 C-762.11293778 789.8227288 -762.11399106 786.64979883 -762.11352539 783.47680664 C-762.11712067 782.52662659 -762.12071594 781.57644653 -762.12442017 780.59747314 C-762.11405216 774.11405216 -762.11405216 774.11405216 -761 773 C-760.71023875 770.64246607 -760.47732035 768.30329618 -760.28125 765.9375 C-760.21844849 765.23101318 -760.15564697 764.52452637 -760.09094238 763.79663086 C-759.88968923 761.53143842 -759.69417118 759.26580985 -759.5 757 C-759.24465638 754.0203606 -758.98354467 751.04131267 -758.71875 748.0625 C-758.661427 747.3708374 -758.604104 746.6791748 -758.54504395 745.96655273 C-758.11280181 741.11280181 -758.11280181 741.11280181 -757 740 C-756.92820036 738.48071962 -756.91607993 736.95832518 -756.9375 735.4375 C-756.94652344 734.61121094 -756.95554687 733.78492188 -756.96484375 732.93359375 C-756.97644531 732.29550781 -756.98804688 731.65742187 -757 731 C-756.34 731 -755.68 731 -755 731 C-755.061875 729.453125 -755.061875 729.453125 -755.125 727.875 C-755.13677771 721.32659325 -754.95206303 712.90412606 -752 707 C-751.960008 705.00039988 -751.95653201 702.99952758 -752 701 C-751.34 701 -750.68 701 -750 701 C-749.92652344 699.58847656 -749.92652344 699.58847656 -749.8515625 698.1484375 C-749.77679687 696.90320313 -749.70203125 695.65796875 -749.625 694.375 C-749.52058594 692.53035156 -749.52058594 692.53035156 -749.4140625 690.6484375 C-749.01751231 687.15430662 -748.17482342 684.29708507 -747 681 C-746.83142517 678.24934768 -746.83142517 678.24934768 -747 676 C-746.34 676 -745.68 676 -745 676 C-744.95101562 675.13117187 -744.90203125 674.26234375 -744.8515625 673.3671875 C-744.77679687 672.21476563 -744.70203125 671.06234375 -744.625 669.875 C-744.55539062 668.73804688 -744.48578125 667.60109375 -744.4140625 666.4296875 C-744.00327648 663.02713913 -743.14281128 660.21906382 -742 657 C-741.63100394 655.34086444 -741.29983304 653.67301794 -741 652 C-740.52432954 649.49933243 -740.04488069 646.99938184 -739.5625 644.5 C-739.31628906 643.2109375 -739.07007813 641.921875 -738.81640625 640.59375 C-738.11540303 637.50799419 -737.19222939 634.91071629 -736 632 C-735.44270994 629.82150249 -734.92341474 627.63302055 -734.4375 625.4375 C-732.83024899 618.2340175 -732.83024899 618.2340175 -732 615 C-731.34 615 -730.68 615 -730 615 C-729.87625 613.783125 -729.7525 612.56625 -729.625 611.3125 C-729.21105067 607.92291491 -728.3841136 605.13732416 -727 602 C-727 601.34 -727 600.68 -727 600 C-726.34 600 -725.68 600 -725 600 C-724.835 598.824375 -724.67 597.64875 -724.5 596.4375 C-723.01007122 589.64170975 -719.33800478 583.79758973 -715.98095703 577.78320312 C-713.47113132 573.22079223 -711.15519026 568.52977711 -708.9921875 563.79296875 C-708 562 -708 562 -706 561 C-705.67 560.175 -705.34 559.35 -705 558.5 C-704 556 -704 556 -702 555 C-700.92137943 553.01306737 -700.02226321 550.97274101 -699.09765625 548.91015625 C-698 547 -698 547 -695 545 C-694.67 544.01 -694.34 543.02 -694 542 C-692.66666667 541 -691.33333333 540 -690 539 C-689.67 538.01 -689.34 537.02 -689 536 C-687.6171875 534.67578125 -687.6171875 534.67578125 -685.875 533.3125 C-682.40030553 530.45014922 -679.53900245 527.30416359 -676.625 523.8828125 C-674.53509253 521.46133317 -672.29099935 519.23070989 -670 517 C-669.175 516.13375 -668.35 515.2675 -667.5 514.375 C-665.12290537 512.11676011 -662.81504451 510.6421093 -660 509 C-659.67 508.34 -659.34 507.68 -659 507 C-657.34151823 505.98648336 -655.67334039 504.98879205 -654 504 C-653.13375 503.278125 -652.2675 502.55625 -651.375 501.8125 C-649 500 -649 500 -646 500 C-645.67 499.01 -645.34 498.02 -645 497 C-643.1640625 495.74609375 -643.1640625 495.74609375 -640.625 494.4375 C-639.63242187 493.92058594 -638.63984375 493.40367187 -637.6171875 492.87109375 C-637.04967773 492.57960449 -636.48216797 492.28811523 -635.89746094 491.98779297 C-633.77441806 490.88256504 -631.67252458 489.74199472 -629.5703125 488.59765625 C-604.4405647 475 -604.4405647 475 -596 475 C-596 474.34 -596 473.68 -596 473 C-594.94941406 472.74605469 -593.89882813 472.49210937 -592.81640625 472.23046875 C-583.91465919 470.10602521 -583.91465919 470.10602521 -575.1875 467.375 C-570.93762921 465.86247345 -566.63505543 465.13388378 -562.1875 464.4296875 C-560.0314432 464.21729526 -560.0314432 464.21729526 -559 463 C-557.31604802 462.7126657 -555.62196194 462.48429268 -553.92578125 462.28125 C-552.87132812 462.15411621 -551.816875 462.02698242 -550.73046875 461.89599609 C-549.60253906 461.76531738 -548.47460938 461.63463867 -547.3125 461.5 C-546.178125 461.3654541 -545.04375 461.2309082 -543.875 461.09228516 C-536.68078087 460.25672799 -529.51546636 459.57967183 -522.28125 459.2109375 C-520.0352937 459.24829295 -520.0352937 459.24829295 -519 458 C-515.88554467 457.90084025 -512.79322785 457.8682685 -509.67832088 457.87695217 C-508.68271494 457.87579833 -507.687109 457.87464448 -506.66133317 457.87345567 C-503.28054845 457.8707807 -499.89981008 457.87531837 -496.51902771 457.87974548 C-494.08865713 457.87930996 -491.65828659 457.87843541 -489.2279163 457.87715632 C-483.920831 457.87537864 -478.61375994 457.87673609 -473.30667686 457.88079453 C-465.41515526 457.88681263 -457.52364075 457.88713191 -449.63211727 457.88625254 C-436.3593665 457.88493647 -423.0866207 457.88828825 -409.81387138 457.89426994 C-396.66588758 457.90018026 -383.51790585 457.90403453 -370.36992073 457.90512276 C-369.55343122 457.9051915 -368.7369417 457.90526024 -367.89571008 457.90533106 C-363.74943259 457.90566938 -359.60315509 457.90597077 -355.4568776 457.90625793 C-326.0634541 457.9083602 -296.6700333 457.91510272 -267.27661133 457.92456055 C-238.71541356 457.93374001 -210.15421653 457.94082605 -181.59301758 457.94506836 C-180.71315017 457.94519989 -179.83328277 457.94533141 -178.92675271 457.94546692 C-170.09102978 457.94678541 -161.25530685 457.94806123 -152.41958391 457.94930578 C-134.41905057 457.95184222 -116.41851728 457.95466347 -98.41798401 457.95765686 C-97.59028832 457.95779415 -96.76259264 457.95793144 -95.90981526 457.95807289 C-40.60654232 457.96727871 14.69672887 457.98335229 70 458 C70 431.6 70 405.2 70 378 C58.71119629 378.01047363 47.42239258 378.02094727 35.79150391 378.03173828 C-0.28961259 378.06380859 -36.37072913 378.08607218 -72.45185616 378.10213066 C-78.05221404 378.1046322 -83.65257187 378.10722084 -89.25292969 378.10986328 C-90.36790438 378.1103879 -91.48287907 378.11091252 -92.63164087 378.11145304 C-110.70747117 378.12016602 -128.78328881 378.13594089 -146.85911159 378.15430559 C-165.39358385 378.17297983 -183.92804945 378.18411147 -202.46253073 378.18817699 C-213.90795826 378.1909272 -225.35334999 378.19962704 -236.79876651 378.21583293 C-244.63729148 378.22636929 -252.47579783 378.22960826 -260.31432937 378.22700275 C-264.84309763 378.22571622 -269.37180315 378.22774846 -273.90056038 378.23841095 C-278.04071142 378.24808784 -282.18075708 378.24867146 -286.32091279 378.24179779 C-287.82430528 378.24094728 -289.32770414 378.24353134 -290.83108394 378.24976636 C-292.8635825 378.25771047 -294.8961205 378.25230582 -296.92862511 378.24609566 C-298.06095113 378.2468551 -299.19327716 378.24761454 -300.35991609 378.24839699 C-303 378 -303 378 -305 376 C-305.24888897 373.13031197 -305.24888897 373.13031197 -305.24723816 369.38015747 C-305.24965257 368.69174991 -305.25206699 368.00334234 -305.25455457 367.29407394 C-305.26021378 364.97476291 -305.25151083 362.65572466 -305.24291992 360.33642578 C-305.24399251 358.67714869 -305.24593085 357.01787197 -305.24867249 355.3585968 C-305.25353745 350.83421557 -305.24583692 346.30993238 -305.23571944 341.78556299 C-305.22692805 337.0300473 -305.22869685 332.27453461 -305.2290802 327.51901245 C-305.22814162 319.50386932 -305.21944522 311.48876387 -305.20581055 303.47363281 C-305.19022221 294.27761564 -305.18480759 285.08164014 -305.1855461 275.8856107 C-305.18622959 266.03786227 -305.17922856 256.19012942 -305.1700995 246.34238577 C-305.16799369 243.54099179 -305.16726175 240.73960042 -305.16686058 237.93820572 C-305.14742302 168.29484604 -305.14742302 168.29484604 -302 162 C-301.95977609 159.6670134 -301.95679753 157.33293334 -302 155 C-301.34 155 -300.68 155 -300 155 C-300.061875 153.3603125 -300.061875 153.3603125 -300.125 151.6875 C-300.10491504 140.31941109 -296.27520153 129.93484497 -292.0390625 119.5546875 C-291.331788 117.81574944 -290.63962291 116.07060645 -289.9609375 114.3203125 C-288.26865273 109.96687762 -286.57501222 105.92382815 -284 102 C-283.67 101.34 -283.34 100.68 -283 100 C-282.34 100 -281.68 100 -281 100 C-280.855625 99.401875 -280.71125 98.80375 -280.5625 98.1875 C-279.77106684 95.10970438 -279.28457274 93.28457274 -277 91 C-275.80479746 89.57239697 -274.61037334 88.14412667 -273.421875 86.7109375 C-265.44892817 77.11711686 -256.84567239 68.91743787 -246.8125 61.5 C-246.16829102 61.02369141 -245.52408203 60.54738281 -244.86035156 60.05664062 C-239.92243249 56.4888785 -234.95846579 53.71362948 -229.390625 51.21875 C-227.05277453 50.02690466 -225.82278468 48.83255833 -224 47 C-221.87109375 45.97265625 -221.87109375 45.97265625 -219.4375 45.0625 C-218.55320312 44.72476563 -217.66890625 44.38703125 -216.7578125 44.0390625 C-215.84773437 43.69617188 -214.93765625 43.35328125 -214 43 C-212.26909677 42.31688389 -210.53986907 41.62950412 -208.8125 40.9375 C-208.05582031 40.63714844 -207.29914062 40.33679688 -206.51953125 40.02734375 C-204.57967305 39.23636281 -202.65528726 38.40736013 -200.73828125 37.5625 C-196.69387637 35.82326973 -192.55682569 34.43140013 -188.375 33.0625 C-187.19357422 32.6744519 -187.19357422 32.6744519 -185.98828125 32.27856445 C-184.40130936 31.7590892 -182.81375313 31.24139531 -181.22558594 30.72558594 C-179.24354331 30.07940003 -177.26596571 29.41955484 -175.2890625 28.7578125 C-168.83908862 26.65888988 -162.78665451 25.30639524 -156 25 C-156 24.34 -156 23.68 -156 23 C-155.3702124 22.88930176 -154.7404248 22.77860352 -154.09155273 22.66455078 C-151.20618325 22.15516526 -148.32184964 21.64012767 -145.4375 21.125 C-144.44685547 20.95097656 -143.45621094 20.77695313 -142.43554688 20.59765625 C-137.18145026 19.65506084 -132.12613453 18.50768663 -127 17 C-119.98815793 15.6330705 -113.14440672 14.71982719 -106 15 C-106 14.34 -106 13.68 -106 13 C-105.06615479 12.88406494 -104.13230957 12.76812988 -103.17016602 12.64868164 C-99.7164328 12.21785313 -96.2632244 11.7832135 -92.81030273 11.34594727 C-91.31375136 11.15723258 -89.81700549 10.97005381 -88.32006836 10.78442383 C-86.17248795 10.51784235 -84.0256601 10.2458039 -81.87890625 9.97265625 C-79.93866577 9.72914429 -79.93866577 9.72914429 -77.95922852 9.48071289 C-75.12066736 9.31552661 -75.12066736 9.31552661 -74 8 C-71.06115696 7.63759345 -68.13527355 7.33187449 -65.1875 7.0625 C-64.30344482 6.97750244 -63.41938965 6.89250488 -62.50854492 6.80493164 C-58.70976355 6.43983828 -54.91002232 6.08518965 -51.11035156 5.72949219 C-48.34404889 5.4690563 -45.57828034 5.20341618 -42.8125 4.9375 C-41.51252075 4.81870483 -41.51252075 4.81870483 -40.1862793 4.69750977 C-36.270412 4.66855682 -36.270412 4.66855682 -33 3 C-22.10965735 1.46052748 -10.96583642 1.90160266 0 2 C0 1.34 0 0.68 0 0 Z M-185 175 C-185.99 175.33 -186.98 175.66 -188 176 C-188.33 176.66 -188.66 177.32 -189 178 C-190.69842727 178.95328393 -192.39756217 179.90534691 -194.1015625 180.84863281 C-204.13756551 186.93528279 -211.06525658 197.16353836 -215 208 C-215.18175781 209.27230469 -215.36351562 210.54460937 -215.55078125 211.85546875 C-215.77314453 213.41201172 -215.77314453 213.41201172 -216 215 C-216.99 215.495 -216.99 215.495 -218 216 C-217.67 217.65 -217.34 219.3 -217 221 C-217.66 221 -218.32 221 -219 221 C-219 227.6 -219 234.2 -219 241 C-218.34 241 -217.68 241 -217 241 C-217.33 242.65 -217.66 244.3 -218 246 C-217.34 246 -216.68 246 -216 246 C-215.855625 247.093125 -215.71125 248.18625 -215.5625 249.3125 C-215.11711896 252.93122987 -215.11711896 252.93122987 -214 256 C-213.34 256 -212.68 256 -212 256 C-212.33 257.32 -212.66 258.64 -213 260 C-212.01 260.33 -211.02 260.66 -210 261 C-209.64660979 262.32815822 -209.31738538 263.66278072 -209 265 C-204.49123522 271.86666473 -197.91052626 280.21665156 -189.734375 282.68359375 C-189.16203125 282.78800781 -188.5896875 282.89242187 -188 283 C-188 283.66 -188 284.32 -188 285 C-187.20335937 285.26554687 -186.40671875 285.53109375 -185.5859375 285.8046875 C-176 289 -176 289 -173.0703125 290.0859375 C-157.38416484 294.75585932 -141.52398423 291.53779912 -127.49609375 283.97265625 C-126.32917811 283.31786067 -125.16369868 282.66049583 -124 282 C-122.53240234 281.19369141 -122.53240234 281.19369141 -121.03515625 280.37109375 C-120.36355469 279.91863281 -119.69195313 279.46617187 -119 279 C-119 278.34 -119 277.68 -119 277 C-118.0409375 276.5978125 -118.0409375 276.5978125 -117.0625 276.1875 C-114.66868314 275.11332248 -114.66868314 275.11332248 -114 272 C-113.34 271.690625 -112.68 271.38125 -112 271.0625 C-111.34 270.711875 -110.68 270.36125 -110 270 C-109.63837971 268.67405895 -109.30271961 267.34061543 -109 266 C-108.01 265.67 -107.02 265.34 -106 265 C-105.04998712 262.93241371 -105.04998712 262.93241371 -104.4375 260.5 C-103.74609375 258.03125 -103.74609375 258.03125 -103 256 C-102.34 255.67 -101.68 255.34 -101 255 C-100.08333273 252.8292203 -100.08333273 252.8292203 -99.375 250.25 C-99.11460937 249.38890625 -98.85421875 248.5278125 -98.5859375 247.640625 C-98.00060132 245.00270994 -97.89348264 242.69198424 -98 240 C-97.34 240 -96.68 240 -96 240 C-95.9455793 237.31222198 -95.90612734 234.62556788 -95.875 231.9375 C-95.84986328 230.80924805 -95.84986328 230.80924805 -95.82421875 229.65820312 C-95.7816987 224.74713728 -96.42883513 220.70769695 -98 216 C-100.15492958 208.52112676 -100.15492958 208.52112676 -101 205 C-101.66 205 -102.32 205 -103 205 C-103.18175781 204.36191406 -103.36351562 203.72382813 -103.55078125 203.06640625 C-103.80214844 202.24011719 -104.05351563 201.41382813 -104.3125 200.5625 C-104.55613281 199.73878906 -104.79976562 198.91507813 -105.05078125 198.06640625 C-105.36402344 197.38449219 -105.67726563 196.70257813 -106 196 C-107.485 195.505 -107.485 195.505 -109 195 C-109.144375 194.360625 -109.28875 193.72125 -109.4375 193.0625 C-109.623125 192.381875 -109.80875 191.70125 -110 191 C-111.32467746 190.3162955 -112.65863633 189.65035814 -114 189 C-114.309375 188.34 -114.61875 187.68 -114.9375 187 C-116.39568908 184.2551735 -118.17549698 184.08634731 -121 183 C-121.495 181.515 -121.495 181.515 -122 180 C-124.15866026 178.69531523 -126.23161527 177.57700742 -128.5 176.5 C-129.14219482 176.19175293 -129.78438965 175.88350586 -130.44604492 175.56591797 C-132.2897341 174.69428834 -134.14461823 173.84645525 -136 173 C-136.76957031 172.64164063 -137.53914062 172.28328125 -138.33203125 171.9140625 C-153.05108266 166.04966727 -171.01303925 168.76257156 -185 175 Z " fill="#0176BC" transform="translate(952,207)"/>
<path d="M0 0 C1.95464424 -0.00639748 1.95464424 -0.00639748 3.94877625 -0.01292419 C5.40725711 -0.01257458 6.86573795 -0.012113 8.32421875 -0.0115509 C9.85028669 -0.01454133 11.37635387 -0.01794358 12.90242004 -0.02172852 C17.06713377 -0.03060156 21.23182696 -0.03290848 25.39654922 -0.0335443 C28.00772566 -0.03425489 30.61889688 -0.03638977 33.23007202 -0.03904152 C42.36871673 -0.0483177 51.50734683 -0.05237506 60.64599609 -0.05158997 C69.10986932 -0.050994 77.57367781 -0.06144424 86.03753471 -0.07733363 C93.33300508 -0.09053163 100.62845468 -0.09576854 107.92393684 -0.09513456 C112.26694122 -0.0948824 116.60988856 -0.09757193 120.95288086 -0.10831261 C171.97477972 -0.22557232 171.97477972 -0.22557232 191.57421875 5.07121277 C192.58677734 5.32322449 193.59933594 5.57523621 194.64257812 5.83488464 C219.82999332 12.25070181 242.33941066 25.37706193 262.01171875 42.13371277 C263.09458047 42.98847723 264.17782706 43.84275474 265.26171875 44.69621277 C268.25085129 47.34567116 270.77529373 50.1969819 273.36328125 53.23136902 C274.66443042 54.73293215 276.04428441 56.16627843 277.44921875 57.57121277 C279.75851121 59.88050523 281.99358682 62.22576567 284.19921875 64.63371277 C284.87339844 65.36590027 285.54757812 66.09808777 286.2421875 66.85246277 C288.06606243 69.20377172 289.04978337 71.33176768 290.01171875 74.13371277 C290.67171875 74.13371277 291.33171875 74.13371277 292.01171875 74.13371277 C292.98828125 75.92407735 293.96484375 77.71444194 294.94140625 79.50480652 C295.92581899 81.29989592 295.92581899 81.29989592 298.01171875 82.13371277 C299.08984375 83.84855652 299.08984375 83.84855652 300.26171875 86.07121277 C302.62840179 90.48666621 305.20456801 94.73193704 307.875 98.96965027 C309.01171875 101.13371277 309.01171875 101.13371277 309.01171875 104.13371277 C309.67171875 104.46371277 310.33171875 104.79371277 311.01171875 105.13371277 C312.44316139 107.69801492 313.77919628 110.25196764 315.07421875 112.88371277 C315.43837891 113.60043152 315.80253906 114.31715027 316.17773438 115.05558777 C318.0032206 118.72680592 319.48500776 122.01726378 320.01171875 126.13371277 C320.67171875 126.13371277 321.33171875 126.13371277 322.01171875 126.13371277 C323.68733632 130.46362718 325.35181814 134.79775444 327.01171875 139.13371277 C327.26824219 139.80193054 327.52476563 140.47014832 327.7890625 141.15861511 C333.287289 155.5093966 333.287289 155.5093966 335.2734375 162.62980652 C335.93169311 164.86230306 336.66105421 167.04910597 337.4140625 169.25090027 C339.13509767 174.38448727 340.53413671 179.58012659 341.88671875 184.82121277 C342.27307495 186.30875061 342.27307495 186.30875061 342.66723633 187.82633972 C344.92630751 196.61733004 346.95031927 205.45426445 348.921875 214.31340027 C349.7553607 218.04506147 350.66428447 221.74793938 351.63671875 225.44621277 C353.04091393 230.91226066 354.00608745 236.433092 354.92236328 241.99821472 C355.60574944 246.09415725 356.47967304 250.0785385 357.51879883 254.09806824 C358.37667707 257.64090566 358.96738195 261.2283536 359.57421875 264.82121277 C360.47338288 270.15339133 360.47338288 270.15339133 361.49365234 275.46305847 C362.46764455 280.48402959 363.09660869 285.56114141 363.79614258 290.62638855 C364.07343316 292.62804191 364.35595303 294.6289136 364.63867188 296.62980652 C364.81462891 297.89953308 364.99058594 299.16925964 365.171875 300.47746277 C365.33308838 301.63439636 365.49430176 302.79132996 365.66040039 303.98332214 C366.01171875 307.13371277 366.01171875 307.13371277 366.00170898 309.98722839 C365.75984954 312.11644411 365.75984954 312.11644411 367.01171875 313.13371277 C367.22758877 314.88746932 367.38289344 316.64876655 367.51171875 318.41105652 C367.63546875 320.01690613 367.63546875 320.01690613 367.76171875 321.65519714 C367.84421875 322.7824823 367.92671875 323.90976746 368.01171875 325.07121277 C368.17458135 327.28894332 368.3410666 329.50641176 368.51171875 331.72355652 C368.58390625 332.71218689 368.65609375 333.70081726 368.73046875 334.71940613 C368.87367283 337.14155006 368.87367283 337.14155006 370.01171875 339.13371277 C370.11038362 342.08289372 370.14798654 345.00848106 370.14111328 347.95793152 C370.1428656 348.87184662 370.14461792 349.78576172 370.14642334 350.72737122 C370.15083691 353.75867086 370.14790559 356.7899125 370.14453125 359.82121277 C370.14520443 361.9210664 370.14617458 364.02091995 370.14743042 366.12077332 C370.14890672 370.52581015 370.14675499 374.93082673 370.14208984 379.33586121 C370.1363926 384.9922039 370.13967197 390.64849914 370.14566231 396.30484009 C370.14926973 400.64213928 370.14812849 404.97942716 370.14553452 409.31672668 C370.14486575 411.40280666 370.14569192 413.48888764 370.14801407 415.57496643 C370.15054354 418.48650345 370.14669578 421.39796281 370.14111328 424.30949402 C370.14414963 425.61244919 370.14414963 425.61244919 370.14724731 426.94172668 C370.12598261 432.90518505 370.12598261 432.90518505 369.01171875 435.13371277 C368.80212313 436.88561924 368.64358665 438.64377891 368.51171875 440.40324402 C368.38796875 441.98395691 368.38796875 441.98395691 368.26171875 443.59660339 C368.17921875 444.70197449 368.09671875 445.80734558 368.01171875 446.94621277 C367.84778635 449.11959782 367.68121216 451.29278557 367.51171875 453.46574402 C367.43953125 454.43229919 367.36734375 455.39885437 367.29296875 456.3946991 C367.02212395 459.03237944 366.54326148 461.53776637 366.01171875 464.13371277 C365.6834703 466.42317675 365.37262613 468.71516848 365.07421875 471.00871277 C364.98922119 471.65566101 364.90422363 472.30260925 364.81665039 472.96916199 C364.54674583 475.02380736 364.27896429 477.07871995 364.01171875 479.13371277 C363.65947497 481.84230212 363.30501839 484.55058848 362.94921875 487.25871277 C362.71525391 489.05695496 362.71525391 489.05695496 362.4765625 490.89152527 C362.07828755 493.66940941 361.59097378 496.38923033 361.01171875 499.13371277 C360.50767615 501.75802151 360.00744438 504.3828394 359.51171875 507.00871277 C359.38152344 507.69062683 359.25132813 508.37254089 359.1171875 509.07511902 C358.51211794 512.2838212 357.96829433 515.46446211 357.54296875 518.70402527 C356.98522913 522.30472661 356.01512095 525.63320737 355.01171875 529.13371277 C354.29577892 532.70744577 353.73523978 536.30718924 353.15625 539.90519714 C352.4440146 544.1594634 351.40522912 548.04027606 350.01171875 552.13371277 C349.4783421 554.60591355 348.97979656 557.08582135 348.51171875 559.57121277 C347.57726503 564.52280175 346.41821414 569.29647176 345.01171875 574.13371277 C344.51869086 576.25553962 344.03925604 578.38057602 343.57421875 580.50871277 C342.34741978 585.86533007 340.86755923 590.96765886 339.01171875 596.13371277 C338.51487453 597.54230245 338.01886362 598.95118619 337.5234375 600.36027527 C336.45833369 603.38771533 335.38917835 606.41366949 334.31640625 609.43840027 C333.53060755 611.66404568 332.75810853 613.89454341 332.01171875 616.13371277 C331.35171875 616.13371277 330.69171875 616.13371277 330.01171875 616.13371277 C329.76421875 617.89715027 329.76421875 617.89715027 329.51171875 619.69621277 C328.02861905 626.51630629 324.36022368 632.35062715 320.97705078 638.37736511 C319.57717346 640.92433462 318.29037635 643.52428927 317.01171875 646.13371277 C316.35171875 646.13371277 315.69171875 646.13371277 315.01171875 646.13371277 C314.80546875 646.93808777 314.59921875 647.74246277 314.38671875 648.57121277 C312.60464236 653.1884107 310.15000163 657.2961386 307.01171875 661.13371277 C306.35171875 661.13371277 305.69171875 661.13371277 305.01171875 661.13371277 C304.80160156 661.81433777 304.59148437 662.49496277 304.375 663.19621277 C302.56876259 667.08816273 300.02456217 669.9359843 297.19921875 673.13371277 C296.67779297 673.73699402 296.15636719 674.34027527 295.61914062 674.96183777 C292.54391803 678.49392864 289.35118248 681.84742521 286.01171875 685.13371277 C285.14675781 686.03347839 284.28179688 686.93324402 283.390625 687.86027527 C271.88416061 699.77000838 258.93776613 709.24083166 245.01171875 718.13371277 C244.11710937 718.70992371 243.2225 719.28613464 242.30078125 719.87980652 C221.16296397 733.04818784 193.4175666 743.21369415 168.828125 746.64152527 C165.91438105 747.0918639 165.91438105 747.0918639 162.78735352 748.1134491 C159.0638068 749.11963737 155.62227233 749.6081251 151.78515625 749.95011902 C151.1156192 750.01150558 150.44608215 750.07289215 149.7562561 750.13613892 C147.63358808 750.32913257 145.51022937 750.51275037 143.38671875 750.69621277 C141.986925 750.82256727 140.58718478 750.94951627 139.1875 751.07707214 C132.50298717 751.67989004 132.50298717 751.67989004 129.26164931 751.94334942 C127.69745911 752.07569328 126.1345251 752.2234176 124.57289058 752.38311571 C113.24520762 753.4331064 101.90885508 753.2694081 90.54325867 753.25396729 C88.15202902 753.25440375 85.76079942 753.25528003 83.36957008 753.25655645 C78.18518764 753.25832189 73.00081559 753.25700363 67.81643486 753.25291824 C60.10756035 753.24686048 52.39869304 753.24658455 44.68981658 753.24746023 C31.71960236 753.24877145 18.74939326 753.24544292 5.77918053 753.23944283 C-7.05744769 753.23351979 -19.89407378 753.22967566 -32.73070335 753.22859001 C-33.52973183 753.22852127 -34.32876031 753.22845253 -35.15200177 753.22838171 C-39.21009122 753.22804336 -43.26818067 753.22774198 -47.32627013 753.22745483 C-76.04751161 753.22535608 -104.76875031 753.21862335 -133.48999023 753.20915222 C-161.3871255 753.19996348 -189.28426001 753.19288198 -217.18139648 753.18864441 C-218.04175691 753.18851288 -218.90211733 753.18838136 -219.78854928 753.18824585 C-228.42887597 753.18692729 -237.06920267 753.18565148 -245.70952937 753.18440699 C-263.30986756 753.18187097 -280.9102057 753.17904972 -298.51054382 753.17605591 C-299.31972616 753.17591862 -300.1289085 753.17578133 -300.96261152 753.17563988 C-354.97116932 753.16644382 -408.97972531 753.15037038 -462.98828125 753.13371277 C-462.98828125 779.53371277 -462.98828125 805.93371277 -462.98828125 833.13371277 C-451.66394775 833.12847595 -440.33961426 833.12323914 -428.67211914 833.11784363 C-392.4824728 833.10181039 -356.29282645 833.09067751 -320.10317749 833.08264744 C-314.48650959 833.08139666 -308.86984171 833.08010234 -303.25317383 833.07878113 C-302.13494621 833.07851882 -301.0167186 833.07825651 -299.8646053 833.07798625 C-281.73313901 833.07362909 -263.60167587 833.06574129 -245.47021145 833.05655997 C-226.88037283 833.04722471 -208.29053585 833.04165743 -189.70069498 833.03962427 C-178.21996038 833.03824878 -166.73923469 833.03389677 -155.25850283 833.0257963 C-147.39709446 833.02053042 -139.53569072 833.01890811 -131.67428071 833.02021139 C-127.13147795 833.02085502 -122.58869082 833.01983448 -118.04589081 833.01450729 C-113.89409795 833.00967388 -109.74233138 833.00937373 -105.59053736 833.01281387 C-104.0817807 833.01323963 -102.57302246 833.0119434 -101.06426895 833.00882959 C-99.02692496 833.00486648 -96.98957116 833.00755602 -94.95222569 833.01066494 C-93.24861042 833.01009536 -93.24861042 833.01009536 -91.51057869 833.00951427 C-88.98828125 833.13371277 -88.98828125 833.13371277 -87.98828125 834.13371277 C-87.88830306 836.68375367 -87.85387115 839.20677442 -87.86129761 841.75735474 C-87.85973762 842.5653414 -87.85817763 843.37332806 -87.85657036 844.20579916 C-87.85255697 846.93431128 -87.85575132 849.66276852 -87.85888672 852.39128113 C-87.85753282 854.33889804 -87.85575295 856.28651469 -87.85357666 858.23413086 C-87.8490007 863.53982819 -87.85079263 868.84550618 -87.85395575 874.15120387 C-87.85647887 879.69164379 -87.85414191 885.23208199 -87.85256958 890.77252197 C-87.85074759 900.07968952 -87.8531548 909.38684915 -87.85791016 918.6940155 C-87.86335124 929.46796521 -87.86159135 940.24189599 -87.85608375 951.01584524 C-87.85155155 960.24979214 -87.85090265 969.48373333 -87.85352242 978.71768099 C-87.85508481 984.23979888 -87.85528003 989.76190787 -87.85198593 995.28402519 C-87.84910572 1000.47546083 -87.8510857 1005.66687199 -87.85688019 1010.85830498 C-87.85820705 1012.76834574 -87.85781492 1014.67838854 -87.85561752 1016.5884285 C-87.85290309 1019.18667626 -87.85629081 1021.78484452 -87.86129761 1024.38308716 C-87.85906689 1025.14698712 -87.85683616 1025.91088708 -87.85453784 1026.69793552 C-87.8741313 1031.90541286 -87.8741313 1031.90541286 -88.98828125 1034.13371277 C-89.15109463 1035.71360556 -89.26706104 1037.29837018 -89.36328125 1038.88371277 C-89.84139613 1045.1219736 -90.60022421 1051.30731655 -91.42578125 1057.50871277 C-91.54808105 1058.45971863 -91.67038086 1059.41072449 -91.79638672 1060.39054871 C-92.44928143 1065.20108374 -93.30814573 1069.55746817 -94.98828125 1074.13371277 C-95.55043295 1076.25338568 -96.0925586 1078.37848374 -96.61328125 1080.50871277 C-97.00386719 1082.09812683 -97.00386719 1082.09812683 -97.40234375 1083.71965027 C-97.59570312 1084.51629089 -97.7890625 1085.31293152 -97.98828125 1086.13371277 C-98.64828125 1086.13371277 -99.30828125 1086.13371277 -99.98828125 1086.13371277 C-100.14296875 1087.40215027 -100.14296875 1087.40215027 -100.30078125 1088.69621277 C-102.18410945 1098.11285379 -107.65589962 1108.22208133 -112.98828125 1116.13371277 C-113.64828125 1116.13371277 -114.30828125 1116.13371277 -114.98828125 1116.13371277 C-115.07207031 1116.68800964 -115.15585938 1117.24230652 -115.2421875 1117.81340027 C-121.31498074 1136.6994693 -148.23944003 1152.50229955 -165.1171875 1161.33683777 C-169.04190573 1163.33900226 -173.00613325 1165.24856996 -176.98828125 1167.13371277 C-178.16583984 1167.69832214 -178.16583984 1167.69832214 -179.3671875 1168.27433777 C-181.55461701 1169.28457919 -183.75916706 1170.21842497 -185.98828125 1171.13371277 C-186.60896484 1171.39007507 -187.22964844 1171.64643738 -187.86914062 1171.91056824 C-196.94276676 1175.63175114 -205.92547925 1178.89623966 -215.4609375 1181.21183777 C-218.10642403 1181.90323846 -220.60748093 1182.66786264 -223.18359375 1183.55949402 C-228.64057438 1185.41172084 -234.19562599 1186.74808695 -239.80078125 1188.07121277 C-241.4554541 1188.46361145 -241.4554541 1188.46361145 -243.14355469 1188.86393738 C-276.52858534 1196.6989536 -310.4919505 1201.97945372 -344.55908203 1205.74992371 C-348.04596698 1206.14016884 -351.5308347 1206.54552692 -355.015625 1206.95402527 C-365.93095097 1208.22038551 -376.80115598 1209.42821382 -387.78710938 1209.84318542 C-391.51218688 1209.93484167 -391.51218688 1209.93484167 -394.98828125 1211.13371277 C-397.63240056 1211.23200269 -400.2501622 1211.270013 -402.89453125 1211.2631073 C-403.71091064 1211.26485962 -404.52729004 1211.26661194 -405.3684082 1211.26841736 C-408.07505399 1211.2728294 -410.78163477 1211.26990015 -413.48828125 1211.26652527 C-415.36393242 1211.26719849 -417.2395835 1211.26816867 -419.11523438 1211.26942444 C-423.0494876 1211.27090053 -426.98371815 1211.26874968 -430.91796875 1211.26408386 C-435.96897181 1211.25838663 -441.01992174 1211.2616661 -446.07092285 1211.26765633 C-449.94499108 1211.27126431 -453.81904664 1211.27012225 -457.69311523 1211.26752853 C-459.55590827 1211.26685992 -461.41870244 1211.2676854 -463.28149414 1211.27000809 C-465.8817043 1211.27253848 -468.48182758 1211.26868851 -471.08203125 1211.2631073 C-472.24472534 1211.26614365 -472.24472534 1211.26614365 -473.4309082 1211.26924133 C-478.75975281 1211.24797699 -478.75975281 1211.24797699 -480.98828125 1210.13371277 C-482.43268336 1209.94809992 -483.88372437 1209.81277548 -485.3359375 1209.70402527 C-486.23699219 1209.63280457 -487.13804687 1209.56158386 -488.06640625 1209.48820496 C-489.05125 1209.41247253 -490.03609375 1209.33674011 -491.05078125 1209.25871277 C-510.45299355 1207.64588877 -529.68046508 1205.10647562 -548.92578125 1202.19621277 C-549.73950195 1202.07492004 -550.55322266 1201.95362732 -551.39160156 1201.82865906 C-562.4042884 1200.17953701 -573.24299507 1198.10391788 -584.08737183 1195.57466125 C-586.58769444 1194.99466862 -589.09448608 1194.44539389 -591.6015625 1193.89543152 C-618.36111702 1187.8514394 -644.05230253 1178.34315541 -666.98828125 1163.13371277 C-668.82153486 1162.00858287 -670.65486932 1160.88358468 -672.48828125 1159.75871277 C-684.85698521 1151.87652305 -695.60265454 1141.54898731 -706.05078125 1131.32121277 C-706.6236084 1130.76981628 -707.19643555 1130.2184198 -707.78662109 1129.65031433 C-710.62961603 1126.83057322 -712.06525132 1124.96211543 -712.98828125 1121.13371277 C-713.58640625 1120.84496277 -714.18453125 1120.55621277 -714.80078125 1120.25871277 C-717.99870082 1118.61406842 -719.08180793 1116.16164098 -720.98828125 1113.13371277 C-721.93936353 1111.89892697 -722.89823331 1110.67011471 -723.86328125 1109.44621277 C-727.49049222 1104.64015824 -730.19244789 1099.45180153 -732.98828125 1094.13371277 C-733.64616151 1092.93844681 -734.30642991 1091.74449301 -734.96875 1090.55168152 C-740.65098061 1080.24954456 -745.09579431 1069.79739369 -748.3125 1058.45011902 C-748.82131657 1056.70602521 -749.38414077 1054.97755163 -749.97265625 1053.25871277 C-751.01495771 1050.05163135 -751.80912803 1046.86011473 -752.55078125 1043.57121277 C-752.79957031 1042.47679871 -753.04835938 1041.38238464 -753.3046875 1040.25480652 C-758.27267164 1017.57241037 -757.28206733 993.50551904 -757.23507154 970.388749 C-757.22837103 965.98051757 -757.23346916 961.5722955 -757.23695374 957.1640625 C-757.24194513 948.57218878 -757.23641943 939.98035415 -757.22710343 931.38848531 C-757.216622 921.35448066 -757.21679215 911.32048404 -757.21727601 901.28647495 C-757.21777444 883.37348552 -757.20867293 865.46051407 -757.1940918 847.54753113 C-757.17998981 830.21386895 -757.17292204 812.88022256 -757.17358398 795.54655457 C-757.17362394 794.47738709 -757.1736639 793.40821962 -757.17370506 792.30665313 C-757.17374542 791.23922546 -757.17378577 790.17179778 -757.17382735 789.07202381 C-757.17451896 769.25620819 -757.16861956 749.44039919 -757.15967413 729.62458573 C-757.15667242 722.64908108 -757.15559635 715.67357766 -757.15514183 708.69807243 C-757.15445632 700.19139811 -757.14994455 691.68473499 -757.14080902 683.17806541 C-757.13622626 678.8475183 -757.13313239 674.5169854 -757.13440323 670.1864357 C-757.14545407 620.93016061 -757.14545407 620.93016061 -753.58203125 609.27043152 C-752.80603874 606.47787953 -752.22439972 603.65427831 -751.61328125 600.82121277 C-750.46183251 595.72193978 -748.93925796 591.04429103 -746.85546875 586.25480652 C-746.02670261 584.22768934 -745.46266894 582.26845735 -744.98828125 580.13371277 C-744.32828125 580.13371277 -743.66828125 580.13371277 -742.98828125 580.13371277 C-742.89675781 579.46984558 -742.80523438 578.80597839 -742.7109375 578.12199402 C-741.77464846 574.25031232 -740.15346382 570.89631828 -738.42578125 567.32121277 C-738.09642578 566.62834167 -737.76707031 565.93547058 -737.42773438 565.22160339 C-736.61955874 563.52326329 -735.80459748 561.82815508 -734.98828125 560.13371277 C-734.32828125 560.13371277 -733.66828125 560.13371277 -732.98828125 560.13371277 C-732.78203125 559.32933777 -732.57578125 558.52496277 -732.36328125 557.69621277 C-730.05789693 551.72317157 -726.52712336 546.62612171 -721.98828125 542.13371277 C-720.81525573 540.63868025 -719.64966833 539.13780424 -718.48828125 537.63371277 C-713.79855388 531.86233493 -708.67008069 526.58979137 -703.42578125 521.32121277 C-702.22115234 520.10304871 -702.22115234 520.10304871 -700.9921875 518.86027527 C-696.25945651 514.15082001 -691.42532808 509.99851714 -685.98828125 506.13371277 C-684.78425991 505.23299821 -683.58239526 504.32939279 -682.3828125 503.42277527 C-666.68203459 491.70079844 -650.24690934 482.37007193 -631.98828125 475.13371277 C-630.48394531 474.51882996 -630.48394531 474.51882996 -628.94921875 473.89152527 C-620.13340644 470.36957544 -611.14292319 467.6156422 -601.98828125 465.13371277 C-601.09004639 464.88347351 -600.19181152 464.63323425 -599.26635742 464.37541199 C-591.69246656 462.35612453 -584.21723937 461.28565137 -576.42578125 460.50871277 C-575.28431641 460.38754089 -574.14285156 460.26636902 -572.96679688 460.14152527 C-569.64167533 459.79211215 -566.31625719 459.45486348 -562.98828125 459.13371277 C-561.85892374 459.01133478 -561.85892374 459.01133478 -560.70675093 458.8864845 C-553.32912884 458.13427027 -546.02798292 457.98910066 -538.61607361 457.99568176 C-537.31011579 457.99286048 -536.00415796 457.9900392 -534.65862566 457.98713243 C-531.06236377 457.97944398 -527.46612104 457.9777635 -523.86985195 457.9770813 C-519.97925362 457.97522966 -516.08866619 457.96761574 -512.19807434 457.96060181 C-505.46100439 457.94910867 -498.7239369 457.94084696 -491.98686028 457.93448257 C-481.31345369 457.9241099 -470.64007773 457.90353229 -459.96669006 457.88136292 C-456.30626975 457.87388397 -452.6458493 457.86647003 -448.98542881 457.85907555 C-448.07069881 457.85722498 -447.15596882 457.85537441 -446.21351973 457.85346777 C-435.81349205 457.83256387 -425.41346098 457.8137272 -415.01342773 457.79582214 C-413.58852168 457.79336487 -413.58852168 457.79336487 -412.13482965 457.79085796 C-396.77569883 457.7646298 -381.41656564 457.74595317 -366.05742197 457.72923024 C-350.24352679 457.71173596 -334.42967802 457.6828116 -318.61581999 457.64434087 C-308.88869375 457.62109472 -299.16164326 457.60696029 -289.43448902 457.60501324 C-282.74895616 457.60288426 -276.06349822 457.58979389 -269.37799912 457.56853391 C-265.53677747 457.55665104 -261.69570434 457.54925347 -257.85446548 457.55524635 C-234.64563754 457.58660274 -211.28979233 457.22472721 -188.98828125 450.13371277 C-187.94671875 449.83722839 -186.90515625 449.54074402 -185.83203125 449.23527527 C-171.98253009 445.22440488 -158.7897012 439.92897232 -146.19921875 432.91496277 C-143.6552978 431.50373655 -141.11374765 430.19356079 -138.48828125 428.94621277 C-135.2864016 427.28809652 -132.56995984 425.48411577 -129.69140625 423.34465027 C-127.53465785 421.81118237 -125.23426808 420.57036837 -122.92578125 419.28215027 C-108.45544563 410.70497552 -95.77323785 399.03108549 -83.98828125 387.13371277 C-81.52656269 384.6643253 -79.06009927 382.20345245 -76.55859375 379.77433777 C-70.32318141 373.67837555 -64.8268063 367.39150034 -59.98828125 360.13371277 C-59.32828125 360.13371277 -58.66828125 360.13371277 -57.98828125 360.13371277 C-57.74078125 359.41183777 -57.49328125 358.68996277 -57.23828125 357.94621277 C-55.87691322 354.88313469 -54.09844848 352.72036938 -51.98828125 350.13371277 C-51.65828125 349.14371277 -51.32828125 348.15371277 -50.98828125 347.13371277 C-50.55902344 346.72507996 -50.12976562 346.31644714 -49.6875 345.89543152 C-47.15455301 343.26931866 -45.55813817 340.1145398 -43.80078125 336.94621277 C-43.43275391 336.29201355 -43.06472656 335.63781433 -42.68554688 334.96379089 C-41.78203465 333.35624316 -40.88455715 331.74530626 -39.98828125 330.13371277 C-39.32828125 330.13371277 -38.66828125 330.13371277 -37.98828125 330.13371277 C-37.85679687 329.11470886 -37.85679687 329.11470886 -37.72265625 328.07511902 C-36.80329319 324.39277653 -35.08663726 321.34880121 -33.23828125 318.07121277 C-28.13566735 308.75245604 -24.21271723 299.24389273 -20.98046875 289.11808777 C-20.21840925 286.8259088 -19.40225927 284.59505951 -18.53125 282.34465027 C-16.87741597 277.96892419 -15.61062407 273.53138986 -14.42578125 269.00871277 C-14.20889648 268.18774109 -13.99201172 267.36676941 -13.76855469 266.5209198 C-12.16203179 260.24962974 -11.09074143 254.06101792 -10.34765625 247.62590027 C-9.98828125 245.13371277 -9.98828125 245.13371277 -8.98828125 244.13371277 C-8.09764007 237.78837204 -7.83893583 231.57442562 -7.83679199 225.17460632 C-7.83255958 224.21207081 -7.82832717 223.2495353 -7.8239665 222.25783205 C-7.8110202 219.05434789 -7.80493448 215.85088857 -7.79882812 212.64738464 C-7.79087981 210.34228872 -7.78249139 208.03719429 -7.7736969 205.73210144 C-7.75568444 200.78035922 -7.74065352 195.82862016 -7.72792053 190.87686157 C-7.70766686 183.05429482 -7.68002241 175.23176487 -7.65124512 167.40922546 C-7.61147433 156.45085993 -7.57463565 145.492488 -7.54052734 134.53410339 C-7.53836454 133.83965136 -7.53620174 133.14519933 -7.5339734 132.4297033 C-7.51644012 126.79086889 -7.49908375 121.15203394 -7.48177052 115.51319885 C-7.46659953 110.57225014 -7.4513697 105.63130161 -7.43603516 100.69035339 C-7.43387629 99.99432634 -7.43171742 99.29829929 -7.42949313 98.58118051 C-7.39342914 86.99260029 -7.35344608 75.40403741 -7.31073236 63.81547976 C-7.28232253 56.03074601 -7.25875003 48.24601682 -7.23880768 40.46125698 C-7.22546683 35.63419772 -7.20805329 30.80715956 -7.18949699 25.9801178 C-7.18171069 23.73263072 -7.17565447 21.48513693 -7.17140388 19.23764038 C-7.16540023 16.18404061 -7.1533739 13.13052399 -7.13977051 10.07695007 C-7.13932653 8.7248051 -7.13932653 8.7248051 -7.13887358 7.34534407 C-7.09645563 0.25882313 -7.00239068 0.01030166 0 0 Z M-279.98828125 939.13371277 C-280.53097656 939.67125183 -281.07367187 940.20879089 -281.6328125 940.76261902 C-287.10073765 946.46879799 -290.05527741 952.85453052 -292.98828125 960.13371277 C-293.50261719 961.2996698 -293.50261719 961.2996698 -294.02734375 962.48918152 C-297.79746483 972.44300587 -297.07792214 985.82032386 -294.98828125 996.13371277 C-294.32828125 996.13371277 -293.66828125 996.13371277 -292.98828125 996.13371277 C-292.89160156 997.31449402 -292.79492188 998.49527527 -292.6953125 999.71183777 C-291.11050124 1012.16040703 -281.13273707 1022.33473027 -271.98828125 1030.13371277 C-263.00910937 1036.96630137 -251.28138418 1041.56905762 -239.98828125 1042.13371277 C-239.24707031 1042.17238464 -238.50585938 1042.21105652 -237.7421875 1042.25090027 C-220.31364808 1042.7528422 -205.39495771 1037.42426531 -192.40234375 1025.82511902 C-187.32671734 1021.28284822 -187.32671734 1021.28284822 -184.98828125 1015.13371277 C-184.32828125 1015.13371277 -183.66828125 1015.13371277 -182.98828125 1015.13371277 C-180.62917772 1010.86998467 -180.62917772 1010.86998467 -179.98828125 1006.13371277 C-179.32828125 1006.13371277 -178.66828125 1006.13371277 -177.98828125 1006.13371277 C-174.51437675 994.41938364 -173.25353952 983.33559308 -172.98828125 971.13371277 C-173.64828125 971.13371277 -174.30828125 971.13371277 -174.98828125 971.13371277 C-175.03726563 970.48144714 -175.08625 969.82918152 -175.13671875 969.15715027 C-175.56070354 964.20091424 -176.14493698 959.80351826 -177.98828125 955.13371277 C-178.64828125 955.13371277 -179.30828125 955.13371277 -179.98828125 955.13371277 C-180.11203125 954.39121277 -180.23578125 953.64871277 -180.36328125 952.88371277 C-180.94314826 950.33229792 -181.72536864 948.40695547 -182.98828125 946.13371277 C-183.64828125 946.13371277 -184.30828125 946.13371277 -184.98828125 946.13371277 C-185.22804688 945.40925964 -185.4678125 944.68480652 -185.71484375 943.93840027 C-190.40875989 933.60026594 -202.02390619 926.99985457 -212.1015625 922.85246277 C-218.03042047 920.74308509 -223.7018278 919.39098755 -229.98828125 919.13371277 C-230.75398438 919.09375183 -231.5196875 919.05379089 -232.30859375 919.01261902 C-251.30287178 918.4934828 -267.08539533 925.21217796 -279.98828125 939.13371277 Z " fill="#FEBF06" transform="translate(1403.98828125,581.8662872314453)"/>
</svg>
