<?xml version="1.0" encoding="UTF-8"?>
<svg version="1.1" xmlns="http://www.w3.org/2000/svg" width="1024" height="724">
<path d="M0 0 C16.58773988 -0.401126 30.02919939 3.95713883 42.43359375 15.12109375 C63.31882786 37.75757419 66.59389798 71.50250752 65.5859375 100.98535156 C64.55017176 122.30486299 63.20731476 145.79993072 56.43359375 166.12109375 C57.10221436 166.29342529 57.77083496 166.46575684 58.4597168 166.64331055 C65.18953395 168.42191766 71.71801929 170.52277964 78.24609375 172.93359375 C79.20749268 173.28760254 80.1688916 173.64161133 81.15942383 174.00634766 C118.35893521 187.82143452 159.96076347 208.93123301 177.55859375 246.55859375 C183.30995292 260.07655212 182.83066787 273.5033107 177.43359375 287.12109375 C176.94246094 288.37792969 176.94246094 288.37792969 176.44140625 289.66015625 C166.8169662 311.22733213 146.006642 326.24973503 126.43359375 338.12109375 C125.34820313 338.78753906 124.2628125 339.45398438 123.14453125 340.140625 C109.42818814 348.28369989 94.76701969 354.36408567 79.87109375 359.99609375 C78.89672363 360.36532959 77.92235352 360.73456543 76.91845703 361.11499023 C70.50844485 363.48937241 64.05640185 365.43170891 57.43359375 367.12109375 C57.59964111 367.93336426 57.76568848 368.74563477 57.93676758 369.58251953 C66.78948135 413.40084263 76.23715443 468.85795263 50.43359375 509.12109375 C45.03002453 516.44137681 38.51156211 522.83948508 30.43359375 527.12109375 C29.72460938 527.5078125 29.015625 527.89453125 28.28515625 528.29296875 C13.44386695 535.28306405 -3.05889261 533.17225403 -18.56640625 530.12109375 C-19.63761719 529.91355469 -20.70882813 529.70601562 -21.8125 529.4921875 C-29.86070749 527.59075363 -37.21540775 523.81008107 -44.56640625 520.12109375 C-45.69755859 519.55745117 -45.69755859 519.55745117 -46.8515625 518.98242188 C-72.56074579 506.08547573 -95.53423827 488.68707695 -116.56640625 469.12109375 C-120.54436768 471.94183003 -124.33594599 474.75575347 -127.69140625 478.30859375 C-154.16620031 505.56382392 -197.68779371 532.24519155 -236.33935547 533.54296875 C-249.92091731 533.64100845 -264.05397137 530.24509383 -274.56640625 521.12109375 C-274.56640625 520.46109375 -274.56640625 519.80109375 -274.56640625 519.12109375 C-275.14390625 518.91484375 -275.72140625 518.70859375 -276.31640625 518.49609375 C-279.37100334 516.62939553 -280.66057053 514.10690305 -282.56640625 511.12109375 C-283.22640625 510.79109375 -283.88640625 510.46109375 -284.56640625 510.12109375 C-301.77535216 481.96022863 -302.15891612 447.16286515 -299.37890625 415.24609375 C-299.28394867 414.12386917 -299.28394867 414.12386917 -299.18707275 412.97897339 C-297.85099513 397.47261851 -295.41111302 382.21971339 -291.56640625 367.12109375 C-292.75105469 366.89679688 -293.93570313 366.6725 -295.15625 366.44140625 C-302.0136477 364.91158633 -308.55200741 362.42775769 -315.12890625 359.99609375 C-315.7959256 359.75087982 -316.46294495 359.50566589 -317.150177 359.25302124 C-327.32453112 355.4991107 -337.0535598 351.33920139 -346.56640625 346.12109375 C-347.86424884 345.4434708 -349.16377825 344.7690703 -350.46484375 344.09765625 C-363.08667918 337.55259479 -374.44248119 329.92876386 -385.56640625 321.12109375 C-386.51773438 320.40308594 -387.4690625 319.68507813 -388.44921875 318.9453125 C-389.14789063 318.34332031 -389.8465625 317.74132812 -390.56640625 317.12109375 C-390.56640625 316.46109375 -390.56640625 315.80109375 -390.56640625 315.12109375 C-391.16066406 314.85941406 -391.75492188 314.59773438 -392.3671875 314.328125 C-403.42830373 308.25728146 -410.88397463 292.7429006 -414.69140625 281.21484375 C-418.62051799 267.32262725 -416.86404812 253.34944903 -410.0859375 240.6328125 C-407.22196787 235.89879587 -403.94819839 231.49469458 -400.56640625 227.12109375 C-400.08816406 226.49847656 -399.60992187 225.87585938 -399.1171875 225.234375 C-396.56926685 222.04344598 -393.78285406 219.6138408 -390.56640625 217.12109375 C-389.83164062 216.36441406 -389.096875 215.60773438 -388.33984375 214.828125 C-385.29879315 211.85988829 -382.1215591 209.36570956 -378.69140625 206.87109375 C-377.70901978 206.15602661 -377.70901978 206.15602661 -376.70678711 205.42651367 C-352.22598319 187.86248046 -323.90470538 176.14957942 -295.42626953 166.81030273 C-293.57914371 166.27294484 -293.57914371 166.27294484 -292.56640625 165.12109375 C-292.79954416 163.48702631 -293.11322014 161.86441123 -293.45703125 160.25 C-293.77764526 158.69780762 -293.77764526 158.69780762 -294.10473633 157.11425781 C-294.45701294 155.4160791 -294.45701294 155.4160791 -294.81640625 153.68359375 C-303.08955773 111.63584092 -308.35630391 60.19385833 -283.76171875 22.34375 C-275.17781003 10.78574842 -263.67246428 3.63855041 -249.56640625 1.12109375 C-236.06504095 0.13564224 -223.41789068 0.81497722 -210.56640625 5.12109375 C-209.91655762 5.33540039 -209.26670898 5.54970703 -208.59716797 5.77050781 C-174.13294249 17.31178147 -145.07995321 39.88184653 -118.56640625 64.12109375 C-113.94170336 60.82696181 -109.6286803 57.3344283 -105.44140625 53.49609375 C-102.78690369 51.06551395 -100.22678212 48.74786167 -97.19140625 46.80859375 C-94.58712755 45.2795485 -94.58712755 45.2795485 -92.8984375 43.375 C-89.73403565 40.31660826 -86.23140928 37.88697548 -82.62890625 35.37109375 C-81.87182373 34.84032227 -81.11474121 34.30955078 -80.3347168 33.76269531 C-73.89233709 29.28163061 -67.32505058 25.1125512 -60.56640625 21.12109375 C-59.50679687 20.46625 -58.4471875 19.81140625 -57.35546875 19.13671875 C-40.14996831 8.78935485 -20.18907678 0.95260484 0 0 Z M-96.56640625 84.12109375 C-95.22591908 87.05340944 -93.71822139 89.28866488 -91.56640625 91.68359375 C-90.94636719 92.37839844 -90.32632812 93.07320312 -89.6875 93.7890625 C-88.1843223 95.44172748 -86.67598102 97.08970266 -85.1640625 98.734375 C-79.70104447 104.68561344 -74.55464719 110.76999413 -69.56640625 117.12109375 C-68.63031568 118.29019242 -67.69271272 119.45808113 -66.75390625 120.625 C-65.9956958 121.56811035 -65.9956958 121.56811035 -65.22216797 122.53027344 C-64.25046976 123.73846471 -63.27820562 124.94620122 -62.30517578 126.15332031 C-61.83708496 126.73694336 -61.36899414 127.32056641 -60.88671875 127.921875 C-60.36456787 128.54779541 -59.84241699 129.17371582 -59.30444336 129.81860352 C-57.56640625 132.12109375 -57.56640625 132.12109375 -55.70532227 135.35913086 C-52.41130752 140.82515262 -49.35466696 144.91514867 -43.01367188 146.72338867 C-37.47783862 147.90895458 -31.87906618 148.47871067 -26.25390625 149.05859375 C-23.22470502 149.43498214 -20.19849466 149.83124881 -17.171875 150.22779846 C-15.16135243 150.48933159 -13.14994057 150.74411951 -11.13769531 150.99205017 C-2.46252659 152.07022079 6.02574899 153.67836264 14.55859375 155.55859375 C16.83191855 156.05780516 19.10534412 156.55655808 21.37890625 157.0546875 C22.29172363 157.26150146 23.20454102 157.46831543 24.14501953 157.68139648 C26.53620835 158.21543196 26.53620835 158.21543196 29.43359375 158.12109375 C36.88242709 122.84311658 45.90355876 72.76235324 25.49609375 40.12109375 C21.54683378 34.64438463 17.66976344 30.76609687 10.74609375 29.40234375 C-29.68366799 24.48521057 -68.83066431 58.67690884 -96.56640625 84.12109375 Z M-256.56640625 34.62109375 C-260.82082998 38.95329488 -263.38650474 43.48900619 -265.56640625 49.12109375 C-266.10201172 50.44947266 -266.10201172 50.44947266 -266.6484375 51.8046875 C-278.55720516 85.39008842 -271.57040504 124.27464213 -264.56640625 158.12109375 C-258.72664043 157.52287384 -253.10768049 156.41542478 -247.37695312 155.15332031 C-232.7746697 151.94530358 -218.16631483 149.64769614 -203.33691406 147.77050781 C-202.59004333 147.67390869 -201.84317261 147.57730957 -201.07366943 147.4777832 C-199.04274064 147.21628973 -197.01065998 146.9637869 -194.97851562 146.71191406 C-189.82822458 145.82012068 -186.64630777 144.83138499 -183.515625 140.55859375 C-182.98582031 139.84872314 -182.45601563 139.13885254 -181.91015625 138.4074707 C-181.36359375 137.65296631 -180.81703125 136.89846191 -180.25390625 136.12109375 C-179.10236041 134.57232308 -177.95001927 133.02414342 -176.796875 131.4765625 C-176.24306152 130.72681152 -175.68924805 129.97706055 -175.11865234 129.20458984 C-171.13213851 123.85370763 -166.91410051 118.68132679 -162.56640625 113.62109375 C-160.35817457 111.39439783 -160.35817457 111.39439783 -160.56640625 109.12109375 C-159.90640625 109.12109375 -159.24640625 109.12109375 -158.56640625 109.12109375 C-157.19428324 107.58914103 -155.89486165 105.99188294 -154.62890625 104.37109375 C-150.63869172 99.36058007 -146.44542132 94.63819674 -142.02172852 90.00683594 C-139.35988128 87.4943883 -139.35988128 87.4943883 -138.56640625 84.12109375 C-140.27972614 82.31042001 -140.27972614 82.31042001 -142.44140625 80.49609375 C-143.16070312 79.86445313 -143.88 79.2328125 -144.62109375 78.58203125 C-146.42747558 76.92092252 -146.42747558 76.92092252 -148.56640625 77.12109375 C-148.56640625 76.46109375 -148.56640625 75.80109375 -148.56640625 75.12109375 C-150.5701485 73.36705798 -152.57905298 71.73580266 -154.69140625 70.12109375 C-155.32232178 69.63342529 -155.9532373 69.14575684 -156.60327148 68.64331055 C-167.21866514 60.49171063 -178.05477815 52.96815879 -189.56640625 46.12109375 C-190.57574219 45.50234375 -191.58507812 44.88359375 -192.625 44.24609375 C-208.94898167 34.39651313 -239.10501628 20.26330632 -256.56640625 34.62109375 Z M-120.6328125 107.921875 C-125.79731701 113.11870817 -130.61682374 118.43904579 -135.18359375 124.16796875 C-136.9507175 126.35804344 -138.73864713 128.50546125 -140.57421875 130.63671875 C-141.08154541 131.22670654 -141.58887207 131.81669434 -142.11157227 132.42456055 C-143.10842948 133.58020918 -144.10881947 134.73282163 -145.11303711 135.88208008 C-147.74250828 138.61051363 -147.74250828 138.61051363 -148.56640625 142.12109375 C-128.10640625 142.12109375 -107.64640625 142.12109375 -86.56640625 142.12109375 C-87.88640625 139.81109375 -89.20640625 137.50109375 -90.56640625 135.12109375 C-91.22640625 135.12109375 -91.88640625 135.12109375 -92.56640625 135.12109375 C-92.83662598 134.53320068 -93.1068457 133.94530762 -93.38525391 133.33959961 C-94.55897915 131.13504375 -95.81522511 129.49172873 -97.46484375 127.625 C-98.026875 126.98369141 -98.58890625 126.34238281 -99.16796875 125.68164062 C-100.04582031 124.69260742 -100.04582031 124.69260742 -100.94140625 123.68359375 C-102.09592453 122.37316396 -103.24958945 121.06198178 -104.40234375 119.75 C-104.94938965 119.12778564 -105.49643555 118.50557129 -106.06005859 117.86450195 C-107.95915753 115.66653348 -109.7598923 113.39536578 -111.56640625 111.12109375 C-114.0869667 108.34957163 -114.0869667 108.34957163 -116.56640625 106.12109375 C-118.77193269 105.90209713 -118.77193269 105.90209713 -120.6328125 107.921875 Z M-154.33056641 171.02050781 C-156.99802067 171.10342551 -159.57450843 171.0584582 -162.234375 170.89453125 C-166.47811889 170.86770041 -168.80516033 171.11570087 -172.56640625 173.12109375 C-177.68606784 178.41749042 -181.29199729 184.87608613 -184.91845703 191.23730469 C-186.4589763 193.93309929 -188.05534943 196.58160575 -189.6875 199.22265625 C-192.719961 204.14716557 -195.65459928 209.12450191 -198.56640625 214.12109375 C-199.07977539 214.99830078 -199.59314453 215.87550781 -200.12207031 216.77929688 C-206.34110297 227.43059368 -212.26874495 238.14857408 -217.63867188 249.25244141 C-218.60228432 251.19335973 -219.61557914 253.1008021 -220.64453125 255.0078125 C-220.97799561 255.63695557 -221.31145996 256.26609863 -221.6550293 256.91430664 C-222.56523211 258.62632762 -223.48914441 260.3310402 -224.4140625 262.03515625 C-226.05267836 266.42331399 -225.2092433 269.54237837 -223.46582031 273.82397461 C-223.00916992 274.73542236 -222.55251953 275.64687012 -222.08203125 276.5859375 C-221.56592285 277.62121582 -221.04981445 278.65649414 -220.51806641 279.72314453 C-219.95651855 280.82384277 -219.3949707 281.92454102 -218.81640625 283.05859375 C-218.23294434 284.21085449 -217.64948242 285.36311523 -217.04833984 286.55029297 C-205.17177252 309.80258929 -191.79542712 332.27854288 -177.08203125 353.8515625 C-175.56640625 356.12109375 -175.56640625 356.12109375 -174.1640625 358.875 C-172.7876848 361.28896654 -172.7876848 361.28896654 -170.421875 361.79296875 C-169.54144531 361.81875 -168.66101563 361.84453125 -167.75390625 361.87109375 C-166.65433594 361.91621094 -165.55476563 361.96132813 -164.421875 362.0078125 C-163.14957031 362.04519531 -161.87726563 362.08257812 -160.56640625 362.12109375 C-159.18719064 362.20605639 -157.80828704 362.29619172 -156.4296875 362.390625 C-138.59083323 363.52411024 -120.67113662 363.39800818 -102.80583191 363.17530823 C-97.63634482 363.11793451 -92.48584156 363.15638048 -87.31860352 363.31350708 C-72.9768997 364.19106503 -72.9768997 364.19106503 -60.09716797 359.27294922 C-55.82379882 354.62547372 -53.14805915 349.36389471 -50.66601562 343.6015625 C-49.18241486 340.25489648 -47.32177476 337.37022506 -45.31640625 334.30859375 C-44.06491043 332.24700105 -42.81490087 330.18450535 -41.56640625 328.12109375 C-40.90898438 327.06148437 -40.2515625 326.001875 -39.57421875 324.91015625 C-32.62514984 313.636504 -26.41149761 301.95826721 -20.22607422 290.25292969 C-18.70944647 287.39101432 -17.17266839 284.54085921 -15.6328125 281.69140625 C-14.7965041 280.10635032 -13.96174498 278.5204755 -13.12890625 276.93359375 C-12.74541016 276.23451904 -12.36191406 275.53544434 -11.96679688 274.81518555 C-9.52729786 270.06970695 -9.09492075 267.2393042 -10.56640625 262.12109375 C-12.28670832 258.08938082 -14.2451117 254.20319543 -16.25390625 250.30859375 C-16.77146484 249.27927734 -17.28902344 248.24996094 -17.82226562 247.18945312 C-20.76313826 241.39926678 -23.8916367 235.78165803 -27.27807617 230.2409668 C-28.73231567 227.84809934 -30.07233088 225.40986516 -31.37890625 222.93359375 C-45.09842305 193.57138924 -45.09842305 193.57138924 -65.56640625 172.12109375 C-75.32288468 170.63019684 -85.3716574 170.8206552 -95.21850586 170.6184082 C-98.12558452 170.55866202 -101.0325092 170.49368427 -103.93945312 170.42773438 C-105.81639959 170.38641514 -107.69335255 170.34538962 -109.5703125 170.3046875 C-110.85199059 170.27658241 -110.85199059 170.27658241 -112.15956116 170.24790955 C-126.24163135 169.96113807 -140.26297975 170.34287471 -154.33056641 171.02050781 Z M-25.56640625 177.12109375 C-22.08919607 183.48513473 -18.44434652 189.72879664 -14.69140625 195.93359375 C-13.62848076 197.7002649 -12.56597868 199.46719088 -11.50390625 201.234375 C-10.99730469 202.07693848 -10.49070312 202.91950195 -9.96875 203.78759766 C-5.24154351 211.65365609 -0.75912146 219.5167556 3.171875 227.8203125 C4.22162233 230.25227886 4.22162233 230.25227886 6.43359375 231.12109375 C10.76084225 220.16144284 14.86564901 209.1663233 18.43359375 197.93359375 C18.73595947 196.98403809 19.0383252 196.03448242 19.34985352 195.05615234 C20.85897015 190.66812094 20.85897015 190.66812094 21.43359375 186.12109375 C12.1424065 183.83178418 2.83221183 181.73691949 -6.56640625 179.93359375 C-7.85454224 179.68367676 -7.85454224 179.68367676 -9.16870117 179.42871094 C-14.6222786 178.40059047 -20.04394417 177.67222656 -25.56640625 177.12109375 Z M-240.81640625 182.18359375 C-241.97547485 182.42674316 -241.97547485 182.42674316 -243.15795898 182.67480469 C-247.68833342 183.65001464 -252.12472584 184.79916506 -256.56640625 186.12109375 C-255.2175952 192.66679443 -253.45856199 198.91846811 -251.31640625 205.24609375 C-251.01210693 206.15319092 -250.70780762 207.06028809 -250.39428711 207.99487305 C-247.73459103 215.82493551 -244.76419597 223.4955952 -241.56640625 231.12109375 C-238.51276423 228.46451974 -236.70338672 225.17107102 -234.75390625 221.68359375 C-234.40134766 221.06105713 -234.04878906 220.43852051 -233.68554688 219.79711914 C-231.52168011 215.94015427 -229.50216315 212.03617643 -227.56640625 208.05859375 C-224.89986075 202.61710659 -221.82103453 197.52068929 -218.6015625 192.390625 C-215.47478605 187.36737761 -212.52180003 182.24685484 -209.56640625 177.12109375 C-219.84152422 177.12109375 -230.79206287 180.07445999 -240.81640625 182.18359375 Z M49.43359375 194.12109375 C46.3636115 200.7808955 44.24566967 207.71277411 41.99609375 214.68359375 C37.18497677 229.45191916 31.5472078 243.81680722 25.60351562 258.16210938 C23.14203482 263.5026626 23.14203482 263.5026626 22.7980957 269.16552734 C23.08644287 269.77734863 23.37479004 270.38916992 23.671875 271.01953125 C24.15309814 272.08953369 24.15309814 272.08953369 24.64404297 273.18115234 C25.00771973 273.94508301 25.37139648 274.70901367 25.74609375 275.49609375 C26.50944222 277.20253942 27.26836361 278.91097061 28.0234375 280.62109375 C28.42288574 281.51957031 28.82233398 282.41804688 29.23388672 283.34375 C31.2465439 288.00308824 33.03520248 292.74147513 34.80859375 297.49609375 C35.1737207 298.47368652 35.53884766 299.4512793 35.91503906 300.45849609 C40.6501625 313.26457411 45.04121118 326.19434642 49.43359375 339.12109375 C56.89283929 337.3766894 64.10015458 335.38524973 71.24609375 332.62109375 C72.12845703 332.28142578 73.01082031 331.94175781 73.91992188 331.59179688 C98.64640845 321.85736953 121.02049692 309.4659177 140.43359375 291.12109375 C141.02011719 290.58226562 141.60664062 290.0434375 142.2109375 289.48828125 C143.65579644 288.17831521 143.65579644 288.17831521 143.43359375 286.12109375 C144.09359375 286.12109375 144.75359375 286.12109375 145.43359375 286.12109375 C152.07515412 275.31985605 152.07515412 275.31985605 152.87109375 263.05859375 C150.13721334 252.58943993 144.16819446 245.48738014 136.43359375 238.12109375 C135.77359375 238.12109375 135.11359375 238.12109375 134.43359375 238.12109375 C134.10359375 237.13109375 133.77359375 236.14109375 133.43359375 235.12109375 C120.94197269 224.23805166 105.35638174 216.09591531 90.43359375 209.12109375 C89.81081543 208.82638184 89.18803711 208.53166992 88.54638672 208.22802734 C69.57235813 198.55547359 69.57235813 198.55547359 49.43359375 194.12109375 Z M-373.9375 240.35546875 C-381.09208122 247.88213072 -387.51676564 255.83804768 -388.00390625 266.49609375 C-387.62390911 278.57339423 -379.58962786 287.6420412 -371.2890625 295.70703125 C-351.65555011 313.11522444 -327.67963308 324.5000146 -303.31640625 333.62109375 C-301.58414795 334.27174805 -301.58414795 334.27174805 -299.81689453 334.93554688 C-294.38849177 336.91993586 -289.34237264 338.6536745 -283.56640625 339.12109375 C-283.40148682 338.55527588 -283.23656738 337.98945801 -283.06665039 337.40649414 C-279.65791711 325.78607701 -276.03066814 314.2715386 -271.94140625 302.87109375 C-271.58183838 301.86183838 -271.22227051 300.85258301 -270.85180664 299.81274414 C-267.97722139 291.90093975 -264.63612854 284.27012038 -260.87890625 276.73828125 C-260.44578125 275.83335937 -260.01265625 274.9284375 -259.56640625 273.99609375 C-259.11265625 273.08601563 -258.65890625 272.1759375 -258.19140625 271.23828125 C-257.26164674 266.60110572 -258.79530208 263.40973168 -260.56640625 259.12109375 C-260.92186523 258.25033203 -261.27732422 257.37957031 -261.64355469 256.48242188 C-262.44985424 254.53730024 -263.26341239 252.5951775 -264.08276367 250.65551758 C-271.88636005 232.14984617 -278.22514469 213.16615273 -284.56640625 194.12109375 C-313.0258672 194.12109375 -353.95635538 221.32580721 -373.9375 240.35546875 Z M-241.56640625 302.12109375 C-245.8047666 312.49183173 -249.59144738 322.94793693 -253.00390625 333.62109375 C-253.35775391 334.72509521 -253.71160156 335.82909668 -254.07617188 336.96655273 C-255.84898423 341.95072695 -255.84898423 341.95072695 -256.56640625 347.12109375 C-241.01272775 351.14747307 -225.54222151 354.33667286 -209.56640625 356.12109375 C-212.02311846 351.52291116 -214.55501213 347.04883371 -217.50390625 342.74609375 C-220.23412751 338.72005682 -222.57150796 334.56927844 -224.86328125 330.28125 C-226.90514426 326.49256381 -229.013184 322.7438824 -231.12890625 318.99609375 C-231.89983716 317.62896127 -232.67067297 316.26177516 -233.44140625 314.89453125 C-233.80492187 314.24967773 -234.1684375 313.60482422 -234.54296875 312.94042969 C-236.56672748 309.34285096 -238.56948147 305.733621 -240.56640625 302.12109375 C-240.89640625 302.12109375 -241.22640625 302.12109375 -241.56640625 302.12109375 Z M5.43359375 302.12109375 C4.8509375 303.17683594 4.26828125 304.23257812 3.66796875 305.3203125 C-14.98150005 339.04602268 -14.98150005 339.04602268 -24.01953125 352.69921875 C-25.65611992 354.78260022 -25.65611992 354.78260022 -25.56640625 356.12109375 C-13.08497002 355.13050357 -0.84042382 352.68858085 11.37109375 349.99609375 C12.14646484 349.82553467 12.92183594 349.65497559 13.72070312 349.47924805 C17.68348377 348.61686152 17.68348377 348.61686152 21.43359375 347.12109375 C20.0847827 340.57539307 18.32574949 334.32371939 16.18359375 327.99609375 C15.87929443 327.08899658 15.57499512 326.18189941 15.26147461 325.24731445 C12.60177853 317.41725199 9.63138347 309.7465923 6.43359375 302.12109375 C6.10359375 302.12109375 5.77359375 302.12109375 5.43359375 302.12109375 Z M-263.56640625 375.12109375 C-274.28709509 409.81975183 -278.405552 456.58392939 -262.56640625 490.12109375 C-258.22611451 497.15185873 -254.10908929 501.66721062 -246.06640625 504.12109375 C-224.44669281 508.68255639 -199.91230448 495.38338785 -182.31640625 483.97729492 C-173.05244681 477.79430891 -164.13385512 471.23538827 -155.56640625 464.12109375 C-154.69218018 463.39913818 -154.69218018 463.39913818 -153.80029297 462.66259766 C-148.18155059 458.01002904 -142.66817928 453.34456045 -137.56640625 448.12109375 C-138.28828125 447.23421875 -139.01015625 446.34734375 -139.75390625 445.43359375 C-140.15996094 444.93472656 -140.56601562 444.43585938 -140.984375 443.921875 C-143.07220008 441.54536299 -145.32642917 439.3543943 -147.56640625 437.12109375 C-158.17369094 425.84646333 -167.66878284 413.775908 -177.13671875 401.55078125 C-177.71067383 400.82987305 -178.28462891 400.10896484 -178.87597656 399.36621094 C-180.56640625 397.12109375 -180.56640625 397.12109375 -182.06152344 394.63378906 C-184.48188316 390.84335721 -186.17744868 388.55077533 -190.57006836 387.19189453 C-194.23573864 386.66893075 -197.87293148 386.37811269 -201.56640625 386.12109375 C-204.11492779 385.78326266 -206.66062225 385.42345743 -209.203125 385.04296875 C-210.52329397 384.85202747 -211.84352615 384.66152281 -213.16381836 384.47143555 C-228.76296439 382.18962618 -244.04892816 379.28973286 -259.38452148 375.5925293 C-261.52018179 375.05069561 -261.52018179 375.05069561 -263.56640625 375.12109375 Z M20.6171875 376.14453125 C19.68712891 376.36109375 18.75707031 376.57765625 17.79882812 376.80078125 C16.83267578 377.03023438 15.86652344 377.2596875 14.87109375 377.49609375 C3.00177857 380.2984578 -8.87373037 382.36977571 -20.94140625 384.12109375 C-24.34866682 384.61895831 -27.75540177 385.1177551 -31.15966797 385.63574219 C-33.478147 385.96605151 -35.80378682 386.24881243 -38.13330078 386.48925781 C-44.93244367 387.1927973 -44.93244367 387.1927973 -50.63671875 390.66796875 C-51.31476563 391.725 -51.9928125 392.78203125 -52.69140625 393.87109375 C-53.49561269 395.05459905 -54.30166923 396.23684886 -55.109375 397.41796875 C-55.50946777 398.02962891 -55.90956055 398.64128906 -56.32177734 399.27148438 C-58.39032086 402.34549099 -60.69764466 405.22364961 -63.00390625 408.12109375 C-63.46023438 408.70117188 -63.9165625 409.28125 -64.38671875 409.87890625 C-72.78613387 420.52605217 -81.73776886 430.67582356 -90.90234375 440.66796875 C-91.63710938 441.4775 -92.371875 442.28703125 -93.12890625 443.12109375 C-94.12083984 444.20390625 -94.12083984 444.20390625 -95.1328125 445.30859375 C-96.77319176 446.99738054 -96.77319176 446.99738054 -96.56640625 449.12109375 C-94.15126749 451.70306776 -91.28412418 453.86774779 -88.56640625 456.12109375 C-87.99760742 456.59546875 -87.42880859 457.06984375 -86.84277344 457.55859375 C-61.8108555 478.38598257 -28.26841463 505.36040189 6.171875 504.37109375 C13.31858276 503.58112951 18.80267777 501.84163702 23.43359375 496.12109375 C24.08457031 495.35539062 24.73554687 494.5896875 25.40625 493.80078125 C43.1178821 470.39003054 38.2684041 430.92352834 34.96484375 403.92724609 C33.61211548 394.23559456 31.59147702 384.66188329 29.43359375 375.12109375 C26.11542153 375.12109375 23.78400997 375.3945186 20.6171875 376.14453125 Z M-148.56640625 391.12109375 C-146.51343854 395.22702916 -143.9936092 398.32730663 -141.00390625 401.74609375 C-140.46741455 402.36564941 -139.93092285 402.98520508 -139.37817383 403.62353516 C-135.50752817 408.08022319 -131.57966808 412.48375772 -127.61328125 416.85546875 C-124.5552334 420.24033087 -121.55794199 423.67746097 -118.56640625 427.12109375 C-115.01159454 426.5581843 -113.63045157 425.44660122 -111.37890625 422.68359375 C-108.76215242 419.5446003 -106.0899203 416.49783972 -103.31640625 413.49609375 C-99.57258445 409.34561544 -96.0343808 405.06437177 -92.56640625 400.68359375 C-92.08526367 400.08015137 -91.60412109 399.47670898 -91.10839844 398.85498047 C-89.09987592 396.28966133 -87.60491999 394.23663497 -86.56640625 391.12109375 C-107.02640625 391.12109375 -127.48640625 391.12109375 -148.56640625 391.12109375 Z " fill="#61DAFB" transform="translate(629.56640625,93.87890625)"/>
<path d="M0 0 C10.36857773 8.08001778 17.01652395 21.00439558 19.984375 33.6015625 C21.78497446 50.93325853 18.86111715 65.65907055 8.34765625 79.734375 C-0.04923225 89.92167444 -12.94506518 98.5758719 -26.33984375 100.421875 C-37.7860596 101.19052599 -47.17109278 100.93937539 -58.015625 96.6015625 C-58.87542969 96.27414062 -59.73523438 95.94671875 -60.62109375 95.609375 C-74.22355758 89.6839774 -83.43788898 77.85142042 -89.35546875 64.6015625 C-94.71308579 50.26374038 -93.7454478 35.3989681 -88.28125 21.26953125 C-86.08192139 16.63329224 -83.14486444 12.6473755 -80.015625 8.6015625 C-79.273125 7.5703125 -78.530625 6.5390625 -77.765625 5.4765625 C-56.18561726 -17.08435468 -24.80944939 -17.21275753 0 0 Z " fill="#61DAFB" transform="translate(548.015625,316.3984375)"/>
</svg>
