<?xml version="1.0" encoding="UTF-8"?>
<svg version="1.1" xmlns="http://www.w3.org/2000/svg" width="286" height="176">
<path d="M0 0 C1.42505859 0.68642578 1.42505859 0.68642578 2.87890625 1.38671875 C14.21781769 7.38079044 22.96356286 16.82278206 31.8125 25.9375 C41.20821996 35.3860049 50.1351776 40.03920044 63.5 40.375 C76.37914938 40.03879731 85.42185987 35.90972118 94.40234375 26.4765625 C95.77503997 24.90280227 97.12453676 23.30826245 98.44140625 21.6875 C98.95574219 21.130625 99.47007812 20.57375 100 20 C100.66 20 101.32 20 102 20 C98.44424296 36.80903326 89.82764398 52.98002053 75.8515625 63.33203125 C57.32374342 75.19247601 35.46082802 77.69043196 14 73.8125 C7.31208144 72.26188833 1.15396286 70.03327431 -5 67 C-5.804375 66.60425781 -6.60875 66.20851563 -7.4375 65.80078125 C-18.66612208 59.65089448 -28.03312606 50.12071894 -36.875 41 C-41.48224471 36.28411345 -45.77577108 32.46048039 -52 30 C-52.77601562 29.68675781 -53.55203125 29.37351563 -54.3515625 29.05078125 C-65.12608668 25.27114658 -75.71922614 26.15878903 -86 31 C-92.58254171 34.93559372 -97.92139975 39.50642511 -102.66015625 45.53125 C-103.32337891 46.25828125 -103.32337891 46.25828125 -104 47 C-104.66 47 -105.32 47 -106 47 C-102.43331018 29.46377504 -92.95033008 12.9028413 -77.99609375 2.78125 C-54.61341678 -11.12031545 -24.35089518 -12.12534287 0 0 Z " fill="#02B8D7" transform="translate(179,14)"/>
<path d="M0 0 C4.85346865 4.32243935 9.40138446 8.9267428 13.93359375 13.58203125 C24.13123297 23.87819838 34.30863745 31.49052763 49.12109375 31.70703125 C61.07818337 31.55908076 71.10271032 27.40939141 79.55859375 18.77734375 C81.12064863 17.01001883 82.65614355 15.21863899 84.15625 13.3984375 C85.03603516 12.43744141 85.03603516 12.43744141 85.93359375 11.45703125 C86.59359375 11.45703125 87.25359375 11.45703125 87.93359375 11.45703125 C84.33138579 29.16788705 74.79697081 45.49698058 59.75390625 55.7421875 C41.12541547 67.06892912 18.50254129 69.25780363 -2.5390625 64.4296875 C-21.53158103 59.19254784 -34.29564753 48.53336793 -47.69140625 34.70703125 C-57.50727193 24.78290234 -67.57205776 18.44731638 -81.69140625 18.14453125 C-94.20231006 18.26218865 -104.15708597 23.4983605 -113.00390625 32.14453125 C-115.00019237 34.1974496 -116.45982038 36.04715244 -118.06640625 38.45703125 C-118.72640625 38.45703125 -119.38640625 38.45703125 -120.06640625 38.45703125 C-116.27863184 20.55118858 -106.91593668 3.91850009 -91.50390625 -6.35546875 C-64.6292761 -23.39476666 -24.22614808 -20.09072917 0 0 Z " fill="#02B8D7" transform="translate(124.06640625,104.54296875)"/>
<path d="M0 0 C0.66 0 1.32 0 2 0 C-1.07266389 14.5253202 -7.83658301 27.23519739 -18 38 C-18.33 36.68 -18.66 35.36 -19 34 C-18.34 34 -17.68 34 -17 34 C-17.495 32.515 -17.495 32.515 -18 31 C-17.360625 30.855625 -16.72125 30.71125 -16.0625 30.5625 C-14.02454854 30.18992819 -14.02454854 30.18992819 -13 29 C-13.66 28.67 -14.32 28.34 -15 28 C-15 26.35 -15 24.7 -15 23 C-13.68 23.33 -12.36 23.66 -11 24 C-11.18129815 20.56206661 -11.18129815 20.56206661 -12 17 C-13.97742781 15.73990208 -13.97742781 15.73990208 -16 15 C-15.43152344 14.5875 -14.86304688 14.175 -14.27734375 13.75 C-9.35019382 10.06491958 -5.26426132 6.30559271 -1.41015625 1.50390625 C-0.71212891 0.75947266 -0.71212891 0.75947266 0 0 Z " fill="#0AB5D6" transform="translate(279,34)"/>
<path d="M0 0 C0.33 1.32 0.66 2.64 1 4 C0.34 4 -0.32 4 -1 4 C-0.34 7.3 0.32 10.6 1 14 C0.01 14 -0.98 14 -2 14 C-0.68 14.99 0.64 15.98 2 17 C1.31292969 17.60328125 0.62585938 18.2065625 -0.08203125 18.828125 C-0.98308594 19.62734375 -1.88414063 20.4265625 -2.8125 21.25 C-3.70582031 22.03890625 -4.59914063 22.8278125 -5.51953125 23.640625 C-8.00569534 25.86949988 -8.00569534 25.86949988 -9.69921875 28.296875 C-10.12847656 28.85890625 -10.55773437 29.4209375 -11 30 C-11.66 30 -12.32 30 -13 30 C-10.82181658 19.29059819 -6.05455626 9.08183439 0 0 Z " fill="#0FB3D0" transform="translate(86,31)"/>
<path d="M0 0 C0.66 0 1.32 0 2 0 C0.14734097 7.78719283 -2.4827877 14.81265312 -6 22 C-6.33 22 -6.66 22 -7 22 C-7.33 20.35 -7.66 18.7 -8 17 C-9.093125 17.33 -10.18625 17.66 -11.3125 18 C-15.41463663 19.11244383 -17.98605149 19.10729614 -22 18 C-21.21496094 17.57589844 -20.42992187 17.15179688 -19.62109375 16.71484375 C-12.16581331 12.55269332 -6.29313274 8.42869575 -1.1875 1.5625 C-0.795625 1.046875 -0.40375 0.53125 0 0 Z " fill="#13B2CD" transform="translate(210,116)"/>
<path d="M0 0 C0.66 0 1.32 0 2 0 C0.50865808 7.04998001 -2.12115193 13.40721817 -5 20 C-5.1546875 19.0409375 -5.1546875 19.0409375 -5.3125 18.0625 C-5.539375 17.381875 -5.76625 16.70125 -6 16 C-6.99 15.67 -7.98 15.34 -9 15 C-8.67 14.34 -8.34 13.68 -8 13 C-8.763125 13.515625 -9.52625 14.03125 -10.3125 14.5625 C-11.199375 15.036875 -12.08625 15.51125 -13 16 C-13.99 15.67 -14.98 15.34 -16 15 C-15.43152344 14.5875 -14.86304688 14.175 -14.27734375 13.75 C-9.35019382 10.06491958 -5.26426132 6.30559271 -1.41015625 1.50390625 C-0.71212891 0.75947266 -0.71212891 0.75947266 0 0 Z " fill="#16AFCA" transform="translate(279,34)"/>
<path d="M0 0 C0.6875 1.625 0.6875 1.625 1 4 C-0.4375 7.25 -0.4375 7.25 -2 10 C-1.01 9.67 -0.02 9.34 1 9 C1 9.99 1 10.98 1 12 C1.66 12.33 2.32 12.66 3 13 C2.44570312 13.54269531 1.89140625 14.08539063 1.3203125 14.64453125 C0.23363281 15.71767578 0.23363281 15.71767578 -0.875 16.8125 C-1.59429688 17.52019531 -2.31359375 18.22789062 -3.0546875 18.95703125 C-5.15358937 21.04399194 -5.15358937 21.04399194 -7 24 C-7.66 24 -8.32 24 -9 24 C-7.21335481 15.55404092 -3.94384233 7.6685823 0 0 Z " fill="#16B1CD" transform="translate(13,119)"/>
<path d="M0 0 C-0.33 1.32 -0.66 2.64 -1 4 C-1.886875 3.2575 -2.77375 2.515 -3.6875 1.75 C-12.09794216 -4.20174435 -22.87399287 -6.34837171 -33 -5 C-38.86156504 -3.48870492 -44.3950215 -1.2582672 -50 1 C-49.34 0.01 -48.68 -0.98 -48 -2 C-47.34 -2 -46.68 -2 -46 -2 C-46 -2.66 -46 -3.32 -46 -4 C-29.22727733 -9.52513217 -15.39665076 -8.22273447 0 0 Z " fill="#26ADC0" transform="translate(138,46)"/>
<path d="M0 0 C2.33294775 -0.04241723 4.66702567 -0.04092937 7 0 C7.33 0.33 7.66 0.66 8 1 C10.32817964 1.36760731 12.6618385 1.70241581 15 2 C15 2.66 15 3.32 15 4 C25.56 4 36.12 4 47 4 C47 4.33 47 4.66 47 5 C30.84240318 7.25878467 15.48573965 6.39654563 0 1 C0 0.67 0 0.34 0 0 Z " fill="#2DB0C9" transform="translate(112,165)"/>
<path d="M0 0 C0.87011719 0.00451172 1.74023438 0.00902344 2.63671875 0.01367188 C4.75784293 0.0253264 6.8789311 0.04325643 9 0.0625 C9 0.3925 9 0.7225 9 1.0625 C3.06 1.0625 -2.88 1.0625 -9 1.0625 C-9.33 2.3825 -9.66 3.7025 -10 5.0625 C-10.99 4.7325 -11.98 4.4025 -13 4.0625 C-16.92157951 3.83625503 -19.89646089 4.0326667 -23.6875 5.125 C-26.97925585 6.05662901 -27.90438903 6.02692782 -31 5.0625 C-29.00283825 4.40794241 -27.00209613 3.7643057 -25 3.125 C-23.88625 2.76535156 -22.7725 2.40570313 -21.625 2.03515625 C-14.39414223 0.09497997 -7.43301274 -0.07421595 0 0 Z " fill="#23AFC8" transform="translate(74,87.9375)"/>
<path d="M0 0 C1.22419163 3.93795909 0.48320272 6.16112237 -1 10 C0.65 9.67 2.3 9.34 4 9 C3.60167969 9.45890625 3.20335938 9.9178125 2.79296875 10.390625 C-0.60015709 14.31674827 -0.60015709 14.31674827 -3.75 18.4375 C-4.1625 18.953125 -4.575 19.46875 -5 20 C-5.66 20 -6.32 20 -7 20 C-5.27068234 12.99102311 -3.16032658 6.49711809 0 0 Z " fill="#23ACC2" transform="translate(80,41)"/>
<path d="M0 0 C0.66 0.33 1.32 0.66 2 1 C1.01 2.485 1.01 2.485 0 4 C-0.66 4 -1.32 4 -2 4 C-2.33 5.98 -2.66 7.96 -3 10 C-3.99 9.34 -4.98 8.68 -6 8 C-8.2773501 10.81509993 -8.2773501 10.81509993 -8 14 C-9.65 14.33 -11.3 14.66 -13 15 C-13 15.99 -13 16.98 -13 18 C-13.99 18.33 -14.98 18.66 -16 19 C-14.55930366 14.54841018 -12.29108316 11.7853507 -9.125 8.375 C-8.26132812 7.43398437 -7.39765625 6.49296875 -6.5078125 5.5234375 C-4.4276574 3.43032194 -2.41772591 1.67554028 0 0 Z M-6 10 C-4 11 -4 11 -4 11 Z " fill="#1DAEC5" transform="translate(30,100)"/>
<path d="M0 0 C0.66 0.33 1.32 0.66 2 1 C-4.82995125 5.34633262 -10.21661831 7.50988887 -18.25 7.375 C-18.95640625 7.38660156 -19.6628125 7.39820313 -20.390625 7.41015625 C-25.50358587 7.38110534 -25.50358587 7.38110534 -27.984375 5.4765625 C-28.31953125 4.98929688 -28.6546875 4.50203125 -29 4 C-27.81664062 4.03480469 -26.63328125 4.06960937 -25.4140625 4.10546875 C-12.91802844 4.44031287 -12.91802844 4.44031287 -1 1 C-0.67 0.67 -0.34 0.34 0 0 Z " fill="#25ACC3" transform="translate(261,50)"/>
<path d="M0 0 C0 0.99 0 1.98 0 3 C-1.32 3 -2.64 3 -4 3 C-4.06058594 3.57234375 -4.12117188 4.1446875 -4.18359375 4.734375 C-5.3479836 7.96569611 -7.35355712 9.19257503 -10.0625 11.25 C-10.98160156 11.95640625 -11.90070313 12.6628125 -12.84765625 13.390625 C-13.91306641 14.18726563 -13.91306641 14.18726563 -15 15 C-15.66 14.67 -16.32 14.34 -17 14 C-5.62944162 0 -5.62944162 0 0 0 Z " fill="#1FADC6" transform="translate(104,16)"/>
<path d="M0 0 C0.721875 0.185625 1.44375 0.37125 2.1875 0.5625 C5.12826973 1.01995307 7.14103058 0.73516357 10 0 C3.92284644 4.88966379 -3.28430471 7.32906997 -11 8 C-11 7.34 -11 6.68 -11 6 C-9.68 6 -8.36 6 -7 6 C-6.67 5.34 -6.34 4.68 -6 4 C-5.67 3.67 -5.34 3.34 -5 3 C-4.67 2.34 -4.34 1.68 -4 1 C-3.34 1 -2.68 1 -2 1 C-2 1.99 -2 2.98 -2 4 C-1.34 4 -0.68 4 0 4 C0 2.68 0 1.36 0 0 Z " fill="#1EAFC9" transform="translate(171,161)"/>
<path d="M0 0 C1.15757813 -0.01611328 2.31515625 -0.03222656 3.5078125 -0.04882812 C4.61125 -0.04947266 5.7146875 -0.05011719 6.8515625 -0.05078125 C7.86299316 -0.05376221 8.87442383 -0.05674316 9.91650391 -0.05981445 C10.72780762 0.06304932 11.53911133 0.18591309 12.375 0.3125 C13.035 1.3025 13.695 2.2925 14.375 3.3125 C13.34375 3.1475 12.3125 2.9825 11.25 2.8125 C1.79710376 1.65397453 -7.43216049 1.77654427 -16.625 4.3125 C-16.625 3.6525 -16.625 2.9925 -16.625 2.3125 C-11.47186249 -0.77400666 -5.82919733 -0.01633744 0 0 Z " fill="#28ADC6" transform="translate(42.625,120.6875)"/>
<path d="M0 0 C0.33 0 0.66 0 1 0 C1 1.98 1 3.96 1 6 C1.99 6.33 2.98 6.66 4 7 C3.04882866 8.1725131 2.08882991 9.33787015 1.125 10.5 C0.59132813 11.1496875 0.05765625 11.799375 -0.4921875 12.46875 C-0.98976563 12.9740625 -1.48734375 13.479375 -2 14 C-2.66 14 -3.32 14 -4 14 C-2.85248597 9.2460133 -1.61737483 4.62107093 0 0 Z " fill="#1FADC8" transform="translate(8,129)"/>
<path d="M0 0 C0.99 0.33 1.98 0.66 3 1 C3 1.33 3 1.66 3 2 C3.99 2.33 4.98 2.66 6 3 C4.71186658 3.83878455 3.41936744 4.67086783 2.125 5.5 C1.40570312 5.9640625 0.68640625 6.428125 -0.0546875 6.90625 C-2 8 -2 8 -4 8 C-3.67 6.35 -3.34 4.7 -3 3 C-2.01 2.67 -1.02 2.34 0 2 C0 1.34 0 0.68 0 0 Z " fill="#15B2CB" transform="translate(20,123)"/>
<path d="M0 0 C0.99 0.33 1.98 0.66 3 1 C1.58531689 1.96125903 0.1681636 2.91888325 -1.25 3.875 C-2.03890625 4.40867187 -2.8278125 4.94234375 -3.640625 5.4921875 C-7.74333925 8.11412078 -7.74333925 8.11412078 -10 9 C-10.99 8.67 -11.98 8.34 -13 8 C-12.360625 7.896875 -11.72125 7.79375 -11.0625 7.6875 C-10.381875 7.460625 -9.70125 7.23375 -9 7 C-8.67 6.01 -8.34 5.02 -8 4 C-6.68 4 -5.36 4 -4 4 C-4 3.34 -4 2.68 -4 2 C-2.68 2 -1.36 2 0 2 C0 1.34 0 0.68 0 0 Z " fill="#26AFC2" transform="translate(253,75)"/>
<path d="M0 0 C1.31611677 0.95336021 2.62778961 1.91285774 3.9375 2.875 C4.66839844 3.40867188 5.39929688 3.94234375 6.15234375 4.4921875 C8 6 8 6 9 8 C6.69 7.67 4.38 7.34 2 7 C1.34 4.69 0.68 2.38 0 0 Z " fill="#1BADCC" transform="translate(209,39)"/>
<path d="M0 0 C0.66 0.33 1.32 0.66 2 1 C-0.64 3.97 -3.28 6.94 -6 10 C-6.33 8.68 -6.66 7.36 -7 6 C-6.34 6 -5.68 6 -5 6 C-5.33 5.01 -5.66 4.02 -6 3 C-5.38125 2.87625 -4.7625 2.7525 -4.125 2.625 C-1.80879168 2.12802644 -1.80879168 2.12802644 0 0 Z " fill="#22AFC4" transform="translate(267,62)"/>
<path d="M0 0 C0 0.66 0 1.32 0 2 C-2.61373889 4.53906064 -4.12889581 5.92256852 -7.8125 6.25 C-8.534375 6.1675 -9.25625 6.085 -10 6 C-4.4 0 -4.4 0 0 0 Z " fill="#21AEC4" transform="translate(42,94)"/>
<path d="M0 0 C0.66 0.33 1.32 0.66 2 1 C1.01 2.485 1.01 2.485 0 4 C-0.66 4 -1.32 4 -2 4 C-2.33 5.98 -2.66 7.96 -3 10 C-4.0625 8.1875 -4.0625 8.1875 -5 6 C-3.86695008 2.60085025 -2.87481525 1.94745549 0 0 Z M-6 10 C-4 11 -4 11 -4 11 Z " fill="#14B2CD" transform="translate(30,100)"/>
<path d="M0 0 C1.46067199 0.45082469 2.91848032 0.91093537 4.375 1.375 C5.18710938 1.63023438 5.99921875 1.88546875 6.8359375 2.1484375 C9 3 9 3 11 5 C9.54052295 4.93993922 8.08220728 4.8511311 6.625 4.75 C5.81289062 4.70359375 5.00078125 4.6571875 4.1640625 4.609375 C2 4 2 4 0.7109375 1.953125 C0.47632813 1.30859375 0.24171875 0.6640625 0 0 Z " fill="#21ABC2" transform="translate(170,11)"/>
<path d="M0 0 C0.66 0 1.32 0 2 0 C1.34 2.64 0.68 5.28 0 8 C-0.66 7.34 -1.32 6.68 -2 6 C-2.99 6 -3.98 6 -5 6 C-3.38405168 3.95880212 -1.7143618 1.95927063 0 0 Z " fill="#31AFC6" transform="translate(210,116)"/>
<path d="M0 0 C1.32 0 2.64 0 4 0 C6.0380879 2.82196786 7.44706423 5.89412846 9 9 C7.87105124 8.06725891 6.74699124 7.12859878 5.625 6.1875 C4.99851563 5.66542969 4.37203125 5.14335938 3.7265625 4.60546875 C2 3 2 3 0 0 Z " fill="#2BADC0" transform="translate(144,56)"/>
<path d="M0 0 C0.33 0.99 0.66 1.98 1 3 C1.66 3.33 2.32 3.66 3 4 C1.625 6 1.625 6 0 8 C-0.66 8 -1.32 8 -2 8 C-1.34 5.36 -0.68 2.72 0 0 Z " fill="#3FABBB" transform="translate(6,135)"/>
<path d="M0 0 C1.14926266 0.95421808 2.29430541 1.91352045 3.4375 2.875 C4.07558594 3.40867187 4.71367187 3.94234375 5.37109375 4.4921875 C7 6 7 6 8 8 C6.68 8 5.36 8 4 8 C2.09080647 5.38369776 1.02455574 3.07366722 0 0 Z " fill="#22AAC0" transform="translate(127,108)"/>
<path d="M0 0 C0.66 0 1.32 0 2 0 C1.34 2.64 0.68 5.28 0 8 C-0.33 7.01 -0.66 6.02 -1 5 C-1.66 4.67 -2.32 4.34 -3 4 C-1.625 2 -1.625 2 0 0 Z " fill="#3FAABB" transform="translate(279,34)"/>
<path d="M0 0 C2.25 -0.25 2.25 -0.25 5 0 C7.3125 2 7.3125 2 9 4 C5.30581799 4 3.22163822 2.71820705 0 1 C0 0.67 0 0.34 0 0 Z " fill="#21AEC3" transform="translate(57,124)"/>
<path d="M0 0 C5.75 1.75 5.75 1.75 8 4 C6.02 4.33 4.04 4.66 2 5 C1.34 3.35 0.68 1.7 0 0 Z " fill="#1BACC4" transform="translate(107,95)"/>
<path d="M0 0 C1.98 0.66 3.96 1.32 6 2 C5.67 3.32 5.34 4.64 5 6 C3.31237149 4.3545622 1.6459651 2.68711423 0 1 C0 0.67 0 0.34 0 0 Z " fill="#13B2C7" transform="translate(132,44)"/>
<path d="M0 0 C3.26460973 1.80412643 4.88929795 2.83394693 7 6 C5.35 6 3.7 6 2 6 C2 4.68 2 3.36 2 2 C1.34 2 0.68 2 0 2 C0 1.34 0 0.68 0 0 Z " fill="#20ACC3" transform="translate(194,25)"/>
</svg>
